<svg version="1.1" viewBox="0.0 0.0 576.0 356.0" fill="none" stroke="none" stroke-linecap="square" stroke-miterlimit="10" width="576" height="356" xmlns:xlink="http://www.w3.org/1999/xlink" xmlns="http://www.w3.org/2000/svg"><path fill="#ffffff" d="M0 0L576.0 0L576.0 356.0L0 356.0L0 0Z" fill-rule="nonzero"/><path stroke="#333333" stroke-width="1.0" stroke-linecap="butt" d="M107.5 24.5L107.5 286.5" fill-rule="nonzero"/><path stroke="#cccccc" stroke-width="1.0" stroke-linecap="butt" d="M207.5 24.5L207.5 286.5" fill-rule="nonzero"/><path stroke="#cccccc" stroke-width="1.0" stroke-linecap="butt" d="M308.5 24.5L308.5 286.5" fill-rule="nonzero"/><path stroke="#cccccc" stroke-width="1.0" stroke-linecap="butt" d="M409.5 24.5L409.5 286.5" fill-rule="nonzero"/><path stroke="#cccccc" stroke-width="1.0" stroke-linecap="butt" d="M510.5 24.5L510.5 286.5" fill-rule="nonzero"/><path stroke="#e6e6e6" stroke-width="1.0" stroke-linecap="butt" d="M82.5 24.5L82.5 286.5" fill-rule="nonzero"/><path stroke="#e6e6e6" stroke-width="1.0" stroke-linecap="butt" d="M132.5 24.5L132.5 286.5" fill-rule="nonzero"/><path stroke="#e6e6e6" stroke-width="1.0" stroke-linecap="butt" d="M157.5 24.5L157.5 286.5" fill-rule="nonzero"/><path stroke="#e6e6e6" stroke-width="1.0" stroke-linecap="butt" d="M182.5 24.5L182.5 286.5" fill-rule="nonzero"/><path stroke="#e6e6e6" stroke-width="1.0" stroke-linecap="butt" d="M233.5 24.5L233.5 286.5" fill-rule="nonzero"/><path stroke="#e6e6e6" stroke-width="1.0" stroke-linecap="butt" d="M258.5 24.5L258.5 286.5" fill-rule="nonzero"/><path stroke="#e6e6e6" stroke-width="1.0" stroke-linecap="butt" d="M283.5 24.5L283.5 286.5" fill-rule="nonzero"/><path stroke="#e6e6e6" stroke-width="1.0" stroke-linecap="butt" d="M333.5 24.5L333.5 286.5" fill-rule="nonzero"/><path stroke="#e6e6e6" stroke-width="1.0" stroke-linecap="butt" d="M359.5 24.5L359.5 286.5" fill-rule="nonzero"/><path stroke="#e6e6e6" stroke-width="1.0" stroke-linecap="butt" d="M384.5 24.5L384.5 286.5" fill-rule="nonzero"/><path stroke="#e6e6e6" stroke-width="1.0" stroke-linecap="butt" d="M434.5 24.5L434.5 286.5" fill-rule="nonzero"/><path stroke="#e6e6e6" stroke-width="1.0" stroke-linecap="butt" d="M459.5 24.5L459.5 286.5" fill-rule="nonzero"/><path stroke="#e6e6e6" stroke-width="1.0" stroke-linecap="butt" d="M484.5 24.5L484.5 286.5" fill-rule="nonzero"/><path stroke="#e6e6e6" stroke-width="1.0" stroke-linecap="butt" d="M535.5 24.5L535.5 286.5" fill-rule="nonzero"/><path stroke="#333333" stroke-width="1.0" stroke-linecap="butt" d="M76.5 286.5L558.5 286.5" fill-rule="nonzero"/><path stroke="#cccccc" stroke-width="1.0" stroke-linecap="butt" d="M76.5 220.5L558.5 220.5" fill-rule="nonzero"/><path stroke="#cccccc" stroke-width="1.0" stroke-linecap="butt" d="M76.5 155.5L558.5 155.5" fill-rule="nonzero"/><path stroke="#cccccc" stroke-width="1.0" stroke-linecap="butt" d="M76.5 90.5L558.5 90.5" fill-rule="nonzero"/><path stroke="#cccccc" stroke-width="1.0" stroke-linecap="butt" d="M76.5 24.5L558.5 24.5" fill-rule="nonzero"/><path stroke="#e6e6e6" stroke-width="1.0" stroke-linecap="butt" d="M76.5 269.5L558.5 269.5" fill-rule="nonzero"/><path stroke="#e6e6e6" stroke-width="1.0" stroke-linecap="butt" d="M76.5 253.5L558.5 253.5" fill-rule="nonzero"/><path stroke="#e6e6e6" stroke-width="1.0" stroke-linecap="butt" d="M76.5 237.5L558.5 237.5" fill-rule="nonzero"/><path stroke="#e6e6e6" stroke-width="1.0" stroke-linecap="butt" d="M76.5 204.5L558.5 204.5" fill-rule="nonzero"/><path stroke="#e6e6e6" stroke-width="1.0" stroke-linecap="butt" d="M76.5 188.5L558.5 188.5" fill-rule="nonzero"/><path stroke="#e6e6e6" stroke-width="1.0" stroke-linecap="butt" d="M76.5 171.5L558.5 171.5" fill-rule="nonzero"/><path stroke="#e6e6e6" stroke-width="1.0" stroke-linecap="butt" d="M76.5 139.5L558.5 139.5" fill-rule="nonzero"/><path stroke="#e6e6e6" stroke-width="1.0" stroke-linecap="butt" d="M76.5 122.5L558.5 122.5" fill-rule="nonzero"/><path stroke="#e6e6e6" stroke-width="1.0" stroke-linecap="butt" d="M76.5 106.5L558.5 106.5" fill-rule="nonzero"/><path stroke="#e6e6e6" stroke-width="1.0" stroke-linecap="butt" d="M76.5 73.5L558.5 73.5" fill-rule="nonzero"/><path stroke="#e6e6e6" stroke-width="1.0" stroke-linecap="butt" d="M76.5 57.5L558.5 57.5" fill-rule="nonzero"/><path stroke="#e6e6e6" stroke-width="1.0" stroke-linecap="butt" d="M76.5 41.5L558.5 41.5" fill-rule="nonzero"/><clipPath id="id_0"><path d="M76.8 24.8L558.2 24.8L558.2 286.2L76.8 286.2L76.8 24.8Z" clip-rule="nonzero"/></clipPath><path fill="#ea4335" fill-opacity="0.8" clip-path="url(#id_0)" d="M116.75648 278.358C116.75648 283.1927 112.8372 287.11197 108.00251 287.11197C103.16783 287.11197 99.24855 283.1927 99.24855 278.358C99.24855 273.52332 103.16783 269.60403 108.00251 269.60403C112.8372 269.60403 116.75648 273.52332 116.75648 278.358Z" fill-rule="nonzero"/><path fill="#fbbc04" fill-opacity="0.8" clip-path="url(#id_0)" d="M127.24175 155.5C127.24175 166.12553 118.62805 174.73924 108.00251 174.73924C97.376976 174.73924 88.763275 166.12553 88.763275 155.5C88.763275 144.87447 97.376976 136.26076 108.00251 136.26076C118.62805 136.26076 127.24175 144.87447 127.24175 155.5Z" fill-rule="nonzero"/><path fill="#34a853" fill-opacity="0.8" clip-path="url(#id_0)" d="M116.419975 286.2C116.419975 289.5137 113.73368 292.2 110.419975 292.2C107.10626 292.2 104.419975 289.5137 104.419975 286.2C104.419975 282.8863 107.10626 280.2 110.419975 280.2C113.73368 280.2 116.419975 282.8863 116.419975 286.2Z" fill-rule="nonzero"/><path fill="#ff6d01" fill-opacity="0.8" clip-path="url(#id_0)" d="M123.54283 278.358C123.54283 283.82538 119.11064 288.25757 113.64326 288.25757C108.175865 288.25757 103.743675 283.82538 103.743675 278.358C103.743675 272.89062 108.175865 268.45844 113.64326 268.45844C119.11064 268.45844 123.54283 272.89062 123.54283 278.358Z" fill-rule="nonzero"/><path fill="#46bdc6" fill-opacity="0.8" clip-path="url(#id_0)" d="M149.31133 207.78C149.31133 216.79793 142.00085 224.1084 132.98294 224.1084C123.96501 224.1084 116.65454 216.79793 116.65454 207.78C116.65454 198.76207 123.96501 191.4516 132.98294 191.4516C142.00085 191.4516 149.31133 198.76207 149.31133 207.78Z" fill-rule="nonzero"/><path fill="#7baaf7" fill-opacity="0.8" clip-path="url(#id_0)" d="M170.4239 278.358C170.4239 284.79474 165.2059 290.01273 158.76918 290.01273C152.33244 290.01273 147.11444 284.79474 147.11444 278.358C147.11444 271.92126 152.33244 266.70328 158.76918 266.70328C165.2059 266.70328 170.4239 271.92126 170.4239 278.358Z" fill-rule="nonzero"/><path fill="#f07b72" fill-opacity="0.8" clip-path="url(#id_0)" d="M176.15086 207.78C176.15086 217.37964 168.36882 225.1617 158.76918 225.1617C149.16953 225.1617 141.38748 217.37964 141.38748 207.78C141.38748 198.18036 149.16953 190.3983 158.76918 190.3983C168.36882 190.3983 176.15086 198.18036 176.15086 207.78Z" fill-rule="nonzero"/><path fill="#fcd04f" fill-opacity="0.8" clip-path="url(#id_0)" d="M179.37703 155.5C179.37703 166.88141 170.15057 176.10786 158.76918 176.10786C147.38777 176.10786 138.16132 166.88141 138.16132 155.5C138.16132 144.11859 147.38777 134.89214 158.76918 134.89214C170.15057 134.89214 179.37703 144.11859 179.37703 155.5Z" fill-rule="nonzero"/><path fill="#71c287" fill-opacity="0.8" clip-path="url(#id_0)" d="M234.33928 155.5C234.33928 168.75352 223.59518 179.49762 210.34166 179.49762C197.08813 179.49762 186.34402 168.75352 186.34402 155.5C186.34402 142.24648 197.08813 131.50238 210.34166 131.50238C223.59518 131.50238 234.33928 142.24648 234.33928 155.5Z" fill-rule="nonzero"/><path fill="#ff994d" fill-opacity="0.8" clip-path="url(#id_0)" d="M241.34166 24.8C241.34166 41.920826 227.46248 55.8 210.34166 55.8C193.22083 55.8 179.34166 41.920826 179.34166 24.8C179.34166 7.679173 193.22083 -6.2 210.34166 -6.2C227.46248 -6.2 241.34166 7.679173 241.34166 24.8Z" fill-rule="nonzero"/><path fill="#7ed1d7" fill-opacity="0.8" clip-path="url(#id_0)" d="M330.52838 278.358C330.52838 287.7699 322.89853 295.39975 313.4866 295.39975C304.0747 295.39975 296.44485 287.7699 296.44485 278.358C296.44485 268.9461 304.0747 261.31622 313.4866 261.31622C322.89853 261.31622 330.52838 268.9461 330.52838 278.358Z" fill-rule="nonzero"/><path fill="#b3cefb" fill-opacity="0.8" clip-path="url(#id_0)" d="M343.3957 207.78C343.3957 224.29832 330.00494 237.68906 313.4866 237.68906C296.9683 237.68906 283.57755 224.29832 283.57755 207.78C283.57755 191.26169 296.9683 177.87094 313.4866 177.87094C330.00494 177.87094 343.3957 191.26169 343.3957 207.78Z" fill-rule="nonzero"/><path fill="#f7b4ae" fill-opacity="0.8" clip-path="url(#id_0)" d="M543.23676 278.358C543.23676 291.3147 532.7333 301.8182 519.77655 301.8182C506.81982 301.8182 496.31635 291.3147 496.31635 278.358C496.31635 265.40128 506.81982 254.8978 519.77655 254.8978C532.7333 254.8978 543.23676 265.40128 543.23676 278.358Z" fill-rule="nonzero"/><path stroke="#ffffff" stroke-width="3.0" stroke-linejoin="round" stroke-linecap="round" clip-path="url(#id_0)" d="M111.049385 282.1705L111.049385 283.358L104.424385 283.358Q104.40876 282.9205 104.56501 282.49863Q104.830635 281.82675 105.37751 281.1705Q105.94001 280.51425 106.986885 279.65488Q108.62751 278.31113 109.19001 277.52988Q109.768135 276.74863 109.768135 276.0455Q109.768135 275.31113 109.236885 274.81113Q108.72126 274.31113 107.893135 274.31113Q107.00251 274.31113 106.455635 274.84238Q105.924385 275.37363 105.924385 276.32675L104.65876 276.18613Q104.78376 274.77988 105.62751 274.0455Q106.486885 273.2955 107.90876 273.2955Q109.361885 273.2955 110.19001 274.09238Q111.03376 274.88925 111.03376 276.07675Q111.03376 276.68613 110.78376 277.26425Q110.549385 277.84238 109.97126 278.483Q109.40876 279.12363 108.080635 280.24863Q106.97126 281.1705 106.65876 281.51425Q106.34626 281.84238 106.143135 282.1705L111.049385 282.1705Z" fill-rule="nonzero"/><path fill="#1a1a1a" clip-path="url(#id_0)" d="M111.049385 282.1705L111.049385 283.358L104.424385 283.358Q104.40876 282.9205 104.56501 282.49863Q104.830635 281.82675 105.37751 281.1705Q105.94001 280.51425 106.986885 279.65488Q108.62751 278.31113 109.19001 277.52988Q109.768135 276.74863 109.768135 276.0455Q109.768135 275.31113 109.236885 274.81113Q108.72126 274.31113 107.893135 274.31113Q107.00251 274.31113 106.455635 274.84238Q105.924385 275.37363 105.924385 276.32675L104.65876 276.18613Q104.78376 274.77988 105.62751 274.0455Q106.486885 273.2955 107.90876 273.2955Q109.361885 273.2955 110.19001 274.09238Q111.03376 274.88925 111.03376 276.07675Q111.03376 276.68613 110.78376 277.26425Q110.549385 277.84238 109.97126 278.483Q109.40876 279.12363 108.080635 280.24863Q106.97126 281.1705 106.65876 281.51425Q106.34626 281.84238 106.143135 282.1705L111.049385 282.1705Z" fill-rule="nonzero"/><path stroke="#ffffff" stroke-width="3.0" stroke-linejoin="round" stroke-linecap="round" clip-path="url(#id_0)" d="M104.53376 160.5L104.53376 158.09375L100.174385 158.09375L100.174385 156.96875L104.75251 150.48438L105.75251 150.48438L105.75251 156.96875L107.111885 156.96875L107.111885 158.09375L105.75251 158.09375L105.75251 160.5L104.53376 160.5ZM104.53376 156.96875L104.53376 152.45312L101.393135 156.96875L104.53376 156.96875ZM114.97126 152.9375L113.75251 153.03125Q113.580635 152.29688 113.28376 151.96875Q112.78376 151.45312 112.049385 151.45312Q111.455635 151.45312 111.018135 151.78125Q110.44001 152.20312 110.09626 153.01562Q109.768135 153.82812 109.75251 155.32812Q110.19001 154.65625 110.830635 154.32812Q111.486885 154.0 112.19001 154.0Q113.424385 154.0 114.28376 154.90625Q115.143135 155.8125 115.143135 157.25Q115.143135 158.1875 114.736885 159.0Q114.330635 159.8125 113.611885 160.25Q112.90876 160.67188 112.00251 160.67188Q110.47126 160.67188 109.50251 159.54688Q108.53376 158.40625 108.53376 155.8125Q108.53376 152.90625 109.59626 151.57812Q110.53376 150.4375 112.12751 150.4375Q113.31501 150.4375 114.06501 151.10938Q114.81501 151.76562 114.97126 152.9375ZM109.94001 157.25Q109.94001 157.89062 110.205635 158.46875Q110.486885 159.04688 110.97126 159.35938Q111.455635 159.65625 111.986885 159.65625Q112.768135 159.65625 113.330635 159.03125Q113.893135 158.40625 113.893135 157.32812Q113.893135 156.28125 113.330635 155.6875Q112.78376 155.07812 111.94001 155.07812Q111.111885 155.07812 110.518135 155.6875Q109.94001 156.28125 109.94001 157.25Z" fill-rule="nonzero"/><path fill="#1a1a1a" clip-path="url(#id_0)" d="M104.53376 160.5L104.53376 158.09375L100.174385 158.09375L100.174385 156.96875L104.75251 150.48438L105.75251 150.48438L105.75251 156.96875L107.111885 156.96875L107.111885 158.09375L105.75251 158.09375L105.75251 160.5L104.53376 160.5ZM104.53376 156.96875L104.53376 152.45312L101.393135 156.96875L104.53376 156.96875ZM114.97126 152.9375L113.75251 153.03125Q113.580635 152.29688 113.28376 151.96875Q112.78376 151.45312 112.049385 151.45312Q111.455635 151.45312 111.018135 151.78125Q110.44001 152.20312 110.09626 153.01562Q109.768135 153.82812 109.75251 155.32812Q110.19001 154.65625 110.830635 154.32812Q111.486885 154.0 112.19001 154.0Q113.424385 154.0 114.28376 154.90625Q115.143135 155.8125 115.143135 157.25Q115.143135 158.1875 114.736885 159.0Q114.330635 159.8125 113.611885 160.25Q112.90876 160.67188 112.00251 160.67188Q110.47126 160.67188 109.50251 159.54688Q108.53376 158.40625 108.53376 155.8125Q108.53376 152.90625 109.59626 151.57812Q110.53376 150.4375 112.12751 150.4375Q113.31501 150.4375 114.06501 151.10938Q114.81501 151.76562 114.97126 152.9375ZM109.94001 157.25Q109.94001 157.89062 110.205635 158.46875Q110.486885 159.04688 110.97126 159.35938Q111.455635 159.65625 111.986885 159.65625Q112.768135 159.65625 113.330635 159.03125Q113.893135 158.40625 113.893135 157.32812Q113.893135 156.28125 113.330635 155.6875Q112.78376 155.07812 111.94001 155.07812Q111.111885 155.07812 110.518135 155.6875Q109.94001 156.28125 109.94001 157.25Z" fill-rule="nonzero"/><path stroke="#ffffff" stroke-width="3.0" stroke-linejoin="round" stroke-linecap="round" clip-path="url(#id_0)" d="M96.9981 286.2625Q96.9981 284.48126 97.357475 283.40314Q97.732475 282.3094 98.451225 281.73126Q99.169975 281.1375 100.263725 281.1375Q101.076225 281.1375 101.6856 281.46564Q102.294975 281.79376 102.6856 282.40314Q103.09185 283.0125 103.3106 283.8875Q103.52935 284.7625 103.52935 286.2625Q103.52935 288.02814 103.169975 289.10626Q102.8106 290.1844 102.09185 290.77814Q101.3731 291.3719 100.263725 291.3719Q98.826225 291.3719 97.9981 290.325Q96.9981 289.075 96.9981 286.2625ZM98.263725 286.2625Q98.263725 288.73126 98.84185 289.54376Q99.419975 290.35626 100.263725 290.35626Q101.1231 290.35626 101.701225 289.54376Q102.27935 288.71564 102.27935 286.2625Q102.27935 283.77814 101.701225 282.96564Q101.1231 282.15314 100.2481 282.15314Q99.40435 282.15314 98.90435 282.8719Q98.263725 283.79376 98.263725 286.2625ZM105.669975 291.2L105.669975 289.79376L107.0606 289.79376L107.0606 291.2Q107.0606 291.96564 106.77935 292.4344Q106.513725 292.91876 105.919975 293.1844L105.576225 292.65314Q105.96685 292.48126 106.15435 292.15314Q106.34185 291.825 106.357475 291.2L105.669975 291.2ZM108.9981 286.2625Q108.9981 284.48126 109.357475 283.40314Q109.732475 282.3094 110.451225 281.73126Q111.169975 281.1375 112.263725 281.1375Q113.076225 281.1375 113.6856 281.46564Q114.294975 281.79376 114.6856 282.40314Q115.09185 283.0125 115.3106 283.8875Q115.52935 284.7625 115.52935 286.2625Q115.52935 288.02814 115.169975 289.10626Q114.8106 290.1844 114.09185 290.77814Q113.3731 291.3719 112.263725 291.3719Q110.826225 291.3719 109.9981 290.325Q108.9981 289.075 108.9981 286.2625ZM110.263725 286.2625Q110.263725 288.73126 110.84185 289.54376Q111.419975 290.35626 112.263725 290.35626Q113.1231 290.35626 113.701225 289.54376Q114.27935 288.71564 114.27935 286.2625Q114.27935 283.77814 113.701225 282.96564Q113.1231 282.15314 112.2481 282.15314Q111.40435 282.15314 110.90435 282.8719Q110.263725 283.79376 110.263725 286.2625ZM121.638725 291.2L120.40435 291.2L120.40435 283.35626Q119.96685 283.77814 119.232475 284.21564Q118.513725 284.6375 117.951225 284.84064L117.951225 283.65314Q118.982475 283.16876 119.7481 282.48126Q120.52935 281.79376 120.84185 281.1375L121.638725 281.1375L121.638725 291.2Z" fill-rule="nonzero"/><path fill="#1a1a1a" clip-path="url(#id_0)" d="M96.9981 286.2625Q96.9981 284.48126 97.357475 283.40314Q97.732475 282.3094 98.451225 281.73126Q99.169975 281.1375 100.263725 281.1375Q101.076225 281.1375 101.6856 281.46564Q102.294975 281.79376 102.6856 282.40314Q103.09185 283.0125 103.3106 283.8875Q103.52935 284.7625 103.52935 286.2625Q103.52935 288.02814 103.169975 289.10626Q102.8106 290.1844 102.09185 290.77814Q101.3731 291.3719 100.263725 291.3719Q98.826225 291.3719 97.9981 290.325Q96.9981 289.075 96.9981 286.2625ZM98.263725 286.2625Q98.263725 288.73126 98.84185 289.54376Q99.419975 290.35626 100.263725 290.35626Q101.1231 290.35626 101.701225 289.54376Q102.27935 288.71564 102.27935 286.2625Q102.27935 283.77814 101.701225 282.96564Q101.1231 282.15314 100.2481 282.15314Q99.40435 282.15314 98.90435 282.8719Q98.263725 283.79376 98.263725 286.2625ZM105.669975 291.2L105.669975 289.79376L107.0606 289.79376L107.0606 291.2Q107.0606 291.96564 106.77935 292.4344Q106.513725 292.91876 105.919975 293.1844L105.576225 292.65314Q105.96685 292.48126 106.15435 292.15314Q106.34185 291.825 106.357475 291.2L105.669975 291.2ZM108.9981 286.2625Q108.9981 284.48126 109.357475 283.40314Q109.732475 282.3094 110.451225 281.73126Q111.169975 281.1375 112.263725 281.1375Q113.076225 281.1375 113.6856 281.46564Q114.294975 281.79376 114.6856 282.40314Q115.09185 283.0125 115.3106 283.8875Q115.52935 284.7625 115.52935 286.2625Q115.52935 288.02814 115.169975 289.10626Q114.8106 290.1844 114.09185 290.77814Q113.3731 291.3719 112.263725 291.3719Q110.826225 291.3719 109.9981 290.325Q108.9981 289.075 108.9981 286.2625ZM110.263725 286.2625Q110.263725 288.73126 110.84185 289.54376Q111.419975 290.35626 112.263725 290.35626Q113.1231 290.35626 113.701225 289.54376Q114.27935 288.71564 114.27935 286.2625Q114.27935 283.77814 113.701225 282.96564Q113.1231 282.15314 112.2481 282.15314Q111.40435 282.15314 110.90435 282.8719Q110.263725 283.79376 110.263725 286.2625ZM121.638725 291.2L120.40435 291.2L120.40435 283.35626Q119.96685 283.77814 119.232475 284.21564Q118.513725 284.6375 117.951225 284.84064L117.951225 283.65314Q118.982475 283.16876 119.7481 282.48126Q120.52935 281.79376 120.84185 281.1375L121.638725 281.1375L121.638725 291.2Z" fill-rule="nonzero"/><path stroke="#ffffff" stroke-width="3.0" stroke-linejoin="round" stroke-linecap="round" clip-path="url(#id_0)" d="M114.17451 283.358L114.17451 280.95175L109.81513 280.95175L109.81513 279.82675L114.39326 273.34238L115.39326 273.34238L115.39326 279.82675L116.75263 279.82675L116.75263 280.95175L115.39326 280.95175L115.39326 283.358L114.17451 283.358ZM114.17451 279.82675L114.17451 275.31113L111.03388 279.82675L114.17451 279.82675Z" fill-rule="nonzero"/><path fill="#1a1a1a" clip-path="url(#id_0)" d="M114.17451 283.358L114.17451 280.95175L109.81513 280.95175L109.81513 279.82675L114.39326 273.34238L115.39326 273.34238L115.39326 279.82675L116.75263 279.82675L116.75263 280.95175L115.39326 280.95175L115.39326 283.358L114.17451 283.358ZM114.17451 279.82675L114.17451 275.31113L111.03388 279.82675L114.17451 279.82675Z" fill-rule="nonzero"/><path stroke="#ffffff" stroke-width="3.0" stroke-linejoin="round" stroke-linecap="round" clip-path="url(#id_0)" d="M132.02982 211.5925L132.02982 212.78L125.40481 212.78Q125.38918 212.3425 125.54543 211.92062Q125.81106 211.24875 126.35793 210.5925Q126.92043 209.93625 127.96731 209.07687Q129.60794 207.73312 130.17044 206.95187Q130.74857 206.17062 130.74857 205.4675Q130.74857 204.73312 130.21732 204.23312Q129.70169 203.73312 128.87357 203.73312Q127.98293 203.73312 127.43606 204.26437Q126.90481 204.79562 126.90481 205.74875L125.63918 205.60812Q125.76418 204.20187 126.60793 203.4675Q127.46731 202.7175 128.88919 202.7175Q130.34232 202.7175 131.17044 203.51437Q132.01419 204.31125 132.01419 205.49875Q132.01419 206.10812 131.76419 206.68625Q131.52982 207.26437 130.95169 207.905Q130.38919 208.54562 129.06107 209.67062Q127.95168 210.5925 127.63918 210.93625Q127.32668 211.26437 127.12356 211.5925L132.02982 211.5925ZM135.45169 207.3425Q134.68607 207.06125 134.31107 206.54562Q133.95169 206.03 133.95169 205.29562Q133.95169 204.20187 134.73294 203.4675Q135.52982 202.7175 136.82669 202.7175Q138.13919 202.7175 138.93607 203.48312Q139.74857 204.24875 139.74857 205.3425Q139.74857 206.03 139.37357 206.54562Q139.01419 207.06125 138.26419 207.3425Q139.18607 207.63937 139.67044 208.31125Q140.15482 208.98312 140.15482 209.92062Q140.15482 211.20187 139.24857 212.07687Q138.34232 212.95187 136.85794 212.95187Q135.37357 212.95187 134.45169 212.07687Q133.54544 211.18625 133.54544 209.87375Q133.54544 208.905 134.04544 208.24875Q134.54544 207.57687 135.45169 207.3425ZM135.21732 205.26437Q135.21732 205.9675 135.67044 206.42062Q136.12357 206.87375 136.85794 206.87375Q137.57669 206.87375 138.02982 206.43625Q138.48294 205.98312 138.48294 205.32687Q138.48294 204.655 138.01419 204.20187Q137.54544 203.73312 136.84232 203.73312Q136.13919 203.73312 135.67044 204.18625Q135.21732 204.62375 135.21732 205.26437ZM134.81107 209.88937Q134.81107 210.42062 135.06107 210.92062Q135.31107 211.405 135.79544 211.67062Q136.29544 211.93625 136.87357 211.93625Q137.74857 211.93625 138.31107 211.37375Q138.88919 210.81125 138.88919 209.93625Q138.88919 209.04562 138.29544 208.4675Q137.71732 207.87375 136.82669 207.87375Q135.95169 207.87375 135.37357 208.45187Q134.81107 209.03 134.81107 209.88937Z" fill-rule="nonzero"/><path fill="#1a1a1a" clip-path="url(#id_0)" d="M132.02982 211.5925L132.02982 212.78L125.40481 212.78Q125.38918 212.3425 125.54543 211.92062Q125.81106 211.24875 126.35793 210.5925Q126.92043 209.93625 127.96731 209.07687Q129.60794 207.73312 130.17044 206.95187Q130.74857 206.17062 130.74857 205.4675Q130.74857 204.73312 130.21732 204.23312Q129.70169 203.73312 128.87357 203.73312Q127.98293 203.73312 127.43606 204.26437Q126.90481 204.79562 126.90481 205.74875L125.63918 205.60812Q125.76418 204.20187 126.60793 203.4675Q127.46731 202.7175 128.88919 202.7175Q130.34232 202.7175 131.17044 203.51437Q132.01419 204.31125 132.01419 205.49875Q132.01419 206.10812 131.76419 206.68625Q131.52982 207.26437 130.95169 207.905Q130.38919 208.54562 129.06107 209.67062Q127.95168 210.5925 127.63918 210.93625Q127.32668 211.26437 127.12356 211.5925L132.02982 211.5925ZM135.45169 207.3425Q134.68607 207.06125 134.31107 206.54562Q133.95169 206.03 133.95169 205.29562Q133.95169 204.20187 134.73294 203.4675Q135.52982 202.7175 136.82669 202.7175Q138.13919 202.7175 138.93607 203.48312Q139.74857 204.24875 139.74857 205.3425Q139.74857 206.03 139.37357 206.54562Q139.01419 207.06125 138.26419 207.3425Q139.18607 207.63937 139.67044 208.31125Q140.15482 208.98312 140.15482 209.92062Q140.15482 211.20187 139.24857 212.07687Q138.34232 212.95187 136.85794 212.95187Q135.37357 212.95187 134.45169 212.07687Q133.54544 211.18625 133.54544 209.87375Q133.54544 208.905 134.04544 208.24875Q134.54544 207.57687 135.45169 207.3425ZM135.21732 205.26437Q135.21732 205.9675 135.67044 206.42062Q136.12357 206.87375 136.85794 206.87375Q137.57669 206.87375 138.02982 206.43625Q138.48294 205.98312 138.48294 205.32687Q138.48294 204.655 138.01419 204.20187Q137.54544 203.73312 136.84232 203.73312Q136.13919 203.73312 135.67044 204.18625Q135.21732 204.62375 135.21732 205.26437ZM134.81107 209.88937Q134.81107 210.42062 135.06107 210.92062Q135.31107 211.405 135.79544 211.67062Q136.29544 211.93625 136.87357 211.93625Q137.74857 211.93625 138.31107 211.37375Q138.88919 210.81125 138.88919 209.93625Q138.88919 209.04562 138.29544 208.4675Q137.71732 207.87375 136.82669 207.87375Q135.95169 207.87375 135.37357 208.45187Q134.81107 209.03 134.81107 209.88937Z" fill-rule="nonzero"/><path stroke="#ffffff" stroke-width="3.0" stroke-linejoin="round" stroke-linecap="round" clip-path="url(#id_0)" d="M151.23793 277.9205Q150.4723 277.63925 150.0973 277.12363Q149.73793 276.608 149.73793 275.87363Q149.73793 274.77988 150.51918 274.0455Q151.31606 273.2955 152.61293 273.2955Q153.92543 273.2955 154.7223 274.06113Q155.5348 274.82675 155.5348 275.9205Q155.5348 276.608 155.1598 277.12363Q154.80043 277.63925 154.05043 277.9205Q154.9723 278.21738 155.45668 278.88925Q155.94106 279.56113 155.94106 280.49863Q155.94106 281.77988 155.0348 282.65488Q154.12856 283.52988 152.64418 283.52988Q151.1598 283.52988 150.23793 282.65488Q149.33168 281.76425 149.33168 280.45175Q149.33168 279.483 149.83168 278.82675Q150.33168 278.15488 151.23793 277.9205ZM151.00356 275.84238Q151.00356 276.5455 151.45668 276.99863Q151.9098 277.45175 152.64418 277.45175Q153.36293 277.45175 153.81606 277.01425Q154.26918 276.56113 154.26918 275.90488Q154.26918 275.233 153.80043 274.77988Q153.33168 274.31113 152.62856 274.31113Q151.92543 274.31113 151.45668 274.76425Q151.00356 275.20175 151.00356 275.84238ZM150.5973 280.46738Q150.5973 280.99863 150.8473 281.49863Q151.0973 281.983 151.58168 282.24863Q152.08168 282.51425 152.6598 282.51425Q153.5348 282.51425 154.0973 281.95175Q154.67543 281.38925 154.67543 280.51425Q154.67543 279.62363 154.08168 279.0455Q153.50356 278.45175 152.61293 278.45175Q151.73793 278.45175 151.1598 279.02988Q150.5973 279.608 150.5973 280.46738ZM158.01918 283.358L158.01918 281.95175L159.4098 281.95175L159.4098 283.358Q159.4098 284.12363 159.12856 284.59238Q158.86293 285.07675 158.26918 285.34238L157.92543 284.81113Q158.31606 284.63925 158.50356 284.31113Q158.69106 283.983 158.70668 283.358L158.01918 283.358ZM165.30043 283.358L165.30043 280.95175L160.94106 280.95175L160.94106 279.82675L165.51918 273.34238L166.51918 273.34238L166.51918 279.82675L167.87856 279.82675L167.87856 280.95175L166.51918 280.95175L166.51918 283.358L165.30043 283.358ZM165.30043 279.82675L165.30043 275.31113L162.1598 279.82675L165.30043 279.82675Z" fill-rule="nonzero"/><path fill="#1a1a1a" clip-path="url(#id_0)" d="M151.23793 277.9205Q150.4723 277.63925 150.0973 277.12363Q149.73793 276.608 149.73793 275.87363Q149.73793 274.77988 150.51918 274.0455Q151.31606 273.2955 152.61293 273.2955Q153.92543 273.2955 154.7223 274.06113Q155.5348 274.82675 155.5348 275.9205Q155.5348 276.608 155.1598 277.12363Q154.80043 277.63925 154.05043 277.9205Q154.9723 278.21738 155.45668 278.88925Q155.94106 279.56113 155.94106 280.49863Q155.94106 281.77988 155.0348 282.65488Q154.12856 283.52988 152.64418 283.52988Q151.1598 283.52988 150.23793 282.65488Q149.33168 281.76425 149.33168 280.45175Q149.33168 279.483 149.83168 278.82675Q150.33168 278.15488 151.23793 277.9205ZM151.00356 275.84238Q151.00356 276.5455 151.45668 276.99863Q151.9098 277.45175 152.64418 277.45175Q153.36293 277.45175 153.81606 277.01425Q154.26918 276.56113 154.26918 275.90488Q154.26918 275.233 153.80043 274.77988Q153.33168 274.31113 152.62856 274.31113Q151.92543 274.31113 151.45668 274.76425Q151.00356 275.20175 151.00356 275.84238ZM150.5973 280.46738Q150.5973 280.99863 150.8473 281.49863Q151.0973 281.983 151.58168 282.24863Q152.08168 282.51425 152.6598 282.51425Q153.5348 282.51425 154.0973 281.95175Q154.67543 281.38925 154.67543 280.51425Q154.67543 279.62363 154.08168 279.0455Q153.50356 278.45175 152.61293 278.45175Q151.73793 278.45175 151.1598 279.02988Q150.5973 279.608 150.5973 280.46738ZM158.01918 283.358L158.01918 281.95175L159.4098 281.95175L159.4098 283.358Q159.4098 284.12363 159.12856 284.59238Q158.86293 285.07675 158.26918 285.34238L157.92543 284.81113Q158.31606 284.63925 158.50356 284.31113Q158.69106 283.983 158.70668 283.358L158.01918 283.358ZM165.30043 283.358L165.30043 280.95175L160.94106 280.95175L160.94106 279.82675L165.51918 273.34238L166.51918 273.34238L166.51918 279.82675L167.87856 279.82675L167.87856 280.95175L166.51918 280.95175L166.51918 283.358L165.30043 283.358ZM165.30043 279.82675L165.30043 275.31113L162.1598 279.82675L165.30043 279.82675Z" fill-rule="nonzero"/><path stroke="#ffffff" stroke-width="3.0" stroke-linejoin="round" stroke-linecap="round" clip-path="url(#id_0)" d="M151.36293 210.13937L152.58168 209.9675Q152.80043 211.01437 153.30043 211.48312Q153.81606 211.93625 154.55043 211.93625Q155.42543 211.93625 156.01918 211.3425Q156.61293 210.73312 156.61293 209.8425Q156.61293 208.99875 156.05043 208.45187Q155.50356 207.905 154.6598 207.905Q154.30043 207.905 153.7848 208.03L153.92543 206.95187Q154.05043 206.9675 154.11293 206.9675Q154.9098 206.9675 155.5348 206.56125Q156.1598 206.155 156.1598 205.29562Q156.1598 204.62375 155.70668 204.18625Q155.25356 203.73312 154.51918 203.73312Q153.80043 203.73312 153.31606 204.18625Q152.8473 204.62375 152.70668 205.53L151.48793 205.31125Q151.70668 204.07687 152.50356 203.405Q153.30043 202.7175 154.48793 202.7175Q155.31606 202.7175 156.00356 203.07687Q156.69106 203.42062 157.05043 204.03Q157.42543 204.63937 157.42543 205.32687Q157.42543 205.9675 157.08168 206.49875Q156.73793 207.03 156.05043 207.35812Q156.94106 207.56125 157.42543 208.20187Q157.92543 208.8425 157.92543 209.82687Q157.92543 211.13937 156.95668 212.04562Q156.00356 212.95187 154.55043 212.95187Q153.2223 212.95187 152.3473 212.17062Q151.48793 211.38937 151.36293 210.13937ZM163.30043 212.78L163.30043 210.37375L158.94106 210.37375L158.94106 209.24875L163.51918 202.76437L164.51918 202.76437L164.51918 209.24875L165.87856 209.24875L165.87856 210.37375L164.51918 210.37375L164.51918 212.78L163.30043 212.78ZM163.30043 209.24875L163.30043 204.73312L160.1598 209.24875L163.30043 209.24875Z" fill-rule="nonzero"/><path fill="#1a1a1a" clip-path="url(#id_0)" d="M151.36293 210.13937L152.58168 209.9675Q152.80043 211.01437 153.30043 211.48312Q153.81606 211.93625 154.55043 211.93625Q155.42543 211.93625 156.01918 211.3425Q156.61293 210.73312 156.61293 209.8425Q156.61293 208.99875 156.05043 208.45187Q155.50356 207.905 154.6598 207.905Q154.30043 207.905 153.7848 208.03L153.92543 206.95187Q154.05043 206.9675 154.11293 206.9675Q154.9098 206.9675 155.5348 206.56125Q156.1598 206.155 156.1598 205.29562Q156.1598 204.62375 155.70668 204.18625Q155.25356 203.73312 154.51918 203.73312Q153.80043 203.73312 153.31606 204.18625Q152.8473 204.62375 152.70668 205.53L151.48793 205.31125Q151.70668 204.07687 152.50356 203.405Q153.30043 202.7175 154.48793 202.7175Q155.31606 202.7175 156.00356 203.07687Q156.69106 203.42062 157.05043 204.03Q157.42543 204.63937 157.42543 205.32687Q157.42543 205.9675 157.08168 206.49875Q156.73793 207.03 156.05043 207.35812Q156.94106 207.56125 157.42543 208.20187Q157.92543 208.8425 157.92543 209.82687Q157.92543 211.13937 156.95668 212.04562Q156.00356 212.95187 154.55043 212.95187Q153.2223 212.95187 152.3473 212.17062Q151.48793 211.38937 151.36293 210.13937ZM163.30043 212.78L163.30043 210.37375L158.94106 210.37375L158.94106 209.24875L163.51918 202.76437L164.51918 202.76437L164.51918 209.24875L165.87856 209.24875L165.87856 210.37375L164.51918 210.37375L164.51918 212.78L163.30043 212.78ZM163.30043 209.24875L163.30043 204.73312L160.1598 209.24875L163.30043 209.24875Z" fill-rule="nonzero"/><path stroke="#ffffff" stroke-width="3.0" stroke-linejoin="round" stroke-linecap="round" clip-path="url(#id_0)" d="M151.3473 157.875L152.64418 157.76562Q152.7848 158.70312 153.30043 159.1875Q153.83168 159.65625 154.56606 159.65625Q155.45668 159.65625 156.06606 158.98438Q156.69106 158.3125 156.69106 157.21875Q156.69106 156.15625 156.0973 155.54688Q155.50356 154.9375 154.55043 154.9375Q153.95668 154.9375 153.4723 155.21875Q153.00356 155.48438 152.7223 155.90625L151.56606 155.76562L152.5348 150.60938L157.51918 150.60938L157.51918 151.79688L153.51918 151.79688L152.98793 154.48438Q153.89418 153.85938 154.87856 153.85938Q156.19106 153.85938 157.08168 154.76562Q157.98793 155.67188 157.98793 157.10938Q157.98793 158.46875 157.20668 159.45312Q156.23793 160.67188 154.56606 160.67188Q153.20668 160.67188 152.33168 159.90625Q151.4723 159.14062 151.3473 157.875ZM165.73793 152.9375L164.51918 153.03125Q164.3473 152.29688 164.05043 151.96875Q163.55043 151.45312 162.81606 151.45312Q162.2223 151.45312 161.7848 151.78125Q161.20668 152.20312 160.86293 153.01562Q160.5348 153.82812 160.51918 155.32812Q160.95668 154.65625 161.5973 154.32812Q162.25356 154.0 162.95668 154.0Q164.19106 154.0 165.05043 154.90625Q165.9098 155.8125 165.9098 157.25Q165.9098 158.1875 165.50356 159.0Q165.0973 159.8125 164.37856 160.25Q163.67543 160.67188 162.76918 160.67188Q161.23793 160.67188 160.26918 159.54688Q159.30043 158.40625 159.30043 155.8125Q159.30043 152.90625 160.36293 151.57812Q161.30043 150.4375 162.89418 150.4375Q164.08168 150.4375 164.83168 151.10938Q165.58168 151.76562 165.73793 152.9375ZM160.70668 157.25Q160.70668 157.89062 160.9723 158.46875Q161.25356 159.04688 161.73793 159.35938Q162.2223 159.65625 162.75356 159.65625Q163.5348 159.65625 164.0973 159.03125Q164.6598 158.40625 164.6598 157.32812Q164.6598 156.28125 164.0973 155.6875Q163.55043 155.07812 162.70668 155.07812Q161.87856 155.07812 161.2848 155.6875Q160.70668 156.28125 160.70668 157.25Z" fill-rule="nonzero"/><path fill="#1a1a1a" clip-path="url(#id_0)" d="M151.3473 157.875L152.64418 157.76562Q152.7848 158.70312 153.30043 159.1875Q153.83168 159.65625 154.56606 159.65625Q155.45668 159.65625 156.06606 158.98438Q156.69106 158.3125 156.69106 157.21875Q156.69106 156.15625 156.0973 155.54688Q155.50356 154.9375 154.55043 154.9375Q153.95668 154.9375 153.4723 155.21875Q153.00356 155.48438 152.7223 155.90625L151.56606 155.76562L152.5348 150.60938L157.51918 150.60938L157.51918 151.79688L153.51918 151.79688L152.98793 154.48438Q153.89418 153.85938 154.87856 153.85938Q156.19106 153.85938 157.08168 154.76562Q157.98793 155.67188 157.98793 157.10938Q157.98793 158.46875 157.20668 159.45312Q156.23793 160.67188 154.56606 160.67188Q153.20668 160.67188 152.33168 159.90625Q151.4723 159.14062 151.3473 157.875ZM165.73793 152.9375L164.51918 153.03125Q164.3473 152.29688 164.05043 151.96875Q163.55043 151.45312 162.81606 151.45312Q162.2223 151.45312 161.7848 151.78125Q161.20668 152.20312 160.86293 153.01562Q160.5348 153.82812 160.51918 155.32812Q160.95668 154.65625 161.5973 154.32812Q162.25356 154.0 162.95668 154.0Q164.19106 154.0 165.05043 154.90625Q165.9098 155.8125 165.9098 157.25Q165.9098 158.1875 165.50356 159.0Q165.0973 159.8125 164.37856 160.25Q163.67543 160.67188 162.76918 160.67188Q161.23793 160.67188 160.26918 159.54688Q159.30043 158.40625 159.30043 155.8125Q159.30043 152.90625 160.36293 151.57812Q161.30043 150.4375 162.89418 150.4375Q164.08168 150.4375 164.83168 151.10938Q165.58168 151.76562 165.73793 152.9375ZM160.70668 157.25Q160.70668 157.89062 160.9723 158.46875Q161.25356 159.04688 161.73793 159.35938Q162.2223 159.65625 162.75356 159.65625Q163.5348 159.65625 164.0973 159.03125Q164.6598 158.40625 164.6598 157.32812Q164.6598 156.28125 164.0973 155.6875Q163.55043 155.07812 162.70668 155.07812Q161.87856 155.07812 161.2848 155.6875Q160.70668 156.28125 160.70668 157.25Z" fill-rule="nonzero"/><path stroke="#ffffff" stroke-width="3.0" stroke-linejoin="round" stroke-linecap="round" clip-path="url(#id_0)" d="M204.81041 155.0625Q204.04478 154.78125 203.66978 154.26562Q203.31041 153.75 203.31041 153.01562Q203.31041 151.92188 204.09166 151.1875Q204.88853 150.4375 206.18541 150.4375Q207.49791 150.4375 208.29478 151.20312Q209.10728 151.96875 209.10728 153.0625Q209.10728 153.75 208.73228 154.26562Q208.37291 154.78125 207.62291 155.0625Q208.54478 155.35938 209.02916 156.03125Q209.51353 156.70312 209.51353 157.64062Q209.51353 158.92188 208.60728 159.79688Q207.70103 160.67188 206.21666 160.67188Q204.73228 160.67188 203.81041 159.79688Q202.90416 158.90625 202.90416 157.59375Q202.90416 156.625 203.40416 155.96875Q203.90416 155.29688 204.81041 155.0625ZM204.57603 152.98438Q204.57603 153.6875 205.02916 154.14062Q205.48228 154.59375 206.21666 154.59375Q206.93541 154.59375 207.38853 154.15625Q207.84166 153.70312 207.84166 153.04688Q207.84166 152.375 207.37291 151.92188Q206.90416 151.45312 206.20103 151.45312Q205.49791 151.45312 205.02916 151.90625Q204.57603 152.34375 204.57603 152.98438ZM204.16978 157.60938Q204.16978 158.14062 204.41978 158.64062Q204.66978 159.125 205.15416 159.39062Q205.65416 159.65625 206.23228 159.65625Q207.10728 159.65625 207.66978 159.09375Q208.24791 158.53125 208.24791 157.65625Q208.24791 156.76562 207.65416 156.1875Q207.07603 155.59375 206.18541 155.59375Q205.31041 155.59375 204.73228 156.17188Q204.16978 156.75 204.16978 157.60938ZM210.91978 157.875L212.21666 157.76562Q212.35728 158.70312 212.87291 159.1875Q213.40416 159.65625 214.13853 159.65625Q215.02916 159.65625 215.63853 158.98438Q216.26353 158.3125 216.26353 157.21875Q216.26353 156.15625 215.66978 155.54688Q215.07603 154.9375 214.12291 154.9375Q213.52916 154.9375 213.04478 155.21875Q212.57603 155.48438 212.29478 155.90625L211.13853 155.76562L212.10728 150.60938L217.09166 150.60938L217.09166 151.79688L213.09166 151.79688L212.56041 154.48438Q213.46666 153.85938 214.45103 153.85938Q215.76353 153.85938 216.65416 154.76562Q217.56041 155.67188 217.56041 157.10938Q217.56041 158.46875 216.77916 159.45312Q215.81041 160.67188 214.13853 160.67188Q212.77916 160.67188 211.90416 159.90625Q211.04478 159.14062 210.91978 157.875Z" fill-rule="nonzero"/><path fill="#1a1a1a" clip-path="url(#id_0)" d="M204.81041 155.0625Q204.04478 154.78125 203.66978 154.26562Q203.31041 153.75 203.31041 153.01562Q203.31041 151.92188 204.09166 151.1875Q204.88853 150.4375 206.18541 150.4375Q207.49791 150.4375 208.29478 151.20312Q209.10728 151.96875 209.10728 153.0625Q209.10728 153.75 208.73228 154.26562Q208.37291 154.78125 207.62291 155.0625Q208.54478 155.35938 209.02916 156.03125Q209.51353 156.70312 209.51353 157.64062Q209.51353 158.92188 208.60728 159.79688Q207.70103 160.67188 206.21666 160.67188Q204.73228 160.67188 203.81041 159.79688Q202.90416 158.90625 202.90416 157.59375Q202.90416 156.625 203.40416 155.96875Q203.90416 155.29688 204.81041 155.0625ZM204.57603 152.98438Q204.57603 153.6875 205.02916 154.14062Q205.48228 154.59375 206.21666 154.59375Q206.93541 154.59375 207.38853 154.15625Q207.84166 153.70312 207.84166 153.04688Q207.84166 152.375 207.37291 151.92188Q206.90416 151.45312 206.20103 151.45312Q205.49791 151.45312 205.02916 151.90625Q204.57603 152.34375 204.57603 152.98438ZM204.16978 157.60938Q204.16978 158.14062 204.41978 158.64062Q204.66978 159.125 205.15416 159.39062Q205.65416 159.65625 206.23228 159.65625Q207.10728 159.65625 207.66978 159.09375Q208.24791 158.53125 208.24791 157.65625Q208.24791 156.76562 207.65416 156.1875Q207.07603 155.59375 206.18541 155.59375Q205.31041 155.59375 204.73228 156.17188Q204.16978 156.75 204.16978 157.60938ZM210.91978 157.875L212.21666 157.76562Q212.35728 158.70312 212.87291 159.1875Q213.40416 159.65625 214.13853 159.65625Q215.02916 159.65625 215.63853 158.98438Q216.26353 158.3125 216.26353 157.21875Q216.26353 156.15625 215.66978 155.54688Q215.07603 154.9375 214.12291 154.9375Q213.52916 154.9375 213.04478 155.21875Q212.57603 155.48438 212.29478 155.90625L211.13853 155.76562L212.10728 150.60938L217.09166 150.60938L217.09166 151.79688L213.09166 151.79688L212.56041 154.48438Q213.46666 153.85938 214.45103 153.85938Q215.76353 153.85938 216.65416 154.76562Q217.56041 155.67188 217.56041 157.10938Q217.56041 158.46875 216.77916 159.45312Q215.81041 160.67188 214.13853 160.67188Q212.77916 160.67188 211.90416 159.90625Q211.04478 159.14062 210.91978 157.875Z" fill-rule="nonzero"/><path stroke="#ffffff" stroke-width="3.0" stroke-linejoin="round" stroke-linecap="round" clip-path="url(#id_0)" d="M203.56041 29.8L202.32603 29.8L202.32603 21.95625Q201.88853 22.378124 201.15416 22.815624Q200.43541 23.2375 199.87291 23.440624L199.87291 22.253124Q200.90416 21.76875 201.66978 21.08125Q202.45103 20.39375 202.76353 19.7375L203.56041 19.7375L203.56041 29.8ZM213.31041 22.2375L212.09166 22.33125Q211.91978 21.596874 211.62291 21.26875Q211.12291 20.753124 210.38853 20.753124Q209.79478 20.753124 209.35728 21.08125Q208.77916 21.503124 208.43541 22.315624Q208.10728 23.128124 208.09166 24.628124Q208.52916 23.95625 209.16978 23.628124Q209.82603 23.3 210.52916 23.3Q211.76353 23.3 212.62291 24.20625Q213.48228 25.1125 213.48228 26.55Q213.48228 27.4875 213.07603 28.3Q212.66978 29.1125 211.95103 29.55Q211.24791 29.971874 210.34166 29.971874Q208.81041 29.971874 207.84166 28.846874Q206.87291 27.70625 206.87291 25.1125Q206.87291 22.20625 207.93541 20.878124Q208.87291 19.7375 210.46666 19.7375Q211.65416 19.7375 212.40416 20.409374Q213.15416 21.065624 213.31041 22.2375ZM208.27916 26.55Q208.27916 27.190624 208.54478 27.76875Q208.82603 28.346874 209.31041 28.659374Q209.79478 28.95625 210.32603 28.95625Q211.10728 28.95625 211.66978 28.33125Q212.23228 27.70625 212.23228 26.628124Q212.23228 25.58125 211.66978 24.9875Q211.12291 24.378124 210.27916 24.378124Q209.45103 24.378124 208.85728 24.9875Q208.27916 25.58125 208.27916 26.55ZM218.87291 29.8L218.87291 27.39375L214.51353 27.39375L214.51353 26.26875L219.09166 19.784374L220.09166 19.784374L220.09166 26.26875L221.45103 26.26875L221.45103 27.39375L220.09166 27.39375L220.09166 29.8L218.87291 29.8ZM218.87291 26.26875L218.87291 21.753124L215.73228 26.26875L218.87291 26.26875Z" fill-rule="nonzero"/><path fill="#1a1a1a" clip-path="url(#id_0)" d="M203.56041 29.8L202.32603 29.8L202.32603 21.95625Q201.88853 22.378124 201.15416 22.815624Q200.43541 23.2375 199.87291 23.440624L199.87291 22.253124Q200.90416 21.76875 201.66978 21.08125Q202.45103 20.39375 202.76353 19.7375L203.56041 19.7375L203.56041 29.8ZM213.31041 22.2375L212.09166 22.33125Q211.91978 21.596874 211.62291 21.26875Q211.12291 20.753124 210.38853 20.753124Q209.79478 20.753124 209.35728 21.08125Q208.77916 21.503124 208.43541 22.315624Q208.10728 23.128124 208.09166 24.628124Q208.52916 23.95625 209.16978 23.628124Q209.82603 23.3 210.52916 23.3Q211.76353 23.3 212.62291 24.20625Q213.48228 25.1125 213.48228 26.55Q213.48228 27.4875 213.07603 28.3Q212.66978 29.1125 211.95103 29.55Q211.24791 29.971874 210.34166 29.971874Q208.81041 29.971874 207.84166 28.846874Q206.87291 27.70625 206.87291 25.1125Q206.87291 22.20625 207.93541 20.878124Q208.87291 19.7375 210.46666 19.7375Q211.65416 19.7375 212.40416 20.409374Q213.15416 21.065624 213.31041 22.2375ZM208.27916 26.55Q208.27916 27.190624 208.54478 27.76875Q208.82603 28.346874 209.31041 28.659374Q209.79478 28.95625 210.32603 28.95625Q211.10728 28.95625 211.66978 28.33125Q212.23228 27.70625 212.23228 26.628124Q212.23228 25.58125 211.66978 24.9875Q211.12291 24.378124 210.27916 24.378124Q209.45103 24.378124 208.85728 24.9875Q208.27916 25.58125 208.27916 26.55ZM218.87291 29.8L218.87291 27.39375L214.51353 27.39375L214.51353 26.26875L219.09166 19.784374L220.09166 19.784374L220.09166 26.26875L221.45103 26.26875L221.45103 27.39375L220.09166 27.39375L220.09166 29.8L218.87291 29.8ZM218.87291 26.26875L218.87291 21.753124L215.73228 26.26875L218.87291 26.26875Z" fill-rule="nonzero"/><path stroke="#ffffff" stroke-width="3.0" stroke-linejoin="round" stroke-linecap="round" clip-path="url(#id_0)" d="M306.08035 280.71738L307.2991 280.5455Q307.51785 281.59238 308.01785 282.06113Q308.53348 282.51425 309.26785 282.51425Q310.14285 282.51425 310.7366 281.9205Q311.33035 281.31113 311.33035 280.4205Q311.33035 279.57675 310.76785 279.02988Q310.22098 278.483 309.37723 278.483Q309.01785 278.483 308.50223 278.608L308.64285 277.52988Q308.76785 277.5455 308.83035 277.5455Q309.62723 277.5455 310.25223 277.13925Q310.87723 276.733 310.87723 275.87363Q310.87723 275.20175 310.4241 274.76425Q309.97098 274.31113 309.2366 274.31113Q308.51785 274.31113 308.03348 274.76425Q307.56473 275.20175 307.4241 276.108L306.20535 275.88925Q306.4241 274.65488 307.22098 273.983Q308.01785 273.2955 309.20535 273.2955Q310.03348 273.2955 310.72098 273.65488Q311.40848 273.99863 311.76785 274.608Q312.14285 275.21738 312.14285 275.90488Q312.14285 276.5455 311.7991 277.07675Q311.45535 277.608 310.76785 277.93613Q311.65848 278.13925 312.14285 278.77988Q312.64285 279.4205 312.64285 280.40488Q312.64285 281.71738 311.6741 282.62363Q310.72098 283.52988 309.26785 283.52988Q307.93973 283.52988 307.06473 282.74863Q306.20535 281.96738 306.08035 280.71738ZM320.53348 282.1705L320.53348 283.358L313.90848 283.358Q313.89285 282.9205 314.0491 282.49863Q314.31473 281.82675 314.8616 281.1705Q315.4241 280.51425 316.47098 279.65488Q318.1116 278.31113 318.6741 277.52988Q319.25223 276.74863 319.25223 276.0455Q319.25223 275.31113 318.72098 274.81113Q318.20535 274.31113 317.37723 274.31113Q316.4866 274.31113 315.93973 274.84238Q315.40848 275.37363 315.40848 276.32675L314.14285 276.18613Q314.26785 274.77988 315.1116 274.0455Q315.97098 273.2955 317.39285 273.2955Q318.84598 273.2955 319.6741 274.09238Q320.51785 274.88925 320.51785 276.07675Q320.51785 276.68613 320.26785 277.26425Q320.03348 277.84238 319.45535 278.483Q318.89285 279.12363 317.56473 280.24863Q316.45535 281.1705 316.14285 281.51425Q315.83035 281.84238 315.62723 282.1705L320.53348 282.1705Z" fill-rule="nonzero"/><path fill="#1a1a1a" clip-path="url(#id_0)" d="M306.08035 280.71738L307.2991 280.5455Q307.51785 281.59238 308.01785 282.06113Q308.53348 282.51425 309.26785 282.51425Q310.14285 282.51425 310.7366 281.9205Q311.33035 281.31113 311.33035 280.4205Q311.33035 279.57675 310.76785 279.02988Q310.22098 278.483 309.37723 278.483Q309.01785 278.483 308.50223 278.608L308.64285 277.52988Q308.76785 277.5455 308.83035 277.5455Q309.62723 277.5455 310.25223 277.13925Q310.87723 276.733 310.87723 275.87363Q310.87723 275.20175 310.4241 274.76425Q309.97098 274.31113 309.2366 274.31113Q308.51785 274.31113 308.03348 274.76425Q307.56473 275.20175 307.4241 276.108L306.20535 275.88925Q306.4241 274.65488 307.22098 273.983Q308.01785 273.2955 309.20535 273.2955Q310.03348 273.2955 310.72098 273.65488Q311.40848 273.99863 311.76785 274.608Q312.14285 275.21738 312.14285 275.90488Q312.14285 276.5455 311.7991 277.07675Q311.45535 277.608 310.76785 277.93613Q311.65848 278.13925 312.14285 278.77988Q312.64285 279.4205 312.64285 280.40488Q312.64285 281.71738 311.6741 282.62363Q310.72098 283.52988 309.26785 283.52988Q307.93973 283.52988 307.06473 282.74863Q306.20535 281.96738 306.08035 280.71738ZM320.53348 282.1705L320.53348 283.358L313.90848 283.358Q313.89285 282.9205 314.0491 282.49863Q314.31473 281.82675 314.8616 281.1705Q315.4241 280.51425 316.47098 279.65488Q318.1116 278.31113 318.6741 277.52988Q319.25223 276.74863 319.25223 276.0455Q319.25223 275.31113 318.72098 274.81113Q318.20535 274.31113 317.37723 274.31113Q316.4866 274.31113 315.93973 274.84238Q315.40848 275.37363 315.40848 276.32675L314.14285 276.18613Q314.26785 274.77988 315.1116 274.0455Q315.97098 273.2955 317.39285 273.2955Q318.84598 273.2955 319.6741 274.09238Q320.51785 274.88925 320.51785 276.07675Q320.51785 276.68613 320.26785 277.26425Q320.03348 277.84238 319.45535 278.483Q318.89285 279.12363 317.56473 280.24863Q316.45535 281.1705 316.14285 281.51425Q315.83035 281.84238 315.62723 282.1705L320.53348 282.1705Z" fill-rule="nonzero"/><path stroke="#ffffff" stroke-width="3.0" stroke-linejoin="round" stroke-linecap="round" clip-path="url(#id_0)" d="M306.70535 212.78L305.47098 212.78L305.47098 204.93625Q305.03348 205.35812 304.2991 205.79562Q303.58035 206.2175 303.01785 206.42062L303.01785 205.23312Q304.0491 204.74875 304.81473 204.06125Q305.59598 203.37375 305.90848 202.7175L306.70535 202.7175L306.70535 212.78ZM310.06473 210.155L311.3616 210.04562Q311.50223 210.98312 312.01785 211.4675Q312.5491 211.93625 313.28348 211.93625Q314.1741 211.93625 314.78348 211.26437Q315.40848 210.5925 315.40848 209.49875Q315.40848 208.43625 314.81473 207.82687Q314.22098 207.2175 313.26785 207.2175Q312.6741 207.2175 312.18973 207.49875Q311.72098 207.76437 311.43973 208.18625L310.28348 208.04562L311.25223 202.88937L316.2366 202.88937L316.2366 204.07687L312.2366 204.07687L311.70535 206.76437Q312.6116 206.13937 313.59598 206.13937Q314.90848 206.13937 315.7991 207.04562Q316.70535 207.95187 316.70535 209.38937Q316.70535 210.74875 315.9241 211.73312Q314.95535 212.95187 313.28348 212.95187Q311.9241 212.95187 311.0491 212.18625Q310.18973 211.42062 310.06473 210.155ZM318.06473 207.8425Q318.06473 206.06125 318.4241 204.98312Q318.7991 203.88937 319.51785 203.31125Q320.2366 202.7175 321.33035 202.7175Q322.14285 202.7175 322.75223 203.04562Q323.3616 203.37375 323.75223 203.98312Q324.15848 204.5925 324.37723 205.4675Q324.59598 206.3425 324.59598 207.8425Q324.59598 209.60812 324.2366 210.68625Q323.87723 211.76437 323.15848 212.35812Q322.43973 212.95187 321.33035 212.95187Q319.89285 212.95187 319.06473 211.905Q318.06473 210.655 318.06473 207.8425ZM319.33035 207.8425Q319.33035 210.31125 319.90848 211.12375Q320.4866 211.93625 321.33035 211.93625Q322.18973 211.93625 322.76785 211.12375Q323.34598 210.29562 323.34598 207.8425Q323.34598 205.35812 322.76785 204.54562Q322.18973 203.73312 321.31473 203.73312Q320.47098 203.73312 319.97098 204.45187Q319.33035 205.37375 319.33035 207.8425Z" fill-rule="nonzero"/><path fill="#1a1a1a" clip-path="url(#id_0)" d="M306.70535 212.78L305.47098 212.78L305.47098 204.93625Q305.03348 205.35812 304.2991 205.79562Q303.58035 206.2175 303.01785 206.42062L303.01785 205.23312Q304.0491 204.74875 304.81473 204.06125Q305.59598 203.37375 305.90848 202.7175L306.70535 202.7175L306.70535 212.78ZM310.06473 210.155L311.3616 210.04562Q311.50223 210.98312 312.01785 211.4675Q312.5491 211.93625 313.28348 211.93625Q314.1741 211.93625 314.78348 211.26437Q315.40848 210.5925 315.40848 209.49875Q315.40848 208.43625 314.81473 207.82687Q314.22098 207.2175 313.26785 207.2175Q312.6741 207.2175 312.18973 207.49875Q311.72098 207.76437 311.43973 208.18625L310.28348 208.04562L311.25223 202.88937L316.2366 202.88937L316.2366 204.07687L312.2366 204.07687L311.70535 206.76437Q312.6116 206.13937 313.59598 206.13937Q314.90848 206.13937 315.7991 207.04562Q316.70535 207.95187 316.70535 209.38937Q316.70535 210.74875 315.9241 211.73312Q314.95535 212.95187 313.28348 212.95187Q311.9241 212.95187 311.0491 212.18625Q310.18973 211.42062 310.06473 210.155ZM318.06473 207.8425Q318.06473 206.06125 318.4241 204.98312Q318.7991 203.88937 319.51785 203.31125Q320.2366 202.7175 321.33035 202.7175Q322.14285 202.7175 322.75223 203.04562Q323.3616 203.37375 323.75223 203.98312Q324.15848 204.5925 324.37723 205.4675Q324.59598 206.3425 324.59598 207.8425Q324.59598 209.60812 324.2366 210.68625Q323.87723 211.76437 323.15848 212.35812Q322.43973 212.95187 321.33035 212.95187Q319.89285 212.95187 319.06473 211.905Q318.06473 210.655 318.06473 207.8425ZM319.33035 207.8425Q319.33035 210.31125 319.90848 211.12375Q320.4866 211.93625 321.33035 211.93625Q322.18973 211.93625 322.76785 211.12375Q323.34598 210.29562 323.34598 207.8425Q323.34598 205.35812 322.76785 204.54562Q322.18973 203.73312 321.31473 203.73312Q320.47098 203.73312 319.97098 204.45187Q319.33035 205.37375 319.33035 207.8425Z" fill-rule="nonzero"/><path stroke="#ffffff" stroke-width="3.0" stroke-linejoin="round" stroke-linecap="round" clip-path="url(#id_0)" d="M514.2453 277.9205Q513.4797 277.63925 513.1047 277.12363Q512.7453 276.608 512.7453 275.87363Q512.7453 274.77988 513.52655 274.0455Q514.3234 273.2955 515.6203 273.2955Q516.9328 273.2955 517.7297 274.06113Q518.5422 274.82675 518.5422 275.9205Q518.5422 276.608 518.1672 277.12363Q517.8078 277.63925 517.0578 277.9205Q517.9797 278.21738 518.46405 278.88925Q518.9484 279.56113 518.9484 280.49863Q518.9484 281.77988 518.0422 282.65488Q517.1359 283.52988 515.65155 283.52988Q514.1672 283.52988 513.2453 282.65488Q512.33905 281.76425 512.33905 280.45175Q512.33905 279.483 512.83905 278.82675Q513.33905 278.15488 514.2453 277.9205ZM514.0109 275.84238Q514.0109 276.5455 514.46405 276.99863Q514.9172 277.45175 515.65155 277.45175Q516.3703 277.45175 516.8234 277.01425Q517.27655 276.56113 517.27655 275.90488Q517.27655 275.233 516.8078 274.77988Q516.33905 274.31113 515.6359 274.31113Q514.9328 274.31113 514.46405 274.76425Q514.0109 275.20175 514.0109 275.84238ZM513.6047 280.46738Q513.6047 280.99863 513.8547 281.49863Q514.1047 281.983 514.58905 282.24863Q515.08905 282.51425 515.6672 282.51425Q516.5422 282.51425 517.1047 281.95175Q517.6828 281.38925 517.6828 280.51425Q517.6828 279.62363 517.08905 279.0455Q516.5109 278.45175 515.6203 278.45175Q514.7453 278.45175 514.1672 279.02988Q513.6047 279.608 513.6047 280.46738ZM520.3547 278.4205Q520.3547 276.63925 520.71405 275.56113Q521.08905 274.46738 521.8078 273.88925Q522.52655 273.2955 523.6203 273.2955Q524.4328 273.2955 525.0422 273.62363Q525.65155 273.95175 526.0422 274.56113Q526.4484 275.1705 526.6672 276.0455Q526.8859 276.9205 526.8859 278.4205Q526.8859 280.18613 526.52655 281.26425Q526.1672 282.34238 525.4484 282.93613Q524.7297 283.52988 523.6203 283.52988Q522.1828 283.52988 521.3547 282.483Q520.3547 281.233 520.3547 278.4205ZM521.6203 278.4205Q521.6203 280.88925 522.1984 281.70175Q522.77655 282.51425 523.6203 282.51425Q524.4797 282.51425 525.0578 281.70175Q525.6359 280.87363 525.6359 278.4205Q525.6359 275.93613 525.0578 275.12363Q524.4797 274.31113 523.6047 274.31113Q522.7609 274.31113 522.2609 275.02988Q521.6203 275.95175 521.6203 278.4205Z" fill-rule="nonzero"/><path fill="#1a1a1a" clip-path="url(#id_0)" d="M514.2453 277.9205Q513.4797 277.63925 513.1047 277.12363Q512.7453 276.608 512.7453 275.87363Q512.7453 274.77988 513.52655 274.0455Q514.3234 273.2955 515.6203 273.2955Q516.9328 273.2955 517.7297 274.06113Q518.5422 274.82675 518.5422 275.9205Q518.5422 276.608 518.1672 277.12363Q517.8078 277.63925 517.0578 277.9205Q517.9797 278.21738 518.46405 278.88925Q518.9484 279.56113 518.9484 280.49863Q518.9484 281.77988 518.0422 282.65488Q517.1359 283.52988 515.65155 283.52988Q514.1672 283.52988 513.2453 282.65488Q512.33905 281.76425 512.33905 280.45175Q512.33905 279.483 512.83905 278.82675Q513.33905 278.15488 514.2453 277.9205ZM514.0109 275.84238Q514.0109 276.5455 514.46405 276.99863Q514.9172 277.45175 515.65155 277.45175Q516.3703 277.45175 516.8234 277.01425Q517.27655 276.56113 517.27655 275.90488Q517.27655 275.233 516.8078 274.77988Q516.33905 274.31113 515.6359 274.31113Q514.9328 274.31113 514.46405 274.76425Q514.0109 275.20175 514.0109 275.84238ZM513.6047 280.46738Q513.6047 280.99863 513.8547 281.49863Q514.1047 281.983 514.58905 282.24863Q515.08905 282.51425 515.6672 282.51425Q516.5422 282.51425 517.1047 281.95175Q517.6828 281.38925 517.6828 280.51425Q517.6828 279.62363 517.08905 279.0455Q516.5109 278.45175 515.6203 278.45175Q514.7453 278.45175 514.1672 279.02988Q513.6047 279.608 513.6047 280.46738ZM520.3547 278.4205Q520.3547 276.63925 520.71405 275.56113Q521.08905 274.46738 521.8078 273.88925Q522.52655 273.2955 523.6203 273.2955Q524.4328 273.2955 525.0422 273.62363Q525.65155 273.95175 526.0422 274.56113Q526.4484 275.1705 526.6672 276.0455Q526.8859 276.9205 526.8859 278.4205Q526.8859 280.18613 526.52655 281.26425Q526.1672 282.34238 525.4484 282.93613Q524.7297 283.52988 523.6203 283.52988Q522.1828 283.52988 521.3547 282.483Q520.3547 281.233 520.3547 278.4205ZM521.6203 278.4205Q521.6203 280.88925 522.1984 281.70175Q522.77655 282.51425 523.6203 282.51425Q524.4797 282.51425 525.0578 281.70175Q525.6359 280.87363 525.6359 278.4205Q525.6359 275.93613 525.0578 275.12363Q524.4797 274.31113 523.6047 274.31113Q522.7609 274.31113 522.2609 275.02988Q521.6203 275.95175 521.6203 278.4205Z" fill-rule="nonzero"/><path fill="#000000" d="M306.375 335.2L306.375 334.27814Q305.64062 335.34064 304.39062 335.34064Q303.84375 335.34064 303.35938 335.1375Q302.89062 334.91876 302.65625 334.60626Q302.42188 334.27814 302.32812 333.8094Q302.26562 333.5125 302.26562 332.825L302.26562 328.98126L303.32812 328.98126L303.32812 332.4344Q303.32812 333.2469 303.39062 333.54376Q303.48438 333.95 303.79688 334.2Q304.125 334.4344 304.60938 334.4344Q305.07812 334.4344 305.48438 334.2Q305.90625 333.95 306.07812 333.52814Q306.26562 333.10626 306.26562 332.3094L306.26562 328.98126L307.3125 328.98126L307.3125 335.2L306.375 335.2ZM308.875 333.34064L309.90625 333.1844Q310.0 333.8094 310.39062 334.1375Q310.79688 334.46564 311.53125 334.46564Q312.25 334.46564 312.59375 334.1844Q312.95312 333.8875 312.95312 333.48126Q312.95312 333.1219 312.64062 332.91876Q312.42188 332.77814 311.5625 332.5594Q310.40625 332.2625 309.95312 332.0594Q309.51562 331.84064 309.28125 331.46564Q309.04688 331.09064 309.04688 330.6219Q309.04688 330.21564 309.23438 329.85626Q309.42188 329.4969 309.75 329.2625Q310.0 329.09064 310.42188 328.96564Q310.84375 328.84064 311.34375 328.84064Q312.0625 328.84064 312.60938 329.0594Q313.17188 329.2625 313.4375 329.6219Q313.70312 329.98126 313.79688 330.575L312.76562 330.71564Q312.70312 330.2469 312.35938 329.98126Q312.03125 329.7 311.40625 329.7Q310.6875 329.7 310.375 329.95Q310.0625 330.1844 310.0625 330.5125Q310.0625 330.71564 310.1875 330.8719Q310.32812 331.04376 310.59375 331.15314Q310.75 331.21564 311.53125 331.41876Q312.65625 331.73126 313.09375 331.91876Q313.53125 332.10626 313.78125 332.46564Q314.03125 332.825 314.03125 333.3719Q314.03125 333.90314 313.71875 334.3719Q313.42188 334.825 312.84375 335.09064Q312.26562 335.34064 311.53125 335.34064Q310.3125 335.34064 309.67188 334.84064Q309.04688 334.325 308.875 333.34064ZM320.54688 333.2L321.64062 333.325Q321.39062 334.27814 320.6875 334.8094Q319.98438 335.34064 318.90625 335.34064Q317.54688 335.34064 316.73438 334.4969Q315.9375 333.65314 315.9375 332.1375Q315.9375 330.575 316.75 329.71564Q317.5625 328.84064 318.84375 328.84064Q320.09375 328.84064 320.875 329.6844Q321.67188 330.52814 321.67188 332.075Q321.67188 332.16876 321.67188 332.35626L317.03125 332.35626Q317.09375 333.3875 317.60938 333.9344Q318.125 334.46564 318.90625 334.46564Q319.48438 334.46564 319.89062 334.16876Q320.3125 333.85626 320.54688 333.2ZM317.09375 331.4969L320.5625 331.4969Q320.5 330.7 320.17188 330.3094Q319.65625 329.7 318.85938 329.7Q318.125 329.7 317.625 330.1844Q317.14062 330.66876 317.09375 331.4969ZM323.28125 335.2L323.28125 328.98126L324.23438 328.98126L324.23438 329.91876Q324.59375 329.2625 324.89062 329.0594Q325.20312 328.84064 325.57812 328.84064Q326.10938 328.84064 326.65625 329.16876L326.29688 330.15314Q325.90625 329.91876 325.53125 329.91876Q325.17188 329.91876 324.89062 330.1375Q324.625 330.34064 324.51562 330.71564Q324.32812 331.27814 324.32812 331.9344L324.32812 335.2L323.28125 335.2ZM326.875 333.34064L327.90625 333.1844Q328.0 333.8094 328.39062 334.1375Q328.79688 334.46564 329.53125 334.46564Q330.25 334.46564 330.59375 334.1844Q330.95312 333.8875 330.95312 333.48126Q330.95312 333.1219 330.64062 332.91876Q330.42188 332.77814 329.5625 332.5594Q328.40625 332.2625 327.95312 332.0594Q327.51562 331.84064 327.28125 331.46564Q327.04688 331.09064 327.04688 330.6219Q327.04688 330.21564 327.23438 329.85626Q327.42188 329.4969 327.75 329.2625Q328.0 329.09064 328.42188 328.96564Q328.84375 328.84064 329.34375 328.84064Q330.0625 328.84064 330.60938 329.0594Q331.17188 329.2625 331.4375 329.6219Q331.70312 329.98126 331.79688 330.575L330.76562 330.71564Q330.70312 330.2469 330.35938 329.98126Q330.03125 329.7 329.40625 329.7Q328.6875 329.7 328.375 329.95Q328.0625 330.1844 328.0625 330.5125Q328.0625 330.71564 328.1875 330.8719Q328.32812 331.04376 328.59375 331.15314Q328.75 331.21564 329.53125 331.41876Q330.65625 331.73126 331.09375 331.91876Q331.53125 332.10626 331.78125 332.46564Q332.03125 332.825 332.03125 333.3719Q332.03125 333.90314 331.71875 334.3719Q331.42188 334.825 330.84375 335.09064Q330.26562 335.34064 329.53125 335.34064Q328.3125 335.34064 327.67188 334.84064Q327.04688 334.325 326.875 333.34064Z" fill-rule="nonzero"/><path fill="#000000" d="M28.800013 194.89062L21.221888 194.89062L21.221888 197.71875L20.206263 197.71875L20.206263 190.90625L21.221888 190.90625L21.221888 193.75L28.800013 193.75L28.800013 194.89062ZM28.800013 190.21875L22.581263 190.21875L22.581263 189.26562L23.518763 189.26562Q22.862513 188.90625 22.659388 188.60938Q22.440638 188.29688 22.440638 187.92188Q22.440638 187.39062 22.768763 186.84375L23.753138 187.20312Q23.518763 187.59375 23.518763 187.96875Q23.518763 188.32812 23.737513 188.60938Q23.940638 188.875 24.315638 188.98438Q24.878138 189.17188 25.534388 189.17188L28.800013 189.17188L28.800013 190.21875ZM28.034388 182.14062Q28.534388 182.73438 28.737513 183.28125Q28.940638 183.8125 28.940638 184.4375Q28.940638 185.46875 28.440638 186.01562Q27.940638 186.5625 27.159388 186.5625Q26.706263 186.5625 26.331263 186.35938Q25.940638 186.15625 25.721888 185.8125Q25.487513 185.46875 25.378138 185.04688Q25.284388 184.75 25.206263 184.10938Q25.065638 182.84375 24.846888 182.23438Q24.628138 182.23438 24.581263 182.23438Q23.925013 182.23438 23.659388 182.53125Q23.315638 182.9375 23.315638 183.73438Q23.315638 184.46875 23.581263 184.82812Q23.831263 185.1875 24.487513 185.35938L24.346888 186.39062Q23.690638 186.25 23.284388 185.92188Q22.878138 185.59375 22.659388 184.98438Q22.440638 184.375 22.440638 183.57812Q22.440638 182.78125 22.628138 182.28125Q22.815638 181.78125 23.096888 181.54688Q23.378138 181.3125 23.815638 181.21875Q24.081263 181.17188 24.784388 181.17188L26.190638 181.17188Q27.659388 181.17188 28.050013 181.10938Q28.440638 181.03125 28.800013 180.82812L28.800013 181.9375Q28.471888 182.09375 28.034388 182.14062ZM25.675013 182.23438Q25.909388 182.8125 26.081263 183.95312Q26.175013 184.60938 26.300013 184.875Q26.409388 185.14062 26.628138 185.29688Q26.846888 185.4375 27.128138 185.4375Q27.550013 185.4375 27.831263 185.125Q28.112513 184.79688 28.112513 184.1875Q28.112513 183.57812 27.846888 183.10938Q27.581263 182.625 27.112513 182.40625Q26.753138 182.23438 26.065638 182.23438L25.675013 182.23438ZM28.800013 179.20312L22.581263 179.20312L22.581263 178.26562L23.456263 178.26562Q22.440638 177.57812 22.440638 176.28125Q22.440638 175.71875 22.643763 175.25Q22.846888 174.76562 23.175013 174.53125Q23.503138 174.29688 23.940638 174.20312Q24.237513 174.15625 24.971888 174.15625L28.800013 174.15625L28.800013 175.20312L25.018763 175.20312Q24.362513 175.20312 24.050013 175.32812Q23.737513 175.45312 23.550013 175.76562Q23.346888 176.07812 23.346888 176.5Q23.346888 177.17188 23.784388 177.67188Q24.206263 178.15625 25.393763 178.15625L28.800013 178.15625L28.800013 179.20312ZM26.940638 172.625L26.784388 171.59375Q27.409388 171.5 27.737513 171.10938Q28.065638 170.70312 28.065638 169.96875Q28.065638 169.25 27.784388 168.90625Q27.487513 168.54688 27.081263 168.54688Q26.721888 168.54688 26.518763 168.85938Q26.378138 169.07812 26.159388 169.9375Q25.862513 171.09375 25.659388 171.54688Q25.440638 171.98438 25.065638 172.21875Q24.690638 172.45312 24.221888 172.45312Q23.815638 172.45312 23.456263 172.26562Q23.096888 172.07812 22.862513 171.75Q22.690638 171.5 22.565638 171.07812Q22.440638 170.65625 22.440638 170.15625Q22.440638 169.4375 22.659388 168.89062Q22.862513 168.32812 23.221888 168.0625Q23.581263 167.79688 24.175013 167.70312L24.315638 168.73438Q23.846888 168.79688 23.581263 169.14062Q23.300013 169.46875 23.300013 170.09375Q23.300013 170.8125 23.550013 171.125Q23.784388 171.4375 24.112513 171.4375Q24.315638 171.4375 24.471888 171.3125Q24.643763 171.17188 24.753138 170.90625Q24.815638 170.75 25.018763 169.96875Q25.331263 168.84375 25.518763 168.40625Q25.706263 167.96875 26.065638 167.71875Q26.425013 167.46875 26.971888 167.46875Q27.503138 167.46875 27.971888 167.78125Q28.425013 168.07812 28.690638 168.65625Q28.940638 169.23438 28.940638 169.96875Q28.940638 171.1875 28.440638 171.82812Q27.925013 172.45312 26.940638 172.625ZM28.034388 161.14062Q28.534388 161.73438 28.737513 162.28125Q28.940638 162.8125 28.940638 163.4375Q28.940638 164.46875 28.440638 165.01562Q27.940638 165.5625 27.159388 165.5625Q26.706263 165.5625 26.331263 165.35938Q25.940638 165.15625 25.721888 164.8125Q25.487513 164.46875 25.378138 164.04688Q25.284388 163.75 25.206263 163.10938Q25.065638 161.84375 24.846888 161.23438Q24.628138 161.23438 24.581263 161.23438Q23.925013 161.23438 23.659388 161.53125Q23.315638 161.9375 23.315638 162.73438Q23.315638 163.46875 23.581263 163.82812Q23.831263 164.1875 24.487513 164.35938L24.346888 165.39062Q23.690638 165.25 23.284388 164.92188Q22.878138 164.59375 22.659388 163.98438Q22.440638 163.375 22.440638 162.57812Q22.440638 161.78125 22.628138 161.28125Q22.815638 160.78125 23.096888 160.54688Q23.378138 160.3125 23.815638 160.21875Q24.081263 160.17188 24.784388 160.17188L26.190638 160.17188Q27.659388 160.17188 28.050013 160.10938Q28.440638 160.03125 28.800013 159.82812L28.800013 160.9375Q28.471888 161.09375 28.034388 161.14062ZM25.675013 161.23438Q25.909388 161.8125 26.081263 162.95312Q26.175013 163.60938 26.300013 163.875Q26.409388 164.14062 26.628138 164.29688Q26.846888 164.4375 27.128138 164.4375Q27.550013 164.4375 27.831263 164.125Q28.112513 163.79688 28.112513 163.1875Q28.112513 162.57812 27.846888 162.10938Q27.581263 161.625 27.112513 161.40625Q26.753138 161.23438 26.065638 161.23438L25.675013 161.23438ZM26.518763 154.14062L26.659388 153.10938Q27.721888 153.28125 28.331263 153.98438Q28.940638 154.6875 28.940638 155.70312Q28.940638 156.98438 28.112513 157.76562Q27.268763 158.53125 25.706263 158.53125Q24.706263 158.53125 23.956263 158.20312Q23.190638 157.85938 22.815638 157.1875Q22.440638 156.5 22.440638 155.6875Q22.440638 154.6875 22.956263 154.04688Q23.456263 153.39062 24.409388 153.20312L24.565638 154.23438Q23.940638 154.375 23.628138 154.75Q23.300013 155.125 23.300013 155.65625Q23.300013 156.45312 23.878138 156.95312Q24.440638 157.45312 25.675013 157.45312Q26.940638 157.45312 27.503138 156.96875Q28.065638 156.48438 28.065638 155.71875Q28.065638 155.09375 27.690638 154.6875Q27.315638 154.26562 26.518763 154.14062ZM27.862513 149.90625L28.784388 149.75Q28.878138 150.20312 28.878138 150.54688Q28.878138 151.125 28.706263 151.4375Q28.518763 151.75 28.221888 151.89062Q27.925013 152.01562 26.971888 152.01562L23.393763 152.01562L23.393763 152.78125L22.581263 152.78125L22.581263 152.01562L21.034388 152.01562L20.409388 150.96875L22.581263 150.96875L22.581263 149.90625L23.393763 149.90625L23.393763 150.96875L27.034388 150.96875Q27.487513 150.96875 27.612513 150.92188Q27.737513 150.85938 27.815638 150.73438Q27.893763 150.60938 27.893763 150.375Q27.893763 150.1875 27.862513 149.90625ZM21.425013 149.20312L20.206263 149.20312L20.206263 148.14062L21.425013 148.14062L21.425013 149.20312ZM28.800013 149.20312L22.581263 149.20312L22.581263 148.14062L28.800013 148.14062L28.800013 149.20312ZM25.690638 146.59375Q23.956263 146.59375 23.128138 145.64062Q22.440638 144.84375 22.440638 143.6875Q22.440638 142.40625 23.284388 141.59375Q24.112513 140.76562 25.596888 140.76562Q26.800013 140.76562 27.487513 141.125Q28.175013 141.48438 28.565638 142.1875Q28.940638 142.875 28.940638 143.6875Q28.940638 144.98438 28.112513 145.79688Q27.268763 146.59375 25.690638 146.59375ZM25.690638 145.51562Q26.878138 145.51562 27.471888 145.0Q28.065638 144.46875 28.065638 143.6875Q28.065638 142.89062 27.471888 142.375Q26.878138 141.85938 25.659388 141.85938Q24.503138 141.85938 23.909388 142.39062Q23.315638 142.90625 23.315638 143.6875Q23.315638 144.46875 23.909388 145.0Q24.487513 145.51562 25.690638 145.51562ZM28.800013 139.20312L22.581263 139.20312L22.581263 138.26562L23.456263 138.26562Q22.440638 137.57812 22.440638 136.28125Q22.440638 135.71875 22.643763 135.25Q22.846888 134.76562 23.175013 134.53125Q23.503138 134.29688 23.940638 134.20312Q24.237513 134.15625 24.971888 134.15625L28.800013 134.15625L28.800013 135.20312L25.018763 135.20312Q24.362513 135.20312 24.050013 135.32812Q23.737513 135.45312 23.550013 135.76562Q23.346888 136.07812 23.346888 136.5Q23.346888 137.17188 23.784388 137.67188Q24.206263 138.15625 25.393763 138.15625L28.800013 138.15625L28.800013 139.20312ZM26.940638 132.625L26.784388 131.59375Q27.409388 131.5 27.737513 131.10938Q28.065638 130.70312 28.065638 129.96875Q28.065638 129.25 27.784388 128.90625Q27.487513 128.54688 27.081263 128.54688Q26.721888 128.54688 26.518763 128.85938Q26.378138 129.07812 26.159388 129.9375Q25.862513 131.09375 25.659388 131.54688Q25.440638 131.98438 25.065638 132.21875Q24.690638 132.45312 24.221888 132.45312Q23.815638 132.45312 23.456263 132.26562Q23.096888 132.07812 22.862513 131.75Q22.690638 131.5 22.565638 131.07812Q22.440638 130.65625 22.440638 130.15625Q22.440638 129.4375 22.659388 128.89062Q22.862513 128.32812 23.221888 128.0625Q23.581263 127.796875 24.175013 127.703125L24.315638 128.73438Q23.846888 128.79688 23.581263 129.14062Q23.300013 129.46875 23.300013 130.09375Q23.300013 130.8125 23.550013 131.125Q23.784388 131.4375 24.112513 131.4375Q24.315638 131.4375 24.471888 131.3125Q24.643763 131.17188 24.753138 130.90625Q24.815638 130.75 25.018763 129.96875Q25.331263 128.84375 25.518763 128.40625Q25.706263 127.96875 26.065638 127.71875Q26.425013 127.46875 26.971888 127.46875Q27.503138 127.46875 27.971888 127.78125Q28.425013 128.07812 28.690638 128.65625Q28.940638 129.23438 28.940638 129.96875Q28.940638 131.1875 28.440638 131.82812Q27.925013 132.45312 26.940638 132.625Z" fill-rule="nonzero"/><path fill="#000000" d="M64.3 285.96564Q64.3 284.4344 64.6125 283.5125Q64.925 282.575 65.53438 282.075Q66.15938 281.575 67.09688 281.575Q67.78438 281.575 68.3 281.85626Q68.83125 282.1375 69.175 282.66876Q69.51875 283.1844 69.70625 283.9344Q69.89375 284.6844 69.89375 285.96564Q69.89375 287.48126 69.58125 288.40314Q69.28438 289.325 68.65938 289.84064Q68.05 290.34064 67.09688 290.34064Q65.8625 290.34064 65.14375 289.45Q64.3 288.3875 64.3 285.96564ZM65.37813 285.96564Q65.37813 288.075 65.87813 288.77814Q66.37813 289.48126 67.09688 289.48126Q67.83125 289.48126 68.31563 288.77814Q68.81563 288.075 68.81563 285.96564Q68.81563 283.84064 68.31563 283.15314Q67.83125 282.45 67.08125 282.45Q66.3625 282.45 65.925 283.0594Q65.37813 283.84064 65.37813 285.96564Z" fill-rule="nonzero"/><path fill="#000000" d="M62.846874 223.83438L62.846874 224.85L57.159374 224.85Q57.159374 224.475 57.284374 224.11563Q57.503124 223.5375 57.971874 222.975Q58.45625 222.4125 59.3625 221.67813Q60.76875 220.52188 61.253124 219.85Q61.753124 219.17813 61.753124 218.58438Q61.753124 217.95938 61.3 217.5375Q60.846874 217.1 60.128124 217.1Q59.3625 217.1 58.909374 217.55313Q58.45625 218.00626 58.440624 218.81876L57.3625 218.70938Q57.471874 217.49063 58.190624 216.86563Q58.925 216.225 60.159374 216.225Q61.39375 216.225 62.1125 216.9125Q62.83125 217.6 62.83125 218.61563Q62.83125 219.13126 62.6125 219.63126Q62.409374 220.11563 61.909374 220.67813Q61.425 221.225 60.3 222.17813Q59.346874 222.975 59.065624 223.27188Q58.8 223.55313 58.628124 223.83438L62.846874 223.83438ZM64.3 222.6L65.40938 222.50626Q65.53438 223.31876 65.97188 223.725Q66.425 224.13126 67.06563 224.13126Q67.81563 224.13126 68.34688 223.55313Q68.87813 222.975 68.87813 222.0375Q68.87813 221.13126 68.3625 220.61563Q67.8625 220.08438 67.03438 220.08438Q66.53438 220.08438 66.1125 220.31876Q65.70625 220.55313 65.47188 220.9125L64.4875 220.7875L65.31563 216.38126L69.59688 216.38126L69.59688 217.38126L66.15938 217.38126L65.70625 219.69376Q66.47188 219.14688 67.31563 219.14688Q68.44063 219.14688 69.20625 219.92813Q69.9875 220.70938 69.9875 221.94376Q69.9875 223.1 69.31563 223.95938Q68.4875 224.99063 67.06563 224.99063Q65.89375 224.99063 65.14375 224.33438Q64.40938 223.67813 64.3 222.6Z" fill-rule="nonzero"/><path fill="#000000" d="M57.3 157.25L58.409374 157.15625Q58.534374 157.96875 58.971874 158.375Q59.425 158.78125 60.065624 158.78125Q60.815624 158.78125 61.346874 158.20312Q61.878124 157.625 61.878124 156.6875Q61.878124 155.78125 61.3625 155.26562Q60.8625 154.73438 60.034374 154.73438Q59.534374 154.73438 59.1125 154.96875Q58.70625 155.20312 58.471874 155.5625L57.4875 155.4375L58.315624 151.03125L62.596874 151.03125L62.596874 152.03125L59.159374 152.03125L58.70625 154.34375Q59.471874 153.79688 60.315624 153.79688Q61.440624 153.79688 62.20625 154.57812Q62.9875 155.35938 62.9875 156.59375Q62.9875 157.75 62.315624 158.60938Q61.4875 159.64062 60.065624 159.64062Q58.89375 159.64062 58.14375 158.98438Q57.409374 158.32812 57.3 157.25ZM64.3 155.26562Q64.3 153.73438 64.6125 152.8125Q64.925 151.875 65.53438 151.375Q66.15938 150.875 67.09688 150.875Q67.78438 150.875 68.3 151.15625Q68.83125 151.4375 69.175 151.96875Q69.51875 152.48438 69.70625 153.23438Q69.89375 153.98438 69.89375 155.26562Q69.89375 156.78125 69.58125 157.70312Q69.28438 158.625 68.65938 159.14062Q68.05 159.64062 67.09688 159.64062Q65.8625 159.64062 65.14375 158.75Q64.3 157.6875 64.3 155.26562ZM65.37813 155.26562Q65.37813 157.375 65.87813 158.07812Q66.37813 158.78125 67.09688 158.78125Q67.83125 158.78125 68.31563 158.07812Q68.81563 157.375 68.81563 155.26562Q68.81563 153.14062 68.31563 152.45312Q67.83125 151.75 67.08125 151.75Q66.3625 151.75 65.925 152.35938Q65.37813 153.14062 65.37813 155.26562Z" fill-rule="nonzero"/><path fill="#000000" d="M57.3625 86.68125L57.3625 85.66563L62.925 85.66563L62.925 86.49375Q62.1125 87.36875 61.3 88.82188Q60.503124 90.25938 60.065624 91.79063Q59.7375 92.86875 59.659374 94.15L58.565624 94.15Q58.58125 93.13438 58.95625 91.69688Q59.346874 90.25938 60.05 88.93125Q60.76875 87.60313 61.58125 86.68125L57.3625 86.68125ZM64.3 91.9L65.40938 91.80625Q65.53438 92.61875 65.97188 93.025Q66.425 93.43125 67.06563 93.43125Q67.81563 93.43125 68.34688 92.85313Q68.87813 92.275 68.87813 91.3375Q68.87813 90.43125 68.3625 89.91563Q67.8625 89.38438 67.03438 89.38438Q66.53438 89.38438 66.1125 89.61875Q65.70625 89.85313 65.47188 90.2125L64.4875 90.0875L65.31563 85.68125L69.59688 85.68125L69.59688 86.68125L66.15938 86.68125L65.70625 88.99375Q66.47188 88.44688 67.31563 88.44688Q68.44063 88.44688 69.20625 89.22813Q69.9875 90.00938 69.9875 91.24375Q69.9875 92.4 69.31563 93.25938Q68.4875 94.29063 67.06563 94.29063Q65.89375 94.29063 65.14375 93.63438Q64.40938 92.97813 64.3 91.9Z" fill-rule="nonzero"/><path fill="#000000" d="M54.26875 28.8L53.221874 28.8L53.221874 22.08125Q52.83125 22.440624 52.20625 22.815624Q51.596874 23.175 51.1125 23.346874L51.1125 22.33125Q51.9875 21.909374 52.64375 21.33125Q53.315624 20.7375 53.596874 20.175L54.26875 20.175L54.26875 28.8ZM57.3 24.565624Q57.3 23.034374 57.6125 22.1125Q57.925 21.175 58.534374 20.675Q59.159374 20.175 60.096874 20.175Q60.784374 20.175 61.3 20.45625Q61.83125 20.7375 62.175 21.26875Q62.51875 21.784374 62.70625 22.534374Q62.89375 23.284374 62.89375 24.565624Q62.89375 26.08125 62.58125 27.003124Q62.284374 27.925 61.659374 28.440624Q61.05 28.940624 60.096874 28.940624Q58.8625 28.940624 58.14375 28.05Q57.3 26.9875 57.3 24.565624ZM58.378124 24.565624Q58.378124 26.675 58.878124 27.378124Q59.378124 28.08125 60.096874 28.08125Q60.83125 28.08125 61.315624 27.378124Q61.815624 26.675 61.815624 24.565624Q61.815624 22.440624 61.315624 21.753124Q60.83125 21.05 60.08125 21.05Q59.3625 21.05 58.925 21.659374Q58.378124 22.440624 58.378124 24.565624ZM64.3 24.565624Q64.3 23.034374 64.6125 22.1125Q64.925 21.175 65.53438 20.675Q66.15938 20.175 67.09688 20.175Q67.78438 20.175 68.3 20.45625Q68.83125 20.7375 69.175 21.26875Q69.51875 21.784374 69.70625 22.534374Q69.89375 23.284374 69.89375 24.565624Q69.89375 26.08125 69.58125 27.003124Q69.28438 27.925 68.65938 28.440624Q68.05 28.940624 67.09688 28.940624Q65.8625 28.940624 65.14375 28.05Q64.3 26.9875 64.3 24.565624ZM65.37813 24.565624Q65.37813 26.675 65.87813 27.378124Q66.37813 28.08125 67.09688 28.08125Q67.83125 28.08125 68.31563 27.378124Q68.81563 26.675 68.81563 24.565624Q68.81563 22.440624 68.31563 21.753124Q67.83125 21.05 67.08125 21.05Q66.3625 21.05 65.925 21.659374Q65.37813 22.440624 65.37813 24.565624Z" fill-rule="nonzero"/><path fill="#000000" d="M104.19669 298.96564Q104.19669 297.4344 104.50919 296.5125Q104.82169 295.575 105.43107 295.075Q106.05607 294.575 106.99357 294.575Q107.68107 294.575 108.19669 294.85626Q108.72794 295.1375 109.07169 295.66876Q109.41544 296.1844 109.60294 296.9344Q109.79044 297.6844 109.79044 298.96564Q109.79044 300.48126 109.47794 301.40314Q109.18107 302.325 108.55607 302.84064Q107.94669 303.34064 106.99357 303.34064Q105.75919 303.34064 105.04044 302.45Q104.19669 301.3875 104.19669 298.96564ZM105.27482 298.96564Q105.27482 301.075 105.77482 301.77814Q106.27482 302.48126 106.99357 302.48126Q107.72794 302.48126 108.21232 301.77814Q108.71232 301.075 108.71232 298.96564Q108.71232 296.84064 108.21232 296.15314Q107.72794 295.45 106.97794 295.45Q106.25919 295.45 105.82169 296.0594Q105.27482 296.84064 105.27482 298.96564Z" fill-rule="nonzero"/><path fill="#000000" d="M197.9242 300.95L199.03357 300.85626Q199.15857 301.66876 199.59607 302.075Q200.0492 302.48126 200.68982 302.48126Q201.43982 302.48126 201.97107 301.90314Q202.50232 301.325 202.50232 300.3875Q202.50232 299.48126 201.9867 298.96564Q201.4867 298.4344 200.65857 298.4344Q200.15857 298.4344 199.7367 298.66876Q199.33044 298.90314 199.09607 299.2625L198.1117 299.1375L198.93982 294.73126L203.22107 294.73126L203.22107 295.73126L199.78357 295.73126L199.33044 298.04376Q200.09607 297.4969 200.93982 297.4969Q202.06482 297.4969 202.83044 298.27814Q203.6117 299.0594 203.6117 300.29376Q203.6117 301.45 202.93982 302.3094Q202.1117 303.34064 200.68982 303.34064Q199.51794 303.34064 198.76794 302.6844Q198.03357 302.02814 197.9242 300.95ZM204.9242 298.96564Q204.9242 297.4344 205.2367 296.5125Q205.5492 295.575 206.15857 295.075Q206.78357 294.575 207.72107 294.575Q208.40857 294.575 208.9242 294.85626Q209.45544 295.1375 209.7992 295.66876Q210.14294 296.1844 210.33044 296.9344Q210.51794 297.6844 210.51794 298.96564Q210.51794 300.48126 210.20544 301.40314Q209.90857 302.325 209.28357 302.84064Q208.6742 303.34064 207.72107 303.34064Q206.4867 303.34064 205.76794 302.45Q204.9242 301.3875 204.9242 298.96564ZM206.00232 298.96564Q206.00232 301.075 206.50232 301.77814Q207.00232 302.48126 207.72107 302.48126Q208.45544 302.48126 208.93982 301.77814Q209.43982 301.075 209.43982 298.96564Q209.43982 296.84064 208.93982 296.15314Q208.45544 295.45 207.70544 295.45Q206.9867 295.45 206.5492 296.0594Q206.00232 296.84064 206.00232 298.96564ZM211.9242 298.96564Q211.9242 297.4344 212.2367 296.5125Q212.5492 295.575 213.15857 295.075Q213.78357 294.575 214.72107 294.575Q215.40857 294.575 215.9242 294.85626Q216.45544 295.1375 216.7992 295.66876Q217.14294 296.1844 217.33044 296.9344Q217.51794 297.6844 217.51794 298.96564Q217.51794 300.48126 217.20544 301.40314Q216.90857 302.325 216.28357 302.84064Q215.6742 303.34064 214.72107 303.34064Q213.4867 303.34064 212.76794 302.45Q211.9242 301.3875 211.9242 298.96564ZM213.00232 298.96564Q213.00232 301.075 213.50232 301.77814Q214.00232 302.48126 214.72107 302.48126Q215.45544 302.48126 215.93982 301.77814Q216.43982 301.075 216.43982 298.96564Q216.43982 296.84064 215.93982 296.15314Q215.45544 295.45 214.70544 295.45Q213.9867 295.45 213.5492 296.0594Q213.00232 296.84064 213.00232 298.96564Z" fill-rule="nonzero"/><path fill="#000000" d="M299.12045 303.2L298.07358 303.2L298.07358 296.48126Q297.68295 296.84064 297.05795 297.21564Q296.44858 297.575 295.9642 297.7469L295.9642 296.73126Q296.8392 296.3094 297.49545 295.73126Q298.16733 295.1375 298.44858 294.575L299.12045 294.575L299.12045 303.2ZM302.1517 298.96564Q302.1517 297.4344 302.4642 296.5125Q302.7767 295.575 303.38608 295.075Q304.01108 294.575 304.94858 294.575Q305.63608 294.575 306.1517 294.85626Q306.68295 295.1375 307.0267 295.66876Q307.37045 296.1844 307.55795 296.9344Q307.74545 297.6844 307.74545 298.96564Q307.74545 300.48126 307.43295 301.40314Q307.13608 302.325 306.51108 302.84064Q305.9017 303.34064 304.94858 303.34064Q303.7142 303.34064 302.99545 302.45Q302.1517 301.3875 302.1517 298.96564ZM303.22983 298.96564Q303.22983 301.075 303.72983 301.77814Q304.22983 302.48126 304.94858 302.48126Q305.68295 302.48126 306.16733 301.77814Q306.66733 301.075 306.66733 298.96564Q306.66733 296.84064 306.16733 296.15314Q305.68295 295.45 304.93295 295.45Q304.2142 295.45 303.7767 296.0594Q303.22983 296.84064 303.22983 298.96564ZM309.1517 298.96564Q309.1517 297.4344 309.4642 296.5125Q309.7767 295.575 310.38608 295.075Q311.01108 294.575 311.94858 294.575Q312.63608 294.575 313.1517 294.85626Q313.68295 295.1375 314.0267 295.66876Q314.37045 296.1844 314.55795 296.9344Q314.74545 297.6844 314.74545 298.96564Q314.74545 300.48126 314.43295 301.40314Q314.13608 302.325 313.51108 302.84064Q312.9017 303.34064 311.94858 303.34064Q310.7142 303.34064 309.99545 302.45Q309.1517 301.3875 309.1517 298.96564ZM310.22983 298.96564Q310.22983 301.075 310.72983 301.77814Q311.22983 302.48126 311.94858 302.48126Q312.68295 302.48126 313.16733 301.77814Q313.66733 301.075 313.66733 298.96564Q313.66733 296.84064 313.16733 296.15314Q312.68295 295.45 311.93295 295.45Q311.2142 295.45 310.7767 296.0594Q310.22983 296.84064 310.22983 298.96564ZM316.1517 298.96564Q316.1517 297.4344 316.4642 296.5125Q316.7767 295.575 317.38608 295.075Q318.01108 294.575 318.94858 294.575Q319.63608 294.575 320.1517 294.85626Q320.68295 295.1375 321.0267 295.66876Q321.37045 296.1844 321.55795 296.9344Q321.74545 297.6844 321.74545 298.96564Q321.74545 300.48126 321.43295 301.40314Q321.13608 302.325 320.51108 302.84064Q319.9017 303.34064 318.94858 303.34064Q317.7142 303.34064 316.99545 302.45Q316.1517 301.3875 316.1517 298.96564ZM317.22983 298.96564Q317.22983 301.075 317.72983 301.77814Q318.22983 302.48126 318.94858 302.48126Q319.68295 302.48126 320.16733 301.77814Q320.66733 301.075 320.66733 298.96564Q320.66733 296.84064 320.16733 296.15314Q319.68295 295.45 318.93295 295.45Q318.2142 295.45 317.7767 296.0594Q317.22983 296.84064 317.22983 298.96564Z" fill-rule="nonzero"/><path fill="#000000" d="M399.84796 303.2L398.8011 303.2L398.8011 296.48126Q398.41046 296.84064 397.78546 297.21564Q397.1761 297.575 396.6917 297.7469L396.6917 296.73126Q397.5667 296.3094 398.22296 295.73126Q398.89484 295.1375 399.1761 294.575L399.84796 294.575L399.84796 303.2ZM402.8792 300.95L403.9886 300.85626Q404.1136 301.66876 404.5511 302.075Q405.0042 302.48126 405.64484 302.48126Q406.39484 302.48126 406.9261 301.90314Q407.45734 301.325 407.45734 300.3875Q407.45734 299.48126 406.9417 298.96564Q406.4417 298.4344 405.6136 298.4344Q405.1136 298.4344 404.6917 298.66876Q404.28546 298.90314 404.0511 299.2625L403.0667 299.1375L403.89484 294.73126L408.1761 294.73126L408.1761 295.73126L404.7386 295.73126L404.28546 298.04376Q405.0511 297.4969 405.89484 297.4969Q407.01984 297.4969 407.78546 298.27814Q408.5667 299.0594 408.5667 300.29376Q408.5667 301.45 407.89484 302.3094Q407.0667 303.34064 405.64484 303.34064Q404.47296 303.34064 403.72296 302.6844Q402.9886 302.02814 402.8792 300.95ZM409.8792 298.96564Q409.8792 297.4344 410.1917 296.5125Q410.5042 295.575 411.1136 295.075Q411.7386 294.575 412.6761 294.575Q413.3636 294.575 413.8792 294.85626Q414.41046 295.1375 414.7542 295.66876Q415.09796 296.1844 415.28546 296.9344Q415.47296 297.6844 415.47296 298.96564Q415.47296 300.48126 415.16046 301.40314Q414.8636 302.325 414.2386 302.84064Q413.6292 303.34064 412.6761 303.34064Q411.4417 303.34064 410.72296 302.45Q409.8792 301.3875 409.8792 298.96564ZM410.95734 298.96564Q410.95734 301.075 411.45734 301.77814Q411.95734 302.48126 412.6761 302.48126Q413.41046 302.48126 413.89484 301.77814Q414.39484 301.075 414.39484 298.96564Q414.39484 296.84064 413.89484 296.15314Q413.41046 295.45 412.66046 295.45Q411.9417 295.45 411.5042 296.0594Q410.95734 296.84064 410.95734 298.96564ZM416.8792 298.96564Q416.8792 297.4344 417.1917 296.5125Q417.5042 295.575 418.1136 295.075Q418.7386 294.575 419.6761 294.575Q420.3636 294.575 420.8792 294.85626Q421.41046 295.1375 421.7542 295.66876Q422.09796 296.1844 422.28546 296.9344Q422.47296 297.6844 422.47296 298.96564Q422.47296 300.48126 422.16046 301.40314Q421.8636 302.325 421.2386 302.84064Q420.6292 303.34064 419.6761 303.34064Q418.4417 303.34064 417.72296 302.45Q416.8792 301.3875 416.8792 298.96564ZM417.95734 298.96564Q417.95734 301.075 418.45734 301.77814Q418.95734 302.48126 419.6761 302.48126Q420.41046 302.48126 420.89484 301.77814Q421.39484 301.075 421.39484 298.96564Q421.39484 296.84064 420.89484 296.15314Q420.41046 295.45 419.66046 295.45Q418.9417 295.45 418.5042 296.0594Q417.95734 296.84064 417.95734 298.96564Z" fill-rule="nonzero"/><path fill="#000000" d="M502.15356 302.1844L502.15356 303.2L496.46606 303.2Q496.46606 302.825 496.59106 302.46564Q496.8098 301.8875 497.27856 301.325Q497.76294 300.7625 498.6692 300.02814Q500.07544 298.8719 500.5598 298.2Q501.0598 297.52814 501.0598 296.9344Q501.0598 296.3094 500.6067 295.8875Q500.15356 295.45 499.4348 295.45Q498.6692 295.45 498.21606 295.90314Q497.76294 296.35626 497.7473 297.16876L496.6692 297.0594Q496.77856 295.84064 497.4973 295.21564Q498.2317 294.575 499.46606 294.575Q500.70044 294.575 501.4192 295.2625Q502.13794 295.95 502.13794 296.96564Q502.13794 297.48126 501.9192 297.98126Q501.71606 298.46564 501.21606 299.02814Q500.7317 299.575 499.6067 300.52814Q498.65356 301.325 498.3723 301.6219Q498.1067 301.90314 497.9348 302.1844L502.15356 302.1844ZM503.6067 298.96564Q503.6067 297.4344 503.9192 296.5125Q504.2317 295.575 504.84106 295.075Q505.46606 294.575 506.40356 294.575Q507.09106 294.575 507.6067 294.85626Q508.13794 295.1375 508.4817 295.66876Q508.82544 296.1844 509.01294 296.9344Q509.20044 297.6844 509.20044 298.96564Q509.20044 300.48126 508.88794 301.40314Q508.59106 302.325 507.96606 302.84064Q507.3567 303.34064 506.40356 303.34064Q505.1692 303.34064 504.45044 302.45Q503.6067 301.3875 503.6067 298.96564ZM504.6848 298.96564Q504.6848 301.075 505.1848 301.77814Q505.6848 302.48126 506.40356 302.48126Q507.13794 302.48126 507.6223 301.77814Q508.1223 301.075 508.1223 298.96564Q508.1223 296.84064 507.6223 296.15314Q507.13794 295.45 506.38794 295.45Q505.6692 295.45 505.2317 296.0594Q504.6848 296.84064 504.6848 298.96564ZM510.6067 298.96564Q510.6067 297.4344 510.9192 296.5125Q511.2317 295.575 511.84106 295.075Q512.46606 294.575 513.40356 294.575Q514.09106 294.575 514.6067 294.85626Q515.13794 295.1375 515.4817 295.66876Q515.82544 296.1844 516.01294 296.9344Q516.20044 297.6844 516.20044 298.96564Q516.20044 300.48126 515.88794 301.40314Q515.59106 302.325 514.96606 302.84064Q514.3567 303.34064 513.40356 303.34064Q512.1692 303.34064 511.45044 302.45Q510.6067 301.3875 510.6067 298.96564ZM511.6848 298.96564Q511.6848 301.075 512.1848 301.77814Q512.6848 302.48126 513.40356 302.48126Q514.13794 302.48126 514.6223 301.77814Q515.1223 301.075 515.1223 298.96564Q515.1223 296.84064 514.6223 296.15314Q514.13794 295.45 513.38794 295.45Q512.6692 295.45 512.2317 296.0594Q511.6848 296.84064 511.6848 298.96564ZM517.6067 298.96564Q517.6067 297.4344 517.9192 296.5125Q518.2317 295.575 518.84106 295.075Q519.46606 294.575 520.40356 294.575Q521.09106 294.575 521.6067 294.85626Q522.13794 295.1375 522.4817 295.66876Q522.82544 296.1844 523.01294 296.9344Q523.20044 297.6844 523.20044 298.96564Q523.20044 300.48126 522.88794 301.40314Q522.59106 302.325 521.96606 302.84064Q521.3567 303.34064 520.40356 303.34064Q519.1692 303.34064 518.45044 302.45Q517.6067 301.3875 517.6067 298.96564ZM518.6848 298.96564Q518.6848 301.075 519.1848 301.77814Q519.6848 302.48126 520.40356 302.48126Q521.13794 302.48126 521.6223 301.77814Q522.1223 301.075 522.1223 298.96564Q522.1223 296.84064 521.6223 296.15314Q521.13794 295.45 520.38794 295.45Q519.6692 295.45 519.2317 296.0594Q518.6848 296.84064 518.6848 298.96564Z" fill-rule="nonzero"/></svg>