<svg version="1.1" viewBox="0.0 0.0 509.0 315.0" fill="none" stroke="none" stroke-linecap="square" stroke-miterlimit="10" width="509" height="315" xmlns:xlink="http://www.w3.org/1999/xlink" xmlns="http://www.w3.org/2000/svg"><path fill="#ffffff" d="M0 0L509.0 0L509.0 315.0L0 315.0L0 0Z" fill-rule="nonzero"/><path stroke="#cccccc" stroke-width="1.0" stroke-linecap="butt" d="M77.5 22.5L77.5 265.5" fill-rule="nonzero"/><path stroke="#cccccc" stroke-width="1.0" stroke-linecap="butt" d="M104.5 22.5L104.5 265.5" fill-rule="nonzero"/><path stroke="#cccccc" stroke-width="1.0" stroke-linecap="butt" d="M124.5 22.5L124.5 265.5" fill-rule="nonzero"/><path stroke="#cccccc" stroke-width="1.0" stroke-linecap="butt" d="M139.5 22.5L139.5 265.5" fill-rule="nonzero"/><path stroke="#cccccc" stroke-width="1.0" stroke-linecap="butt" d="M187.5 22.5L187.5 265.5" fill-rule="nonzero"/><path stroke="#cccccc" stroke-width="1.0" stroke-linecap="butt" d="M234.5 22.5L234.5 265.5" fill-rule="nonzero"/><path stroke="#cccccc" stroke-width="1.0" stroke-linecap="butt" d="M262.5 22.5L262.5 265.5" fill-rule="nonzero"/><path stroke="#cccccc" stroke-width="1.0" stroke-linecap="butt" d="M282.5 22.5L282.5 265.5" fill-rule="nonzero"/><path stroke="#cccccc" stroke-width="1.0" stroke-linecap="butt" d="M297.5 22.5L297.5 265.5" fill-rule="nonzero"/><path stroke="#cccccc" stroke-width="1.0" stroke-linecap="butt" d="M344.5 22.5L344.5 265.5" fill-rule="nonzero"/><path stroke="#cccccc" stroke-width="1.0" stroke-linecap="butt" d="M392.5 22.5L392.5 265.5" fill-rule="nonzero"/><path stroke="#cccccc" stroke-width="1.0" stroke-linecap="butt" d="M420.5 22.5L420.5 265.5" fill-rule="nonzero"/><path stroke="#cccccc" stroke-width="1.0" stroke-linecap="butt" d="M439.5 22.5L439.5 265.5" fill-rule="nonzero"/><path stroke="#cccccc" stroke-width="1.0" stroke-linecap="butt" d="M455.5 22.5L455.5 265.5" fill-rule="nonzero"/><path stroke="#333333" stroke-width="1.0" stroke-linecap="butt" d="M42.5 265.5L493.5 265.5" fill-rule="nonzero"/><path stroke="#cccccc" stroke-width="1.0" stroke-linecap="butt" d="M42.5 204.5L493.5 204.5" fill-rule="nonzero"/><path stroke="#cccccc" stroke-width="1.0" stroke-linecap="butt" d="M42.5 144.5L493.5 144.5" fill-rule="nonzero"/><path stroke="#cccccc" stroke-width="1.0" stroke-linecap="butt" d="M42.5 83.5L493.5 83.5" fill-rule="nonzero"/><path stroke="#cccccc" stroke-width="1.0" stroke-linecap="butt" d="M42.5 22.5L493.5 22.5" fill-rule="nonzero"/><path stroke="#e6e6e6" stroke-width="1.0" stroke-linecap="butt" d="M42.5 255.5L493.5 255.5" fill-rule="nonzero"/><path stroke="#e6e6e6" stroke-width="1.0" stroke-linecap="butt" d="M42.5 245.5L493.5 245.5" fill-rule="nonzero"/><path stroke="#e6e6e6" stroke-width="1.0" stroke-linecap="butt" d="M42.5 234.5L493.5 234.5" fill-rule="nonzero"/><path stroke="#e6e6e6" stroke-width="1.0" stroke-linecap="butt" d="M42.5 224.5L493.5 224.5" fill-rule="nonzero"/><path stroke="#e6e6e6" stroke-width="1.0" stroke-linecap="butt" d="M42.5 214.5L493.5 214.5" fill-rule="nonzero"/><path stroke="#e6e6e6" stroke-width="1.0" stroke-linecap="butt" d="M42.5 194.5L493.5 194.5" fill-rule="nonzero"/><path stroke="#e6e6e6" stroke-width="1.0" stroke-linecap="butt" d="M42.5 184.5L493.5 184.5" fill-rule="nonzero"/><path stroke="#e6e6e6" stroke-width="1.0" stroke-linecap="butt" d="M42.5 174.5L493.5 174.5" fill-rule="nonzero"/><path stroke="#e6e6e6" stroke-width="1.0" stroke-linecap="butt" d="M42.5 164.5L493.5 164.5" fill-rule="nonzero"/><path stroke="#e6e6e6" stroke-width="1.0" stroke-linecap="butt" d="M42.5 154.5L493.5 154.5" fill-rule="nonzero"/><path stroke="#e6e6e6" stroke-width="1.0" stroke-linecap="butt" d="M42.5 133.5L493.5 133.5" fill-rule="nonzero"/><path stroke="#e6e6e6" stroke-width="1.0" stroke-linecap="butt" d="M42.5 123.5L493.5 123.5" fill-rule="nonzero"/><path stroke="#e6e6e6" stroke-width="1.0" stroke-linecap="butt" d="M42.5 113.5L493.5 113.5" fill-rule="nonzero"/><path stroke="#e6e6e6" stroke-width="1.0" stroke-linecap="butt" d="M42.5 103.5L493.5 103.5" fill-rule="nonzero"/><path stroke="#e6e6e6" stroke-width="1.0" stroke-linecap="butt" d="M42.5 93.5L493.5 93.5" fill-rule="nonzero"/><path stroke="#e6e6e6" stroke-width="1.0" stroke-linecap="butt" d="M42.5 73.5L493.5 73.5" fill-rule="nonzero"/><path stroke="#e6e6e6" stroke-width="1.0" stroke-linecap="butt" d="M42.5 63.5L493.5 63.5" fill-rule="nonzero"/><path stroke="#e6e6e6" stroke-width="1.0" stroke-linecap="butt" d="M42.5 53.5L493.5 53.5" fill-rule="nonzero"/><path stroke="#e6e6e6" stroke-width="1.0" stroke-linecap="butt" d="M42.5 42.5L493.5 42.5" fill-rule="nonzero"/><path stroke="#e6e6e6" stroke-width="1.0" stroke-linecap="butt" d="M42.5 32.5L493.5 32.5" fill-rule="nonzero"/><clipPath id="id_0"><path d="M42.75 22.75L493.25 22.75L493.25 265.25L42.75 265.25L42.75 22.75Z" clip-rule="nonzero"/></clipPath><path fill="#ea4335" fill-opacity="0.8" clip-path="url(#id_0)" d="M98.51268 113.6875C98.51268 125.50476 88.93289 135.08455 77.11563 135.08455C65.29837 135.08455 55.71859 125.50476 55.71859 113.6875C55.71859 101.87024 65.29837 92.29046 77.11563 92.29046C88.93289 92.29046 98.51268 101.87024 98.51268 113.6875Z" fill-rule="nonzero"/><path fill="#fbbc04" fill-opacity="0.8" clip-path="url(#id_0)" d="M320.30865 174.3125C320.30865 177.6262 317.62238 180.3125 314.30865 180.3125C310.99496 180.3125 308.30865 177.6262 308.30865 174.3125C308.30865 170.9988 310.99496 168.3125 314.30865 168.3125C317.62238 168.3125 320.30865 170.9988 320.30865 174.3125Z" fill-rule="nonzero"/><path fill="#34a853" fill-opacity="0.8" clip-path="url(#id_0)" d="M337.67886 98.53125C337.67886 111.43826 327.21567 121.90146 314.30865 121.90146C301.40164 121.90146 290.93845 111.43826 290.93845 98.53125C290.93845 85.62424 301.40164 75.16104 314.30865 75.16104C327.21567 75.16104 337.67886 85.62424 337.67886 98.53125Z" fill-rule="nonzero"/><path fill="#ff6d01" fill-opacity="0.8" clip-path="url(#id_0)" d="M343.0516 53.0625C343.0516 68.93679 330.18295 81.80544 314.30865 81.80544C298.4344 81.80544 285.56573 68.93679 285.56573 53.0625C285.56573 37.188213 298.4344 24.31956 314.30865 24.31956C330.18295 24.31956 343.0516 37.188213 343.0516 53.0625Z" fill-rule="nonzero"/><path fill="#46bdc6" fill-opacity="0.8" clip-path="url(#id_0)" d="M392.74728 113.6875C392.74728 130.80833 378.8681 144.6875 361.74728 144.6875C344.62643 144.6875 330.74728 130.80833 330.74728 113.6875C330.74728 96.56667 344.62643 82.6875 361.74728 82.6875C378.8681 82.6875 392.74728 96.56667 392.74728 113.6875Z" fill-rule="nonzero"/><path fill="#7baaf7" fill-opacity="0.8" clip-path="url(#id_0)" d="M479.36282 256.15625C479.36282 268.7143 469.18253 278.8946 456.62448 278.8946C444.06644 278.8946 433.88614 268.7143 433.88614 256.15625C433.88614 243.5982 444.06644 233.4179 456.62448 233.4179C469.18253 233.4179 479.36282 243.5982 479.36282 256.15625Z" fill-rule="nonzero"/><path fill="#7baaf7" fill-opacity="0.8" clip-path="url(#id_0)" d="M479.36282 174.3125C479.36282 186.87054 469.18253 197.05086 456.62448 197.05086C444.06644 197.05086 433.88614 186.87054 433.88614 174.3125C433.88614 161.75446 444.06644 151.57414 456.62448 151.57414C469.18253 151.57414 479.36282 161.75446 479.36282 174.3125Z" fill-rule="nonzero"/><path stroke="#ffffff" stroke-width="3.0" stroke-linejoin="round" stroke-linecap="round" clip-path="url(#id_0)" d="M69.70938 116.046875L70.92813 115.875Q71.14688 116.921875 71.64688 117.390625Q72.162506 117.84375 72.89688 117.84375Q73.77188 117.84375 74.36563 117.25Q74.95938 116.640625 74.95938 115.75Q74.95938 114.90625 74.39688 114.359375Q73.850006 113.8125 73.006256 113.8125Q72.64688 113.8125 72.131256 113.9375L72.27188 112.859375Q72.39688 112.875 72.45938 112.875Q73.256256 112.875 73.881256 112.46875Q74.506256 112.0625 74.506256 111.203125Q74.506256 110.53125 74.05313 110.09375Q73.600006 109.640625 72.86563 109.640625Q72.14688 109.640625 71.662506 110.09375Q71.193756 110.53125 71.05313 111.4375L69.83438 111.21875Q70.05313 109.984375 70.850006 109.3125Q71.64688 108.625 72.83438 108.625Q73.662506 108.625 74.350006 108.984375Q75.037506 109.328125 75.39688 109.9375Q75.77188 110.546875 75.77188 111.234375Q75.77188 111.875 75.42813 112.40625Q75.08438 112.9375 74.39688 113.265625Q75.287506 113.46875 75.77188 114.109375Q76.27188 114.75 76.27188 115.734375Q76.27188 117.046875 75.30313 117.953125Q74.350006 118.859375 72.89688 118.859375Q71.568756 118.859375 70.693756 118.078125Q69.83438 117.296875 69.70938 116.046875ZM84.162506 117.5L84.162506 118.6875L77.537506 118.6875Q77.52188 118.25 77.67813 117.828125Q77.943756 117.15625 78.49063 116.5Q79.05313 115.84375 80.100006 114.984375Q81.74063 113.640625 82.30313 112.859375Q82.881256 112.078125 82.881256 111.375Q82.881256 110.640625 82.350006 110.140625Q81.83438 109.640625 81.006256 109.640625Q80.11563 109.640625 79.568756 110.171875Q79.037506 110.703125 79.037506 111.65625L77.77188 111.515625Q77.89688 110.109375 78.74063 109.375Q79.600006 108.625 81.02188 108.625Q82.475006 108.625 83.30313 109.421875Q84.14688 110.21875 84.14688 111.40625Q84.14688 112.015625 83.89688 112.59375Q83.662506 113.171875 83.08438 113.8125Q82.52188 114.453125 81.193756 115.578125Q80.08438 116.5 79.77188 116.84375Q79.45938 117.171875 79.256256 117.5L84.162506 117.5Z" fill-rule="nonzero"/><path fill="#1a1a1a" clip-path="url(#id_0)" d="M69.70938 116.046875L70.92813 115.875Q71.14688 116.921875 71.64688 117.390625Q72.162506 117.84375 72.89688 117.84375Q73.77188 117.84375 74.36563 117.25Q74.95938 116.640625 74.95938 115.75Q74.95938 114.90625 74.39688 114.359375Q73.850006 113.8125 73.006256 113.8125Q72.64688 113.8125 72.131256 113.9375L72.27188 112.859375Q72.39688 112.875 72.45938 112.875Q73.256256 112.875 73.881256 112.46875Q74.506256 112.0625 74.506256 111.203125Q74.506256 110.53125 74.05313 110.09375Q73.600006 109.640625 72.86563 109.640625Q72.14688 109.640625 71.662506 110.09375Q71.193756 110.53125 71.05313 111.4375L69.83438 111.21875Q70.05313 109.984375 70.850006 109.3125Q71.64688 108.625 72.83438 108.625Q73.662506 108.625 74.350006 108.984375Q75.037506 109.328125 75.39688 109.9375Q75.77188 110.546875 75.77188 111.234375Q75.77188 111.875 75.42813 112.40625Q75.08438 112.9375 74.39688 113.265625Q75.287506 113.46875 75.77188 114.109375Q76.27188 114.75 76.27188 115.734375Q76.27188 117.046875 75.30313 117.953125Q74.350006 118.859375 72.89688 118.859375Q71.568756 118.859375 70.693756 118.078125Q69.83438 117.296875 69.70938 116.046875ZM84.162506 117.5L84.162506 118.6875L77.537506 118.6875Q77.52188 118.25 77.67813 117.828125Q77.943756 117.15625 78.49063 116.5Q79.05313 115.84375 80.100006 114.984375Q81.74063 113.640625 82.30313 112.859375Q82.881256 112.078125 82.881256 111.375Q82.881256 110.640625 82.350006 110.140625Q81.83438 109.640625 81.006256 109.640625Q80.11563 109.640625 79.568756 110.171875Q79.037506 110.703125 79.037506 111.65625L77.77188 111.515625Q77.89688 110.109375 78.74063 109.375Q79.600006 108.625 81.02188 108.625Q82.475006 108.625 83.30313 109.421875Q84.14688 110.21875 84.14688 111.40625Q84.14688 112.015625 83.89688 112.59375Q83.662506 113.171875 83.08438 113.8125Q82.52188 114.453125 81.193756 115.578125Q80.08438 116.5 79.77188 116.84375Q79.45938 117.171875 79.256256 117.5L84.162506 117.5Z" fill-rule="nonzero"/><path stroke="#ffffff" stroke-width="3.0" stroke-linejoin="round" stroke-linecap="round" clip-path="url(#id_0)" d="M313.35553 178.125L313.35553 179.3125L306.73053 179.3125Q306.7149 178.875 306.87115 178.45312Q307.13678 177.78125 307.68365 177.125Q308.24615 176.46875 309.29303 175.60938Q310.93365 174.26562 311.49615 173.48438Q312.07428 172.70312 312.07428 172.0Q312.07428 171.26562 311.54303 170.76562Q311.0274 170.26562 310.19928 170.26562Q309.30865 170.26562 308.76178 170.79688Q308.23053 171.32812 308.23053 172.28125L306.9649 172.14062Q307.0899 170.73438 307.93365 170.0Q308.79303 169.25 310.2149 169.25Q311.66803 169.25 312.49615 170.04688Q313.3399 170.84375 313.3399 172.03125Q313.3399 172.64062 313.0899 173.21875Q312.85553 173.79688 312.2774 174.4375Q311.7149 175.07812 310.38678 176.20312Q309.2774 177.125 308.9649 177.46875Q308.6524 177.79688 308.44928 178.125L313.35553 178.125ZM319.5274 179.3125L318.29303 179.3125L318.29303 171.46875Q317.85553 171.89062 317.12115 172.32812Q316.4024 172.75 315.8399 172.95312L315.8399 171.76562Q316.87115 171.28125 317.63678 170.59375Q318.41803 169.90625 318.73053 169.25L319.5274 169.25L319.5274 179.3125Z" fill-rule="nonzero"/><path fill="#1a1a1a" clip-path="url(#id_0)" d="M313.35553 178.125L313.35553 179.3125L306.73053 179.3125Q306.7149 178.875 306.87115 178.45312Q307.13678 177.78125 307.68365 177.125Q308.24615 176.46875 309.29303 175.60938Q310.93365 174.26562 311.49615 173.48438Q312.07428 172.70312 312.07428 172.0Q312.07428 171.26562 311.54303 170.76562Q311.0274 170.26562 310.19928 170.26562Q309.30865 170.26562 308.76178 170.79688Q308.23053 171.32812 308.23053 172.28125L306.9649 172.14062Q307.0899 170.73438 307.93365 170.0Q308.79303 169.25 310.2149 169.25Q311.66803 169.25 312.49615 170.04688Q313.3399 170.84375 313.3399 172.03125Q313.3399 172.64062 313.0899 173.21875Q312.85553 173.79688 312.2774 174.4375Q311.7149 175.07812 310.38678 176.20312Q309.2774 177.125 308.9649 177.46875Q308.6524 177.79688 308.44928 178.125L313.35553 178.125ZM319.5274 179.3125L318.29303 179.3125L318.29303 171.46875Q317.85553 171.89062 317.12115 172.32812Q316.4024 172.75 315.8399 172.95312L315.8399 171.76562Q316.87115 171.28125 317.63678 170.59375Q318.41803 169.90625 318.73053 169.25L319.5274 169.25L319.5274 179.3125Z" fill-rule="nonzero"/><path stroke="#ffffff" stroke-width="3.0" stroke-linejoin="round" stroke-linecap="round" clip-path="url(#id_0)" d="M306.9024 100.890625L308.12115 100.71875Q308.3399 101.765625 308.8399 102.234375Q309.35553 102.6875 310.0899 102.6875Q310.9649 102.6875 311.55865 102.09375Q312.1524 101.484375 312.1524 100.59375Q312.1524 99.75 311.5899 99.203125Q311.04303 98.65625 310.19928 98.65625Q309.8399 98.65625 309.32428 98.78125L309.4649 97.703125Q309.5899 97.71875 309.6524 97.71875Q310.44928 97.71875 311.07428 97.3125Q311.69928 96.90625 311.69928 96.046875Q311.69928 95.375 311.24615 94.9375Q310.79303 94.484375 310.05865 94.484375Q309.3399 94.484375 308.85553 94.9375Q308.38678 95.375 308.24615 96.28125L307.0274 96.0625Q307.24615 94.828125 308.04303 94.15625Q308.8399 93.46875 310.0274 93.46875Q310.85553 93.46875 311.54303 93.828125Q312.23053 94.171875 312.5899 94.78125Q312.9649 95.390625 312.9649 96.078125Q312.9649 96.71875 312.62115 97.25Q312.2774 97.78125 311.5899 98.109375Q312.48053 98.3125 312.9649 98.953125Q313.4649 99.59375 313.4649 100.578125Q313.4649 101.890625 312.49615 102.796875Q311.54303 103.703125 310.0899 103.703125Q308.76178 103.703125 307.88678 102.921875Q307.0274 102.140625 306.9024 100.890625ZM314.88678 100.90625L316.18365 100.796875Q316.32428 101.734375 316.8399 102.21875Q317.37115 102.6875 318.10553 102.6875Q318.99615 102.6875 319.60553 102.015625Q320.23053 101.34375 320.23053 100.25Q320.23053 99.1875 319.63678 98.578125Q319.04303 97.96875 318.0899 97.96875Q317.49615 97.96875 317.01178 98.25Q316.54303 98.515625 316.26178 98.9375L315.10553 98.796875L316.07428 93.640625L321.05865 93.640625L321.05865 94.828125L317.05865 94.828125L316.5274 97.515625Q317.43365 96.890625 318.41803 96.890625Q319.73053 96.890625 320.62115 97.796875Q321.5274 98.703125 321.5274 100.140625Q321.5274 101.5 320.74615 102.484375Q319.7774 103.703125 318.10553 103.703125Q316.74615 103.703125 315.87115 102.9375Q315.01178 102.171875 314.88678 100.90625Z" fill-rule="nonzero"/><path fill="#1a1a1a" clip-path="url(#id_0)" d="M306.9024 100.890625L308.12115 100.71875Q308.3399 101.765625 308.8399 102.234375Q309.35553 102.6875 310.0899 102.6875Q310.9649 102.6875 311.55865 102.09375Q312.1524 101.484375 312.1524 100.59375Q312.1524 99.75 311.5899 99.203125Q311.04303 98.65625 310.19928 98.65625Q309.8399 98.65625 309.32428 98.78125L309.4649 97.703125Q309.5899 97.71875 309.6524 97.71875Q310.44928 97.71875 311.07428 97.3125Q311.69928 96.90625 311.69928 96.046875Q311.69928 95.375 311.24615 94.9375Q310.79303 94.484375 310.05865 94.484375Q309.3399 94.484375 308.85553 94.9375Q308.38678 95.375 308.24615 96.28125L307.0274 96.0625Q307.24615 94.828125 308.04303 94.15625Q308.8399 93.46875 310.0274 93.46875Q310.85553 93.46875 311.54303 93.828125Q312.23053 94.171875 312.5899 94.78125Q312.9649 95.390625 312.9649 96.078125Q312.9649 96.71875 312.62115 97.25Q312.2774 97.78125 311.5899 98.109375Q312.48053 98.3125 312.9649 98.953125Q313.4649 99.59375 313.4649 100.578125Q313.4649 101.890625 312.49615 102.796875Q311.54303 103.703125 310.0899 103.703125Q308.76178 103.703125 307.88678 102.921875Q307.0274 102.140625 306.9024 100.890625ZM314.88678 100.90625L316.18365 100.796875Q316.32428 101.734375 316.8399 102.21875Q317.37115 102.6875 318.10553 102.6875Q318.99615 102.6875 319.60553 102.015625Q320.23053 101.34375 320.23053 100.25Q320.23053 99.1875 319.63678 98.578125Q319.04303 97.96875 318.0899 97.96875Q317.49615 97.96875 317.01178 98.25Q316.54303 98.515625 316.26178 98.9375L315.10553 98.796875L316.07428 93.640625L321.05865 93.640625L321.05865 94.828125L317.05865 94.828125L316.5274 97.515625Q317.43365 96.890625 318.41803 96.890625Q319.73053 96.890625 320.62115 97.796875Q321.5274 98.703125 321.5274 100.140625Q321.5274 101.5 320.74615 102.484375Q319.7774 103.703125 318.10553 103.703125Q316.74615 103.703125 315.87115 102.9375Q315.01178 102.171875 314.88678 100.90625Z" fill-rule="nonzero"/><path stroke="#ffffff" stroke-width="3.0" stroke-linejoin="round" stroke-linecap="round" clip-path="url(#id_0)" d="M310.8399 58.0625L310.8399 55.65625L306.48053 55.65625L306.48053 54.53125L311.05865 48.046875L312.05865 48.046875L312.05865 54.53125L313.41803 54.53125L313.41803 55.65625L312.05865 55.65625L312.05865 58.0625L310.8399 58.0625ZM310.8399 54.53125L310.8399 50.015625L307.69928 54.53125L310.8399 54.53125ZM314.88678 55.4375L316.18365 55.328125Q316.32428 56.265625 316.8399 56.75Q317.37115 57.21875 318.10553 57.21875Q318.99615 57.21875 319.60553 56.546875Q320.23053 55.875 320.23053 54.78125Q320.23053 53.71875 319.63678 53.109375Q319.04303 52.5 318.0899 52.5Q317.49615 52.5 317.01178 52.78125Q316.54303 53.046875 316.26178 53.46875L315.10553 53.328125L316.07428 48.171875L321.05865 48.171875L321.05865 49.359375L317.05865 49.359375L316.5274 52.046875Q317.43365 51.421875 318.41803 51.421875Q319.73053 51.421875 320.62115 52.328125Q321.5274 53.234375 321.5274 54.671875Q321.5274 56.03125 320.74615 57.015625Q319.7774 58.234375 318.10553 58.234375Q316.74615 58.234375 315.87115 57.46875Q315.01178 56.703125 314.88678 55.4375Z" fill-rule="nonzero"/><path fill="#1a1a1a" clip-path="url(#id_0)" d="M310.8399 58.0625L310.8399 55.65625L306.48053 55.65625L306.48053 54.53125L311.05865 48.046875L312.05865 48.046875L312.05865 54.53125L313.41803 54.53125L313.41803 55.65625L312.05865 55.65625L312.05865 58.0625L310.8399 58.0625ZM310.8399 54.53125L310.8399 50.015625L307.69928 54.53125L310.8399 54.53125ZM314.88678 55.4375L316.18365 55.328125Q316.32428 56.265625 316.8399 56.75Q317.37115 57.21875 318.10553 57.21875Q318.99615 57.21875 319.60553 56.546875Q320.23053 55.875 320.23053 54.78125Q320.23053 53.71875 319.63678 53.109375Q319.04303 52.5 318.0899 52.5Q317.49615 52.5 317.01178 52.78125Q316.54303 53.046875 316.26178 53.46875L315.10553 53.328125L316.07428 48.171875L321.05865 48.171875L321.05865 49.359375L317.05865 49.359375L316.5274 52.046875Q317.43365 51.421875 318.41803 51.421875Q319.73053 51.421875 320.62115 52.328125Q321.5274 53.234375 321.5274 54.671875Q321.5274 56.03125 320.74615 57.015625Q319.7774 58.234375 318.10553 58.234375Q316.74615 58.234375 315.87115 57.46875Q315.01178 56.703125 314.88678 55.4375Z" fill-rule="nonzero"/><path stroke="#ffffff" stroke-width="3.0" stroke-linejoin="round" stroke-linecap="round" clip-path="url(#id_0)" d="M354.3254 116.0625L355.62228 115.953125Q355.7629 116.890625 356.27853 117.375Q356.80978 117.84375 357.54416 117.84375Q358.43478 117.84375 359.04416 117.171875Q359.66916 116.5 359.66916 115.40625Q359.66916 114.34375 359.0754 113.734375Q358.48166 113.125 357.52853 113.125Q356.93478 113.125 356.4504 113.40625Q355.98166 113.671875 355.7004 114.09375L354.54416 113.953125L355.5129 108.796875L360.49728 108.796875L360.49728 109.984375L356.49728 109.984375L355.96603 112.671875Q356.87228 112.046875 357.85666 112.046875Q359.16916 112.046875 360.05978 112.953125Q360.96603 113.859375 360.96603 115.296875Q360.96603 116.65625 360.18478 117.640625Q359.21603 118.859375 357.54416 118.859375Q356.18478 118.859375 355.30978 118.09375Q354.4504 117.328125 354.3254 116.0625ZM362.3254 113.75Q362.3254 111.96875 362.68478 110.890625Q363.05978 109.796875 363.77853 109.21875Q364.49728 108.625 365.59103 108.625Q366.40353 108.625 367.0129 108.953125Q367.62228 109.28125 368.0129 109.890625Q368.41916 110.5 368.6379 111.375Q368.85666 112.25 368.85666 113.75Q368.85666 115.515625 368.49728 116.59375Q368.1379 117.671875 367.41916 118.265625Q366.7004 118.859375 365.59103 118.859375Q364.15353 118.859375 363.3254 117.8125Q362.3254 116.5625 362.3254 113.75ZM363.59103 113.75Q363.59103 116.21875 364.16916 117.03125Q364.74728 117.84375 365.59103 117.84375Q366.4504 117.84375 367.02853 117.03125Q367.60666 116.203125 367.60666 113.75Q367.60666 111.265625 367.02853 110.453125Q366.4504 109.640625 365.5754 109.640625Q364.73166 109.640625 364.23166 110.359375Q363.59103 111.28125 363.59103 113.75Z" fill-rule="nonzero"/><path fill="#1a1a1a" clip-path="url(#id_0)" d="M354.3254 116.0625L355.62228 115.953125Q355.7629 116.890625 356.27853 117.375Q356.80978 117.84375 357.54416 117.84375Q358.43478 117.84375 359.04416 117.171875Q359.66916 116.5 359.66916 115.40625Q359.66916 114.34375 359.0754 113.734375Q358.48166 113.125 357.52853 113.125Q356.93478 113.125 356.4504 113.40625Q355.98166 113.671875 355.7004 114.09375L354.54416 113.953125L355.5129 108.796875L360.49728 108.796875L360.49728 109.984375L356.49728 109.984375L355.96603 112.671875Q356.87228 112.046875 357.85666 112.046875Q359.16916 112.046875 360.05978 112.953125Q360.96603 113.859375 360.96603 115.296875Q360.96603 116.65625 360.18478 117.640625Q359.21603 118.859375 357.54416 118.859375Q356.18478 118.859375 355.30978 118.09375Q354.4504 117.328125 354.3254 116.0625ZM362.3254 113.75Q362.3254 111.96875 362.68478 110.890625Q363.05978 109.796875 363.77853 109.21875Q364.49728 108.625 365.59103 108.625Q366.40353 108.625 367.0129 108.953125Q367.62228 109.28125 368.0129 109.890625Q368.41916 110.5 368.6379 111.375Q368.85666 112.25 368.85666 113.75Q368.85666 115.515625 368.49728 116.59375Q368.1379 117.671875 367.41916 118.265625Q366.7004 118.859375 365.59103 118.859375Q364.15353 118.859375 363.3254 117.8125Q362.3254 116.5625 362.3254 113.75ZM363.59103 113.75Q363.59103 116.21875 364.16916 117.03125Q364.74728 117.84375 365.59103 117.84375Q366.4504 117.84375 367.02853 117.03125Q367.60666 116.203125 367.60666 113.75Q367.60666 111.265625 367.02853 110.453125Q366.4504 109.640625 365.5754 109.640625Q364.73166 109.640625 364.23166 110.359375Q363.59103 111.28125 363.59103 113.75Z" fill-rule="nonzero"/><path stroke="#ffffff" stroke-width="3.0" stroke-linejoin="round" stroke-linecap="round" clip-path="url(#id_0)" d="M449.21823 258.51562L450.43698 258.34375Q450.65573 259.39062 451.15573 259.85938Q451.67136 260.3125 452.40573 260.3125Q453.28073 260.3125 453.87448 259.71875Q454.46823 259.10938 454.46823 258.21875Q454.46823 257.375 453.90573 256.82812Q453.35886 256.28125 452.5151 256.28125Q452.15573 256.28125 451.6401 256.40625L451.78073 255.32812Q451.90573 255.34375 451.96823 255.34375Q452.7651 255.34375 453.3901 254.9375Q454.0151 254.53125 454.0151 253.67188Q454.0151 253.0 453.56198 252.5625Q453.10886 252.10938 452.37448 252.10938Q451.65573 252.10938 451.17136 252.5625Q450.7026 253.0 450.56198 253.90625L449.34323 253.6875Q449.56198 252.45312 450.35886 251.78125Q451.15573 251.09375 452.34323 251.09375Q453.17136 251.09375 453.85886 251.45312Q454.54636 251.79688 454.90573 252.40625Q455.28073 253.01562 455.28073 253.70312Q455.28073 254.34375 454.93698 254.875Q454.59323 255.40625 453.90573 255.73438Q454.79636 255.9375 455.28073 256.57812Q455.78073 257.21875 455.78073 258.20312Q455.78073 259.51562 454.81198 260.42188Q453.85886 261.32812 452.40573 261.32812Q451.0776 261.32812 450.2026 260.54688Q449.34323 259.76562 449.21823 258.51562ZM461.15573 261.15625L461.15573 258.75L456.79636 258.75L456.79636 257.625L461.37448 251.14062L462.37448 251.14062L462.37448 257.625L463.73386 257.625L463.73386 258.75L462.37448 258.75L462.37448 261.15625L461.15573 261.15625ZM461.15573 257.625L461.15573 253.10938L458.0151 257.625L461.15573 257.625Z" fill-rule="nonzero"/><path fill="#1a1a1a" clip-path="url(#id_0)" d="M449.21823 258.51562L450.43698 258.34375Q450.65573 259.39062 451.15573 259.85938Q451.67136 260.3125 452.40573 260.3125Q453.28073 260.3125 453.87448 259.71875Q454.46823 259.10938 454.46823 258.21875Q454.46823 257.375 453.90573 256.82812Q453.35886 256.28125 452.5151 256.28125Q452.15573 256.28125 451.6401 256.40625L451.78073 255.32812Q451.90573 255.34375 451.96823 255.34375Q452.7651 255.34375 453.3901 254.9375Q454.0151 254.53125 454.0151 253.67188Q454.0151 253.0 453.56198 252.5625Q453.10886 252.10938 452.37448 252.10938Q451.65573 252.10938 451.17136 252.5625Q450.7026 253.0 450.56198 253.90625L449.34323 253.6875Q449.56198 252.45312 450.35886 251.78125Q451.15573 251.09375 452.34323 251.09375Q453.17136 251.09375 453.85886 251.45312Q454.54636 251.79688 454.90573 252.40625Q455.28073 253.01562 455.28073 253.70312Q455.28073 254.34375 454.93698 254.875Q454.59323 255.40625 453.90573 255.73438Q454.79636 255.9375 455.28073 256.57812Q455.78073 257.21875 455.78073 258.20312Q455.78073 259.51562 454.81198 260.42188Q453.85886 261.32812 452.40573 261.32812Q451.0776 261.32812 450.2026 260.54688Q449.34323 259.76562 449.21823 258.51562ZM461.15573 261.15625L461.15573 258.75L456.79636 258.75L456.79636 257.625L461.37448 251.14062L462.37448 251.14062L462.37448 257.625L463.73386 257.625L463.73386 258.75L462.37448 258.75L462.37448 261.15625L461.15573 261.15625ZM461.15573 257.625L461.15573 253.10938L458.0151 257.625L461.15573 257.625Z" fill-rule="nonzero"/><path stroke="#ffffff" stroke-width="3.0" stroke-linejoin="round" stroke-linecap="round" clip-path="url(#id_0)" d="M449.21823 176.67188L450.43698 176.5Q450.65573 177.54688 451.15573 178.01562Q451.67136 178.46875 452.40573 178.46875Q453.28073 178.46875 453.87448 177.875Q454.46823 177.26562 454.46823 176.375Q454.46823 175.53125 453.90573 174.98438Q453.35886 174.4375 452.5151 174.4375Q452.15573 174.4375 451.6401 174.5625L451.78073 173.48438Q451.90573 173.5 451.96823 173.5Q452.7651 173.5 453.3901 173.09375Q454.0151 172.6875 454.0151 171.82812Q454.0151 171.15625 453.56198 170.71875Q453.10886 170.26562 452.37448 170.26562Q451.65573 170.26562 451.17136 170.71875Q450.7026 171.15625 450.56198 172.0625L449.34323 171.84375Q449.56198 170.60938 450.35886 169.9375Q451.15573 169.25 452.34323 169.25Q453.17136 169.25 453.85886 169.60938Q454.54636 169.95312 454.90573 170.5625Q455.28073 171.17188 455.28073 171.85938Q455.28073 172.5 454.93698 173.03125Q454.59323 173.5625 453.90573 173.89062Q454.79636 174.09375 455.28073 174.73438Q455.78073 175.375 455.78073 176.35938Q455.78073 177.67188 454.81198 178.57812Q453.85886 179.48438 452.40573 179.48438Q451.0776 179.48438 450.2026 178.70312Q449.34323 177.92188 449.21823 176.67188ZM461.15573 179.3125L461.15573 176.90625L456.79636 176.90625L456.79636 175.78125L461.37448 169.29688L462.37448 169.29688L462.37448 175.78125L463.73386 175.78125L463.73386 176.90625L462.37448 176.90625L462.37448 179.3125L461.15573 179.3125ZM461.15573 175.78125L461.15573 171.26562L458.0151 175.78125L461.15573 175.78125Z" fill-rule="nonzero"/><path fill="#1a1a1a" clip-path="url(#id_0)" d="M449.21823 176.67188L450.43698 176.5Q450.65573 177.54688 451.15573 178.01562Q451.67136 178.46875 452.40573 178.46875Q453.28073 178.46875 453.87448 177.875Q454.46823 177.26562 454.46823 176.375Q454.46823 175.53125 453.90573 174.98438Q453.35886 174.4375 452.5151 174.4375Q452.15573 174.4375 451.6401 174.5625L451.78073 173.48438Q451.90573 173.5 451.96823 173.5Q452.7651 173.5 453.3901 173.09375Q454.0151 172.6875 454.0151 171.82812Q454.0151 171.15625 453.56198 170.71875Q453.10886 170.26562 452.37448 170.26562Q451.65573 170.26562 451.17136 170.71875Q450.7026 171.15625 450.56198 172.0625L449.34323 171.84375Q449.56198 170.60938 450.35886 169.9375Q451.15573 169.25 452.34323 169.25Q453.17136 169.25 453.85886 169.60938Q454.54636 169.95312 454.90573 170.5625Q455.28073 171.17188 455.28073 171.85938Q455.28073 172.5 454.93698 173.03125Q454.59323 173.5625 453.90573 173.89062Q454.79636 174.09375 455.28073 174.73438Q455.78073 175.375 455.78073 176.35938Q455.78073 177.67188 454.81198 178.57812Q453.85886 179.48438 452.40573 179.48438Q451.0776 179.48438 450.2026 178.70312Q449.34323 177.92188 449.21823 176.67188ZM461.15573 179.3125L461.15573 176.90625L456.79636 176.90625L456.79636 175.78125L461.37448 169.29688L462.37448 169.29688L462.37448 175.78125L463.73386 175.78125L463.73386 176.90625L462.37448 176.90625L462.37448 179.3125L461.15573 179.3125ZM461.15573 175.78125L461.15573 171.26562L458.0151 175.78125L461.15573 175.78125Z" fill-rule="nonzero"/><path fill="#000000" d="M30.25 265.01562Q30.25 263.48438 30.5625 262.5625Q30.875 261.625 31.484375 261.125Q32.109375 260.625 33.046875 260.625Q33.734375 260.625 34.25 260.90625Q34.78125 261.1875 35.125 261.71875Q35.46875 262.23438 35.65625 262.98438Q35.84375 263.73438 35.84375 265.01562Q35.84375 266.53125 35.53125 267.45312Q35.234375 268.375 34.609375 268.89062Q34.0 269.39062 33.046875 269.39062Q31.8125 269.39062 31.09375 268.5Q30.25 267.4375 30.25 265.01562ZM31.328125 265.01562Q31.328125 267.125 31.828125 267.82812Q32.328125 268.53125 33.046875 268.53125Q33.78125 268.53125 34.265625 267.82812Q34.765625 267.125 34.765625 265.01562Q34.765625 262.89062 34.265625 262.20312Q33.78125 261.5 33.03125 261.5Q32.3125 261.5 31.875 262.10938Q31.328125 262.89062 31.328125 265.01562Z" fill-rule="nonzero"/><path fill="#000000" d="M28.796875 207.60938L28.796875 208.625L23.109375 208.625Q23.109375 208.25 23.234375 207.89062Q23.453125 207.3125 23.921875 206.75Q24.40625 206.1875 25.3125 205.45312Q26.71875 204.29688 27.203125 203.625Q27.703125 202.95312 27.703125 202.35938Q27.703125 201.73438 27.25 201.3125Q26.796875 200.875 26.078125 200.875Q25.3125 200.875 24.859375 201.32812Q24.40625 201.78125 24.390625 202.59375L23.3125 202.48438Q23.421875 201.26562 24.140625 200.64062Q24.875 200.0 26.109375 200.0Q27.34375 200.0 28.0625 200.6875Q28.78125 201.375 28.78125 202.39062Q28.78125 202.90625 28.5625 203.40625Q28.359375 203.89062 27.859375 204.45312Q27.375 205.0 26.25 205.95312Q25.296875 206.75 25.015625 207.04688Q24.75 207.32812 24.578125 207.60938L28.796875 207.60938ZM30.25 204.39062Q30.25 202.85938 30.5625 201.9375Q30.875 201.0 31.484375 200.5Q32.109375 200.0 33.046875 200.0Q33.734375 200.0 34.25 200.28125Q34.78125 200.5625 35.125 201.09375Q35.46875 201.60938 35.65625 202.35938Q35.84375 203.10938 35.84375 204.39062Q35.84375 205.90625 35.53125 206.82812Q35.234375 207.75 34.609375 208.26562Q34.0 208.76562 33.046875 208.76562Q31.8125 208.76562 31.09375 207.875Q30.25 206.8125 30.25 204.39062ZM31.328125 204.39062Q31.328125 206.5 31.828125 207.20312Q32.328125 207.90625 33.046875 207.90625Q33.78125 207.90625 34.265625 207.20312Q34.765625 206.5 34.765625 204.39062Q34.765625 202.26562 34.265625 201.57812Q33.78125 200.875 33.03125 200.875Q32.3125 200.875 31.875 201.48438Q31.328125 202.26562 31.328125 204.39062Z" fill-rule="nonzero"/><path fill="#000000" d="M26.625 148.0L26.625 145.9375L22.90625 145.9375L22.90625 144.96875L26.828125 139.40625L27.6875 139.40625L27.6875 144.96875L28.84375 144.96875L28.84375 145.9375L27.6875 145.9375L27.6875 148.0L26.625 148.0ZM26.625 144.96875L26.625 141.10938L23.9375 144.96875L26.625 144.96875ZM30.25 143.76562Q30.25 142.23438 30.5625 141.3125Q30.875 140.375 31.484375 139.875Q32.109375 139.375 33.046875 139.375Q33.734375 139.375 34.25 139.65625Q34.78125 139.9375 35.125 140.46875Q35.46875 140.98438 35.65625 141.73438Q35.84375 142.48438 35.84375 143.76562Q35.84375 145.28125 35.53125 146.20312Q35.234375 147.125 34.609375 147.64062Q34.0 148.14062 33.046875 148.14062Q31.8125 148.14062 31.09375 147.25Q30.25 146.1875 30.25 143.76562ZM31.328125 143.76562Q31.328125 145.875 31.828125 146.57812Q32.328125 147.28125 33.046875 147.28125Q33.78125 147.28125 34.265625 146.57812Q34.765625 145.875 34.765625 143.76562Q34.765625 141.64062 34.265625 140.95312Q33.78125 140.25 33.03125 140.25Q32.3125 140.25 31.875 140.85938Q31.328125 141.64062 31.328125 143.76562Z" fill-rule="nonzero"/><path fill="#000000" d="M28.71875 80.890625L27.671875 80.96875Q27.53125 80.34375 27.28125 80.0625Q26.84375 79.609375 26.21875 79.609375Q25.71875 79.609375 25.328125 79.890625Q24.84375 80.265625 24.546875 80.96875Q24.265625 81.65625 24.25 82.9375Q24.625 82.359375 25.171875 82.078125Q25.734375 81.796875 26.34375 81.796875Q27.390625 81.796875 28.125 82.578125Q28.875 83.359375 28.875 84.578125Q28.875 85.390625 28.515625 86.09375Q28.171875 86.78125 27.5625 87.15625Q26.953125 87.515625 26.1875 87.515625Q24.859375 87.515625 24.03125 86.546875Q23.203125 85.578125 23.203125 83.359375Q23.203125 80.859375 24.125 79.734375Q24.921875 78.75 26.28125 78.75Q27.296875 78.75 27.9375 79.328125Q28.59375 79.890625 28.71875 80.890625ZM24.421875 84.59375Q24.421875 85.140625 24.640625 85.640625Q24.875 86.125 25.28125 86.390625Q25.703125 86.65625 26.171875 86.65625Q26.828125 86.65625 27.3125 86.125Q27.796875 85.578125 27.796875 84.65625Q27.796875 83.765625 27.3125 83.25Q26.84375 82.734375 26.125 82.734375Q25.40625 82.734375 24.90625 83.25Q24.421875 83.765625 24.421875 84.59375ZM30.25 83.140625Q30.25 81.609375 30.5625 80.6875Q30.875 79.75 31.484375 79.25Q32.109375 78.75 33.046875 78.75Q33.734375 78.75 34.25 79.03125Q34.78125 79.3125 35.125 79.84375Q35.46875 80.359375 35.65625 81.109375Q35.84375 81.859375 35.84375 83.140625Q35.84375 84.65625 35.53125 85.578125Q35.234375 86.5 34.609375 87.015625Q34.0 87.515625 33.046875 87.515625Q31.8125 87.515625 31.09375 86.625Q30.25 85.5625 30.25 83.140625ZM31.328125 83.140625Q31.328125 85.25 31.828125 85.953125Q32.328125 86.65625 33.046875 86.65625Q33.78125 86.65625 34.265625 85.953125Q34.765625 85.25 34.765625 83.140625Q34.765625 81.015625 34.265625 80.328125Q33.78125 79.625 33.03125 79.625Q32.3125 79.625 31.875 80.234375Q31.328125 81.015625 31.328125 83.140625Z" fill-rule="nonzero"/><path fill="#000000" d="M24.875 22.09375Q24.21875 21.84375 23.890625 21.40625Q23.578125 20.953125 23.578125 20.34375Q23.578125 19.40625 24.25 18.765625Q24.9375 18.125 26.046875 18.125Q27.171875 18.125 27.859375 18.78125Q28.546875 19.4375 28.546875 20.375Q28.546875 20.96875 28.234375 21.40625Q27.921875 21.84375 27.28125 22.09375Q28.078125 22.34375 28.484375 22.921875Q28.890625 23.5 28.890625 24.296875Q28.890625 25.390625 28.109375 26.140625Q27.34375 26.890625 26.0625 26.890625Q24.796875 26.890625 24.015625 26.140625Q23.234375 25.390625 23.234375 24.265625Q23.234375 23.421875 23.65625 22.859375Q24.09375 22.296875 24.875 22.09375ZM24.65625 20.296875Q24.65625 20.90625 25.046875 21.296875Q25.453125 21.6875 26.078125 21.6875Q26.6875 21.6875 27.078125 21.3125Q27.46875 20.921875 27.46875 20.359375Q27.46875 19.78125 27.0625 19.390625Q26.65625 18.984375 26.0625 18.984375Q25.453125 18.984375 25.046875 19.375Q24.65625 19.765625 24.65625 20.296875ZM24.328125 24.265625Q24.328125 24.71875 24.53125 25.140625Q24.75 25.5625 25.171875 25.796875Q25.59375 26.03125 26.078125 26.03125Q26.828125 26.03125 27.3125 25.546875Q27.8125 25.0625 27.8125 24.3125Q27.8125 23.546875 27.3125 23.046875Q26.8125 22.546875 26.046875 22.546875Q25.296875 22.546875 24.8125 23.046875Q24.328125 23.53125 24.328125 24.265625ZM30.25 22.515625Q30.25 20.984375 30.5625 20.0625Q30.875 19.125 31.484375 18.625Q32.109375 18.125 33.046875 18.125Q33.734375 18.125 34.25 18.40625Q34.78125 18.6875 35.125 19.21875Q35.46875 19.734375 35.65625 20.484375Q35.84375 21.234375 35.84375 22.515625Q35.84375 24.03125 35.53125 24.953125Q35.234375 25.875 34.609375 26.390625Q34.0 26.890625 33.046875 26.890625Q31.8125 26.890625 31.09375 26.0Q30.25 24.9375 30.25 22.515625ZM31.328125 22.515625Q31.328125 24.625 31.828125 25.328125Q32.328125 26.03125 33.046875 26.03125Q33.78125 26.03125 34.265625 25.328125Q34.765625 24.625 34.765625 22.515625Q34.765625 20.390625 34.265625 19.703125Q33.78125 19.0 33.03125 19.0Q32.3125 19.0 31.875 19.609375Q31.328125 20.390625 31.328125 22.515625Z" fill-rule="nonzero"/><path fill="#000000" d="M81.11563 274.375L79.05313 274.375L79.05313 278.09375L78.08438 278.09375L72.52188 274.17188L72.52188 273.3125L78.08438 273.3125L78.08438 272.15625L79.05313 272.15625L79.05313 273.3125L81.11563 273.3125L81.11563 274.375ZM78.08438 274.375L74.225006 274.375L78.08438 277.0625L78.08438 274.375Z" fill-rule="nonzero"/><path fill="#000000" d="M102.381065 272.28125L102.45919 273.32812Q101.83419 273.46875 101.55294 273.71875Q101.099815 274.15625 101.099815 274.78125Q101.099815 275.28125 101.381065 275.67188Q101.756065 276.15625 102.45919 276.45312Q103.14669 276.73438 104.42794 276.75Q103.849815 276.375 103.568565 275.82812Q103.287315 275.26562 103.287315 274.65625Q103.287315 273.60938 104.068565 272.875Q104.849815 272.125 106.068565 272.125Q106.881065 272.125 107.58419 272.48438Q108.27169 272.82812 108.64669 273.4375Q109.006065 274.04688 109.006065 274.8125Q109.006065 276.14062 108.037315 276.96875Q107.068565 277.79688 104.849815 277.79688Q102.349815 277.79688 101.224815 276.875Q100.24044 276.07812 100.24044 274.71875Q100.24044 273.70312 100.818565 273.0625Q101.381065 272.40625 102.381065 272.28125ZM106.08419 276.57812Q106.631065 276.57812 107.131065 276.35938Q107.61544 276.125 107.881065 275.71875Q108.14669 275.29688 108.14669 274.82812Q108.14669 274.17188 107.61544 273.6875Q107.068565 273.20312 106.14669 273.20312Q105.256065 273.20312 104.74044 273.6875Q104.224815 274.15625 104.224815 274.875Q104.224815 275.59375 104.74044 276.09375Q105.256065 276.57812 106.08419 276.57812Z" fill-rule="nonzero"/><path fill="#000000" d="M123.89799 276.125Q123.64799 276.78125 123.21049 277.10938Q122.75736 277.42188 122.14799 277.42188Q121.21049 277.42188 120.56986 276.75Q119.92924 276.0625 119.92924 274.95312Q119.92924 273.82812 120.58549 273.14062Q121.24174 272.45312 122.17924 272.45312Q122.77299 272.45312 123.21049 272.76562Q123.64799 273.07812 123.89799 273.71875Q124.14799 272.92188 124.72611 272.51562Q125.30424 272.10938 126.10111 272.10938Q127.19486 272.10938 127.94486 272.89062Q128.69487 273.65625 128.69487 274.9375Q128.69487 276.20312 127.94486 276.98438Q127.19486 277.76562 126.06986 277.76562Q125.22611 277.76562 124.66361 277.34375Q124.10111 276.90625 123.89799 276.125ZM122.10111 276.34375Q122.71049 276.34375 123.10111 275.95312Q123.49174 275.54688 123.49174 274.92188Q123.49174 274.3125 123.11674 273.92188Q122.72611 273.53125 122.16361 273.53125Q121.58549 273.53125 121.19486 273.9375Q120.78861 274.34375 120.78861 274.9375Q120.78861 275.54688 121.17924 275.95312Q121.56986 276.34375 122.10111 276.34375ZM126.06986 276.67188Q126.52299 276.67188 126.94486 276.46875Q127.36674 276.25 127.60111 275.82812Q127.83549 275.40625 127.83549 274.92188Q127.83549 274.17188 127.35111 273.6875Q126.86674 273.1875 126.11674 273.1875Q125.35111 273.1875 124.85111 273.6875Q124.35111 274.1875 124.35111 274.95312Q124.35111 275.70312 124.85111 276.1875Q125.33549 276.67188 126.06986 276.67188Z" fill-rule="nonzero"/><path fill="#000000" d="M143.82607 280.78125L143.82607 281.82812L137.10732 281.82812Q137.46669 282.21875 137.84169 282.84375Q138.20107 283.45312 138.37294 283.9375L137.35732 283.9375Q136.93544 283.0625 136.35732 282.40625Q135.76357 281.73438 135.20107 281.45312L135.20107 280.78125L143.82607 280.78125ZM139.59169 277.75Q138.06044 277.75 137.13857 277.4375Q136.20107 277.125 135.70107 276.51562Q135.20107 275.89062 135.20107 274.95312Q135.20107 274.26562 135.48232 273.75Q135.76357 273.21875 136.29482 272.875Q136.81044 272.53125 137.56044 272.34375Q138.31044 272.15625 139.59169 272.15625Q141.10732 272.15625 142.02919 272.46875Q142.95107 272.76562 143.46669 273.39062Q143.96669 274.0 143.96669 274.95312Q143.96669 276.1875 143.07607 276.90625Q142.01357 277.75 139.59169 277.75ZM139.59169 276.67188Q141.70107 276.67188 142.40419 276.17188Q143.10732 275.67188 143.10732 274.95312Q143.10732 274.21875 142.40419 273.73438Q141.70107 273.23438 139.59169 273.23438Q137.46669 273.23438 136.77919 273.73438Q136.07607 274.21875 136.07607 274.96875Q136.07607 275.6875 136.68544 276.125Q137.46669 276.67188 139.59169 276.67188Z" fill-rule="nonzero"/><path fill="#000000" d="M190.24904 279.20312L191.26466 279.20312L191.26466 284.89062Q190.88966 284.89062 190.53029 284.76562Q189.95216 284.54688 189.38966 284.07812Q188.82716 283.59375 188.09279 282.6875Q186.93654 281.28125 186.26466 280.79688Q185.59279 280.29688 184.99904 280.29688Q184.37404 280.29688 183.95216 280.75Q183.51466 281.20312 183.51466 281.92188Q183.51466 282.6875 183.96779 283.14062Q184.42091 283.59375 185.23341 283.60938L185.12404 284.6875Q183.90529 284.57812 183.28029 283.85938Q182.63966 283.125 182.63966 281.89062Q182.63966 280.65625 183.32716 279.9375Q184.01466 279.21875 185.03029 279.21875Q185.54591 279.21875 186.04591 279.4375Q186.53029 279.64062 187.09279 280.14062Q187.63966 280.625 188.59279 281.75Q189.38966 282.70312 189.68654 282.98438Q189.96779 283.25 190.24904 283.42188L190.24904 279.20312ZM187.03029 277.75Q185.49904 277.75 184.57716 277.4375Q183.63966 277.125 183.13966 276.51562Q182.63966 275.89062 182.63966 274.95312Q182.63966 274.26562 182.92091 273.75Q183.20216 273.21875 183.73341 272.875Q184.24904 272.53125 184.99904 272.34375Q185.74904 272.15625 187.03029 272.15625Q188.54591 272.15625 189.46779 272.46875Q190.38966 272.76562 190.90529 273.39062Q191.40529 274.0 191.40529 274.95312Q191.40529 276.1875 190.51466 276.90625Q189.45216 277.75 187.03029 277.75ZM187.03029 276.67188Q189.13966 276.67188 189.84279 276.17188Q190.54591 275.67188 190.54591 274.95312Q190.54591 274.21875 189.84279 273.73438Q189.13966 273.23438 187.03029 273.23438Q184.90529 273.23438 184.21779 273.73438Q183.51466 274.21875 183.51466 274.96875Q183.51466 275.6875 184.12404 276.125Q184.90529 276.67188 187.03029 276.67188Z" fill-rule="nonzero"/><path fill="#000000" d="M238.70328 281.375L236.64078 281.375L236.64078 285.09375L235.67203 285.09375L230.10953 281.17188L230.10953 280.3125L235.67203 280.3125L235.67203 279.15625L236.64078 279.15625L236.64078 280.3125L238.70328 280.3125L238.70328 281.375ZM235.67203 281.375L231.81265 281.375L235.67203 284.0625L235.67203 281.375ZM234.4689 277.75Q232.93765 277.75 232.01578 277.4375Q231.07828 277.125 230.57828 276.51562Q230.07828 275.89062 230.07828 274.95312Q230.07828 274.26562 230.35953 273.75Q230.64078 273.21875 231.17203 272.875Q231.68765 272.53125 232.43765 272.34375Q233.18765 272.15625 234.4689 272.15625Q235.98453 272.15625 236.9064 272.46875Q237.82828 272.76562 238.3439 273.39062Q238.8439 274.0 238.8439 274.95312Q238.8439 276.1875 237.95328 276.90625Q236.89078 277.75 234.4689 277.75ZM234.4689 276.67188Q236.57828 276.67188 237.2814 276.17188Q237.98453 275.67188 237.98453 274.95312Q237.98453 274.21875 237.2814 273.73438Q236.57828 273.23438 234.4689 273.23438Q232.3439 273.23438 231.6564 273.73438Q230.95328 274.21875 230.95328 274.96875Q230.95328 275.6875 231.56265 276.125Q232.3439 276.67188 234.4689 276.67188Z" fill-rule="nonzero"/><path fill="#000000" d="M259.96872 279.28125L260.04684 280.32812Q259.42184 280.46875 259.1406 280.71875Q258.68747 281.15625 258.68747 281.78125Q258.68747 282.28125 258.96872 282.67188Q259.34372 283.15625 260.04684 283.45312Q260.73434 283.73438 262.0156 283.75Q261.43747 283.375 261.15622 282.82812Q260.87497 282.26562 260.87497 281.65625Q260.87497 280.60938 261.65622 279.875Q262.43747 279.125 263.65622 279.125Q264.46872 279.125 265.17184 279.48438Q265.85934 279.82812 266.23434 280.4375Q266.59372 281.04688 266.59372 281.8125Q266.59372 283.14062 265.62497 283.96875Q264.65622 284.79688 262.43747 284.79688Q259.93747 284.79688 258.81247 283.875Q257.8281 283.07812 257.8281 281.71875Q257.8281 280.70312 258.40622 280.0625Q258.96872 279.40625 259.96872 279.28125ZM263.67184 283.57812Q264.21872 283.57812 264.71872 283.35938Q265.2031 283.125 265.46872 282.71875Q265.73434 282.29688 265.73434 281.82812Q265.73434 281.17188 265.2031 280.6875Q264.65622 280.20312 263.73434 280.20312Q262.84372 280.20312 262.3281 280.6875Q261.81247 281.15625 261.81247 281.875Q261.81247 282.59375 262.3281 283.09375Q262.84372 283.57812 263.67184 283.57812ZM262.21872 277.75Q260.68747 277.75 259.7656 277.4375Q258.8281 277.125 258.3281 276.51562Q257.8281 275.89062 257.8281 274.95312Q257.8281 274.26562 258.10934 273.75Q258.3906 273.21875 258.92184 272.875Q259.43747 272.53125 260.18747 272.34375Q260.93747 272.15625 262.21872 272.15625Q263.73434 272.15625 264.65622 272.46875Q265.5781 272.76562 266.09372 273.39062Q266.59372 274.0 266.59372 274.95312Q266.59372 276.1875 265.7031 276.90625Q264.6406 277.75 262.21872 277.75ZM262.21872 276.67188Q264.3281 276.67188 265.03122 276.17188Q265.73434 275.67188 265.73434 274.95312Q265.73434 274.21875 265.03122 273.73438Q264.3281 273.23438 262.21872 273.23438Q260.09372 273.23438 259.40622 273.73438Q258.7031 274.21875 258.7031 274.96875Q258.7031 275.6875 259.31247 276.125Q260.09372 276.67188 262.21872 276.67188Z" fill-rule="nonzero"/><path fill="#000000" d="M281.48563 283.125Q281.23563 283.78125 280.79813 284.10938Q280.345 284.42188 279.73563 284.42188Q278.79813 284.42188 278.1575 283.75Q277.51688 283.0625 277.51688 281.95312Q277.51688 280.82812 278.17313 280.14062Q278.82938 279.45312 279.76688 279.45312Q280.36063 279.45312 280.79813 279.76562Q281.23563 280.07812 281.48563 280.71875Q281.73563 279.92188 282.31375 279.51562Q282.89188 279.10938 283.68875 279.10938Q284.7825 279.10938 285.5325 279.89062Q286.2825 280.65625 286.2825 281.9375Q286.2825 283.20312 285.5325 283.98438Q284.7825 284.76562 283.6575 284.76562Q282.81375 284.76562 282.25125 284.34375Q281.68875 283.90625 281.48563 283.125ZM279.68875 283.34375Q280.29813 283.34375 280.68875 282.95312Q281.07938 282.54688 281.07938 281.92188Q281.07938 281.3125 280.70438 280.92188Q280.31375 280.53125 279.75125 280.53125Q279.17313 280.53125 278.7825 280.9375Q278.37625 281.34375 278.37625 281.9375Q278.37625 282.54688 278.76688 282.95312Q279.1575 283.34375 279.68875 283.34375ZM283.6575 283.67188Q284.11063 283.67188 284.5325 283.46875Q284.95438 283.25 285.18875 282.82812Q285.42313 282.40625 285.42313 281.92188Q285.42313 281.17188 284.93875 280.6875Q284.45438 280.1875 283.70438 280.1875Q282.93875 280.1875 282.43875 280.6875Q281.93875 281.1875 281.93875 281.95312Q281.93875 282.70312 282.43875 283.1875Q282.92313 283.67188 283.6575 283.67188ZM281.9075 277.75Q280.37625 277.75 279.45438 277.4375Q278.51688 277.125 278.01688 276.51562Q277.51688 275.89062 277.51688 274.95312Q277.51688 274.26562 277.79813 273.75Q278.07938 273.21875 278.61063 272.875Q279.12625 272.53125 279.87625 272.34375Q280.62625 272.15625 281.9075 272.15625Q283.42313 272.15625 284.345 272.46875Q285.26688 272.76562 285.7825 273.39062Q286.2825 274.0 286.2825 274.95312Q286.2825 276.1875 285.39188 276.90625Q284.32938 277.75 281.9075 277.75ZM281.9075 276.67188Q284.01688 276.67188 284.72 276.17188Q285.42313 275.67188 285.42313 274.95312Q285.42313 274.21875 284.72 273.73438Q284.01688 273.23438 281.9075 273.23438Q279.7825 273.23438 279.095 273.73438Q278.39188 274.21875 278.39188 274.96875Q278.39188 275.6875 279.00125 276.125Q279.7825 276.67188 281.9075 276.67188Z" fill-rule="nonzero"/><path fill="#000000" d="M301.4137 287.78125L301.4137 288.82812L294.69495 288.82812Q295.05432 289.21875 295.42932 289.84375Q295.7887 290.45312 295.96057 290.9375L294.94495 290.9375Q294.52307 290.0625 293.94495 289.40625Q293.3512 288.73438 292.7887 288.45312L292.7887 287.78125L301.4137 287.78125ZM297.17932 284.75Q295.64807 284.75 294.7262 284.4375Q293.7887 284.125 293.2887 283.51562Q292.7887 282.89062 292.7887 281.95312Q292.7887 281.26562 293.06995 280.75Q293.3512 280.21875 293.88245 279.875Q294.39807 279.53125 295.14807 279.34375Q295.89807 279.15625 297.17932 279.15625Q298.69495 279.15625 299.61682 279.46875Q300.5387 279.76562 301.05432 280.39062Q301.55432 281.0 301.55432 281.95312Q301.55432 283.1875 300.6637 283.90625Q299.6012 284.75 297.17932 284.75ZM297.17932 283.67188Q299.2887 283.67188 299.99182 283.17188Q300.69495 282.67188 300.69495 281.95312Q300.69495 281.21875 299.99182 280.73438Q299.2887 280.23438 297.17932 280.23438Q295.05432 280.23438 294.36682 280.73438Q293.6637 281.21875 293.6637 281.96875Q293.6637 282.6875 294.27307 283.125Q295.05432 283.67188 297.17932 283.67188ZM297.17932 277.75Q295.64807 277.75 294.7262 277.4375Q293.7887 277.125 293.2887 276.51562Q292.7887 275.89062 292.7887 274.95312Q292.7887 274.26562 293.06995 273.75Q293.3512 273.21875 293.88245 272.875Q294.39807 272.53125 295.14807 272.34375Q295.89807 272.15625 297.17932 272.15625Q298.69495 272.15625 299.61682 272.46875Q300.5387 272.76562 301.05432 273.39062Q301.55432 274.0 301.55432 274.95312Q301.55432 276.1875 300.6637 276.90625Q299.6012 277.75 297.17932 277.75ZM297.17932 276.67188Q299.2887 276.67188 299.99182 276.17188Q300.69495 275.67188 300.69495 274.95312Q300.69495 274.21875 299.99182 273.73438Q299.2887 273.23438 297.17932 273.23438Q295.05432 273.23438 294.36682 273.73438Q293.6637 274.21875 293.6637 274.96875Q293.6637 275.6875 294.27307 276.125Q295.05432 276.67188 297.17932 276.67188Z" fill-rule="nonzero"/><path fill="#000000" d="M347.83667 286.20312L348.8523 286.20312L348.8523 291.89062Q348.4773 291.89062 348.11792 291.76562Q347.5398 291.54688 346.9773 291.07812Q346.4148 290.59375 345.68042 289.6875Q344.52417 288.28125 343.8523 287.79688Q343.18042 287.29688 342.58667 287.29688Q341.96167 287.29688 341.5398 287.75Q341.1023 288.20312 341.1023 288.92188Q341.1023 289.6875 341.55542 290.14062Q342.00854 290.59375 342.82104 290.60938L342.71167 291.6875Q341.49292 291.57812 340.86792 290.85938Q340.2273 290.125 340.2273 288.89062Q340.2273 287.65625 340.9148 286.9375Q341.6023 286.21875 342.61792 286.21875Q343.13354 286.21875 343.63354 286.4375Q344.11792 286.64062 344.68042 287.14062Q345.2273 287.625 346.18042 288.75Q346.9773 289.70312 347.27417 289.98438Q347.55542 290.25 347.83667 290.42188L347.83667 286.20312ZM344.61792 284.75Q343.08667 284.75 342.1648 284.4375Q341.2273 284.125 340.7273 283.51562Q340.2273 282.89062 340.2273 281.95312Q340.2273 281.26562 340.50854 280.75Q340.7898 280.21875 341.32104 279.875Q341.83667 279.53125 342.58667 279.34375Q343.33667 279.15625 344.61792 279.15625Q346.13354 279.15625 347.05542 279.46875Q347.9773 279.76562 348.49292 280.39062Q348.99292 281.0 348.99292 281.95312Q348.99292 283.1875 348.1023 283.90625Q347.0398 284.75 344.61792 284.75ZM344.61792 283.67188Q346.7273 283.67188 347.43042 283.17188Q348.13354 282.67188 348.13354 281.95312Q348.13354 281.21875 347.43042 280.73438Q346.7273 280.23438 344.61792 280.23438Q342.49292 280.23438 341.80542 280.73438Q341.1023 281.21875 341.1023 281.96875Q341.1023 282.6875 341.71167 283.125Q342.49292 283.67188 344.61792 283.67188ZM344.61792 277.75Q343.08667 277.75 342.1648 277.4375Q341.2273 277.125 340.7273 276.51562Q340.2273 275.89062 340.2273 274.95312Q340.2273 274.26562 340.50854 273.75Q340.7898 273.21875 341.32104 272.875Q341.83667 272.53125 342.58667 272.34375Q343.33667 272.15625 344.61792 272.15625Q346.13354 272.15625 347.05542 272.46875Q347.9773 272.76562 348.49292 273.39062Q348.99292 274.0 348.99292 274.95312Q348.99292 276.1875 348.1023 276.90625Q347.0398 277.75 344.61792 277.75ZM344.61792 276.67188Q346.7273 276.67188 347.43042 276.17188Q348.13354 275.67188 348.13354 274.95312Q348.13354 274.21875 347.43042 273.73438Q346.7273 273.23438 344.61792 273.23438Q342.49292 273.23438 341.80542 273.73438Q341.1023 274.21875 341.1023 274.96875Q341.1023 275.6875 341.71167 276.125Q342.49292 276.67188 344.61792 276.67188Z" fill-rule="nonzero"/><path fill="#000000" d="M396.29092 288.375L394.22842 288.375L394.22842 292.09375L393.25967 292.09375L387.69717 288.17188L387.69717 287.3125L393.25967 287.3125L393.25967 286.15625L394.22842 286.15625L394.22842 287.3125L396.29092 287.3125L396.29092 288.375ZM393.25967 288.375L389.4003 288.375L393.25967 291.0625L393.25967 288.375ZM392.05655 284.75Q390.5253 284.75 389.60342 284.4375Q388.66592 284.125 388.16592 283.51562Q387.66592 282.89062 387.66592 281.95312Q387.66592 281.26562 387.94717 280.75Q388.22842 280.21875 388.75967 279.875Q389.2753 279.53125 390.0253 279.34375Q390.7753 279.15625 392.05655 279.15625Q393.57217 279.15625 394.49405 279.46875Q395.41592 279.76562 395.93155 280.39062Q396.43155 281.0 396.43155 281.95312Q396.43155 283.1875 395.54092 283.90625Q394.47842 284.75 392.05655 284.75ZM392.05655 283.67188Q394.16592 283.67188 394.86905 283.17188Q395.57217 282.67188 395.57217 281.95312Q395.57217 281.21875 394.86905 280.73438Q394.16592 280.23438 392.05655 280.23438Q389.93155 280.23438 389.24405 280.73438Q388.54092 281.21875 388.54092 281.96875Q388.54092 282.6875 389.1503 283.125Q389.93155 283.67188 392.05655 283.67188ZM392.05655 277.75Q390.5253 277.75 389.60342 277.4375Q388.66592 277.125 388.16592 276.51562Q387.66592 275.89062 387.66592 274.95312Q387.66592 274.26562 387.94717 273.75Q388.22842 273.21875 388.75967 272.875Q389.2753 272.53125 390.0253 272.34375Q390.7753 272.15625 392.05655 272.15625Q393.57217 272.15625 394.49405 272.46875Q395.41592 272.76562 395.93155 273.39062Q396.43155 274.0 396.43155 274.95312Q396.43155 276.1875 395.54092 276.90625Q394.47842 277.75 392.05655 277.75ZM392.05655 276.67188Q394.16592 276.67188 394.86905 276.17188Q395.57217 275.67188 395.57217 274.95312Q395.57217 274.21875 394.86905 273.73438Q394.16592 273.23438 392.05655 273.23438Q389.93155 273.23438 389.24405 273.73438Q388.54092 274.21875 388.54092 274.96875Q388.54092 275.6875 389.1503 276.125Q389.93155 276.67188 392.05655 276.67188Z" fill-rule="nonzero"/><path fill="#000000" d="M417.55634 286.28125L417.63446 287.32812Q417.00946 287.46875 416.7282 287.71875Q416.2751 288.15625 416.2751 288.78125Q416.2751 289.28125 416.55634 289.67188Q416.93134 290.15625 417.63446 290.45312Q418.32196 290.73438 419.6032 290.75Q419.0251 290.375 418.74384 289.82812Q418.4626 289.26562 418.4626 288.65625Q418.4626 287.60938 419.24384 286.875Q420.0251 286.125 421.24384 286.125Q422.05634 286.125 422.75946 286.48438Q423.44696 286.82812 423.82196 287.4375Q424.18134 288.04688 424.18134 288.8125Q424.18134 290.14062 423.2126 290.96875Q422.24384 291.79688 420.0251 291.79688Q417.5251 291.79688 416.4001 290.875Q415.4157 290.07812 415.4157 288.71875Q415.4157 287.70312 415.99384 287.0625Q416.55634 286.40625 417.55634 286.28125ZM421.25946 290.57812Q421.80634 290.57812 422.30634 290.35938Q422.7907 290.125 423.05634 289.71875Q423.32196 289.29688 423.32196 288.82812Q423.32196 288.17188 422.7907 287.6875Q422.24384 287.20312 421.32196 287.20312Q420.43134 287.20312 419.9157 287.6875Q419.4001 288.15625 419.4001 288.875Q419.4001 289.59375 419.9157 290.09375Q420.43134 290.57812 421.25946 290.57812ZM419.80634 284.75Q418.2751 284.75 417.3532 284.4375Q416.4157 284.125 415.9157 283.51562Q415.4157 282.89062 415.4157 281.95312Q415.4157 281.26562 415.69696 280.75Q415.9782 280.21875 416.50946 279.875Q417.0251 279.53125 417.7751 279.34375Q418.5251 279.15625 419.80634 279.15625Q421.32196 279.15625 422.24384 279.46875Q423.1657 279.76562 423.68134 280.39062Q424.18134 281.0 424.18134 281.95312Q424.18134 283.1875 423.2907 283.90625Q422.2282 284.75 419.80634 284.75ZM419.80634 283.67188Q421.9157 283.67188 422.61884 283.17188Q423.32196 282.67188 423.32196 281.95312Q423.32196 281.21875 422.61884 280.73438Q421.9157 280.23438 419.80634 280.23438Q417.68134 280.23438 416.99384 280.73438Q416.2907 281.21875 416.2907 281.96875Q416.2907 282.6875 416.9001 283.125Q417.68134 283.67188 419.80634 283.67188ZM419.80634 277.75Q418.2751 277.75 417.3532 277.4375Q416.4157 277.125 415.9157 276.51562Q415.4157 275.89062 415.4157 274.95312Q415.4157 274.26562 415.69696 273.75Q415.9782 273.21875 416.50946 272.875Q417.0251 272.53125 417.7751 272.34375Q418.5251 272.15625 419.80634 272.15625Q421.32196 272.15625 422.24384 272.46875Q423.1657 272.76562 423.68134 273.39062Q424.18134 274.0 424.18134 274.95312Q424.18134 276.1875 423.2907 276.90625Q422.2282 277.75 419.80634 277.75ZM419.80634 276.67188Q421.9157 276.67188 422.61884 276.17188Q423.32196 275.67188 423.32196 274.95312Q423.32196 274.21875 422.61884 273.73438Q421.9157 273.23438 419.80634 273.23438Q417.68134 273.23438 416.99384 273.73438Q416.2907 274.21875 416.2907 274.96875Q416.2907 275.6875 416.9001 276.125Q417.68134 276.67188 419.80634 276.67188Z" fill-rule="nonzero"/><path fill="#000000" d="M439.07327 290.125Q438.82327 290.78125 438.38577 291.10938Q437.93265 291.42188 437.32327 291.42188Q436.38577 291.42188 435.74515 290.75Q435.10452 290.0625 435.10452 288.95312Q435.10452 287.82812 435.76077 287.14062Q436.41702 286.45312 437.35452 286.45312Q437.94827 286.45312 438.38577 286.76562Q438.82327 287.07812 439.07327 287.71875Q439.32327 286.92188 439.9014 286.51562Q440.47952 286.10938 441.2764 286.10938Q442.37015 286.10938 443.12015 286.89062Q443.87015 287.65625 443.87015 288.9375Q443.87015 290.20312 443.12015 290.98438Q442.37015 291.76562 441.24515 291.76562Q440.4014 291.76562 439.8389 291.34375Q439.2764 290.90625 439.07327 290.125ZM437.2764 290.34375Q437.88577 290.34375 438.2764 289.95312Q438.66702 289.54688 438.66702 288.92188Q438.66702 288.3125 438.29202 287.92188Q437.9014 287.53125 437.3389 287.53125Q436.76077 287.53125 436.37015 287.9375Q435.9639 288.34375 435.9639 288.9375Q435.9639 289.54688 436.35452 289.95312Q436.74515 290.34375 437.2764 290.34375ZM441.24515 290.67188Q441.69827 290.67188 442.12015 290.46875Q442.54202 290.25 442.7764 289.82812Q443.01077 289.40625 443.01077 288.92188Q443.01077 288.17188 442.5264 287.6875Q442.04202 287.1875 441.29202 287.1875Q440.5264 287.1875 440.0264 287.6875Q439.5264 288.1875 439.5264 288.95312Q439.5264 289.70312 440.0264 290.1875Q440.51077 290.67188 441.24515 290.67188ZM439.49515 284.75Q437.9639 284.75 437.04202 284.4375Q436.10452 284.125 435.60452 283.51562Q435.10452 282.89062 435.10452 281.95312Q435.10452 281.26562 435.38577 280.75Q435.66702 280.21875 436.19827 279.875Q436.7139 279.53125 437.4639 279.34375Q438.2139 279.15625 439.49515 279.15625Q441.01077 279.15625 441.93265 279.46875Q442.85452 279.76562 443.37015 280.39062Q443.87015 281.0 443.87015 281.95312Q443.87015 283.1875 442.97952 283.90625Q441.91702 284.75 439.49515 284.75ZM439.49515 283.67188Q441.60452 283.67188 442.30765 283.17188Q443.01077 282.67188 443.01077 281.95312Q443.01077 281.21875 442.30765 280.73438Q441.60452 280.23438 439.49515 280.23438Q437.37015 280.23438 436.68265 280.73438Q435.97952 281.21875 435.97952 281.96875Q435.97952 282.6875 436.5889 283.125Q437.37015 283.67188 439.49515 283.67188ZM439.49515 277.75Q437.9639 277.75 437.04202 277.4375Q436.10452 277.125 435.60452 276.51562Q435.10452 275.89062 435.10452 274.95312Q435.10452 274.26562 435.38577 273.75Q435.66702 273.21875 436.19827 272.875Q436.7139 272.53125 437.4639 272.34375Q438.2139 272.15625 439.49515 272.15625Q441.01077 272.15625 441.93265 272.46875Q442.85452 272.76562 443.37015 273.39062Q443.87015 274.0 443.87015 274.95312Q443.87015 276.1875 442.97952 276.90625Q441.91702 277.75 439.49515 277.75ZM439.49515 276.67188Q441.60452 276.67188 442.30765 276.17188Q443.01077 275.67188 443.01077 274.95312Q443.01077 274.21875 442.30765 273.73438Q441.60452 273.23438 439.49515 273.23438Q437.37015 273.23438 436.68265 273.73438Q435.97952 274.21875 435.97952 274.96875Q435.97952 275.6875 436.5889 276.125Q437.37015 276.67188 439.49515 276.67188Z" fill-rule="nonzero"/><path fill="#000000" d="M459.00134 294.78125L459.00134 295.82812L452.2826 295.82812Q452.64197 296.21875 453.01697 296.84375Q453.37634 297.45312 453.54822 297.9375L452.5326 297.9375Q452.11072 297.0625 451.5326 296.40625Q450.93884 295.73438 450.37634 295.45312L450.37634 294.78125L459.00134 294.78125ZM454.76697 291.75Q453.23572 291.75 452.31384 291.4375Q451.37634 291.125 450.87634 290.51562Q450.37634 289.89062 450.37634 288.95312Q450.37634 288.26562 450.6576 287.75Q450.93884 287.21875 451.4701 286.875Q451.98572 286.53125 452.73572 286.34375Q453.48572 286.15625 454.76697 286.15625Q456.2826 286.15625 457.20447 286.46875Q458.12634 286.76562 458.64197 287.39062Q459.14197 288.0 459.14197 288.95312Q459.14197 290.1875 458.25134 290.90625Q457.18884 291.75 454.76697 291.75ZM454.76697 290.67188Q456.87634 290.67188 457.57947 290.17188Q458.2826 289.67188 458.2826 288.95312Q458.2826 288.21875 457.57947 287.73438Q456.87634 287.23438 454.76697 287.23438Q452.64197 287.23438 451.95447 287.73438Q451.25134 288.21875 451.25134 288.96875Q451.25134 289.6875 451.86072 290.125Q452.64197 290.67188 454.76697 290.67188ZM454.76697 284.75Q453.23572 284.75 452.31384 284.4375Q451.37634 284.125 450.87634 283.51562Q450.37634 282.89062 450.37634 281.95312Q450.37634 281.26562 450.6576 280.75Q450.93884 280.21875 451.4701 279.875Q451.98572 279.53125 452.73572 279.34375Q453.48572 279.15625 454.76697 279.15625Q456.2826 279.15625 457.20447 279.46875Q458.12634 279.76562 458.64197 280.39062Q459.14197 281.0 459.14197 281.95312Q459.14197 283.1875 458.25134 283.90625Q457.18884 284.75 454.76697 284.75ZM454.76697 283.67188Q456.87634 283.67188 457.57947 283.17188Q458.2826 282.67188 458.2826 281.95312Q458.2826 281.21875 457.57947 280.73438Q456.87634 280.23438 454.76697 280.23438Q452.64197 280.23438 451.95447 280.73438Q451.25134 281.21875 451.25134 281.96875Q451.25134 282.6875 451.86072 283.125Q452.64197 283.67188 454.76697 283.67188ZM454.76697 277.75Q453.23572 277.75 452.31384 277.4375Q451.37634 277.125 450.87634 276.51562Q450.37634 275.89062 450.37634 274.95312Q450.37634 274.26562 450.6576 273.75Q450.93884 273.21875 451.4701 272.875Q451.98572 272.53125 452.73572 272.34375Q453.48572 272.15625 454.76697 272.15625Q456.2826 272.15625 457.20447 272.46875Q458.12634 272.76562 458.64197 273.39062Q459.14197 274.0 459.14197 274.95312Q459.14197 276.1875 458.25134 276.90625Q457.18884 277.75 454.76697 277.75ZM454.76697 276.67188Q456.87634 276.67188 457.57947 276.17188Q458.2826 275.67188 458.2826 274.95312Q458.2826 274.21875 457.57947 273.73438Q456.87634 273.23438 454.76697 273.23438Q452.64197 273.23438 451.95447 273.73438Q451.25134 274.21875 451.25134 274.96875Q451.25134 275.6875 451.86072 276.125Q452.64197 276.67188 454.76697 276.67188Z" fill-rule="nonzero"/></svg>