<svg version="1.1" viewBox="0.0 0.0 567.0 351.0" fill="none" stroke="none" stroke-linecap="square" stroke-miterlimit="10" width="567" height="351" xmlns:xlink="http://www.w3.org/1999/xlink" xmlns="http://www.w3.org/2000/svg"><path fill="#ffffff" d="M0 0L567.0 0L567.0 351.0L0 351.0L0 0Z" fill-rule="nonzero"/><path stroke="#333333" stroke-width="1.0" stroke-linecap="butt" d="M126.5 50.5L126.5 281.5" fill-rule="nonzero"/><path stroke="#cccccc" stroke-width="1.0" stroke-linecap="butt" d="M224.5 50.5L224.5 281.5" fill-rule="nonzero"/><path stroke="#cccccc" stroke-width="1.0" stroke-linecap="butt" d="M322.5 50.5L322.5 281.5" fill-rule="nonzero"/><path stroke="#cccccc" stroke-width="1.0" stroke-linecap="butt" d="M420.5 50.5L420.5 281.5" fill-rule="nonzero"/><path stroke="#cccccc" stroke-width="1.0" stroke-linecap="butt" d="M518.5 50.5L518.5 281.5" fill-rule="nonzero"/><path stroke="#e6e6e6" stroke-width="1.0" stroke-linecap="butt" d="M94.5 50.5L94.5 281.5" fill-rule="nonzero"/><path stroke="#e6e6e6" stroke-width="1.0" stroke-linecap="butt" d="M159.5 50.5L159.5 281.5" fill-rule="nonzero"/><path stroke="#e6e6e6" stroke-width="1.0" stroke-linecap="butt" d="M192.5 50.5L192.5 281.5" fill-rule="nonzero"/><path stroke="#e6e6e6" stroke-width="1.0" stroke-linecap="butt" d="M257.5 50.5L257.5 281.5" fill-rule="nonzero"/><path stroke="#e6e6e6" stroke-width="1.0" stroke-linecap="butt" d="M290.5 50.5L290.5 281.5" fill-rule="nonzero"/><path stroke="#e6e6e6" stroke-width="1.0" stroke-linecap="butt" d="M355.5 50.5L355.5 281.5" fill-rule="nonzero"/><path stroke="#e6e6e6" stroke-width="1.0" stroke-linecap="butt" d="M388.5 50.5L388.5 281.5" fill-rule="nonzero"/><path stroke="#e6e6e6" stroke-width="1.0" stroke-linecap="butt" d="M453.5 50.5L453.5 281.5" fill-rule="nonzero"/><path stroke="#e6e6e6" stroke-width="1.0" stroke-linecap="butt" d="M486.5 50.5L486.5 281.5" fill-rule="nonzero"/><path stroke="#333333" stroke-width="1.0" stroke-linecap="butt" d="M76.5 281.5L549.5 281.5" fill-rule="nonzero"/><path stroke="#cccccc" stroke-width="1.0" stroke-linecap="butt" d="M76.5 204.5L549.5 204.5" fill-rule="nonzero"/><path stroke="#cccccc" stroke-width="1.0" stroke-linecap="butt" d="M76.5 127.5L549.5 127.5" fill-rule="nonzero"/><path stroke="#cccccc" stroke-width="1.0" stroke-linecap="butt" d="M76.5 50.5L549.5 50.5" fill-rule="nonzero"/><path stroke="#e6e6e6" stroke-width="1.0" stroke-linecap="butt" d="M76.5 268.5L549.5 268.5" fill-rule="nonzero"/><path stroke="#e6e6e6" stroke-width="1.0" stroke-linecap="butt" d="M76.5 255.5L549.5 255.5" fill-rule="nonzero"/><path stroke="#e6e6e6" stroke-width="1.0" stroke-linecap="butt" d="M76.5 242.5L549.5 242.5" fill-rule="nonzero"/><path stroke="#e6e6e6" stroke-width="1.0" stroke-linecap="butt" d="M76.5 230.5L549.5 230.5" fill-rule="nonzero"/><path stroke="#e6e6e6" stroke-width="1.0" stroke-linecap="butt" d="M76.5 217.5L549.5 217.5" fill-rule="nonzero"/><path stroke="#e6e6e6" stroke-width="1.0" stroke-linecap="butt" d="M76.5 191.5L549.5 191.5" fill-rule="nonzero"/><path stroke="#e6e6e6" stroke-width="1.0" stroke-linecap="butt" d="M76.5 178.5L549.5 178.5" fill-rule="nonzero"/><path stroke="#e6e6e6" stroke-width="1.0" stroke-linecap="butt" d="M76.5 165.5L549.5 165.5" fill-rule="nonzero"/><path stroke="#e6e6e6" stroke-width="1.0" stroke-linecap="butt" d="M76.5 153.5L549.5 153.5" fill-rule="nonzero"/><path stroke="#e6e6e6" stroke-width="1.0" stroke-linecap="butt" d="M76.5 140.5L549.5 140.5" fill-rule="nonzero"/><path stroke="#e6e6e6" stroke-width="1.0" stroke-linecap="butt" d="M76.5 114.5L549.5 114.5" fill-rule="nonzero"/><path stroke="#e6e6e6" stroke-width="1.0" stroke-linecap="butt" d="M76.5 101.5L549.5 101.5" fill-rule="nonzero"/><path stroke="#e6e6e6" stroke-width="1.0" stroke-linecap="butt" d="M76.5 88.5L549.5 88.5" fill-rule="nonzero"/><path stroke="#e6e6e6" stroke-width="1.0" stroke-linecap="butt" d="M76.5 75.5L549.5 75.5" fill-rule="nonzero"/><path stroke="#e6e6e6" stroke-width="1.0" stroke-linecap="butt" d="M76.5 63.5L549.5 63.5" fill-rule="nonzero"/><clipPath id="id_0"><path d="M76.55 50.25L549.45 50.25L549.45 281.45L76.55 281.45L76.55 50.25Z" clip-rule="nonzero"/></clipPath><path fill="#4285f4" fill-opacity="0.8" clip-path="url(#id_0)" d="M158.38455 277.59668C158.38455 294.7175 144.50537 308.59668 127.38455 308.59668C110.263725 308.59668 96.38455 294.7175 96.38455 277.59668C96.38455 260.47583 110.263725 246.59666 127.38455 246.59666C144.50537 246.59666 158.38455 260.47583 158.38455 277.59668Z" fill-rule="nonzero"/><path fill="#ea4335" fill-opacity="0.8" clip-path="url(#id_0)" d="M190.74937 165.85C190.74937 173.37482 184.64929 179.4749 177.12448 179.4749C169.59966 179.4749 163.49957 173.37482 163.49957 165.85C163.49957 158.32518 169.59966 152.2251 177.12448 152.2251C184.64929 152.2251 190.74937 158.32518 190.74937 165.85Z" fill-rule="nonzero"/><path fill="#fbbc04" fill-opacity="0.8" clip-path="url(#id_0)" d="M233.25606 88.78333C233.25606 92.09704 230.56976 94.78333 227.25606 94.78333C223.94235 94.78333 221.25606 92.09704 221.25606 88.78333C221.25606 85.46963 223.94235 82.78333 227.25606 82.78333C230.56976 82.78333 233.25606 85.46963 233.25606 88.78333Z" fill-rule="nonzero"/><path fill="#34a853" fill-opacity="0.8" clip-path="url(#id_0)" d="M541.67737 165.85C541.67737 173.37866 535.57416 179.48184 528.04553 179.48184C520.51685 179.48184 514.4137 173.37866 514.4137 165.85C514.4137 158.32133 520.51685 152.21815 528.04553 152.21815C535.57416 152.21815 541.67737 158.32133 541.67737 165.85Z" fill-rule="nonzero"/><path stroke="#ffffff" stroke-width="3.0" stroke-linejoin="round" stroke-linecap="round" clip-path="url(#id_0)" d="M115.52518 282.59668L115.52518 281.6748Q114.82205 282.76855 113.49393 282.76855Q112.61893 282.76855 111.88455 282.28418Q111.1658 281.7998 110.75955 280.94043Q110.36893 280.08105 110.36893 278.97168Q110.36893 277.89355 110.7283 277.00293Q111.08768 276.1123 111.80643 275.64355Q112.5408 275.1748 113.43143 275.1748Q114.08768 275.1748 114.6033 275.45605Q115.11893 275.72168 115.43143 276.1748L115.43143 272.58105L116.6658 272.58105L116.6658 282.59668L115.52518 282.59668ZM111.63455 278.97168Q111.63455 280.3623 112.21268 281.06543Q112.80643 281.75293 113.6033 281.75293Q114.4158 281.75293 114.9783 281.09668Q115.5408 280.4248 115.5408 279.08105Q115.5408 277.58105 114.96268 276.89355Q114.38455 276.19043 113.55643 276.19043Q112.7283 276.19043 112.18143 276.8623Q111.63455 277.53418 111.63455 278.97168ZM118.82205 273.9873L118.82205 272.58105L120.0408 272.58105L120.0408 273.9873L118.82205 273.9873ZM118.82205 282.59668L118.82205 275.33105L120.0408 275.33105L120.0408 282.59668L118.82205 282.59668ZM121.7908 282.59668L121.7908 275.33105L122.90018 275.33105L122.90018 276.44043Q123.32205 275.65918 123.68143 275.4248Q124.0408 275.1748 124.4783 275.1748Q125.1033 275.1748 125.74393 275.56543L125.32205 276.70605Q124.86893 276.44043 124.4158 276.44043Q124.00955 276.44043 123.68143 276.69043Q123.36893 276.9248 123.2283 277.3623Q123.02518 278.01855 123.02518 278.7998L123.02518 282.59668L121.7908 282.59668ZM131.77518 280.25293L133.05643 280.40918Q132.74393 281.53418 131.93143 282.15918Q131.11893 282.76855 129.8533 282.76855Q128.25955 282.76855 127.32205 281.78418Q126.40018 280.7998 126.40018 279.03418Q126.40018 277.19043 127.33768 276.19043Q128.2908 275.1748 129.7908 275.1748Q131.24393 275.1748 132.1658 276.1748Q133.08768 277.15918 133.08768 278.95605Q133.08768 279.06543 133.08768 279.28418L127.6658 279.28418Q127.74393 280.47168 128.33768 281.1123Q128.94705 281.75293 129.86893 281.75293Q130.5408 281.75293 131.00955 281.39355Q131.49393 281.03418 131.77518 280.25293ZM127.74393 278.26855L131.7908 278.26855Q131.71268 277.34668 131.32205 276.89355Q130.74393 276.19043 129.80643 276.19043Q128.94705 276.19043 128.36893 276.75293Q127.80643 277.31543 127.74393 278.26855ZM139.5408 279.94043L140.75955 280.09668Q140.55643 281.34668 139.7283 282.06543Q138.9158 282.76855 137.7283 282.76855Q136.24393 282.76855 135.33768 281.7998Q134.43143 280.81543 134.43143 278.9873Q134.43143 277.81543 134.82205 276.94043Q135.21268 276.0498 136.00955 275.6123Q136.80643 275.1748 137.74393 275.1748Q138.9158 275.1748 139.6658 275.76855Q140.43143 276.3623 140.63455 277.47168L139.44705 277.65918Q139.27518 276.9248 138.83768 276.56543Q138.40018 276.19043 137.7908 276.19043Q136.8533 276.19043 136.27518 276.8623Q135.69705 277.51855 135.69705 278.95605Q135.69705 280.4248 136.25955 281.09668Q136.82205 281.75293 137.71268 281.75293Q138.44705 281.75293 138.93143 281.31543Q139.4158 280.8623 139.5408 279.94043ZM144.49393 281.50293L144.6658 282.58105Q144.15018 282.69043 143.74393 282.69043Q143.07205 282.69043 142.69705 282.4873Q142.33768 282.26855 142.18143 281.9248Q142.0408 281.58105 142.0408 280.47168L142.0408 276.2998L141.13455 276.2998L141.13455 275.33105L142.0408 275.33105L142.0408 273.53418L143.25955 272.7998L143.25955 275.33105L144.49393 275.33105L144.49393 276.2998L143.25955 276.2998L143.25955 280.53418Q143.25955 281.06543 143.32205 281.22168Q143.38455 281.3623 143.52518 281.45605Q143.68143 281.5498 143.94705 281.5498Q144.1658 281.5498 144.49393 281.50293Z" fill-rule="nonzero"/><path fill="#1a1a1a" clip-path="url(#id_0)" d="M115.52518 282.59668L115.52518 281.6748Q114.82205 282.76855 113.49393 282.76855Q112.61893 282.76855 111.88455 282.28418Q111.1658 281.7998 110.75955 280.94043Q110.36893 280.08105 110.36893 278.97168Q110.36893 277.89355 110.7283 277.00293Q111.08768 276.1123 111.80643 275.64355Q112.5408 275.1748 113.43143 275.1748Q114.08768 275.1748 114.6033 275.45605Q115.11893 275.72168 115.43143 276.1748L115.43143 272.58105L116.6658 272.58105L116.6658 282.59668L115.52518 282.59668ZM111.63455 278.97168Q111.63455 280.3623 112.21268 281.06543Q112.80643 281.75293 113.6033 281.75293Q114.4158 281.75293 114.9783 281.09668Q115.5408 280.4248 115.5408 279.08105Q115.5408 277.58105 114.96268 276.89355Q114.38455 276.19043 113.55643 276.19043Q112.7283 276.19043 112.18143 276.8623Q111.63455 277.53418 111.63455 278.97168ZM118.82205 273.9873L118.82205 272.58105L120.0408 272.58105L120.0408 273.9873L118.82205 273.9873ZM118.82205 282.59668L118.82205 275.33105L120.0408 275.33105L120.0408 282.59668L118.82205 282.59668ZM121.7908 282.59668L121.7908 275.33105L122.90018 275.33105L122.90018 276.44043Q123.32205 275.65918 123.68143 275.4248Q124.0408 275.1748 124.4783 275.1748Q125.1033 275.1748 125.74393 275.56543L125.32205 276.70605Q124.86893 276.44043 124.4158 276.44043Q124.00955 276.44043 123.68143 276.69043Q123.36893 276.9248 123.2283 277.3623Q123.02518 278.01855 123.02518 278.7998L123.02518 282.59668L121.7908 282.59668ZM131.77518 280.25293L133.05643 280.40918Q132.74393 281.53418 131.93143 282.15918Q131.11893 282.76855 129.8533 282.76855Q128.25955 282.76855 127.32205 281.78418Q126.40018 280.7998 126.40018 279.03418Q126.40018 277.19043 127.33768 276.19043Q128.2908 275.1748 129.7908 275.1748Q131.24393 275.1748 132.1658 276.1748Q133.08768 277.15918 133.08768 278.95605Q133.08768 279.06543 133.08768 279.28418L127.6658 279.28418Q127.74393 280.47168 128.33768 281.1123Q128.94705 281.75293 129.86893 281.75293Q130.5408 281.75293 131.00955 281.39355Q131.49393 281.03418 131.77518 280.25293ZM127.74393 278.26855L131.7908 278.26855Q131.71268 277.34668 131.32205 276.89355Q130.74393 276.19043 129.80643 276.19043Q128.94705 276.19043 128.36893 276.75293Q127.80643 277.31543 127.74393 278.26855ZM139.5408 279.94043L140.75955 280.09668Q140.55643 281.34668 139.7283 282.06543Q138.9158 282.76855 137.7283 282.76855Q136.24393 282.76855 135.33768 281.7998Q134.43143 280.81543 134.43143 278.9873Q134.43143 277.81543 134.82205 276.94043Q135.21268 276.0498 136.00955 275.6123Q136.80643 275.1748 137.74393 275.1748Q138.9158 275.1748 139.6658 275.76855Q140.43143 276.3623 140.63455 277.47168L139.44705 277.65918Q139.27518 276.9248 138.83768 276.56543Q138.40018 276.19043 137.7908 276.19043Q136.8533 276.19043 136.27518 276.8623Q135.69705 277.51855 135.69705 278.95605Q135.69705 280.4248 136.25955 281.09668Q136.82205 281.75293 137.71268 281.75293Q138.44705 281.75293 138.93143 281.31543Q139.4158 280.8623 139.5408 279.94043ZM144.49393 281.50293L144.6658 282.58105Q144.15018 282.69043 143.74393 282.69043Q143.07205 282.69043 142.69705 282.4873Q142.33768 282.26855 142.18143 281.9248Q142.0408 281.58105 142.0408 280.47168L142.0408 276.2998L141.13455 276.2998L141.13455 275.33105L142.0408 275.33105L142.0408 273.53418L143.25955 272.7998L143.25955 275.33105L144.49393 275.33105L144.49393 276.2998L143.25955 276.2998L143.25955 280.53418Q143.25955 281.06543 143.32205 281.22168Q143.38455 281.3623 143.52518 281.45605Q143.68143 281.5498 143.94705 281.5498Q144.1658 281.5498 144.49393 281.50293Z" fill-rule="nonzero"/><path stroke="#ffffff" stroke-width="3.0" stroke-linejoin="round" stroke-linecap="round" clip-path="url(#id_0)" d="M159.84323 170.85L158.60886 170.85L158.60886 163.00626Q158.17136 163.42813 157.43698 163.86563Q156.71823 164.2875 156.15573 164.49063L156.15573 163.30313Q157.18698 162.81876 157.9526 162.13126Q158.73386 161.44376 159.04636 160.7875L159.84323 160.7875L159.84323 170.85ZM169.67136 169.6625L169.67136 170.85L163.04636 170.85Q163.03073 170.4125 163.18698 169.99063Q163.4526 169.31876 163.99948 168.6625Q164.56198 168.00626 165.60886 167.14688Q167.24948 165.80313 167.81198 165.02188Q168.3901 164.24063 168.3901 163.5375Q168.3901 162.80313 167.85886 162.30313Q167.34323 161.80313 166.5151 161.80313Q165.62448 161.80313 165.0776 162.33438Q164.54636 162.86563 164.54636 163.81876L163.28073 163.67813Q163.40573 162.27188 164.24948 161.5375Q165.10886 160.7875 166.53073 160.7875Q167.98386 160.7875 168.81198 161.58438Q169.65573 162.38126 169.65573 163.56876Q169.65573 164.17813 169.40573 164.75626Q169.17136 165.33438 168.59323 165.975Q168.03073 166.61563 166.7026 167.74063Q165.59323 168.6625 165.28073 169.00626Q164.96823 169.33438 164.7651 169.6625L169.67136 169.6625ZM173.09323 165.4125Q172.3276 165.13126 171.9526 164.61563Q171.59323 164.1 171.59323 163.36563Q171.59323 162.27188 172.37448 161.5375Q173.17136 160.7875 174.46823 160.7875Q175.78073 160.7875 176.5776 161.55313Q177.3901 162.31876 177.3901 163.4125Q177.3901 164.1 177.0151 164.61563Q176.65573 165.13126 175.90573 165.4125Q176.8276 165.70938 177.31198 166.38126Q177.79636 167.05313 177.79636 167.99063Q177.79636 169.27188 176.8901 170.14688Q175.98386 171.02188 174.49948 171.02188Q173.0151 171.02188 172.09323 170.14688Q171.18698 169.25626 171.18698 167.94376Q171.18698 166.975 171.68698 166.31876Q172.18698 165.64688 173.09323 165.4125ZM172.85886 163.33438Q172.85886 164.0375 173.31198 164.49063Q173.7651 164.94376 174.49948 164.94376Q175.21823 164.94376 175.67136 164.50626Q176.12448 164.05313 176.12448 163.39688Q176.12448 162.725 175.65573 162.27188Q175.18698 161.80313 174.48386 161.80313Q173.78073 161.80313 173.31198 162.25626Q172.85886 162.69376 172.85886 163.33438ZM172.4526 167.95938Q172.4526 168.49063 172.7026 168.99063Q172.9526 169.475 173.43698 169.74063Q173.93698 170.00626 174.5151 170.00626Q175.3901 170.00626 175.9526 169.44376Q176.53073 168.88126 176.53073 168.00626Q176.53073 167.11563 175.93698 166.5375Q175.35886 165.94376 174.46823 165.94376Q173.59323 165.94376 173.0151 166.52188Q172.4526 167.1 172.4526 167.95938ZM179.06198 167.83438L179.06198 166.6L182.84323 166.6L182.84323 167.83438L179.06198 167.83438ZM184.21823 168.20938L185.43698 168.0375Q185.65573 169.08438 186.15573 169.55313Q186.67136 170.00626 187.40573 170.00626Q188.28073 170.00626 188.87448 169.4125Q189.46823 168.80313 189.46823 167.9125Q189.46823 167.06876 188.90573 166.52188Q188.35886 165.975 187.5151 165.975Q187.15573 165.975 186.6401 166.1L186.78073 165.02188Q186.90573 165.0375 186.96823 165.0375Q187.7651 165.0375 188.3901 164.63126Q189.0151 164.225 189.0151 163.36563Q189.0151 162.69376 188.56198 162.25626Q188.10886 161.80313 187.37448 161.80313Q186.65573 161.80313 186.17136 162.25626Q185.7026 162.69376 185.56198 163.6L184.34323 163.38126Q184.56198 162.14688 185.35886 161.475Q186.15573 160.7875 187.34323 160.7875Q188.17136 160.7875 188.85886 161.14688Q189.54636 161.49063 189.90573 162.1Q190.28073 162.70938 190.28073 163.39688Q190.28073 164.0375 189.93698 164.56876Q189.59323 165.1 188.90573 165.42813Q189.79636 165.63126 190.28073 166.27188Q190.78073 166.9125 190.78073 167.89688Q190.78073 169.20938 189.81198 170.11563Q188.85886 171.02188 187.40573 171.02188Q186.0776 171.02188 185.2026 170.24063Q184.34323 169.45938 184.21823 168.20938ZM192.2026 165.9125Q192.2026 164.13126 192.56198 163.05313Q192.93698 161.95938 193.65573 161.38126Q194.37448 160.7875 195.46823 160.7875Q196.28073 160.7875 196.8901 161.11563Q197.49948 161.44376 197.8901 162.05313Q198.29636 162.6625 198.5151 163.5375Q198.73386 164.4125 198.73386 165.9125Q198.73386 167.67813 198.37448 168.75626Q198.0151 169.83438 197.29636 170.42813Q196.5776 171.02188 195.46823 171.02188Q194.03073 171.02188 193.2026 169.975Q192.2026 168.725 192.2026 165.9125ZM193.46823 165.9125Q193.46823 168.38126 194.04636 169.19376Q194.62448 170.00626 195.46823 170.00626Q196.3276 170.00626 196.90573 169.19376Q197.48386 168.36563 197.48386 165.9125Q197.48386 163.42813 196.90573 162.61563Q196.3276 161.80313 195.4526 161.80313Q194.60886 161.80313 194.10886 162.52188Q193.46823 163.44376 193.46823 165.9125Z" fill-rule="nonzero"/><path fill="#1a1a1a" clip-path="url(#id_0)" d="M159.84323 170.85L158.60886 170.85L158.60886 163.00626Q158.17136 163.42813 157.43698 163.86563Q156.71823 164.2875 156.15573 164.49063L156.15573 163.30313Q157.18698 162.81876 157.9526 162.13126Q158.73386 161.44376 159.04636 160.7875L159.84323 160.7875L159.84323 170.85ZM169.67136 169.6625L169.67136 170.85L163.04636 170.85Q163.03073 170.4125 163.18698 169.99063Q163.4526 169.31876 163.99948 168.6625Q164.56198 168.00626 165.60886 167.14688Q167.24948 165.80313 167.81198 165.02188Q168.3901 164.24063 168.3901 163.5375Q168.3901 162.80313 167.85886 162.30313Q167.34323 161.80313 166.5151 161.80313Q165.62448 161.80313 165.0776 162.33438Q164.54636 162.86563 164.54636 163.81876L163.28073 163.67813Q163.40573 162.27188 164.24948 161.5375Q165.10886 160.7875 166.53073 160.7875Q167.98386 160.7875 168.81198 161.58438Q169.65573 162.38126 169.65573 163.56876Q169.65573 164.17813 169.40573 164.75626Q169.17136 165.33438 168.59323 165.975Q168.03073 166.61563 166.7026 167.74063Q165.59323 168.6625 165.28073 169.00626Q164.96823 169.33438 164.7651 169.6625L169.67136 169.6625ZM173.09323 165.4125Q172.3276 165.13126 171.9526 164.61563Q171.59323 164.1 171.59323 163.36563Q171.59323 162.27188 172.37448 161.5375Q173.17136 160.7875 174.46823 160.7875Q175.78073 160.7875 176.5776 161.55313Q177.3901 162.31876 177.3901 163.4125Q177.3901 164.1 177.0151 164.61563Q176.65573 165.13126 175.90573 165.4125Q176.8276 165.70938 177.31198 166.38126Q177.79636 167.05313 177.79636 167.99063Q177.79636 169.27188 176.8901 170.14688Q175.98386 171.02188 174.49948 171.02188Q173.0151 171.02188 172.09323 170.14688Q171.18698 169.25626 171.18698 167.94376Q171.18698 166.975 171.68698 166.31876Q172.18698 165.64688 173.09323 165.4125ZM172.85886 163.33438Q172.85886 164.0375 173.31198 164.49063Q173.7651 164.94376 174.49948 164.94376Q175.21823 164.94376 175.67136 164.50626Q176.12448 164.05313 176.12448 163.39688Q176.12448 162.725 175.65573 162.27188Q175.18698 161.80313 174.48386 161.80313Q173.78073 161.80313 173.31198 162.25626Q172.85886 162.69376 172.85886 163.33438ZM172.4526 167.95938Q172.4526 168.49063 172.7026 168.99063Q172.9526 169.475 173.43698 169.74063Q173.93698 170.00626 174.5151 170.00626Q175.3901 170.00626 175.9526 169.44376Q176.53073 168.88126 176.53073 168.00626Q176.53073 167.11563 175.93698 166.5375Q175.35886 165.94376 174.46823 165.94376Q173.59323 165.94376 173.0151 166.52188Q172.4526 167.1 172.4526 167.95938ZM179.06198 167.83438L179.06198 166.6L182.84323 166.6L182.84323 167.83438L179.06198 167.83438ZM184.21823 168.20938L185.43698 168.0375Q185.65573 169.08438 186.15573 169.55313Q186.67136 170.00626 187.40573 170.00626Q188.28073 170.00626 188.87448 169.4125Q189.46823 168.80313 189.46823 167.9125Q189.46823 167.06876 188.90573 166.52188Q188.35886 165.975 187.5151 165.975Q187.15573 165.975 186.6401 166.1L186.78073 165.02188Q186.90573 165.0375 186.96823 165.0375Q187.7651 165.0375 188.3901 164.63126Q189.0151 164.225 189.0151 163.36563Q189.0151 162.69376 188.56198 162.25626Q188.10886 161.80313 187.37448 161.80313Q186.65573 161.80313 186.17136 162.25626Q185.7026 162.69376 185.56198 163.6L184.34323 163.38126Q184.56198 162.14688 185.35886 161.475Q186.15573 160.7875 187.34323 160.7875Q188.17136 160.7875 188.85886 161.14688Q189.54636 161.49063 189.90573 162.1Q190.28073 162.70938 190.28073 163.39688Q190.28073 164.0375 189.93698 164.56876Q189.59323 165.1 188.90573 165.42813Q189.79636 165.63126 190.28073 166.27188Q190.78073 166.9125 190.78073 167.89688Q190.78073 169.20938 189.81198 170.11563Q188.85886 171.02188 187.40573 171.02188Q186.0776 171.02188 185.2026 170.24063Q184.34323 169.45938 184.21823 168.20938ZM192.2026 165.9125Q192.2026 164.13126 192.56198 163.05313Q192.93698 161.95938 193.65573 161.38126Q194.37448 160.7875 195.46823 160.7875Q196.28073 160.7875 196.8901 161.11563Q197.49948 161.44376 197.8901 162.05313Q198.29636 162.6625 198.5151 163.5375Q198.73386 164.4125 198.73386 165.9125Q198.73386 167.67813 198.37448 168.75626Q198.0151 169.83438 197.29636 170.42813Q196.5776 171.02188 195.46823 171.02188Q194.03073 171.02188 193.2026 169.975Q192.2026 168.725 192.2026 165.9125ZM193.46823 165.9125Q193.46823 168.38126 194.04636 169.19376Q194.62448 170.00626 195.46823 170.00626Q196.3276 170.00626 196.90573 169.19376Q197.48386 168.36563 197.48386 165.9125Q197.48386 163.42813 196.90573 162.61563Q196.3276 161.80313 195.4526 161.80313Q194.60886 161.80313 194.10886 162.52188Q193.46823 163.44376 193.46823 165.9125Z" fill-rule="nonzero"/><path stroke="#ffffff" stroke-width="3.0" stroke-linejoin="round" stroke-linecap="round" clip-path="url(#id_0)" d="M211.80293 92.59583L211.80293 93.78333L205.17793 93.78333Q205.16231 93.34583 205.31856 92.92396Q205.58418 92.25208 206.13106 91.59583Q206.69356 90.93958 207.74043 90.08021Q209.38106 88.73646 209.94356 87.95521Q210.52168 87.17396 210.52168 86.47083Q210.52168 85.73646 209.99043 85.23646Q209.47481 84.73646 208.64668 84.73646Q207.75606 84.73646 207.20918 85.26771Q206.67793 85.79896 206.67793 86.75208L205.41231 86.61146Q205.53731 85.20521 206.38106 84.47083Q207.24043 83.72083 208.66231 83.72083Q210.11543 83.72083 210.94356 84.51771Q211.78731 85.31458 211.78731 86.50208Q211.78731 87.11146 211.53731 87.68958Q211.30293 88.26771 210.72481 88.90833Q210.16231 89.54896 208.83418 90.67396Q207.72481 91.59583 207.41231 91.93958Q207.09981 92.26771 206.89668 92.59583L211.80293 92.59583ZM213.33418 91.15833L214.63106 91.04896Q214.77168 91.98646 215.28731 92.47083Q215.81856 92.93958 216.55293 92.93958Q217.44356 92.93958 218.05293 92.26771Q218.67793 91.59583 218.67793 90.50208Q218.67793 89.43958 218.08418 88.83021Q217.49043 88.22083 216.53731 88.22083Q215.94356 88.22083 215.45918 88.50208Q214.99043 88.76771 214.70918 89.18958L213.55293 89.04896L214.52168 83.89271L219.50606 83.89271L219.50606 85.08021L215.50606 85.08021L214.97481 87.76771Q215.88106 87.14271 216.86543 87.14271Q218.17793 87.14271 219.06856 88.04896Q219.97481 88.95521 219.97481 90.39271Q219.97481 91.75208 219.19356 92.73646Q218.22481 93.95521 216.55293 93.95521Q215.19356 93.95521 214.31856 93.18958Q213.45918 92.42396 213.33418 91.15833ZM227.72481 86.22083L226.50606 86.31458Q226.33418 85.58021 226.03731 85.25208Q225.53731 84.73646 224.80293 84.73646Q224.20918 84.73646 223.77168 85.06458Q223.19356 85.48646 222.84981 86.29896Q222.52168 87.11146 222.50606 88.61146Q222.94356 87.93958 223.58418 87.61146Q224.24043 87.28333 224.94356 87.28333Q226.17793 87.28333 227.03731 88.18958Q227.89668 89.09583 227.89668 90.53333Q227.89668 91.47083 227.49043 92.28333Q227.08418 93.09583 226.36543 93.53333Q225.66231 93.95521 224.75606 93.95521Q223.22481 93.95521 222.25606 92.83021Q221.28731 91.68958 221.28731 89.09583Q221.28731 86.18958 222.34981 84.86146Q223.28731 83.72083 224.88106 83.72083Q226.06856 83.72083 226.81856 84.39271Q227.56856 85.04896 227.72481 86.22083ZM222.69356 90.53333Q222.69356 91.17396 222.95918 91.75208Q223.24043 92.33021 223.72481 92.64271Q224.20918 92.93958 224.74043 92.93958Q225.52168 92.93958 226.08418 92.31458Q226.64668 91.68958 226.64668 90.61146Q226.64668 89.56458 226.08418 88.97083Q225.53731 88.36146 224.69356 88.36146Q223.86543 88.36146 223.27168 88.97083Q222.69356 89.56458 222.69356 90.53333ZM229.19356 90.76771L229.19356 89.53333L232.97481 89.53333L232.97481 90.76771L229.19356 90.76771ZM234.33418 91.15833L235.63106 91.04896Q235.77168 91.98646 236.28731 92.47083Q236.81856 92.93958 237.55293 92.93958Q238.44356 92.93958 239.05293 92.26771Q239.67793 91.59583 239.67793 90.50208Q239.67793 89.43958 239.08418 88.83021Q238.49043 88.22083 237.53731 88.22083Q236.94356 88.22083 236.45918 88.50208Q235.99043 88.76771 235.70918 89.18958L234.55293 89.04896L235.52168 83.89271L240.50606 83.89271L240.50606 85.08021L236.50606 85.08021L235.97481 87.76771Q236.88106 87.14271 237.86543 87.14271Q239.17793 87.14271 240.06856 88.04896Q240.97481 88.95521 240.97481 90.39271Q240.97481 91.75208 240.19356 92.73646Q239.22481 93.95521 237.55293 93.95521Q236.19356 93.95521 235.31856 93.18958Q234.45918 92.42396 234.33418 91.15833ZM242.33418 88.84583Q242.33418 87.06458 242.69356 85.98646Q243.06856 84.89271 243.78731 84.31458Q244.50606 83.72083 245.59981 83.72083Q246.41231 83.72083 247.02168 84.04896Q247.63106 84.37708 248.02168 84.98646Q248.42793 85.59583 248.64668 86.47083Q248.86543 87.34583 248.86543 88.84583Q248.86543 90.61146 248.50606 91.68958Q248.14668 92.76771 247.42793 93.36146Q246.70918 93.95521 245.59981 93.95521Q244.16231 93.95521 243.33418 92.90833Q242.33418 91.65833 242.33418 88.84583ZM243.59981 88.84583Q243.59981 91.31458 244.17793 92.12708Q244.75606 92.93958 245.59981 92.93958Q246.45918 92.93958 247.03731 92.12708Q247.61543 91.29896 247.61543 88.84583Q247.61543 86.36146 247.03731 85.54896Q246.45918 84.73646 245.58418 84.73646Q244.74043 84.73646 244.24043 85.45521Q243.59981 86.37708 243.59981 88.84583Z" fill-rule="nonzero"/><path fill="#1a1a1a" clip-path="url(#id_0)" d="M211.80293 92.59583L211.80293 93.78333L205.17793 93.78333Q205.16231 93.34583 205.31856 92.92396Q205.58418 92.25208 206.13106 91.59583Q206.69356 90.93958 207.74043 90.08021Q209.38106 88.73646 209.94356 87.95521Q210.52168 87.17396 210.52168 86.47083Q210.52168 85.73646 209.99043 85.23646Q209.47481 84.73646 208.64668 84.73646Q207.75606 84.73646 207.20918 85.26771Q206.67793 85.79896 206.67793 86.75208L205.41231 86.61146Q205.53731 85.20521 206.38106 84.47083Q207.24043 83.72083 208.66231 83.72083Q210.11543 83.72083 210.94356 84.51771Q211.78731 85.31458 211.78731 86.50208Q211.78731 87.11146 211.53731 87.68958Q211.30293 88.26771 210.72481 88.90833Q210.16231 89.54896 208.83418 90.67396Q207.72481 91.59583 207.41231 91.93958Q207.09981 92.26771 206.89668 92.59583L211.80293 92.59583ZM213.33418 91.15833L214.63106 91.04896Q214.77168 91.98646 215.28731 92.47083Q215.81856 92.93958 216.55293 92.93958Q217.44356 92.93958 218.05293 92.26771Q218.67793 91.59583 218.67793 90.50208Q218.67793 89.43958 218.08418 88.83021Q217.49043 88.22083 216.53731 88.22083Q215.94356 88.22083 215.45918 88.50208Q214.99043 88.76771 214.70918 89.18958L213.55293 89.04896L214.52168 83.89271L219.50606 83.89271L219.50606 85.08021L215.50606 85.08021L214.97481 87.76771Q215.88106 87.14271 216.86543 87.14271Q218.17793 87.14271 219.06856 88.04896Q219.97481 88.95521 219.97481 90.39271Q219.97481 91.75208 219.19356 92.73646Q218.22481 93.95521 216.55293 93.95521Q215.19356 93.95521 214.31856 93.18958Q213.45918 92.42396 213.33418 91.15833ZM227.72481 86.22083L226.50606 86.31458Q226.33418 85.58021 226.03731 85.25208Q225.53731 84.73646 224.80293 84.73646Q224.20918 84.73646 223.77168 85.06458Q223.19356 85.48646 222.84981 86.29896Q222.52168 87.11146 222.50606 88.61146Q222.94356 87.93958 223.58418 87.61146Q224.24043 87.28333 224.94356 87.28333Q226.17793 87.28333 227.03731 88.18958Q227.89668 89.09583 227.89668 90.53333Q227.89668 91.47083 227.49043 92.28333Q227.08418 93.09583 226.36543 93.53333Q225.66231 93.95521 224.75606 93.95521Q223.22481 93.95521 222.25606 92.83021Q221.28731 91.68958 221.28731 89.09583Q221.28731 86.18958 222.34981 84.86146Q223.28731 83.72083 224.88106 83.72083Q226.06856 83.72083 226.81856 84.39271Q227.56856 85.04896 227.72481 86.22083ZM222.69356 90.53333Q222.69356 91.17396 222.95918 91.75208Q223.24043 92.33021 223.72481 92.64271Q224.20918 92.93958 224.74043 92.93958Q225.52168 92.93958 226.08418 92.31458Q226.64668 91.68958 226.64668 90.61146Q226.64668 89.56458 226.08418 88.97083Q225.53731 88.36146 224.69356 88.36146Q223.86543 88.36146 223.27168 88.97083Q222.69356 89.56458 222.69356 90.53333ZM229.19356 90.76771L229.19356 89.53333L232.97481 89.53333L232.97481 90.76771L229.19356 90.76771ZM234.33418 91.15833L235.63106 91.04896Q235.77168 91.98646 236.28731 92.47083Q236.81856 92.93958 237.55293 92.93958Q238.44356 92.93958 239.05293 92.26771Q239.67793 91.59583 239.67793 90.50208Q239.67793 89.43958 239.08418 88.83021Q238.49043 88.22083 237.53731 88.22083Q236.94356 88.22083 236.45918 88.50208Q235.99043 88.76771 235.70918 89.18958L234.55293 89.04896L235.52168 83.89271L240.50606 83.89271L240.50606 85.08021L236.50606 85.08021L235.97481 87.76771Q236.88106 87.14271 237.86543 87.14271Q239.17793 87.14271 240.06856 88.04896Q240.97481 88.95521 240.97481 90.39271Q240.97481 91.75208 240.19356 92.73646Q239.22481 93.95521 237.55293 93.95521Q236.19356 93.95521 235.31856 93.18958Q234.45918 92.42396 234.33418 91.15833ZM242.33418 88.84583Q242.33418 87.06458 242.69356 85.98646Q243.06856 84.89271 243.78731 84.31458Q244.50606 83.72083 245.59981 83.72083Q246.41231 83.72083 247.02168 84.04896Q247.63106 84.37708 248.02168 84.98646Q248.42793 85.59583 248.64668 86.47083Q248.86543 87.34583 248.86543 88.84583Q248.86543 90.61146 248.50606 91.68958Q248.14668 92.76771 247.42793 93.36146Q246.70918 93.95521 245.59981 93.95521Q244.16231 93.95521 243.33418 92.90833Q242.33418 91.65833 242.33418 88.84583ZM243.59981 88.84583Q243.59981 91.31458 244.17793 92.12708Q244.75606 92.93958 245.59981 92.93958Q246.45918 92.93958 247.03731 92.12708Q247.61543 91.29896 247.61543 88.84583Q247.61543 86.36146 247.03731 85.54896Q246.45918 84.73646 245.58418 84.73646Q244.74043 84.73646 244.24043 85.45521Q243.59981 86.37708 243.59981 88.84583Z" fill-rule="nonzero"/><path stroke="#ffffff" stroke-width="3.0" stroke-linejoin="round" stroke-linecap="round" clip-path="url(#id_0)" d="M506.76428 170.85L505.5299 170.85L505.5299 163.00626Q505.0924 163.42813 504.35803 163.86563Q503.63928 164.2875 503.07678 164.49063L503.07678 163.30313Q504.10803 162.81876 504.87366 162.13126Q505.6549 161.44376 505.9674 160.7875L506.76428 160.7875L506.76428 170.85ZM510.12366 165.9125Q510.12366 164.13126 510.48303 163.05313Q510.85803 161.95938 511.57678 161.38126Q512.29553 160.7875 513.3893 160.7875Q514.2018 160.7875 514.81116 161.11563Q515.42053 161.44376 515.81116 162.05313Q516.2174 162.6625 516.43616 163.5375Q516.6549 164.4125 516.6549 165.9125Q516.6549 167.67813 516.29553 168.75626Q515.93616 169.83438 515.2174 170.42813Q514.49866 171.02188 513.3893 171.02188Q511.95178 171.02188 511.12366 169.975Q510.12366 168.725 510.12366 165.9125ZM511.38928 165.9125Q511.38928 168.38126 511.9674 169.19376Q512.54553 170.00626 513.3893 170.00626Q514.24866 170.00626 514.8268 169.19376Q515.4049 168.36563 515.4049 165.9125Q515.4049 163.42813 514.8268 162.61563Q514.24866 161.80313 513.37366 161.80313Q512.5299 161.80313 512.0299 162.52188Q511.38928 163.44376 511.38928 165.9125ZM524.5924 169.6625L524.5924 170.85L517.9674 170.85Q517.9518 170.4125 518.10803 169.99063Q518.37366 169.31876 518.92053 168.6625Q519.48303 168.00626 520.5299 167.14688Q522.17053 165.80313 522.73303 165.02188Q523.31116 164.24063 523.31116 163.5375Q523.31116 162.80313 522.7799 162.30313Q522.2643 161.80313 521.43616 161.80313Q520.54553 161.80313 519.99866 162.33438Q519.4674 162.86563 519.4674 163.81876L518.2018 163.67813Q518.3268 162.27188 519.17053 161.5375Q520.0299 160.7875 521.4518 160.7875Q522.9049 160.7875 523.73303 161.58438Q524.5768 162.38126 524.5768 163.56876Q524.5768 164.17813 524.3268 164.75626Q524.0924 165.33438 523.5143 165.975Q522.9518 166.61563 521.62366 167.74063Q520.5143 168.6625 520.2018 169.00626Q519.8893 169.33438 519.68616 169.6625L524.5924 169.6625ZM530.0768 170.85L530.0768 168.44376L525.7174 168.44376L525.7174 167.31876L530.29553 160.83438L531.29553 160.83438L531.29553 167.31876L532.6549 167.31876L532.6549 168.44376L531.29553 168.44376L531.29553 170.85L530.0768 170.85ZM530.0768 167.31876L530.0768 162.80313L526.93616 167.31876L530.0768 167.31876ZM533.98303 167.83438L533.98303 166.6L537.7643 166.6L537.7643 167.83438L533.98303 167.83438ZM539.1393 168.20938L540.35803 168.0375Q540.5768 169.08438 541.0768 169.55313Q541.5924 170.00626 542.3268 170.00626Q543.2018 170.00626 543.79553 169.4125Q544.3893 168.80313 544.3893 167.9125Q544.3893 167.06876 543.8268 166.52188Q543.2799 165.975 542.43616 165.975Q542.0768 165.975 541.56116 166.1L541.7018 165.02188Q541.8268 165.0375 541.8893 165.0375Q542.68616 165.0375 543.31116 164.63126Q543.93616 164.225 543.93616 163.36563Q543.93616 162.69376 543.48303 162.25626Q543.0299 161.80313 542.29553 161.80313Q541.5768 161.80313 541.0924 162.25626Q540.62366 162.69376 540.48303 163.6L539.2643 163.38126Q539.48303 162.14688 540.2799 161.475Q541.0768 160.7875 542.2643 160.7875Q543.0924 160.7875 543.7799 161.14688Q544.4674 161.49063 544.8268 162.1Q545.2018 162.70938 545.2018 163.39688Q545.2018 164.0375 544.85803 164.56876Q544.5143 165.1 543.8268 165.42813Q544.7174 165.63126 545.2018 166.27188Q545.7018 166.9125 545.7018 167.89688Q545.7018 169.20938 544.73303 170.11563Q543.7799 171.02188 542.3268 171.02188Q540.99866 171.02188 540.12366 170.24063Q539.2643 169.45938 539.1393 168.20938ZM547.12366 165.9125Q547.12366 164.13126 547.48303 163.05313Q547.85803 161.95938 548.5768 161.38126Q549.29553 160.7875 550.3893 160.7875Q551.2018 160.7875 551.81116 161.11563Q552.42053 161.44376 552.81116 162.05313Q553.2174 162.6625 553.43616 163.5375Q553.6549 164.4125 553.6549 165.9125Q553.6549 167.67813 553.29553 168.75626Q552.93616 169.83438 552.2174 170.42813Q551.49866 171.02188 550.3893 171.02188Q548.9518 171.02188 548.12366 169.975Q547.12366 168.725 547.12366 165.9125ZM548.3893 165.9125Q548.3893 168.38126 548.9674 169.19376Q549.54553 170.00626 550.3893 170.00626Q551.24866 170.00626 551.8268 169.19376Q552.4049 168.36563 552.4049 165.9125Q552.4049 163.42813 551.8268 162.61563Q551.24866 161.80313 550.37366 161.80313Q549.5299 161.80313 549.0299 162.52188Q548.3893 163.44376 548.3893 165.9125Z" fill-rule="nonzero"/><path fill="#1a1a1a" clip-path="url(#id_0)" d="M506.76428 170.85L505.5299 170.85L505.5299 163.00626Q505.0924 163.42813 504.35803 163.86563Q503.63928 164.2875 503.07678 164.49063L503.07678 163.30313Q504.10803 162.81876 504.87366 162.13126Q505.6549 161.44376 505.9674 160.7875L506.76428 160.7875L506.76428 170.85ZM510.12366 165.9125Q510.12366 164.13126 510.48303 163.05313Q510.85803 161.95938 511.57678 161.38126Q512.29553 160.7875 513.3893 160.7875Q514.2018 160.7875 514.81116 161.11563Q515.42053 161.44376 515.81116 162.05313Q516.2174 162.6625 516.43616 163.5375Q516.6549 164.4125 516.6549 165.9125Q516.6549 167.67813 516.29553 168.75626Q515.93616 169.83438 515.2174 170.42813Q514.49866 171.02188 513.3893 171.02188Q511.95178 171.02188 511.12366 169.975Q510.12366 168.725 510.12366 165.9125ZM511.38928 165.9125Q511.38928 168.38126 511.9674 169.19376Q512.54553 170.00626 513.3893 170.00626Q514.24866 170.00626 514.8268 169.19376Q515.4049 168.36563 515.4049 165.9125Q515.4049 163.42813 514.8268 162.61563Q514.24866 161.80313 513.37366 161.80313Q512.5299 161.80313 512.0299 162.52188Q511.38928 163.44376 511.38928 165.9125ZM524.5924 169.6625L524.5924 170.85L517.9674 170.85Q517.9518 170.4125 518.10803 169.99063Q518.37366 169.31876 518.92053 168.6625Q519.48303 168.00626 520.5299 167.14688Q522.17053 165.80313 522.73303 165.02188Q523.31116 164.24063 523.31116 163.5375Q523.31116 162.80313 522.7799 162.30313Q522.2643 161.80313 521.43616 161.80313Q520.54553 161.80313 519.99866 162.33438Q519.4674 162.86563 519.4674 163.81876L518.2018 163.67813Q518.3268 162.27188 519.17053 161.5375Q520.0299 160.7875 521.4518 160.7875Q522.9049 160.7875 523.73303 161.58438Q524.5768 162.38126 524.5768 163.56876Q524.5768 164.17813 524.3268 164.75626Q524.0924 165.33438 523.5143 165.975Q522.9518 166.61563 521.62366 167.74063Q520.5143 168.6625 520.2018 169.00626Q519.8893 169.33438 519.68616 169.6625L524.5924 169.6625ZM530.0768 170.85L530.0768 168.44376L525.7174 168.44376L525.7174 167.31876L530.29553 160.83438L531.29553 160.83438L531.29553 167.31876L532.6549 167.31876L532.6549 168.44376L531.29553 168.44376L531.29553 170.85L530.0768 170.85ZM530.0768 167.31876L530.0768 162.80313L526.93616 167.31876L530.0768 167.31876ZM533.98303 167.83438L533.98303 166.6L537.7643 166.6L537.7643 167.83438L533.98303 167.83438ZM539.1393 168.20938L540.35803 168.0375Q540.5768 169.08438 541.0768 169.55313Q541.5924 170.00626 542.3268 170.00626Q543.2018 170.00626 543.79553 169.4125Q544.3893 168.80313 544.3893 167.9125Q544.3893 167.06876 543.8268 166.52188Q543.2799 165.975 542.43616 165.975Q542.0768 165.975 541.56116 166.1L541.7018 165.02188Q541.8268 165.0375 541.8893 165.0375Q542.68616 165.0375 543.31116 164.63126Q543.93616 164.225 543.93616 163.36563Q543.93616 162.69376 543.48303 162.25626Q543.0299 161.80313 542.29553 161.80313Q541.5768 161.80313 541.0924 162.25626Q540.62366 162.69376 540.48303 163.6L539.2643 163.38126Q539.48303 162.14688 540.2799 161.475Q541.0768 160.7875 542.2643 160.7875Q543.0924 160.7875 543.7799 161.14688Q544.4674 161.49063 544.8268 162.1Q545.2018 162.70938 545.2018 163.39688Q545.2018 164.0375 544.85803 164.56876Q544.5143 165.1 543.8268 165.42813Q544.7174 165.63126 545.2018 166.27188Q545.7018 166.9125 545.7018 167.89688Q545.7018 169.20938 544.73303 170.11563Q543.7799 171.02188 542.3268 171.02188Q540.99866 171.02188 540.12366 170.24063Q539.2643 169.45938 539.1393 168.20938ZM547.12366 165.9125Q547.12366 164.13126 547.48303 163.05313Q547.85803 161.95938 548.5768 161.38126Q549.29553 160.7875 550.3893 160.7875Q551.2018 160.7875 551.81116 161.11563Q552.42053 161.44376 552.81116 162.05313Q553.2174 162.6625 553.43616 163.5375Q553.6549 164.4125 553.6549 165.9125Q553.6549 167.67813 553.29553 168.75626Q552.93616 169.83438 552.2174 170.42813Q551.49866 171.02188 550.3893 171.02188Q548.9518 171.02188 548.12366 169.975Q547.12366 168.725 547.12366 165.9125ZM548.3893 165.9125Q548.3893 168.38126 548.9674 169.19376Q549.54553 170.00626 550.3893 170.00626Q551.24866 170.00626 551.8268 169.19376Q552.4049 168.36563 552.4049 165.9125Q552.4049 163.42813 551.8268 162.61563Q551.24866 161.80313 550.37366 161.80313Q549.5299 161.80313 549.0299 162.52188Q548.3893 163.44376 548.3893 165.9125Z" fill-rule="nonzero"/><path fill="#000000" d="M302.5625 321.85626L303.70312 321.85626L303.70312 326.825Q303.70312 328.1219 303.40625 328.8875Q303.10938 329.6375 302.34375 330.1219Q301.57812 330.59064 300.34375 330.59064Q299.14062 330.59064 298.35938 330.1844Q297.59375 329.7625 297.26562 328.98126Q296.9375 328.1844 296.9375 326.825L296.9375 321.85626L298.07812 321.85626L298.07812 326.8094Q298.07812 327.9344 298.28125 328.46564Q298.5 328.9969 299.0 329.29376Q299.51562 329.575 300.25 329.575Q301.5 329.575 302.03125 329.0125Q302.5625 328.4344 302.5625 326.8094L302.5625 321.85626ZM305.375 328.59064L306.40625 328.4344Q306.5 329.0594 306.89062 329.3875Q307.29688 329.71564 308.03125 329.71564Q308.75 329.71564 309.09375 329.4344Q309.45312 329.1375 309.45312 328.73126Q309.45312 328.3719 309.14062 328.16876Q308.92188 328.02814 308.0625 327.8094Q306.90625 327.5125 306.45312 327.3094Q306.01562 327.09064 305.78125 326.71564Q305.54688 326.34064 305.54688 325.8719Q305.54688 325.46564 305.73438 325.10626Q305.92188 324.7469 306.25 324.5125Q306.5 324.34064 306.92188 324.21564Q307.34375 324.09064 307.84375 324.09064Q308.5625 324.09064 309.10938 324.3094Q309.67188 324.5125 309.9375 324.8719Q310.20312 325.23126 310.29688 325.825L309.26562 325.96564Q309.20312 325.4969 308.85938 325.23126Q308.53125 324.95 307.90625 324.95Q307.1875 324.95 306.875 325.2Q306.5625 325.4344 306.5625 325.7625Q306.5625 325.96564 306.6875 326.1219Q306.82812 326.29376 307.09375 326.40314Q307.25 326.46564 308.03125 326.66876Q309.15625 326.98126 309.59375 327.16876Q310.03125 327.35626 310.28125 327.71564Q310.53125 328.075 310.53125 328.6219Q310.53125 329.15314 310.21875 329.6219Q309.92188 330.075 309.34375 330.34064Q308.76562 330.59064 308.03125 330.59064Q306.8125 330.59064 306.17188 330.09064Q305.54688 329.575 305.375 328.59064ZM317.04688 328.45L318.14062 328.575Q317.89062 329.52814 317.1875 330.0594Q316.48438 330.59064 315.40625 330.59064Q314.04688 330.59064 313.23438 329.7469Q312.4375 328.90314 312.4375 327.3875Q312.4375 325.825 313.25 324.96564Q314.0625 324.09064 315.34375 324.09064Q316.59375 324.09064 317.375 324.9344Q318.17188 325.77814 318.17188 327.325Q318.17188 327.41876 318.17188 327.60626L313.53125 327.60626Q313.59375 328.6375 314.10938 329.1844Q314.625 329.71564 315.40625 329.71564Q315.98438 329.71564 316.39062 329.41876Q316.8125 329.10626 317.04688 328.45ZM313.59375 326.7469L317.0625 326.7469Q317.0 325.95 316.67188 325.5594Q316.15625 324.95 315.35938 324.95Q314.625 324.95 314.125 325.4344Q313.64062 325.91876 313.59375 326.7469ZM319.78125 330.45L319.78125 324.23126L320.73438 324.23126L320.73438 325.16876Q321.09375 324.5125 321.39062 324.3094Q321.70312 324.09064 322.07812 324.09064Q322.60938 324.09064 323.15625 324.41876L322.79688 325.40314Q322.40625 325.16876 322.03125 325.16876Q321.67188 325.16876 321.39062 325.3875Q321.125 325.59064 321.01562 325.96564Q320.82812 326.52814 320.82812 327.1844L320.82812 330.45L319.78125 330.45ZM323.375 328.59064L324.40625 328.4344Q324.5 329.0594 324.89062 329.3875Q325.29688 329.71564 326.03125 329.71564Q326.75 329.71564 327.09375 329.4344Q327.45312 329.1375 327.45312 328.73126Q327.45312 328.3719 327.14062 328.16876Q326.92188 328.02814 326.0625 327.8094Q324.90625 327.5125 324.45312 327.3094Q324.01562 327.09064 323.78125 326.71564Q323.54688 326.34064 323.54688 325.8719Q323.54688 325.46564 323.73438 325.10626Q323.92188 324.7469 324.25 324.5125Q324.5 324.34064 324.92188 324.21564Q325.34375 324.09064 325.84375 324.09064Q326.5625 324.09064 327.10938 324.3094Q327.67188 324.5125 327.9375 324.8719Q328.20312 325.23126 328.29688 325.825L327.26562 325.96564Q327.20312 325.4969 326.85938 325.23126Q326.53125 324.95 325.90625 324.95Q325.1875 324.95 324.875 325.2Q324.5625 325.4344 324.5625 325.7625Q324.5625 325.96564 324.6875 326.1219Q324.82812 326.29376 325.09375 326.40314Q325.25 326.46564 326.03125 326.66876Q327.15625 326.98126 327.59375 327.16876Q328.03125 327.35626 328.28125 327.71564Q328.53125 328.075 328.53125 328.6219Q328.53125 329.15314 328.21875 329.6219Q327.92188 330.075 327.34375 330.34064Q326.76562 330.59064 326.03125 330.59064Q324.8125 330.59064 324.17188 330.09064Q323.54688 329.575 323.375 328.59064Z" fill-rule="nonzero"/><path fill="#000000" d="M28.550013 205.24063L20.971888 205.24063L20.971888 208.06876L19.956263 208.06876L19.956263 201.25626L20.971888 201.25626L20.971888 204.1L28.550013 204.1L28.550013 205.24063ZM28.550013 200.56876L22.331263 200.56876L22.331263 199.61563L23.268763 199.61563Q22.612513 199.25626 22.409388 198.95938Q22.190638 198.64688 22.190638 198.27188Q22.190638 197.74063 22.518763 197.19376L23.503138 197.55313Q23.268763 197.94376 23.268763 198.31876Q23.268763 198.67813 23.487513 198.95938Q23.690638 199.225 24.065638 199.33438Q24.628138 199.52188 25.284388 199.52188L28.550013 199.52188L28.550013 200.56876ZM27.784388 192.49063Q28.284388 193.08438 28.487513 193.63126Q28.690638 194.1625 28.690638 194.7875Q28.690638 195.81876 28.190638 196.36563Q27.690638 196.9125 26.909388 196.9125Q26.456263 196.9125 26.081263 196.70938Q25.690638 196.50626 25.471888 196.1625Q25.237513 195.81876 25.128138 195.39688Q25.034388 195.1 24.956263 194.45938Q24.815638 193.19376 24.596888 192.58438Q24.378138 192.58438 24.331263 192.58438Q23.675013 192.58438 23.409388 192.88126Q23.065638 193.2875 23.065638 194.08438Q23.065638 194.81876 23.331263 195.17813Q23.581263 195.5375 24.237513 195.70938L24.096888 196.74063Q23.440638 196.6 23.034388 196.27188Q22.628138 195.94376 22.409388 195.33438Q22.190638 194.725 22.190638 193.92813Q22.190638 193.13126 22.378138 192.63126Q22.565638 192.13126 22.846888 191.89688Q23.128138 191.6625 23.565638 191.56876Q23.831263 191.52188 24.534388 191.52188L25.940638 191.52188Q27.409388 191.52188 27.800013 191.45938Q28.190638 191.38126 28.550013 191.17813L28.550013 192.2875Q28.221888 192.44376 27.784388 192.49063ZM25.425013 192.58438Q25.659388 193.1625 25.831263 194.30313Q25.925013 194.95938 26.050013 195.225Q26.159388 195.49063 26.378138 195.64688Q26.596888 195.7875 26.878138 195.7875Q27.300013 195.7875 27.581263 195.475Q27.862513 195.14688 27.862513 194.5375Q27.862513 193.92813 27.596888 193.45938Q27.331263 192.975 26.862513 192.75626Q26.503138 192.58438 25.815638 192.58438L25.425013 192.58438ZM28.550013 189.55313L22.331263 189.55313L22.331263 188.61563L23.206263 188.61563Q22.190638 187.92813 22.190638 186.63126Q22.190638 186.06876 22.393763 185.6Q22.596888 185.11563 22.925013 184.88126Q23.253138 184.64688 23.690638 184.55313Q23.987513 184.50626 24.721888 184.50626L28.550013 184.50626L28.550013 185.55313L24.768763 185.55313Q24.112513 185.55313 23.800013 185.67813Q23.487513 185.80313 23.300013 186.11563Q23.096888 186.42813 23.096888 186.85Q23.096888 187.52188 23.534388 188.02188Q23.956263 188.50626 25.143763 188.50626L28.550013 188.50626L28.550013 189.55313ZM26.690638 182.975L26.534388 181.94376Q27.159388 181.85 27.487513 181.45938Q27.815638 181.05313 27.815638 180.31876Q27.815638 179.6 27.534388 179.25626Q27.237513 178.89688 26.831263 178.89688Q26.471888 178.89688 26.268763 179.20938Q26.128138 179.42813 25.909388 180.2875Q25.612513 181.44376 25.409388 181.89688Q25.190638 182.33438 24.815638 182.56876Q24.440638 182.80313 23.971888 182.80313Q23.565638 182.80313 23.206263 182.61563Q22.846888 182.42813 22.612513 182.1Q22.440638 181.85 22.315638 181.42813Q22.190638 181.00626 22.190638 180.50626Q22.190638 179.7875 22.409388 179.24063Q22.612513 178.67813 22.971888 178.4125Q23.331263 178.14688 23.925013 178.05313L24.065638 179.08438Q23.596888 179.14688 23.331263 179.49063Q23.050013 179.81876 23.050013 180.44376Q23.050013 181.1625 23.300013 181.475Q23.534388 181.7875 23.862513 181.7875Q24.065638 181.7875 24.221888 181.6625Q24.393763 181.52188 24.503138 181.25626Q24.565638 181.1 24.768763 180.31876Q25.081263 179.19376 25.268763 178.75626Q25.456263 178.31876 25.815638 178.06876Q26.175013 177.81876 26.721888 177.81876Q27.253138 177.81876 27.721888 178.13126Q28.175013 178.42813 28.440638 179.00626Q28.690638 179.58438 28.690638 180.31876Q28.690638 181.5375 28.190638 182.17813Q27.675013 182.80313 26.690638 182.975ZM27.784388 171.49063Q28.284388 172.08438 28.487513 172.63126Q28.690638 173.1625 28.690638 173.7875Q28.690638 174.81876 28.190638 175.36563Q27.690638 175.9125 26.909388 175.9125Q26.456263 175.9125 26.081263 175.70938Q25.690638 175.50626 25.471888 175.1625Q25.237513 174.81876 25.128138 174.39688Q25.034388 174.1 24.956263 173.45938Q24.815638 172.19376 24.596888 171.58438Q24.378138 171.58438 24.331263 171.58438Q23.675013 171.58438 23.409388 171.88126Q23.065638 172.2875 23.065638 173.08438Q23.065638 173.81876 23.331263 174.17813Q23.581263 174.5375 24.237513 174.70938L24.096888 175.74063Q23.440638 175.6 23.034388 175.27188Q22.628138 174.94376 22.409388 174.33438Q22.190638 173.725 22.190638 172.92813Q22.190638 172.13126 22.378138 171.63126Q22.565638 171.13126 22.846888 170.89688Q23.128138 170.6625 23.565638 170.56876Q23.831263 170.52188 24.534388 170.52188L25.940638 170.52188Q27.409388 170.52188 27.800013 170.45938Q28.190638 170.38126 28.550013 170.17813L28.550013 171.2875Q28.221888 171.44376 27.784388 171.49063ZM25.425013 171.58438Q25.659388 172.1625 25.831263 173.30313Q25.925013 173.95938 26.050013 174.225Q26.159388 174.49063 26.378138 174.64688Q26.596888 174.7875 26.878138 174.7875Q27.300013 174.7875 27.581263 174.475Q27.862513 174.14688 27.862513 173.5375Q27.862513 172.92813 27.596888 172.45938Q27.331263 171.975 26.862513 171.75626Q26.503138 171.58438 25.815638 171.58438L25.425013 171.58438ZM26.268763 164.49063L26.409388 163.45938Q27.471888 163.63126 28.081263 164.33438Q28.690638 165.0375 28.690638 166.05313Q28.690638 167.33438 27.862513 168.11563Q27.018763 168.88126 25.456263 168.88126Q24.456263 168.88126 23.706263 168.55313Q22.940638 168.20938 22.565638 167.5375Q22.190638 166.85 22.190638 166.0375Q22.190638 165.0375 22.706263 164.39688Q23.206263 163.74063 24.159388 163.55313L24.315638 164.58438Q23.690638 164.725 23.378138 165.1Q23.050013 165.475 23.050013 166.00626Q23.050013 166.80313 23.628138 167.30313Q24.190638 167.80313 25.425013 167.80313Q26.690638 167.80313 27.253138 167.31876Q27.815638 166.83438 27.815638 166.06876Q27.815638 165.44376 27.440638 165.0375Q27.065638 164.61563 26.268763 164.49063ZM27.612513 160.25626L28.534388 160.1Q28.628138 160.55313 28.628138 160.89688Q28.628138 161.475 28.456263 161.7875Q28.268763 162.1 27.971888 162.24063Q27.675013 162.36563 26.721888 162.36563L23.143763 162.36563L23.143763 163.13126L22.331263 163.13126L22.331263 162.36563L20.784388 162.36563L20.159388 161.31876L22.331263 161.31876L22.331263 160.25626L23.143763 160.25626L23.143763 161.31876L26.784388 161.31876Q27.237513 161.31876 27.362513 161.27188Q27.487513 161.20938 27.565638 161.08438Q27.643763 160.95938 27.643763 160.725Q27.643763 160.5375 27.612513 160.25626ZM21.175013 159.55313L19.956263 159.55313L19.956263 158.49063L21.175013 158.49063L21.175013 159.55313ZM28.550013 159.55313L22.331263 159.55313L22.331263 158.49063L28.550013 158.49063L28.550013 159.55313ZM25.440638 156.94376Q23.706263 156.94376 22.878138 155.99063Q22.190638 155.19376 22.190638 154.0375Q22.190638 152.75626 23.034388 151.94376Q23.862513 151.11563 25.346888 151.11563Q26.550013 151.11563 27.237513 151.475Q27.925013 151.83438 28.315638 152.5375Q28.690638 153.225 28.690638 154.0375Q28.690638 155.33438 27.862513 156.14688Q27.018763 156.94376 25.440638 156.94376ZM25.440638 155.86563Q26.628138 155.86563 27.221888 155.35Q27.815638 154.81876 27.815638 154.0375Q27.815638 153.24063 27.221888 152.725Q26.628138 152.20938 25.409388 152.20938Q24.253138 152.20938 23.659388 152.74063Q23.065638 153.25626 23.065638 154.0375Q23.065638 154.81876 23.659388 155.35Q24.237513 155.86563 25.440638 155.86563ZM28.550013 149.55313L22.331263 149.55313L22.331263 148.61563L23.206263 148.61563Q22.190638 147.92813 22.190638 146.63126Q22.190638 146.06876 22.393763 145.6Q22.596888 145.11563 22.925013 144.88126Q23.253138 144.64688 23.690638 144.55313Q23.987513 144.50626 24.721888 144.50626L28.550013 144.50626L28.550013 145.55313L24.768763 145.55313Q24.112513 145.55313 23.800013 145.67813Q23.487513 145.80313 23.300013 146.11563Q23.096888 146.42813 23.096888 146.85Q23.096888 147.52188 23.534388 148.02188Q23.956263 148.50626 25.143763 148.50626L28.550013 148.50626L28.550013 149.55313ZM26.690638 142.975L26.534388 141.94376Q27.159388 141.85 27.487513 141.45938Q27.815638 141.05313 27.815638 140.31876Q27.815638 139.6 27.534388 139.25626Q27.237513 138.89688 26.831263 138.89688Q26.471888 138.89688 26.268763 139.20938Q26.128138 139.42813 25.909388 140.2875Q25.612513 141.44376 25.409388 141.89688Q25.190638 142.33438 24.815638 142.56876Q24.440638 142.80313 23.971888 142.80313Q23.565638 142.80313 23.206263 142.61563Q22.846888 142.42813 22.612513 142.1Q22.440638 141.85 22.315638 141.42813Q22.190638 141.00626 22.190638 140.50626Q22.190638 139.7875 22.409388 139.24063Q22.612513 138.67813 22.971888 138.4125Q23.331263 138.14688 23.925013 138.05313L24.065638 139.08438Q23.596888 139.14688 23.331263 139.49063Q23.050013 139.81876 23.050013 140.44376Q23.050013 141.1625 23.300013 141.475Q23.534388 141.7875 23.862513 141.7875Q24.065638 141.7875 24.221888 141.6625Q24.393763 141.52188 24.503138 141.25626Q24.565638 141.1 24.768763 140.31876Q25.081263 139.19376 25.268763 138.75626Q25.456263 138.31876 25.815638 138.06876Q26.175013 137.81876 26.721888 137.81876Q27.253138 137.81876 27.721888 138.13126Q28.175013 138.42813 28.440638 139.00626Q28.690638 139.58438 28.690638 140.31876Q28.690638 141.5375 28.190638 142.17813Q27.675013 142.80313 26.690638 142.975Z" fill-rule="nonzero"/><path fill="#000000" d="M64.05 281.21564Q64.05 279.6844 64.3625 278.7625Q64.675 277.825 65.28438 277.325Q65.90938 276.825 66.84688 276.825Q67.53438 276.825 68.05 277.10626Q68.58125 277.3875 68.925 277.91876Q69.26875 278.4344 69.45625 279.1844Q69.64375 279.9344 69.64375 281.21564Q69.64375 282.73126 69.33125 283.65314Q69.03438 284.575 68.40938 285.09064Q67.8 285.59064 66.84688 285.59064Q65.6125 285.59064 64.89375 284.7Q64.05 283.6375 64.05 281.21564ZM65.12813 281.21564Q65.12813 283.325 65.62813 284.02814Q66.12813 284.73126 66.84688 284.73126Q67.58125 284.73126 68.06563 284.02814Q68.56563 283.325 68.56563 281.21564Q68.56563 279.09064 68.06563 278.40314Q67.58125 277.7 66.83125 277.7Q66.1125 277.7 65.675 278.3094Q65.12813 279.09064 65.12813 281.21564Z" fill-rule="nonzero"/><path fill="#000000" d="M62.596874 207.3677L62.596874 208.38333L56.909374 208.38333Q56.909374 208.00833 57.034374 207.64896Q57.253124 207.07083 57.721874 206.50833Q58.20625 205.94583 59.1125 205.21146Q60.51875 204.0552 61.003124 203.38333Q61.503124 202.71146 61.503124 202.1177Q61.503124 201.4927 61.05 201.07083Q60.596874 200.63333 59.878124 200.63333Q59.1125 200.63333 58.659374 201.08646Q58.20625 201.53958 58.190624 202.35208L57.1125 202.2427Q57.221874 201.02396 57.940624 200.39896Q58.675 199.75833 59.909374 199.75833Q61.14375 199.75833 61.8625 200.44583Q62.58125 201.13333 62.58125 202.14896Q62.58125 202.66458 62.3625 203.16458Q62.159374 203.64896 61.659374 204.21146Q61.175 204.75833 60.05 205.71146Q59.096874 206.50833 58.815624 206.8052Q58.55 207.08646 58.378124 207.3677L62.596874 207.3677ZM64.05 204.14896Q64.05 202.6177 64.3625 201.69583Q64.675 200.75833 65.28438 200.25833Q65.90938 199.75833 66.84688 199.75833Q67.53438 199.75833 68.05 200.03958Q68.58125 200.32083 68.925 200.85208Q69.26875 201.3677 69.45625 202.1177Q69.64375 202.8677 69.64375 204.14896Q69.64375 205.66458 69.33125 206.58646Q69.03438 207.50833 68.40938 208.02396Q67.8 208.52396 66.84688 208.52396Q65.6125 208.52396 64.89375 207.63333Q64.05 206.57083 64.05 204.14896ZM65.12813 204.14896Q65.12813 206.25833 65.62813 206.96146Q66.12813 207.66458 66.84688 207.66458Q67.58125 207.66458 68.06563 206.96146Q68.56563 206.25833 68.56563 204.14896Q68.56563 202.02396 68.06563 201.33646Q67.58125 200.63333 66.83125 200.63333Q66.1125 200.63333 65.675 201.2427Q65.12813 202.02396 65.12813 204.14896Z" fill-rule="nonzero"/><path fill="#000000" d="M60.425 131.31667L60.425 129.25417L56.70625 129.25417L56.70625 128.28542L60.628124 122.722916L61.4875 122.722916L61.4875 128.28542L62.64375 128.28542L62.64375 129.25417L61.4875 129.25417L61.4875 131.31667L60.425 131.31667ZM60.425 128.28542L60.425 124.42604L57.7375 128.28542L60.425 128.28542ZM64.05 127.08229Q64.05 125.55104 64.3625 124.629166Q64.675 123.691666 65.28438 123.191666Q65.90938 122.691666 66.84688 122.691666Q67.53438 122.691666 68.05 122.972916Q68.58125 123.254166 68.925 123.785416Q69.26875 124.30104 69.45625 125.05104Q69.64375 125.80104 69.64375 127.08229Q69.64375 128.59792 69.33125 129.51979Q69.03438 130.44167 68.40938 130.95729Q67.8 131.45729 66.84688 131.45729Q65.6125 131.45729 64.89375 130.56667Q64.05 129.50417 64.05 127.08229ZM65.12813 127.08229Q65.12813 129.19167 65.62813 129.89479Q66.12813 130.59792 66.84688 130.59792Q67.58125 130.59792 68.06563 129.89479Q68.56563 129.19167 68.56563 127.08229Q68.56563 124.95729 68.06563 124.26979Q67.58125 123.566666 66.83125 123.566666Q66.1125 123.566666 65.675 124.17604Q65.12813 124.95729 65.12813 127.08229Z" fill-rule="nonzero"/><path fill="#000000" d="M62.51875 47.765625L61.471874 47.84375Q61.33125 47.21875 61.08125 46.9375Q60.64375 46.484375 60.01875 46.484375Q59.51875 46.484375 59.128124 46.765625Q58.64375 47.140625 58.346874 47.84375Q58.065624 48.53125 58.05 49.8125Q58.425 49.234375 58.971874 48.953125Q59.534374 48.671875 60.14375 48.671875Q61.190624 48.671875 61.925 49.453125Q62.675 50.234375 62.675 51.453125Q62.675 52.265625 62.315624 52.96875Q61.971874 53.65625 61.3625 54.03125Q60.753124 54.390625 59.9875 54.390625Q58.659374 54.390625 57.83125 53.421875Q57.003124 52.453125 57.003124 50.234375Q57.003124 47.734375 57.925 46.609375Q58.721874 45.625 60.08125 45.625Q61.096874 45.625 61.7375 46.203125Q62.39375 46.765625 62.51875 47.765625ZM58.221874 51.46875Q58.221874 52.015625 58.440624 52.515625Q58.675 53.0 59.08125 53.265625Q59.503124 53.53125 59.971874 53.53125Q60.628124 53.53125 61.1125 53.0Q61.596874 52.453125 61.596874 51.53125Q61.596874 50.640625 61.1125 50.125Q60.64375 49.609375 59.925 49.609375Q59.20625 49.609375 58.70625 50.125Q58.221874 50.640625 58.221874 51.46875ZM64.05 50.015625Q64.05 48.484375 64.3625 47.5625Q64.675 46.625 65.28438 46.125Q65.90938 45.625 66.84688 45.625Q67.53438 45.625 68.05 45.90625Q68.58125 46.1875 68.925 46.71875Q69.26875 47.234375 69.45625 47.984375Q69.64375 48.734375 69.64375 50.015625Q69.64375 51.53125 69.33125 52.453125Q69.03438 53.375 68.40938 53.890625Q67.8 54.390625 66.84688 54.390625Q65.6125 54.390625 64.89375 53.5Q64.05 52.4375 64.05 50.015625ZM65.12813 50.015625Q65.12813 52.125 65.62813 52.828125Q66.12813 53.53125 66.84688 53.53125Q67.58125 53.53125 68.06563 52.828125Q68.56563 52.125 68.56563 50.015625Q68.56563 47.890625 68.06563 47.203125Q67.58125 46.5 66.83125 46.5Q66.1125 46.5 65.675 47.109375Q65.12813 47.890625 65.12813 50.015625Z" fill-rule="nonzero"/><path fill="#000000" d="M123.9929 294.21564Q123.9929 292.6844 124.3054 291.7625Q124.6179 290.825 125.22727 290.325Q125.85227 289.825 126.78977 289.825Q127.47727 289.825 127.9929 290.10626Q128.52414 290.3875 128.86789 290.91876Q129.21164 291.4344 129.39914 292.1844Q129.58664 292.9344 129.58664 294.21564Q129.58664 295.73126 129.27414 296.65314Q128.97726 297.575 128.35226 298.09064Q127.7429 298.59064 126.78977 298.59064Q125.5554 298.59064 124.83665 297.7Q123.9929 296.6375 123.9929 294.21564ZM125.07102 294.21564Q125.07102 296.325 125.57102 297.02814Q126.07102 297.73126 126.78977 297.73126Q127.52415 297.73126 128.00851 297.02814Q128.50851 296.325 128.50851 294.21564Q128.50851 292.09064 128.00851 291.40314Q127.52415 290.7 126.77415 290.7Q126.0554 290.7 125.6179 291.3094Q125.07102 292.09064 125.07102 294.21564Z" fill-rule="nonzero"/><path fill="#000000" d="M220.45302 297.4344L220.45302 298.45L214.76552 298.45Q214.76552 298.075 214.89052 297.71564Q215.10927 297.1375 215.57802 296.575Q216.0624 296.0125 216.96864 295.27814Q218.3749 294.1219 218.85927 293.45Q219.35927 292.77814 219.35927 292.1844Q219.35927 291.5594 218.90614 291.1375Q218.45302 290.7 217.73427 290.7Q216.96864 290.7 216.51552 291.15314Q216.0624 291.60626 216.04677 292.41876L214.96864 292.3094Q215.07802 291.09064 215.79677 290.46564Q216.53114 289.825 217.76552 289.825Q218.9999 289.825 219.71864 290.5125Q220.4374 291.2 220.4374 292.21564Q220.4374 292.73126 220.21864 293.23126Q220.01552 293.71564 219.51552 294.27814Q219.03114 294.825 217.90614 295.77814Q216.95302 296.575 216.67177 296.8719Q216.40614 297.15314 216.23427 297.4344L220.45302 297.4344ZM221.90614 296.2L223.01552 296.10626Q223.14052 296.91876 223.57802 297.325Q224.03114 297.73126 224.67177 297.73126Q225.42177 297.73126 225.95302 297.15314Q226.48427 296.575 226.48427 295.6375Q226.48427 294.73126 225.96864 294.21564Q225.46864 293.6844 224.64052 293.6844Q224.14052 293.6844 223.71864 293.91876Q223.3124 294.15314 223.07802 294.5125L222.09364 294.3875L222.92177 289.98126L227.20302 289.98126L227.20302 290.98126L223.76552 290.98126L223.3124 293.29376Q224.07802 292.7469 224.92177 292.7469Q226.04677 292.7469 226.8124 293.52814Q227.59364 294.3094 227.59364 295.54376Q227.59364 296.7 226.92177 297.5594Q226.09364 298.59064 224.67177 298.59064Q223.4999 298.59064 222.7499 297.9344Q222.01552 297.27814 221.90614 296.2ZM228.90614 294.21564Q228.90614 292.6844 229.21864 291.7625Q229.53114 290.825 230.14052 290.325Q230.76552 289.825 231.70302 289.825Q232.39052 289.825 232.90614 290.10626Q233.4374 290.3875 233.78114 290.91876Q234.1249 291.4344 234.3124 292.1844Q234.4999 292.9344 234.4999 294.21564Q234.4999 295.73126 234.1874 296.65314Q233.89052 297.575 233.26552 298.09064Q232.65614 298.59064 231.70302 298.59064Q230.46864 298.59064 229.7499 297.7Q228.90614 296.6375 228.90614 294.21564ZM229.98427 294.21564Q229.98427 296.325 230.48427 297.02814Q230.98427 297.73126 231.70302 297.73126Q232.4374 297.73126 232.92177 297.02814Q233.42177 296.325 233.42177 294.21564Q233.42177 292.09064 232.92177 291.40314Q232.4374 290.7 231.6874 290.7Q230.96864 290.7 230.53114 291.3094Q229.98427 292.09064 229.98427 294.21564Z" fill-rule="nonzero"/><path fill="#000000" d="M312.81937 296.2L313.92874 296.10626Q314.05374 296.91876 314.49124 297.325Q314.94437 297.73126 315.585 297.73126Q316.335 297.73126 316.86624 297.15314Q317.3975 296.575 317.3975 295.6375Q317.3975 294.73126 316.88187 294.21564Q316.38187 293.6844 315.55374 293.6844Q315.05374 293.6844 314.63187 293.91876Q314.22562 294.15314 313.99124 294.5125L313.00687 294.3875L313.835 289.98126L318.11624 289.98126L318.11624 290.98126L314.67874 290.98126L314.22562 293.29376Q314.99124 292.7469 315.835 292.7469Q316.96 292.7469 317.72562 293.52814Q318.50687 294.3094 318.50687 295.54376Q318.50687 296.7 317.835 297.5594Q317.00687 298.59064 315.585 298.59064Q314.41312 298.59064 313.66312 297.9344Q312.92874 297.27814 312.81937 296.2ZM319.81937 294.21564Q319.81937 292.6844 320.13187 291.7625Q320.44437 290.825 321.05374 290.325Q321.67874 289.825 322.61624 289.825Q323.30374 289.825 323.81937 290.10626Q324.35062 290.3875 324.69437 290.91876Q325.03812 291.4344 325.22562 292.1844Q325.41312 292.9344 325.41312 294.21564Q325.41312 295.73126 325.10062 296.65314Q324.80374 297.575 324.17874 298.09064Q323.56937 298.59064 322.61624 298.59064Q321.38187 298.59064 320.66312 297.7Q319.81937 296.6375 319.81937 294.21564ZM320.8975 294.21564Q320.8975 296.325 321.3975 297.02814Q321.8975 297.73126 322.61624 297.73126Q323.35062 297.73126 323.835 297.02814Q324.335 296.325 324.335 294.21564Q324.335 292.09064 323.835 291.40314Q323.35062 290.7 322.60062 290.7Q321.88187 290.7 321.44437 291.3094Q320.8975 292.09064 320.8975 294.21564ZM326.81937 294.21564Q326.81937 292.6844 327.13187 291.7625Q327.44437 290.825 328.05374 290.325Q328.67874 289.825 329.61624 289.825Q330.30374 289.825 330.81937 290.10626Q331.35062 290.3875 331.69437 290.91876Q332.03812 291.4344 332.22562 292.1844Q332.41312 292.9344 332.41312 294.21564Q332.41312 295.73126 332.10062 296.65314Q331.80374 297.575 331.17874 298.09064Q330.56937 298.59064 329.61624 298.59064Q328.38187 298.59064 327.66312 297.7Q326.81937 296.6375 326.81937 294.21564ZM327.8975 294.21564Q327.8975 296.325 328.3975 297.02814Q328.8975 297.73126 329.61624 297.73126Q330.35062 297.73126 330.835 297.02814Q331.335 296.325 331.335 294.21564Q331.335 292.09064 330.835 291.40314Q330.35062 290.7 329.60062 290.7Q328.88187 290.7 328.44437 291.3094Q327.8975 292.09064 327.8975 294.21564Z" fill-rule="nonzero"/><path fill="#000000" d="M410.7951 290.98126L410.7951 289.96564L416.3576 289.96564L416.3576 290.79376Q415.5451 291.66876 414.7326 293.1219Q413.93573 294.5594 413.49823 296.09064Q413.1701 297.16876 413.09198 298.45L411.99823 298.45Q412.01385 297.4344 412.38885 295.9969Q412.77948 294.5594 413.4826 293.23126Q414.20135 291.90314 415.01385 290.98126L410.7951 290.98126ZM417.7326 296.2L418.84198 296.10626Q418.96698 296.91876 419.40448 297.325Q419.8576 297.73126 420.49823 297.73126Q421.24823 297.73126 421.77948 297.15314Q422.31073 296.575 422.31073 295.6375Q422.31073 294.73126 421.7951 294.21564Q421.2951 293.6844 420.46698 293.6844Q419.96698 293.6844 419.5451 293.91876Q419.13885 294.15314 418.90448 294.5125L417.9201 294.3875L418.74823 289.98126L423.02948 289.98126L423.02948 290.98126L419.59198 290.98126L419.13885 293.29376Q419.90448 292.7469 420.74823 292.7469Q421.87323 292.7469 422.63885 293.52814Q423.4201 294.3094 423.4201 295.54376Q423.4201 296.7 422.74823 297.5594Q421.9201 298.59064 420.49823 298.59064Q419.32635 298.59064 418.57635 297.9344Q417.84198 297.27814 417.7326 296.2ZM424.7326 294.21564Q424.7326 292.6844 425.0451 291.7625Q425.3576 290.825 425.96698 290.325Q426.59198 289.825 427.52948 289.825Q428.21698 289.825 428.7326 290.10626Q429.26385 290.3875 429.6076 290.91876Q429.95135 291.4344 430.13885 292.1844Q430.32635 292.9344 430.32635 294.21564Q430.32635 295.73126 430.01385 296.65314Q429.71698 297.575 429.09198 298.09064Q428.4826 298.59064 427.52948 298.59064Q426.2951 298.59064 425.57635 297.7Q424.7326 296.6375 424.7326 294.21564ZM425.81073 294.21564Q425.81073 296.325 426.31073 297.02814Q426.81073 297.73126 427.52948 297.73126Q428.26385 297.73126 428.74823 297.02814Q429.24823 296.325 429.24823 294.21564Q429.24823 292.09064 428.74823 291.40314Q428.26385 290.7 427.51385 290.7Q426.7951 290.7 426.3576 291.3094Q425.81073 292.09064 425.81073 294.21564Z" fill-rule="nonzero"/><path fill="#000000" d="M509.1146 298.45L508.06772 298.45L508.06772 291.73126Q507.6771 292.09064 507.0521 292.46564Q506.44272 292.825 505.95834 292.9969L505.95834 291.98126Q506.83334 291.5594 507.4896 290.98126Q508.16147 290.3875 508.44272 289.825L509.1146 289.825L509.1146 298.45ZM512.1459 294.21564Q512.1459 292.6844 512.4584 291.7625Q512.7709 290.825 513.38025 290.325Q514.00525 289.825 514.94275 289.825Q515.63025 289.825 516.1459 290.10626Q516.6771 290.3875 517.0209 290.91876Q517.3646 291.4344 517.5521 292.1844Q517.7396 292.9344 517.7396 294.21564Q517.7396 295.73126 517.4271 296.65314Q517.13025 297.575 516.50525 298.09064Q515.8959 298.59064 514.94275 298.59064Q513.7084 298.59064 512.9896 297.7Q512.1459 296.6375 512.1459 294.21564ZM513.224 294.21564Q513.224 296.325 513.724 297.02814Q514.224 297.73126 514.94275 297.73126Q515.6771 297.73126 516.1615 297.02814Q516.6615 296.325 516.6615 294.21564Q516.6615 292.09064 516.1615 291.40314Q515.6771 290.7 514.9271 290.7Q514.2084 290.7 513.7709 291.3094Q513.224 292.09064 513.224 294.21564ZM519.1459 294.21564Q519.1459 292.6844 519.4584 291.7625Q519.7709 290.825 520.38025 290.325Q521.00525 289.825 521.94275 289.825Q522.63025 289.825 523.1459 290.10626Q523.6771 290.3875 524.0209 290.91876Q524.3646 291.4344 524.5521 292.1844Q524.7396 292.9344 524.7396 294.21564Q524.7396 295.73126 524.4271 296.65314Q524.13025 297.575 523.50525 298.09064Q522.8959 298.59064 521.94275 298.59064Q520.7084 298.59064 519.9896 297.7Q519.1459 296.6375 519.1459 294.21564ZM520.224 294.21564Q520.224 296.325 520.724 297.02814Q521.224 297.73126 521.94275 297.73126Q522.6771 297.73126 523.1615 297.02814Q523.6615 296.325 523.6615 294.21564Q523.6615 292.09064 523.1615 291.40314Q522.6771 290.7 521.9271 290.7Q521.2084 290.7 520.7709 291.3094Q520.224 292.09064 520.224 294.21564ZM526.1459 294.21564Q526.1459 292.6844 526.4584 291.7625Q526.7709 290.825 527.38025 290.325Q528.00525 289.825 528.94275 289.825Q529.63025 289.825 530.1459 290.10626Q530.6771 290.3875 531.0209 290.91876Q531.3646 291.4344 531.5521 292.1844Q531.7396 292.9344 531.7396 294.21564Q531.7396 295.73126 531.4271 296.65314Q531.13025 297.575 530.50525 298.09064Q529.8959 298.59064 528.94275 298.59064Q527.7084 298.59064 526.9896 297.7Q526.1459 296.6375 526.1459 294.21564ZM527.224 294.21564Q527.224 296.325 527.724 297.02814Q528.224 297.73126 528.94275 297.73126Q529.6771 297.73126 530.1615 297.02814Q530.6615 296.325 530.6615 294.21564Q530.6615 292.09064 530.1615 291.40314Q529.6771 290.7 528.9271 290.7Q528.2084 290.7 527.7709 291.3094Q527.224 292.09064 527.224 294.21564Z" fill-rule="nonzero"/><path fill="#4285f4" d="M113.5 24.55C113.5 27.863708 110.813705 30.55 107.5 30.55C104.186295 30.55 101.5 27.863708 101.5 24.55C101.5 21.236292 104.186295 18.55 107.5 18.55C110.813705 18.55 113.5 21.236292 113.5 24.55Z" fill-rule="nonzero"/><path fill="#1a1a1a" d="M122.0 24.315624Q122.0 22.784374 122.3125 21.8625Q122.625 20.925 123.234375 20.425Q123.859375 19.925 124.796875 19.925Q125.484375 19.925 126.0 20.20625Q126.53125 20.4875 126.875 21.01875Q127.21875 21.534374 127.40625 22.284374Q127.59375 23.034374 127.59375 24.315624Q127.59375 25.83125 127.28125 26.753124Q126.984375 27.675 126.359375 28.190624Q125.75 28.690624 124.796875 28.690624Q123.5625 28.690624 122.84375 27.8Q122.0 26.7375 122.0 24.315624ZM123.078125 24.315624Q123.078125 26.425 123.578125 27.128124Q124.078125 27.83125 124.796875 27.83125Q125.53125 27.83125 126.015625 27.128124Q126.515625 26.425 126.515625 24.315624Q126.515625 22.190624 126.015625 21.503124Q125.53125 20.8 124.78125 20.8Q124.0625 20.8 123.625 21.409374Q123.078125 22.190624 123.078125 24.315624ZM129.5625 28.55L129.5625 27.346874L130.76562 27.346874L130.76562 28.55Q130.76562 29.20625 130.53125 29.6125Q130.29688 30.034374 129.79688 30.253124L129.5 29.8Q129.82812 29.659374 129.98438 29.3625Q130.14062 29.08125 130.17188 28.55L129.5625 28.55ZM132.0 24.315624Q132.0 22.784374 132.3125 21.8625Q132.625 20.925 133.23438 20.425Q133.85938 19.925 134.79688 19.925Q135.48438 19.925 136.0 20.20625Q136.53125 20.4875 136.875 21.01875Q137.21875 21.534374 137.40625 22.284374Q137.59375 23.034374 137.59375 24.315624Q137.59375 25.83125 137.28125 26.753124Q136.98438 27.675 136.35938 28.190624Q135.75 28.690624 134.79688 28.690624Q133.5625 28.690624 132.84375 27.8Q132.0 26.7375 132.0 24.315624ZM133.07812 24.315624Q133.07812 26.425 133.57812 27.128124Q134.07812 27.83125 134.79688 27.83125Q135.53125 27.83125 136.01562 27.128124Q136.51562 26.425 136.51562 24.315624Q136.51562 22.190624 136.01562 21.503124Q135.53125 20.8 134.78125 20.8Q134.0625 20.8 133.625 21.409374Q133.07812 22.190624 133.07812 24.315624ZM139.0 24.315624Q139.0 22.784374 139.3125 21.8625Q139.625 20.925 140.23438 20.425Q140.85938 19.925 141.79688 19.925Q142.48438 19.925 143.0 20.20625Q143.53125 20.4875 143.875 21.01875Q144.21875 21.534374 144.40625 22.284374Q144.59375 23.034374 144.59375 24.315624Q144.59375 25.83125 144.28125 26.753124Q143.98438 27.675 143.35938 28.190624Q142.75 28.690624 141.79688 28.690624Q140.5625 28.690624 139.84375 27.8Q139.0 26.7375 139.0 24.315624ZM140.07812 24.315624Q140.07812 26.425 140.57812 27.128124Q141.07812 27.83125 141.79688 27.83125Q142.53125 27.83125 143.01562 27.128124Q143.51562 26.425 143.51562 24.315624Q143.51562 22.190624 143.01562 21.503124Q142.53125 20.8 141.78125 20.8Q141.0625 20.8 140.625 21.409374Q140.07812 22.190624 140.07812 24.315624ZM146.0 24.315624Q146.0 22.784374 146.3125 21.8625Q146.625 20.925 147.23438 20.425Q147.85938 19.925 148.79688 19.925Q149.48438 19.925 150.0 20.20625Q150.53125 20.4875 150.875 21.01875Q151.21875 21.534374 151.40625 22.284374Q151.59375 23.034374 151.59375 24.315624Q151.59375 25.83125 151.28125 26.753124Q150.98438 27.675 150.35938 28.190624Q149.75 28.690624 148.79688 28.690624Q147.5625 28.690624 146.84375 27.8Q146.0 26.7375 146.0 24.315624ZM147.07812 24.315624Q147.07812 26.425 147.57812 27.128124Q148.07812 27.83125 148.79688 27.83125Q149.53125 27.83125 150.01562 27.128124Q150.51562 26.425 150.51562 24.315624Q150.51562 22.190624 150.01562 21.503124Q149.53125 20.8 148.78125 20.8Q148.0625 20.8 147.625 21.409374Q147.07812 22.190624 147.07812 24.315624ZM153.0 26.3L154.10938 26.20625Q154.23438 27.01875 154.67188 27.425Q155.125 27.83125 155.76562 27.83125Q156.51562 27.83125 157.04688 27.253124Q157.57812 26.675 157.57812 25.7375Q157.57812 24.83125 157.0625 24.315624Q156.5625 23.784374 155.73438 23.784374Q155.23438 23.784374 154.8125 24.01875Q154.40625 24.253124 154.17188 24.6125L153.1875 24.4875L154.01562 20.08125L158.29688 20.08125L158.29688 21.08125L154.85938 21.08125L154.40625 23.39375Q155.17188 22.846874 156.01562 22.846874Q157.14062 22.846874 157.90625 23.628124Q158.6875 24.409374 158.6875 25.64375Q158.6875 26.8 158.01562 27.659374Q157.1875 28.690624 155.76562 28.690624Q154.59375 28.690624 153.84375 28.034374Q153.10938 27.378124 153.0 26.3ZM163.96875 28.55L162.92188 28.55L162.92188 21.83125Q162.53125 22.190624 161.90625 22.565624Q161.29688 22.925 160.8125 23.096874L160.8125 22.08125Q161.6875 21.659374 162.34375 21.08125Q163.01562 20.4875 163.29688 19.925L163.96875 19.925L163.96875 28.55ZM168.625 23.89375Q167.96875 23.64375 167.64062 23.20625Q167.32812 22.753124 167.32812 22.14375Q167.32812 21.20625 168.0 20.565624Q168.6875 19.925 169.79688 19.925Q170.92188 19.925 171.60938 20.58125Q172.29688 21.2375 172.29688 22.175Q172.29688 22.76875 171.98438 23.20625Q171.67188 23.64375 171.03125 23.89375Q171.82812 24.14375 172.23438 24.721874Q172.64062 25.3 172.64062 26.096874Q172.64062 27.190624 171.85938 27.940624Q171.09375 28.690624 169.8125 28.690624Q168.54688 28.690624 167.76562 27.940624Q166.98438 27.190624 166.98438 26.065624Q166.98438 25.221874 167.40625 24.659374Q167.84375 24.096874 168.625 23.89375ZM168.40625 22.096874Q168.40625 22.70625 168.79688 23.096874Q169.20312 23.4875 169.82812 23.4875Q170.4375 23.4875 170.82812 23.1125Q171.21875 22.721874 171.21875 22.159374Q171.21875 21.58125 170.8125 21.190624Q170.40625 20.784374 169.8125 20.784374Q169.20312 20.784374 168.79688 21.175Q168.40625 21.565624 168.40625 22.096874ZM168.07812 26.065624Q168.07812 26.51875 168.28125 26.940624Q168.5 27.3625 168.92188 27.596874Q169.34375 27.83125 169.82812 27.83125Q170.57812 27.83125 171.0625 27.346874Q171.5625 26.8625 171.5625 26.1125Q171.5625 25.346874 171.0625 24.846874Q170.5625 24.346874 169.79688 24.346874Q169.04688 24.346874 168.5625 24.846874Q168.07812 25.33125 168.07812 26.065624ZM174.0 24.315624Q174.0 22.784374 174.3125 21.8625Q174.625 20.925 175.23438 20.425Q175.85938 19.925 176.79688 19.925Q177.48438 19.925 178.0 20.20625Q178.53125 20.4875 178.875 21.01875Q179.21875 21.534374 179.40625 22.284374Q179.59375 23.034374 179.59375 24.315624Q179.59375 25.83125 179.28125 26.753124Q178.98438 27.675 178.35938 28.190624Q177.75 28.690624 176.79688 28.690624Q175.5625 28.690624 174.84375 27.8Q174.0 26.7375 174.0 24.315624ZM175.07812 24.315624Q175.07812 26.425 175.57812 27.128124Q176.07812 27.83125 176.79688 27.83125Q177.53125 27.83125 178.01562 27.128124Q178.51562 26.425 178.51562 24.315624Q178.51562 22.190624 178.01562 21.503124Q177.53125 20.8 176.78125 20.8Q176.0625 20.8 175.625 21.409374Q175.07812 22.190624 175.07812 24.315624Z" fill-rule="nonzero"/><path fill="#ea4335" d="M208.5 24.55C208.5 27.863708 205.8137 30.55 202.5 30.55C199.1863 30.55 196.5 27.863708 196.5 24.55C196.5 21.236292 199.1863 18.55 202.5 18.55C205.8137 18.55 208.5 21.236292 208.5 24.55Z" fill-rule="nonzero"/><path fill="#1a1a1a" d="M217.0 24.315624Q217.0 22.784374 217.3125 21.8625Q217.625 20.925 218.23438 20.425Q218.85938 19.925 219.79688 19.925Q220.48438 19.925 221.0 20.20625Q221.53125 20.4875 221.875 21.01875Q222.21875 21.534374 222.40625 22.284374Q222.59375 23.034374 222.59375 24.315624Q222.59375 25.83125 222.28125 26.753124Q221.98438 27.675 221.35938 28.190624Q220.75 28.690624 219.79688 28.690624Q218.5625 28.690624 217.84375 27.8Q217.0 26.7375 217.0 24.315624ZM218.07812 24.315624Q218.07812 26.425 218.57812 27.128124Q219.07812 27.83125 219.79688 27.83125Q220.53125 27.83125 221.01562 27.128124Q221.51562 26.425 221.51562 24.315624Q221.51562 22.190624 221.01562 21.503124Q220.53125 20.8 219.78125 20.8Q219.0625 20.8 218.625 21.409374Q218.07812 22.190624 218.07812 24.315624ZM224.5625 28.55L224.5625 27.346874L225.76562 27.346874L225.76562 28.55Q225.76562 29.20625 225.53125 29.6125Q225.29688 30.034374 224.79688 30.253124L224.5 29.8Q224.82812 29.659374 224.98438 29.3625Q225.14062 29.08125 225.17188 28.55L224.5625 28.55ZM227.0 24.315624Q227.0 22.784374 227.3125 21.8625Q227.625 20.925 228.23438 20.425Q228.85938 19.925 229.79688 19.925Q230.48438 19.925 231.0 20.20625Q231.53125 20.4875 231.875 21.01875Q232.21875 21.534374 232.40625 22.284374Q232.59375 23.034374 232.59375 24.315624Q232.59375 25.83125 232.28125 26.753124Q231.98438 27.675 231.35938 28.190624Q230.75 28.690624 229.79688 28.690624Q228.5625 28.690624 227.84375 27.8Q227.0 26.7375 227.0 24.315624ZM228.07812 24.315624Q228.07812 26.425 228.57812 27.128124Q229.07812 27.83125 229.79688 27.83125Q230.53125 27.83125 231.01562 27.128124Q231.51562 26.425 231.51562 24.315624Q231.51562 22.190624 231.01562 21.503124Q230.53125 20.8 229.78125 20.8Q229.0625 20.8 228.625 21.409374Q228.07812 22.190624 228.07812 24.315624ZM234.0 24.315624Q234.0 22.784374 234.3125 21.8625Q234.625 20.925 235.23438 20.425Q235.85938 19.925 236.79688 19.925Q237.48438 19.925 238.0 20.20625Q238.53125 20.4875 238.875 21.01875Q239.21875 21.534374 239.40625 22.284374Q239.59375 23.034374 239.59375 24.315624Q239.59375 25.83125 239.28125 26.753124Q238.98438 27.675 238.35938 28.190624Q237.75 28.690624 236.79688 28.690624Q235.5625 28.690624 234.84375 27.8Q234.0 26.7375 234.0 24.315624ZM235.07812 24.315624Q235.07812 26.425 235.57812 27.128124Q236.07812 27.83125 236.79688 27.83125Q237.53125 27.83125 238.01562 27.128124Q238.51562 26.425 238.51562 24.315624Q238.51562 22.190624 238.01562 21.503124Q237.53125 20.8 236.78125 20.8Q236.0625 20.8 235.625 21.409374Q235.07812 22.190624 235.07812 24.315624ZM241.0 24.315624Q241.0 22.784374 241.3125 21.8625Q241.625 20.925 242.23438 20.425Q242.85938 19.925 243.79688 19.925Q244.48438 19.925 245.0 20.20625Q245.53125 20.4875 245.875 21.01875Q246.21875 21.534374 246.40625 22.284374Q246.59375 23.034374 246.59375 24.315624Q246.59375 25.83125 246.28125 26.753124Q245.98438 27.675 245.35938 28.190624Q244.75 28.690624 243.79688 28.690624Q242.5625 28.690624 241.84375 27.8Q241.0 26.7375 241.0 24.315624ZM242.07812 24.315624Q242.07812 26.425 242.57812 27.128124Q243.07812 27.83125 243.79688 27.83125Q244.53125 27.83125 245.01562 27.128124Q245.51562 26.425 245.51562 24.315624Q245.51562 22.190624 245.01562 21.503124Q244.53125 20.8 243.78125 20.8Q243.0625 20.8 242.625 21.409374Q242.07812 22.190624 242.07812 24.315624ZM248.0 26.284374L249.0625 26.14375Q249.23438 27.034374 249.67188 27.440624Q250.10938 27.83125 250.73438 27.83125Q251.48438 27.83125 252.0 27.315624Q252.51562 26.8 252.51562 26.034374Q252.51562 25.315624 252.03125 24.846874Q251.5625 24.3625 250.82812 24.3625Q250.53125 24.3625 250.07812 24.4875L250.20312 23.55Q250.3125 23.565624 250.375 23.565624Q251.04688 23.565624 251.57812 23.221874Q252.125 22.8625 252.125 22.128124Q252.125 21.55 251.73438 21.175Q251.34375 20.784374 250.71875 20.784374Q250.10938 20.784374 249.6875 21.175Q249.28125 21.565624 249.17188 22.33125L248.10938 22.14375Q248.29688 21.096874 248.98438 20.51875Q249.67188 19.925 250.6875 19.925Q251.39062 19.925 251.98438 20.2375Q252.57812 20.534374 252.89062 21.05Q253.20312 21.565624 253.20312 22.159374Q253.20312 22.70625 252.90625 23.175Q252.60938 23.628124 252.03125 23.89375Q252.78125 24.065624 253.20312 24.628124Q253.625 25.175 253.625 26.01875Q253.625 27.14375 252.79688 27.925Q251.98438 28.70625 250.73438 28.70625Q249.60938 28.70625 248.85938 28.034374Q248.10938 27.346874 248.0 26.284374ZM255.0 26.284374L256.0625 26.14375Q256.23438 27.034374 256.67188 27.440624Q257.10938 27.83125 257.73438 27.83125Q258.48438 27.83125 259.0 27.315624Q259.51562 26.8 259.51562 26.034374Q259.51562 25.315624 259.03125 24.846874Q258.5625 24.3625 257.82812 24.3625Q257.53125 24.3625 257.07812 24.4875L257.20312 23.55Q257.3125 23.565624 257.375 23.565624Q258.04688 23.565624 258.57812 23.221874Q259.125 22.8625 259.125 22.128124Q259.125 21.55 258.73438 21.175Q258.34375 20.784374 257.71875 20.784374Q257.10938 20.784374 256.6875 21.175Q256.28125 21.565624 256.17188 22.33125L255.10938 22.14375Q255.29688 21.096874 255.98438 20.51875Q256.67188 19.925 257.6875 19.925Q258.39062 19.925 258.98438 20.2375Q259.57812 20.534374 259.89062 21.05Q260.20312 21.565624 260.20312 22.159374Q260.20312 22.70625 259.90625 23.175Q259.60938 23.628124 259.03125 23.89375Q259.78125 24.065624 260.20312 24.628124Q260.625 25.175 260.625 26.01875Q260.625 27.14375 259.79688 27.925Q258.98438 28.70625 257.73438 28.70625Q256.60938 28.70625 255.85938 28.034374Q255.10938 27.346874 255.0 26.284374ZM262.15625 26.565624L263.17188 26.471874Q263.29688 27.190624 263.65625 27.51875Q264.03125 27.83125 264.59375 27.83125Q265.07812 27.83125 265.4375 27.6125Q265.8125 27.378124 266.04688 27.01875Q266.28125 26.64375 266.4375 26.01875Q266.59375 25.378124 266.59375 24.721874Q266.59375 24.64375 266.59375 24.503124Q266.28125 25.003124 265.73438 25.33125Q265.1875 25.64375 264.54688 25.64375Q263.46875 25.64375 262.73438 24.878124Q262.0 24.096874 262.0 22.83125Q262.0 21.51875 262.76562 20.721874Q263.54688 19.925 264.70312 19.925Q265.53125 19.925 266.21875 20.378124Q266.92188 20.83125 267.28125 21.675Q267.64062 22.503124 267.64062 24.08125Q267.64062 25.721874 267.28125 26.70625Q266.9375 27.675 266.21875 28.190624Q265.51562 28.690624 264.57812 28.690624Q263.5625 28.690624 262.92188 28.14375Q262.28125 27.58125 262.15625 26.565624ZM266.46875 22.76875Q266.46875 21.8625 265.98438 21.33125Q265.51562 20.8 264.82812 20.8Q264.125 20.8 263.59375 21.378124Q263.07812 21.940624 263.07812 22.8625Q263.07812 23.675 263.57812 24.190624Q264.07812 24.70625 264.79688 24.70625Q265.53125 24.70625 266.0 24.190624Q266.46875 23.675 266.46875 22.76875ZM270.625 23.89375Q269.96875 23.64375 269.64062 23.20625Q269.32812 22.753124 269.32812 22.14375Q269.32812 21.20625 270.0 20.565624Q270.6875 19.925 271.79688 19.925Q272.92188 19.925 273.60938 20.58125Q274.29688 21.2375 274.29688 22.175Q274.29688 22.76875 273.98438 23.20625Q273.67188 23.64375 273.03125 23.89375Q273.82812 24.14375 274.23438 24.721874Q274.64062 25.3 274.64062 26.096874Q274.64062 27.190624 273.85938 27.940624Q273.09375 28.690624 271.8125 28.690624Q270.54688 28.690624 269.76562 27.940624Q268.98438 27.190624 268.98438 26.065624Q268.98438 25.221874 269.40625 24.659374Q269.84375 24.096874 270.625 23.89375ZM270.40625 22.096874Q270.40625 22.70625 270.79688 23.096874Q271.20312 23.4875 271.82812 23.4875Q272.4375 23.4875 272.82812 23.1125Q273.21875 22.721874 273.21875 22.159374Q273.21875 21.58125 272.8125 21.190624Q272.40625 20.784374 271.8125 20.784374Q271.20312 20.784374 270.79688 21.175Q270.40625 21.565624 270.40625 22.096874ZM270.07812 26.065624Q270.07812 26.51875 270.28125 26.940624Q270.5 27.3625 270.92188 27.596874Q271.34375 27.83125 271.82812 27.83125Q272.57812 27.83125 273.0625 27.346874Q273.5625 26.8625 273.5625 26.1125Q273.5625 25.346874 273.0625 24.846874Q272.5625 24.346874 271.79688 24.346874Q271.04688 24.346874 270.5625 24.846874Q270.07812 25.33125 270.07812 26.065624Z" fill-rule="nonzero"/><path fill="#fbbc04" d="M303.5 24.55C303.5 27.863708 300.81372 30.55 297.5 30.55C294.18628 30.55 291.5 27.863708 291.5 24.55C291.5 21.236292 294.18628 18.55 297.5 18.55C300.81372 18.55 303.5 21.236292 303.5 24.55Z" fill-rule="nonzero"/><path fill="#1a1a1a" d="M312.0 24.315624Q312.0 22.784374 312.3125 21.8625Q312.625 20.925 313.23438 20.425Q313.85938 19.925 314.79688 19.925Q315.48438 19.925 316.0 20.20625Q316.53125 20.4875 316.875 21.01875Q317.21875 21.534374 317.40625 22.284374Q317.59375 23.034374 317.59375 24.315624Q317.59375 25.83125 317.28125 26.753124Q316.98438 27.675 316.35938 28.190624Q315.75 28.690624 314.79688 28.690624Q313.5625 28.690624 312.84375 27.8Q312.0 26.7375 312.0 24.315624ZM313.07812 24.315624Q313.07812 26.425 313.57812 27.128124Q314.07812 27.83125 314.79688 27.83125Q315.53125 27.83125 316.01562 27.128124Q316.51562 26.425 316.51562 24.315624Q316.51562 22.190624 316.01562 21.503124Q315.53125 20.8 314.78125 20.8Q314.0625 20.8 313.625 21.409374Q313.07812 22.190624 313.07812 24.315624ZM319.5625 28.55L319.5625 27.346874L320.76562 27.346874L320.76562 28.55Q320.76562 29.20625 320.53125 29.6125Q320.29688 30.034374 319.79688 30.253124L319.5 29.8Q319.82812 29.659374 319.98438 29.3625Q320.14062 29.08125 320.17188 28.55L319.5625 28.55ZM322.0 24.315624Q322.0 22.784374 322.3125 21.8625Q322.625 20.925 323.23438 20.425Q323.85938 19.925 324.79688 19.925Q325.48438 19.925 326.0 20.20625Q326.53125 20.4875 326.875 21.01875Q327.21875 21.534374 327.40625 22.284374Q327.59375 23.034374 327.59375 24.315624Q327.59375 25.83125 327.28125 26.753124Q326.98438 27.675 326.35938 28.190624Q325.75 28.690624 324.79688 28.690624Q323.5625 28.690624 322.84375 27.8Q322.0 26.7375 322.0 24.315624ZM323.07812 24.315624Q323.07812 26.425 323.57812 27.128124Q324.07812 27.83125 324.79688 27.83125Q325.53125 27.83125 326.01562 27.128124Q326.51562 26.425 326.51562 24.315624Q326.51562 22.190624 326.01562 21.503124Q325.53125 20.8 324.78125 20.8Q324.0625 20.8 323.625 21.409374Q323.07812 22.190624 323.07812 24.315624ZM329.0 24.315624Q329.0 22.784374 329.3125 21.8625Q329.625 20.925 330.23438 20.425Q330.85938 19.925 331.79688 19.925Q332.48438 19.925 333.0 20.20625Q333.53125 20.4875 333.875 21.01875Q334.21875 21.534374 334.40625 22.284374Q334.59375 23.034374 334.59375 24.315624Q334.59375 25.83125 334.28125 26.753124Q333.98438 27.675 333.35938 28.190624Q332.75 28.690624 331.79688 28.690624Q330.5625 28.690624 329.84375 27.8Q329.0 26.7375 329.0 24.315624ZM330.07812 24.315624Q330.07812 26.425 330.57812 27.128124Q331.07812 27.83125 331.79688 27.83125Q332.53125 27.83125 333.01562 27.128124Q333.51562 26.425 333.51562 24.315624Q333.51562 22.190624 333.01562 21.503124Q332.53125 20.8 331.78125 20.8Q331.0625 20.8 330.625 21.409374Q330.07812 22.190624 330.07812 24.315624ZM336.0 24.315624Q336.0 22.784374 336.3125 21.8625Q336.625 20.925 337.23438 20.425Q337.85938 19.925 338.79688 19.925Q339.48438 19.925 340.0 20.20625Q340.53125 20.4875 340.875 21.01875Q341.21875 21.534374 341.40625 22.284374Q341.59375 23.034374 341.59375 24.315624Q341.59375 25.83125 341.28125 26.753124Q340.98438 27.675 340.35938 28.190624Q339.75 28.690624 338.79688 28.690624Q337.5625 28.690624 336.84375 27.8Q336.0 26.7375 336.0 24.315624ZM337.07812 24.315624Q337.07812 26.425 337.57812 27.128124Q338.07812 27.83125 338.79688 27.83125Q339.53125 27.83125 340.01562 27.128124Q340.51562 26.425 340.51562 24.315624Q340.51562 22.190624 340.01562 21.503124Q339.53125 20.8 338.78125 20.8Q338.0625 20.8 337.625 21.409374Q337.07812 22.190624 337.07812 24.315624ZM343.0 26.284374L344.0625 26.14375Q344.23438 27.034374 344.67188 27.440624Q345.10938 27.83125 345.73438 27.83125Q346.48438 27.83125 347.0 27.315624Q347.51562 26.8 347.51562 26.034374Q347.51562 25.315624 347.03125 24.846874Q346.5625 24.3625 345.82812 24.3625Q345.53125 24.3625 345.07812 24.4875L345.20312 23.55Q345.3125 23.565624 345.375 23.565624Q346.04688 23.565624 346.57812 23.221874Q347.125 22.8625 347.125 22.128124Q347.125 21.55 346.73438 21.175Q346.34375 20.784374 345.71875 20.784374Q345.10938 20.784374 344.6875 21.175Q344.28125 21.565624 344.17188 22.33125L343.10938 22.14375Q343.29688 21.096874 343.98438 20.51875Q344.67188 19.925 345.6875 19.925Q346.39062 19.925 346.98438 20.2375Q347.57812 20.534374 347.89062 21.05Q348.20312 21.565624 348.20312 22.159374Q348.20312 22.70625 347.90625 23.175Q347.60938 23.628124 347.03125 23.89375Q347.78125 24.065624 348.20312 24.628124Q348.625 25.175 348.625 26.01875Q348.625 27.14375 347.79688 27.925Q346.98438 28.70625 345.73438 28.70625Q344.60938 28.70625 343.85938 28.034374Q343.10938 27.346874 343.0 26.284374ZM355.54688 27.534374L355.54688 28.55L349.85938 28.55Q349.85938 28.175 349.98438 27.815624Q350.20312 27.2375 350.67188 26.675Q351.15625 26.1125 352.0625 25.378124Q353.46875 24.221874 353.95312 23.55Q354.45312 22.878124 354.45312 22.284374Q354.45312 21.659374 354.0 21.2375Q353.54688 20.8 352.82812 20.8Q352.0625 20.8 351.60938 21.253124Q351.15625 21.70625 351.14062 22.51875L350.0625 22.409374Q350.17188 21.190624 350.89062 20.565624Q351.625 19.925 352.85938 19.925Q354.09375 19.925 354.8125 20.6125Q355.53125 21.3 355.53125 22.315624Q355.53125 22.83125 355.3125 23.33125Q355.10938 23.815624 354.60938 24.378124Q354.125 24.925 353.0 25.878124Q352.04688 26.675 351.76562 26.971874Q351.5 27.253124 351.32812 27.534374L355.54688 27.534374ZM360.96875 28.55L359.92188 28.55L359.92188 21.83125Q359.53125 22.190624 358.90625 22.565624Q358.29688 22.925 357.8125 23.096874L357.8125 22.08125Q358.6875 21.659374 359.34375 21.08125Q360.01562 20.4875 360.29688 19.925L360.96875 19.925L360.96875 28.55ZM369.46875 22.065624L368.42188 22.14375Q368.28125 21.51875 368.03125 21.2375Q367.59375 20.784374 366.96875 20.784374Q366.46875 20.784374 366.07812 21.065624Q365.59375 21.440624 365.29688 22.14375Q365.01562 22.83125 365.0 24.1125Q365.375 23.534374 365.92188 23.253124Q366.48438 22.971874 367.09375 22.971874Q368.14062 22.971874 368.875 23.753124Q369.625 24.534374 369.625 25.753124Q369.625 26.565624 369.26562 27.26875Q368.92188 27.95625 368.3125 28.33125Q367.70312 28.690624 366.9375 28.690624Q365.60938 28.690624 364.78125 27.721874Q363.95312 26.753124 363.95312 24.534374Q363.95312 22.034374 364.875 20.909374Q365.67188 19.925 367.03125 19.925Q368.04688 19.925 368.6875 20.503124Q369.34375 21.065624 369.46875 22.065624ZM365.17188 25.76875Q365.17188 26.315624 365.39062 26.815624Q365.625 27.3 366.03125 27.565624Q366.45312 27.83125 366.92188 27.83125Q367.57812 27.83125 368.0625 27.3Q368.54688 26.753124 368.54688 25.83125Q368.54688 24.940624 368.0625 24.425Q367.59375 23.909374 366.875 23.909374Q366.15625 23.909374 365.65625 24.425Q365.17188 24.940624 365.17188 25.76875Z" fill-rule="nonzero"/><path fill="#34a853" d="M398.5 24.55C398.5 27.863708 395.81372 30.55 392.5 30.55C389.18628 30.55 386.5 27.863708 386.5 24.55C386.5 21.236292 389.18628 18.55 392.5 18.55C395.81372 18.55 398.5 21.236292 398.5 24.55Z" fill-rule="nonzero"/><path fill="#1a1a1a" d="M407.0 24.315624Q407.0 22.784374 407.3125 21.8625Q407.625 20.925 408.23438 20.425Q408.85938 19.925 409.79688 19.925Q410.48438 19.925 411.0 20.20625Q411.53125 20.4875 411.875 21.01875Q412.21875 21.534374 412.40625 22.284374Q412.59375 23.034374 412.59375 24.315624Q412.59375 25.83125 412.28125 26.753124Q411.98438 27.675 411.35938 28.190624Q410.75 28.690624 409.79688 28.690624Q408.5625 28.690624 407.84375 27.8Q407.0 26.7375 407.0 24.315624ZM408.07812 24.315624Q408.07812 26.425 408.57812 27.128124Q409.07812 27.83125 409.79688 27.83125Q410.53125 27.83125 411.01562 27.128124Q411.51562 26.425 411.51562 24.315624Q411.51562 22.190624 411.01562 21.503124Q410.53125 20.8 409.78125 20.8Q409.0625 20.8 408.625 21.409374Q408.07812 22.190624 408.07812 24.315624ZM414.5625 28.55L414.5625 27.346874L415.76562 27.346874L415.76562 28.55Q415.76562 29.20625 415.53125 29.6125Q415.29688 30.034374 414.79688 30.253124L414.5 29.8Q414.82812 29.659374 414.98438 29.3625Q415.14062 29.08125 415.17188 28.55L414.5625 28.55ZM417.0 24.315624Q417.0 22.784374 417.3125 21.8625Q417.625 20.925 418.23438 20.425Q418.85938 19.925 419.79688 19.925Q420.48438 19.925 421.0 20.20625Q421.53125 20.4875 421.875 21.01875Q422.21875 21.534374 422.40625 22.284374Q422.59375 23.034374 422.59375 24.315624Q422.59375 25.83125 422.28125 26.753124Q421.98438 27.675 421.35938 28.190624Q420.75 28.690624 419.79688 28.690624Q418.5625 28.690624 417.84375 27.8Q417.0 26.7375 417.0 24.315624ZM418.07812 24.315624Q418.07812 26.425 418.57812 27.128124Q419.07812 27.83125 419.79688 27.83125Q420.53125 27.83125 421.01562 27.128124Q421.51562 26.425 421.51562 24.315624Q421.51562 22.190624 421.01562 21.503124Q420.53125 20.8 419.78125 20.8Q419.0625 20.8 418.625 21.409374Q418.07812 22.190624 418.07812 24.315624ZM424.0 24.315624Q424.0 22.784374 424.3125 21.8625Q424.625 20.925 425.23438 20.425Q425.85938 19.925 426.79688 19.925Q427.48438 19.925 428.0 20.20625Q428.53125 20.4875 428.875 21.01875Q429.21875 21.534374 429.40625 22.284374Q429.59375 23.034374 429.59375 24.315624Q429.59375 25.83125 429.28125 26.753124Q428.98438 27.675 428.35938 28.190624Q427.75 28.690624 426.79688 28.690624Q425.5625 28.690624 424.84375 27.8Q424.0 26.7375 424.0 24.315624ZM425.07812 24.315624Q425.07812 26.425 425.57812 27.128124Q426.07812 27.83125 426.79688 27.83125Q427.53125 27.83125 428.01562 27.128124Q428.51562 26.425 428.51562 24.315624Q428.51562 22.190624 428.01562 21.503124Q427.53125 20.8 426.78125 20.8Q426.0625 20.8 425.625 21.409374Q425.07812 22.190624 425.07812 24.315624ZM431.0 24.315624Q431.0 22.784374 431.3125 21.8625Q431.625 20.925 432.23438 20.425Q432.85938 19.925 433.79688 19.925Q434.48438 19.925 435.0 20.20625Q435.53125 20.4875 435.875 21.01875Q436.21875 21.534374 436.40625 22.284374Q436.59375 23.034374 436.59375 24.315624Q436.59375 25.83125 436.28125 26.753124Q435.98438 27.675 435.35938 28.190624Q434.75 28.690624 433.79688 28.690624Q432.5625 28.690624 431.84375 27.8Q431.0 26.7375 431.0 24.315624ZM432.07812 24.315624Q432.07812 26.425 432.57812 27.128124Q433.07812 27.83125 433.79688 27.83125Q434.53125 27.83125 435.01562 27.128124Q435.51562 26.425 435.51562 24.315624Q435.51562 22.190624 435.01562 21.503124Q434.53125 20.8 433.78125 20.8Q433.0625 20.8 432.625 21.409374Q432.07812 22.190624 432.07812 24.315624ZM438.0 26.284374L439.0625 26.14375Q439.23438 27.034374 439.67188 27.440624Q440.10938 27.83125 440.73438 27.83125Q441.48438 27.83125 442.0 27.315624Q442.51562 26.8 442.51562 26.034374Q442.51562 25.315624 442.03125 24.846874Q441.5625 24.3625 440.82812 24.3625Q440.53125 24.3625 440.07812 24.4875L440.20312 23.55Q440.3125 23.565624 440.375 23.565624Q441.04688 23.565624 441.57812 23.221874Q442.125 22.8625 442.125 22.128124Q442.125 21.55 441.73438 21.175Q441.34375 20.784374 440.71875 20.784374Q440.10938 20.784374 439.6875 21.175Q439.28125 21.565624 439.17188 22.33125L438.10938 22.14375Q438.29688 21.096874 438.98438 20.51875Q439.67188 19.925 440.6875 19.925Q441.39062 19.925 441.98438 20.2375Q442.57812 20.534374 442.89062 21.05Q443.20312 21.565624 443.20312 22.159374Q443.20312 22.70625 442.90625 23.175Q442.60938 23.628124 442.03125 23.89375Q442.78125 24.065624 443.20312 24.628124Q443.625 25.175 443.625 26.01875Q443.625 27.14375 442.79688 27.925Q441.98438 28.70625 440.73438 28.70625Q439.60938 28.70625 438.85938 28.034374Q438.10938 27.346874 438.0 26.284374ZM445.0 26.284374L446.0625 26.14375Q446.23438 27.034374 446.67188 27.440624Q447.10938 27.83125 447.73438 27.83125Q448.48438 27.83125 449.0 27.315624Q449.51562 26.8 449.51562 26.034374Q449.51562 25.315624 449.03125 24.846874Q448.5625 24.3625 447.82812 24.3625Q447.53125 24.3625 447.07812 24.4875L447.20312 23.55Q447.3125 23.565624 447.375 23.565624Q448.04688 23.565624 448.57812 23.221874Q449.125 22.8625 449.125 22.128124Q449.125 21.55 448.73438 21.175Q448.34375 20.784374 447.71875 20.784374Q447.10938 20.784374 446.6875 21.175Q446.28125 21.565624 446.17188 22.33125L445.10938 22.14375Q445.29688 21.096874 445.98438 20.51875Q446.67188 19.925 447.6875 19.925Q448.39062 19.925 448.98438 20.2375Q449.57812 20.534374 449.89062 21.05Q450.20312 21.565624 450.20312 22.159374Q450.20312 22.70625 449.90625 23.175Q449.60938 23.628124 449.03125 23.89375Q449.78125 24.065624 450.20312 24.628124Q450.625 25.175 450.625 26.01875Q450.625 27.14375 449.79688 27.925Q448.98438 28.70625 447.73438 28.70625Q446.60938 28.70625 445.85938 28.034374Q445.10938 27.346874 445.0 26.284374ZM452.15625 26.565624L453.17188 26.471874Q453.29688 27.190624 453.65625 27.51875Q454.03125 27.83125 454.59375 27.83125Q455.07812 27.83125 455.4375 27.6125Q455.8125 27.378124 456.04688 27.01875Q456.28125 26.64375 456.4375 26.01875Q456.59375 25.378124 456.59375 24.721874Q456.59375 24.64375 456.59375 24.503124Q456.28125 25.003124 455.73438 25.33125Q455.1875 25.64375 454.54688 25.64375Q453.46875 25.64375 452.73438 24.878124Q452.0 24.096874 452.0 22.83125Q452.0 21.51875 452.76562 20.721874Q453.54688 19.925 454.70312 19.925Q455.53125 19.925 456.21875 20.378124Q456.92188 20.83125 457.28125 21.675Q457.64062 22.503124 457.64062 24.08125Q457.64062 25.721874 457.28125 26.70625Q456.9375 27.675 456.21875 28.190624Q455.51562 28.690624 454.57812 28.690624Q453.5625 28.690624 452.92188 28.14375Q452.28125 27.58125 452.15625 26.565624ZM456.46875 22.76875Q456.46875 21.8625 455.98438 21.33125Q455.51562 20.8 454.82812 20.8Q454.125 20.8 453.59375 21.378124Q453.07812 21.940624 453.07812 22.8625Q453.07812 23.675 453.57812 24.190624Q454.07812 24.70625 454.79688 24.70625Q455.53125 24.70625 456.0 24.190624Q456.46875 23.675 456.46875 22.76875ZM459.15625 26.565624L460.17188 26.471874Q460.29688 27.190624 460.65625 27.51875Q461.03125 27.83125 461.59375 27.83125Q462.07812 27.83125 462.4375 27.6125Q462.8125 27.378124 463.04688 27.01875Q463.28125 26.64375 463.4375 26.01875Q463.59375 25.378124 463.59375 24.721874Q463.59375 24.64375 463.59375 24.503124Q463.28125 25.003124 462.73438 25.33125Q462.1875 25.64375 461.54688 25.64375Q460.46875 25.64375 459.73438 24.878124Q459.0 24.096874 459.0 22.83125Q459.0 21.51875 459.76562 20.721874Q460.54688 19.925 461.70312 19.925Q462.53125 19.925 463.21875 20.378124Q463.92188 20.83125 464.28125 21.675Q464.64062 22.503124 464.64062 24.08125Q464.64062 25.721874 464.28125 26.70625Q463.9375 27.675 463.21875 28.190624Q462.51562 28.690624 461.57812 28.690624Q460.5625 28.690624 459.92188 28.14375Q459.28125 27.58125 459.15625 26.565624ZM463.46875 22.76875Q463.46875 21.8625 462.98438 21.33125Q462.51562 20.8 461.82812 20.8Q461.125 20.8 460.59375 21.378124Q460.07812 21.940624 460.07812 22.8625Q460.07812 23.675 460.57812 24.190624Q461.07812 24.70625 461.79688 24.70625Q462.53125 24.70625 463.0 24.190624Q463.46875 23.675 463.46875 22.76875Z" fill-rule="nonzero"/></svg>