<svg version="1.1" viewBox="0.0 0.0 576.0 356.0" fill="none" stroke="none" stroke-linecap="square" stroke-miterlimit="10" width="576" height="356" xmlns:xlink="http://www.w3.org/1999/xlink" xmlns="http://www.w3.org/2000/svg"><path fill="#ffffff" d="M0 0L576.0 0L576.0 356.0L0 356.0L0 0Z" fill-rule="nonzero"/><path stroke="#333333" stroke-width="1.0" stroke-linecap="butt" d="M75.5 24.5L75.5 318.5" fill-rule="nonzero"/><path stroke="#cccccc" stroke-width="1.0" stroke-linecap="butt" d="M183.5 24.5L183.5 318.5" fill-rule="nonzero"/><path stroke="#cccccc" stroke-width="1.0" stroke-linecap="butt" d="M292.5 24.5L292.5 318.5" fill-rule="nonzero"/><path stroke="#cccccc" stroke-width="1.0" stroke-linecap="butt" d="M400.5 24.5L400.5 318.5" fill-rule="nonzero"/><path stroke="#cccccc" stroke-width="1.0" stroke-linecap="butt" d="M509.5 24.5L509.5 318.5" fill-rule="nonzero"/><path stroke="#e6e6e6" stroke-width="1.0" stroke-linecap="butt" d="M48.5 24.5L48.5 318.5" fill-rule="nonzero"/><path stroke="#e6e6e6" stroke-width="1.0" stroke-linecap="butt" d="M102.5 24.5L102.5 318.5" fill-rule="nonzero"/><path stroke="#e6e6e6" stroke-width="1.0" stroke-linecap="butt" d="M129.5 24.5L129.5 318.5" fill-rule="nonzero"/><path stroke="#e6e6e6" stroke-width="1.0" stroke-linecap="butt" d="M156.5 24.5L156.5 318.5" fill-rule="nonzero"/><path stroke="#e6e6e6" stroke-width="1.0" stroke-linecap="butt" d="M210.5 24.5L210.5 318.5" fill-rule="nonzero"/><path stroke="#e6e6e6" stroke-width="1.0" stroke-linecap="butt" d="M238.5 24.5L238.5 318.5" fill-rule="nonzero"/><path stroke="#e6e6e6" stroke-width="1.0" stroke-linecap="butt" d="M265.5 24.5L265.5 318.5" fill-rule="nonzero"/><path stroke="#e6e6e6" stroke-width="1.0" stroke-linecap="butt" d="M319.5 24.5L319.5 318.5" fill-rule="nonzero"/><path stroke="#e6e6e6" stroke-width="1.0" stroke-linecap="butt" d="M346.5 24.5L346.5 318.5" fill-rule="nonzero"/><path stroke="#e6e6e6" stroke-width="1.0" stroke-linecap="butt" d="M373.5 24.5L373.5 318.5" fill-rule="nonzero"/><path stroke="#e6e6e6" stroke-width="1.0" stroke-linecap="butt" d="M427.5 24.5L427.5 318.5" fill-rule="nonzero"/><path stroke="#e6e6e6" stroke-width="1.0" stroke-linecap="butt" d="M454.5 24.5L454.5 318.5" fill-rule="nonzero"/><path stroke="#e6e6e6" stroke-width="1.0" stroke-linecap="butt" d="M481.5 24.5L481.5 318.5" fill-rule="nonzero"/><path stroke="#e6e6e6" stroke-width="1.0" stroke-linecap="butt" d="M536.5 24.5L536.5 318.5" fill-rule="nonzero"/><path stroke="#333333" stroke-width="1.0" stroke-linecap="butt" d="M44.5 318.5L558.5 318.5" fill-rule="nonzero"/><path stroke="#cccccc" stroke-width="1.0" stroke-linecap="butt" d="M44.5 244.5L558.5 244.5" fill-rule="nonzero"/><path stroke="#cccccc" stroke-width="1.0" stroke-linecap="butt" d="M44.5 171.5L558.5 171.5" fill-rule="nonzero"/><path stroke="#cccccc" stroke-width="1.0" stroke-linecap="butt" d="M44.5 98.5L558.5 98.5" fill-rule="nonzero"/><path stroke="#cccccc" stroke-width="1.0" stroke-linecap="butt" d="M44.5 24.5L558.5 24.5" fill-rule="nonzero"/><path stroke="#e6e6e6" stroke-width="1.0" stroke-linecap="butt" d="M44.5 299.5L558.5 299.5" fill-rule="nonzero"/><path stroke="#e6e6e6" stroke-width="1.0" stroke-linecap="butt" d="M44.5 281.5L558.5 281.5" fill-rule="nonzero"/><path stroke="#e6e6e6" stroke-width="1.0" stroke-linecap="butt" d="M44.5 263.5L558.5 263.5" fill-rule="nonzero"/><path stroke="#e6e6e6" stroke-width="1.0" stroke-linecap="butt" d="M44.5 226.5L558.5 226.5" fill-rule="nonzero"/><path stroke="#e6e6e6" stroke-width="1.0" stroke-linecap="butt" d="M44.5 208.5L558.5 208.5" fill-rule="nonzero"/><path stroke="#e6e6e6" stroke-width="1.0" stroke-linecap="butt" d="M44.5 189.5L558.5 189.5" fill-rule="nonzero"/><path stroke="#e6e6e6" stroke-width="1.0" stroke-linecap="butt" d="M44.5 153.5L558.5 153.5" fill-rule="nonzero"/><path stroke="#e6e6e6" stroke-width="1.0" stroke-linecap="butt" d="M44.5 134.5L558.5 134.5" fill-rule="nonzero"/><path stroke="#e6e6e6" stroke-width="1.0" stroke-linecap="butt" d="M44.5 116.5L558.5 116.5" fill-rule="nonzero"/><path stroke="#e6e6e6" stroke-width="1.0" stroke-linecap="butt" d="M44.5 79.5L558.5 79.5" fill-rule="nonzero"/><path stroke="#e6e6e6" stroke-width="1.0" stroke-linecap="butt" d="M44.5 61.5L558.5 61.5" fill-rule="nonzero"/><path stroke="#e6e6e6" stroke-width="1.0" stroke-linecap="butt" d="M44.5 43.5L558.5 43.5" fill-rule="nonzero"/><clipPath id="id_0"><path d="M44.8 24.8L558.2 24.8L558.2 318.2L44.8 318.2L44.8 24.8Z" clip-rule="nonzero"/></clipPath><path fill="#ea4335" fill-opacity="0.8" clip-path="url(#id_0)" d="M85.04032 309.398C85.04032 314.23267 81.12104 318.15195 76.28636 318.15195C71.45168 318.15195 67.532394 314.23267 67.532394 309.398C67.532394 304.56332 71.45168 300.64404 76.28636 300.64404C81.12104 300.64404 85.04032 304.56332 85.04032 309.398Z" fill-rule="nonzero"/><path fill="#fbbc04" fill-opacity="0.8" clip-path="url(#id_0)" d="M95.5256 171.5C95.5256 182.12553 86.911896 190.73924 76.28636 190.73924C65.66082 190.73924 57.04712 182.12553 57.04712 171.5C57.04712 160.87447 65.66082 152.26076 76.28636 152.26076C86.911896 152.26076 95.5256 160.87447 95.5256 171.5Z" fill-rule="nonzero"/><path fill="#34a853" fill-opacity="0.8" clip-path="url(#id_0)" d="M84.88797 318.2C84.88797 321.5137 82.201675 324.2 78.88797 324.2C75.57426 324.2 72.88797 321.5137 72.88797 318.2C72.88797 314.8863 75.57426 312.2 78.88797 312.2C82.201675 312.2 84.88797 314.8863 84.88797 318.2Z" fill-rule="nonzero"/><path fill="#ff6d01" fill-opacity="0.8" clip-path="url(#id_0)" d="M92.256355 309.398C92.256355 314.8654 87.824165 319.29758 82.35678 319.29758C76.88939 319.29758 72.4572 314.8654 72.4572 309.398C72.4572 303.9306 76.88939 299.4984 82.35678 299.4984C87.824165 299.4984 92.256355 303.9306 92.256355 309.398Z" fill-rule="nonzero"/><path fill="#46bdc6" fill-opacity="0.8" clip-path="url(#id_0)" d="M119.49804 230.18C119.49804 239.19792 112.18757 246.50839 103.16965 246.50839C94.151726 246.50839 86.841255 239.19792 86.841255 230.18C86.841255 221.16208 94.151726 213.85161 103.16965 213.85161C112.18757 213.85161 119.49804 221.16208 119.49804 230.18Z" fill-rule="nonzero"/><path fill="#7baaf7" fill-opacity="0.8" clip-path="url(#id_0)" d="M123.64647 156.83C123.64647 168.13904 114.47868 177.30682 103.16965 177.30682C91.86061 177.30682 82.692825 168.13904 82.692825 156.83C82.692825 145.52097 91.86061 136.35318 103.16965 136.35318C114.47868 136.35318 123.64647 145.52097 123.64647 156.83Z" fill-rule="nonzero"/><path fill="#f07b72" fill-opacity="0.8" clip-path="url(#id_0)" d="M124.54029 112.82C124.54029 124.62268 114.97233 134.19064 103.16965 134.19064C91.36697 134.19064 81.799 124.62268 81.799 112.82C81.799 101.01732 91.36697 91.449356 103.16965 91.449356C114.97233 91.449356 124.54029 101.01732 124.54029 112.82Z" fill-rule="nonzero"/><path fill="#fcd04f" fill-opacity="0.8" clip-path="url(#id_0)" d="M142.57487 309.398C142.57487 315.83475 137.35687 321.05273 130.92014 321.05273C124.483406 321.05273 119.2654 315.83475 119.2654 309.398C119.2654 302.96127 124.483406 297.74326 130.92014 297.74326C137.35687 297.74326 142.57487 302.96127 142.57487 309.398Z" fill-rule="nonzero"/><path fill="#71c287" fill-opacity="0.8" clip-path="url(#id_0)" d="M148.30183 230.18C148.30183 239.77965 140.51978 247.56169 130.92014 247.56169C121.320496 247.56169 113.538445 239.77965 113.538445 230.18C113.538445 220.58035 121.320496 212.79831 130.92014 212.79831C140.51978 212.79831 148.30183 220.58035 148.30183 230.18Z" fill-rule="nonzero"/><path fill="#ff994d" fill-opacity="0.8" clip-path="url(#id_0)" d="M151.528 171.5C151.528 182.88141 142.30154 192.10786 130.92014 192.10786C119.538734 192.10786 110.31228 182.88141 110.31228 171.5C110.31228 160.11859 119.538734 150.89214 130.92014 150.89214C142.30154 150.89214 151.528 160.11859 151.528 171.5Z" fill-rule="nonzero"/><path fill="#7ed1d7" fill-opacity="0.8" clip-path="url(#id_0)" d="M210.41875 171.5C210.41875 184.75352 199.67464 195.49762 186.42111 195.49762C173.1676 195.49762 162.4235 184.75352 162.4235 171.5C162.4235 158.24648 173.1676 147.50238 186.42111 147.50238C199.67464 147.50238 210.41875 158.24648 210.41875 171.5Z" fill-rule="nonzero"/><path fill="#b3cefb" fill-opacity="0.8" clip-path="url(#id_0)" d="M217.42111 24.8C217.42111 41.920826 203.54195 55.8 186.42111 55.8C169.3003 55.8 155.42111 41.920826 155.42111 24.8C155.42111 7.679173 169.3003 -6.2 186.42111 -6.2C203.54195 -6.2 217.42111 7.679173 217.42111 24.8Z" fill-rule="nonzero"/><path fill="#f7b4ae" fill-opacity="0.8" clip-path="url(#id_0)" d="M314.46484 309.398C314.46484 318.8099 306.835 326.43976 297.4231 326.43976C288.01117 326.43976 280.38132 318.8099 280.38132 309.398C280.38132 299.98608 288.01117 292.35623 297.4231 292.35623C306.835 292.35623 314.46484 299.98608 314.46484 309.398Z" fill-rule="nonzero"/><path fill="#fde49b" fill-opacity="0.8" clip-path="url(#id_0)" d="M327.33215 230.18C327.33215 246.69832 313.9414 260.08905 297.4231 260.08905C280.90475 260.08905 267.51404 246.69832 267.51404 230.18C267.51404 213.66168 280.90475 200.27094 297.4231 200.27094C313.9414 200.27094 327.33215 213.66168 327.33215 230.18Z" fill-rule="nonzero"/><path fill="#aedcba" fill-opacity="0.8" clip-path="url(#id_0)" d="M542.8872 309.398C542.8872 322.3547 532.3837 332.8582 519.427 332.8582C506.4703 332.8582 495.9668 322.3547 495.9668 309.398C495.9668 296.44128 506.4703 285.9378 519.427 285.9378C532.3837 285.9378 542.8872 296.44128 542.8872 309.398Z" fill-rule="nonzero"/><path stroke="#ffffff" stroke-width="3.0" stroke-linejoin="round" stroke-linecap="round" clip-path="url(#id_0)" d="M79.33324 313.2105L79.33324 314.398L72.70824 314.398Q72.69261 313.9605 72.84886 313.53864Q73.11449 312.86676 73.66136 312.2105Q74.22386 311.55426 75.27074 310.6949Q76.91136 309.35114 77.47386 308.5699Q78.05199 307.78864 78.05199 307.0855Q78.05199 306.35114 77.52074 305.85114Q77.00511 305.35114 76.17699 305.35114Q75.28636 305.35114 74.73949 305.8824Q74.20824 306.41364 74.20824 307.36676L72.94261 307.22614Q73.06761 305.8199 73.91136 305.0855Q74.77074 304.3355 76.19261 304.3355Q77.64574 304.3355 78.47386 305.1324Q79.31761 305.92926 79.31761 307.11676Q79.31761 307.72614 79.06761 308.30426Q78.83324 308.8824 78.25511 309.523Q77.69261 310.16364 76.36449 311.28864Q75.25511 312.2105 74.94261 312.55426Q74.63011 312.8824 74.42699 313.2105L79.33324 313.2105Z" fill-rule="nonzero"/><path fill="#1a1a1a" clip-path="url(#id_0)" d="M79.33324 313.2105L79.33324 314.398L72.70824 314.398Q72.69261 313.9605 72.84886 313.53864Q73.11449 312.86676 73.66136 312.2105Q74.22386 311.55426 75.27074 310.6949Q76.91136 309.35114 77.47386 308.5699Q78.05199 307.78864 78.05199 307.0855Q78.05199 306.35114 77.52074 305.85114Q77.00511 305.35114 76.17699 305.35114Q75.28636 305.35114 74.73949 305.8824Q74.20824 306.41364 74.20824 307.36676L72.94261 307.22614Q73.06761 305.8199 73.91136 305.0855Q74.77074 304.3355 76.19261 304.3355Q77.64574 304.3355 78.47386 305.1324Q79.31761 305.92926 79.31761 307.11676Q79.31761 307.72614 79.06761 308.30426Q78.83324 308.8824 78.25511 309.523Q77.69261 310.16364 76.36449 311.28864Q75.25511 312.2105 74.94261 312.55426Q74.63011 312.8824 74.42699 313.2105L79.33324 313.2105Z" fill-rule="nonzero"/><path stroke="#ffffff" stroke-width="3.0" stroke-linejoin="round" stroke-linecap="round" clip-path="url(#id_0)" d="M72.81761 176.5L72.81761 174.09375L68.45824 174.09375L68.45824 172.96875L73.03636 166.48438L74.03636 166.48438L74.03636 172.96875L75.39574 172.96875L75.39574 174.09375L74.03636 174.09375L74.03636 176.5L72.81761 176.5ZM72.81761 172.96875L72.81761 168.45312L69.67699 172.96875L72.81761 172.96875ZM83.25511 168.9375L82.03636 169.03125Q81.86449 168.29688 81.56761 167.96875Q81.06761 167.45312 80.33324 167.45312Q79.73949 167.45312 79.30199 167.78125Q78.72386 168.20312 78.38011 169.01562Q78.05199 169.82812 78.03636 171.32812Q78.47386 170.65625 79.11449 170.32812Q79.77074 170.0 80.47386 170.0Q81.70824 170.0 82.56761 170.90625Q83.42699 171.8125 83.42699 173.25Q83.42699 174.1875 83.02074 175.0Q82.61449 175.8125 81.89574 176.25Q81.19261 176.67188 80.28636 176.67188Q78.75511 176.67188 77.78636 175.54688Q76.81761 174.40625 76.81761 171.8125Q76.81761 168.90625 77.88011 167.57812Q78.81761 166.4375 80.41136 166.4375Q81.59886 166.4375 82.34886 167.10938Q83.09886 167.76562 83.25511 168.9375ZM78.22386 173.25Q78.22386 173.89062 78.48949 174.46875Q78.77074 175.04688 79.25511 175.35938Q79.73949 175.65625 80.27074 175.65625Q81.05199 175.65625 81.61449 175.03125Q82.17699 174.40625 82.17699 173.32812Q82.17699 172.28125 81.61449 171.6875Q81.06761 171.07812 80.22386 171.07812Q79.39574 171.07812 78.80199 171.6875Q78.22386 172.28125 78.22386 173.25Z" fill-rule="nonzero"/><path fill="#1a1a1a" clip-path="url(#id_0)" d="M72.81761 176.5L72.81761 174.09375L68.45824 174.09375L68.45824 172.96875L73.03636 166.48438L74.03636 166.48438L74.03636 172.96875L75.39574 172.96875L75.39574 174.09375L74.03636 174.09375L74.03636 176.5L72.81761 176.5ZM72.81761 172.96875L72.81761 168.45312L69.67699 172.96875L72.81761 172.96875ZM83.25511 168.9375L82.03636 169.03125Q81.86449 168.29688 81.56761 167.96875Q81.06761 167.45312 80.33324 167.45312Q79.73949 167.45312 79.30199 167.78125Q78.72386 168.20312 78.38011 169.01562Q78.05199 169.82812 78.03636 171.32812Q78.47386 170.65625 79.11449 170.32812Q79.77074 170.0 80.47386 170.0Q81.70824 170.0 82.56761 170.90625Q83.42699 171.8125 83.42699 173.25Q83.42699 174.1875 83.02074 175.0Q82.61449 175.8125 81.89574 176.25Q81.19261 176.67188 80.28636 176.67188Q78.75511 176.67188 77.78636 175.54688Q76.81761 174.40625 76.81761 171.8125Q76.81761 168.90625 77.88011 167.57812Q78.81761 166.4375 80.41136 166.4375Q81.59886 166.4375 82.34886 167.10938Q83.09886 167.76562 83.25511 168.9375ZM78.22386 173.25Q78.22386 173.89062 78.48949 174.46875Q78.77074 175.04688 79.25511 175.35938Q79.73949 175.65625 80.27074 175.65625Q81.05199 175.65625 81.61449 175.03125Q82.17699 174.40625 82.17699 173.32812Q82.17699 172.28125 81.61449 171.6875Q81.06761 171.07812 80.22386 171.07812Q79.39574 171.07812 78.80199 171.6875Q78.22386 172.28125 78.22386 173.25Z" fill-rule="nonzero"/><path stroke="#ffffff" stroke-width="3.0" stroke-linejoin="round" stroke-linecap="round" clip-path="url(#id_0)" d="M65.466095 318.2625Q65.466095 316.48126 65.82547 315.40314Q66.20047 314.3094 66.91922 313.73126Q67.63797 313.1375 68.73172 313.1375Q69.54422 313.1375 70.153595 313.46564Q70.76297 313.79376 71.153595 314.40314Q71.559845 315.0125 71.778595 315.8875Q71.997345 316.7625 71.997345 318.2625Q71.997345 320.02814 71.63797 321.10626Q71.278595 322.1844 70.559845 322.77814Q69.841095 323.3719 68.73172 323.3719Q67.29422 323.3719 66.466095 322.325Q65.466095 321.075 65.466095 318.2625ZM66.73172 318.2625Q66.73172 320.73126 67.309845 321.54376Q67.88797 322.35626 68.73172 322.35626Q69.591095 322.35626 70.16922 321.54376Q70.747345 320.71564 70.747345 318.2625Q70.747345 315.77814 70.16922 314.96564Q69.591095 314.15314 68.716095 314.15314Q67.872345 314.15314 67.372345 314.8719Q66.73172 315.79376 66.73172 318.2625ZM74.13797 323.2L74.13797 321.79376L75.528595 321.79376L75.528595 323.2Q75.528595 323.96564 75.247345 324.4344Q74.98172 324.91876 74.38797 325.1844L74.04422 324.65314Q74.434845 324.48126 74.622345 324.15314Q74.809845 323.825 74.82547 323.2L74.13797 323.2ZM77.466095 318.2625Q77.466095 316.48126 77.82547 315.40314Q78.20047 314.3094 78.91922 313.73126Q79.63797 313.1375 80.73172 313.1375Q81.54422 313.1375 82.153595 313.46564Q82.76297 313.79376 83.153595 314.40314Q83.559845 315.0125 83.778595 315.8875Q83.997345 316.7625 83.997345 318.2625Q83.997345 320.02814 83.63797 321.10626Q83.278595 322.1844 82.559845 322.77814Q81.841095 323.3719 80.73172 323.3719Q79.29422 323.3719 78.466095 322.325Q77.466095 321.075 77.466095 318.2625ZM78.73172 318.2625Q78.73172 320.73126 79.309845 321.54376Q79.88797 322.35626 80.73172 322.35626Q81.591095 322.35626 82.16922 321.54376Q82.747345 320.71564 82.747345 318.2625Q82.747345 315.77814 82.16922 314.96564Q81.591095 314.15314 80.716095 314.15314Q79.872345 314.15314 79.372345 314.8719Q78.73172 315.79376 78.73172 318.2625ZM90.10672 323.2L88.872345 323.2L88.872345 315.35626Q88.434845 315.77814 87.70047 316.21564Q86.98172 316.6375 86.41922 316.84064L86.41922 315.65314Q87.45047 315.16876 88.216095 314.48126Q88.997345 313.79376 89.309845 313.1375L90.10672 313.1375L90.10672 323.2Z" fill-rule="nonzero"/><path fill="#1a1a1a" clip-path="url(#id_0)" d="M65.466095 318.2625Q65.466095 316.48126 65.82547 315.40314Q66.20047 314.3094 66.91922 313.73126Q67.63797 313.1375 68.73172 313.1375Q69.54422 313.1375 70.153595 313.46564Q70.76297 313.79376 71.153595 314.40314Q71.559845 315.0125 71.778595 315.8875Q71.997345 316.7625 71.997345 318.2625Q71.997345 320.02814 71.63797 321.10626Q71.278595 322.1844 70.559845 322.77814Q69.841095 323.3719 68.73172 323.3719Q67.29422 323.3719 66.466095 322.325Q65.466095 321.075 65.466095 318.2625ZM66.73172 318.2625Q66.73172 320.73126 67.309845 321.54376Q67.88797 322.35626 68.73172 322.35626Q69.591095 322.35626 70.16922 321.54376Q70.747345 320.71564 70.747345 318.2625Q70.747345 315.77814 70.16922 314.96564Q69.591095 314.15314 68.716095 314.15314Q67.872345 314.15314 67.372345 314.8719Q66.73172 315.79376 66.73172 318.2625ZM74.13797 323.2L74.13797 321.79376L75.528595 321.79376L75.528595 323.2Q75.528595 323.96564 75.247345 324.4344Q74.98172 324.91876 74.38797 325.1844L74.04422 324.65314Q74.434845 324.48126 74.622345 324.15314Q74.809845 323.825 74.82547 323.2L74.13797 323.2ZM77.466095 318.2625Q77.466095 316.48126 77.82547 315.40314Q78.20047 314.3094 78.91922 313.73126Q79.63797 313.1375 80.73172 313.1375Q81.54422 313.1375 82.153595 313.46564Q82.76297 313.79376 83.153595 314.40314Q83.559845 315.0125 83.778595 315.8875Q83.997345 316.7625 83.997345 318.2625Q83.997345 320.02814 83.63797 321.10626Q83.278595 322.1844 82.559845 322.77814Q81.841095 323.3719 80.73172 323.3719Q79.29422 323.3719 78.466095 322.325Q77.466095 321.075 77.466095 318.2625ZM78.73172 318.2625Q78.73172 320.73126 79.309845 321.54376Q79.88797 322.35626 80.73172 322.35626Q81.591095 322.35626 82.16922 321.54376Q82.747345 320.71564 82.747345 318.2625Q82.747345 315.77814 82.16922 314.96564Q81.591095 314.15314 80.716095 314.15314Q79.872345 314.15314 79.372345 314.8719Q78.73172 315.79376 78.73172 318.2625ZM90.10672 323.2L88.872345 323.2L88.872345 315.35626Q88.434845 315.77814 87.70047 316.21564Q86.98172 316.6375 86.41922 316.84064L86.41922 315.65314Q87.45047 315.16876 88.216095 314.48126Q88.997345 313.79376 89.309845 313.1375L90.10672 313.1375L90.10672 323.2Z" fill-rule="nonzero"/><path stroke="#ffffff" stroke-width="3.0" stroke-linejoin="round" stroke-linecap="round" clip-path="url(#id_0)" d="M82.88803 314.398L82.88803 311.99176L78.528656 311.99176L78.528656 310.86676L83.10678 304.3824L84.10678 304.3824L84.10678 310.86676L85.466156 310.86676L85.466156 311.99176L84.10678 311.99176L84.10678 314.398L82.88803 314.398ZM82.88803 310.86676L82.88803 306.35114L79.747406 310.86676L82.88803 310.86676Z" fill-rule="nonzero"/><path fill="#1a1a1a" clip-path="url(#id_0)" d="M82.88803 314.398L82.88803 311.99176L78.528656 311.99176L78.528656 310.86676L83.10678 304.3824L84.10678 304.3824L84.10678 310.86676L85.466156 310.86676L85.466156 311.99176L84.10678 311.99176L84.10678 314.398L82.88803 314.398ZM82.88803 310.86676L82.88803 306.35114L79.747406 310.86676L82.88803 310.86676Z" fill-rule="nonzero"/><path stroke="#ffffff" stroke-width="3.0" stroke-linejoin="round" stroke-linecap="round" clip-path="url(#id_0)" d="M102.21652 233.9925L102.21652 235.18L95.59152 235.18Q95.5759 234.7425 95.73215 234.32062Q95.99777 233.64874 96.54465 232.9925Q97.10715 232.33624 98.15402 231.47687Q99.79465 230.13312 100.35715 229.35187Q100.93527 228.57062 100.93527 227.8675Q100.93527 227.13312 100.40402 226.63312Q99.8884 226.13312 99.06027 226.13312Q98.16965 226.13312 97.62277 226.66437Q97.09152 227.19562 97.09152 228.14874L95.8259 228.00812Q95.9509 226.60187 96.79465 225.8675Q97.65402 225.1175 99.0759 225.1175Q100.52902 225.1175 101.35715 225.91437Q102.2009 226.71124 102.2009 227.89874Q102.2009 228.50812 101.9509 229.08624Q101.71652 229.66437 101.1384 230.305Q100.5759 230.94562 99.24777 232.07062Q98.1384 232.9925 97.8259 233.33624Q97.5134 233.66437 97.31027 233.9925L102.21652 233.9925ZM105.6384 229.7425Q104.87277 229.46124 104.49777 228.94562Q104.1384 228.43 104.1384 227.69562Q104.1384 226.60187 104.91965 225.8675Q105.71652 225.1175 107.0134 225.1175Q108.3259 225.1175 109.12277 225.88312Q109.93527 226.64874 109.93527 227.7425Q109.93527 228.43 109.56027 228.94562Q109.2009 229.46124 108.4509 229.7425Q109.37277 230.03937 109.85715 230.71124Q110.34152 231.38312 110.34152 232.32062Q110.34152 233.60187 109.43527 234.47687Q108.52902 235.35187 107.04465 235.35187Q105.56027 235.35187 104.6384 234.47687Q103.73215 233.58624 103.73215 232.27374Q103.73215 231.305 104.23215 230.64874Q104.73215 229.97687 105.6384 229.7425ZM105.40402 227.66437Q105.40402 228.3675 105.85715 228.82062Q106.31027 229.27374 107.04465 229.27374Q107.7634 229.27374 108.21652 228.83624Q108.66965 228.38312 108.66965 227.72687Q108.66965 227.055 108.2009 226.60187Q107.73215 226.13312 107.02902 226.13312Q106.3259 226.13312 105.85715 226.58624Q105.40402 227.02374 105.40402 227.66437ZM104.99777 232.28937Q104.99777 232.82062 105.24777 233.32062Q105.49777 233.805 105.98215 234.07062Q106.48215 234.33624 107.06027 234.33624Q107.93527 234.33624 108.49777 233.77374Q109.0759 233.21124 109.0759 232.33624Q109.0759 231.44562 108.48215 230.8675Q107.90402 230.27374 107.0134 230.27374Q106.1384 230.27374 105.56027 230.85187Q104.99777 231.43 104.99777 232.28937Z" fill-rule="nonzero"/><path fill="#1a1a1a" clip-path="url(#id_0)" d="M102.21652 233.9925L102.21652 235.18L95.59152 235.18Q95.5759 234.7425 95.73215 234.32062Q95.99777 233.64874 96.54465 232.9925Q97.10715 232.33624 98.15402 231.47687Q99.79465 230.13312 100.35715 229.35187Q100.93527 228.57062 100.93527 227.8675Q100.93527 227.13312 100.40402 226.63312Q99.8884 226.13312 99.06027 226.13312Q98.16965 226.13312 97.62277 226.66437Q97.09152 227.19562 97.09152 228.14874L95.8259 228.00812Q95.9509 226.60187 96.79465 225.8675Q97.65402 225.1175 99.0759 225.1175Q100.52902 225.1175 101.35715 225.91437Q102.2009 226.71124 102.2009 227.89874Q102.2009 228.50812 101.9509 229.08624Q101.71652 229.66437 101.1384 230.305Q100.5759 230.94562 99.24777 232.07062Q98.1384 232.9925 97.8259 233.33624Q97.5134 233.66437 97.31027 233.9925L102.21652 233.9925ZM105.6384 229.7425Q104.87277 229.46124 104.49777 228.94562Q104.1384 228.43 104.1384 227.69562Q104.1384 226.60187 104.91965 225.8675Q105.71652 225.1175 107.0134 225.1175Q108.3259 225.1175 109.12277 225.88312Q109.93527 226.64874 109.93527 227.7425Q109.93527 228.43 109.56027 228.94562Q109.2009 229.46124 108.4509 229.7425Q109.37277 230.03937 109.85715 230.71124Q110.34152 231.38312 110.34152 232.32062Q110.34152 233.60187 109.43527 234.47687Q108.52902 235.35187 107.04465 235.35187Q105.56027 235.35187 104.6384 234.47687Q103.73215 233.58624 103.73215 232.27374Q103.73215 231.305 104.23215 230.64874Q104.73215 229.97687 105.6384 229.7425ZM105.40402 227.66437Q105.40402 228.3675 105.85715 228.82062Q106.31027 229.27374 107.04465 229.27374Q107.7634 229.27374 108.21652 228.83624Q108.66965 228.38312 108.66965 227.72687Q108.66965 227.055 108.2009 226.60187Q107.73215 226.13312 107.02902 226.13312Q106.3259 226.13312 105.85715 226.58624Q105.40402 227.02374 105.40402 227.66437ZM104.99777 232.28937Q104.99777 232.82062 105.24777 233.32062Q105.49777 233.805 105.98215 234.07062Q106.48215 234.33624 107.06027 234.33624Q107.93527 234.33624 108.49777 233.77374Q109.0759 233.21124 109.0759 232.33624Q109.0759 231.44562 108.48215 230.8675Q107.90402 230.27374 107.0134 230.27374Q106.1384 230.27374 105.56027 230.85187Q104.99777 231.43 104.99777 232.28937Z" fill-rule="nonzero"/><path stroke="#ffffff" stroke-width="3.0" stroke-linejoin="round" stroke-linecap="round" clip-path="url(#id_0)" d="M95.74777 159.205L97.04465 159.09563Q97.18527 160.03313 97.7009 160.5175Q98.23215 160.98625 98.96652 160.98625Q99.85715 160.98625 100.46652 160.31438Q101.09152 159.6425 101.09152 158.54875Q101.09152 157.48625 100.49777 156.87688Q99.90402 156.2675 98.9509 156.2675Q98.35715 156.2675 97.87277 156.54875Q97.40402 156.81438 97.12277 157.23625L95.96652 157.09563L96.93527 151.93938L101.91965 151.93938L101.91965 153.12688L97.91965 153.12688L97.3884 155.81438Q98.29465 155.18938 99.27902 155.18938Q100.59152 155.18938 101.48215 156.09563Q102.3884 157.00188 102.3884 158.43938Q102.3884 159.79875 101.60715 160.78313Q100.6384 162.00188 98.96652 162.00188Q97.60715 162.00188 96.73215 161.23625Q95.87277 160.47063 95.74777 159.205ZM103.74777 159.205L105.04465 159.09563Q105.18527 160.03313 105.7009 160.5175Q106.23215 160.98625 106.96652 160.98625Q107.85715 160.98625 108.46652 160.31438Q109.09152 159.6425 109.09152 158.54875Q109.09152 157.48625 108.49777 156.87688Q107.90402 156.2675 106.9509 156.2675Q106.35715 156.2675 105.87277 156.54875Q105.40402 156.81438 105.12277 157.23625L103.96652 157.09563L104.93527 151.93938L109.91965 151.93938L109.91965 153.12688L105.91965 153.12688L105.3884 155.81438Q106.29465 155.18938 107.27902 155.18938Q108.59152 155.18938 109.48215 156.09563Q110.3884 157.00188 110.3884 158.43938Q110.3884 159.79875 109.60715 160.78313Q108.6384 162.00188 106.96652 162.00188Q105.60715 162.00188 104.73215 161.23625Q103.87277 160.47063 103.74777 159.205Z" fill-rule="nonzero"/><path fill="#1a1a1a" clip-path="url(#id_0)" d="M95.74777 159.205L97.04465 159.09563Q97.18527 160.03313 97.7009 160.5175Q98.23215 160.98625 98.96652 160.98625Q99.85715 160.98625 100.46652 160.31438Q101.09152 159.6425 101.09152 158.54875Q101.09152 157.48625 100.49777 156.87688Q99.90402 156.2675 98.9509 156.2675Q98.35715 156.2675 97.87277 156.54875Q97.40402 156.81438 97.12277 157.23625L95.96652 157.09563L96.93527 151.93938L101.91965 151.93938L101.91965 153.12688L97.91965 153.12688L97.3884 155.81438Q98.29465 155.18938 99.27902 155.18938Q100.59152 155.18938 101.48215 156.09563Q102.3884 157.00188 102.3884 158.43938Q102.3884 159.79875 101.60715 160.78313Q100.6384 162.00188 98.96652 162.00188Q97.60715 162.00188 96.73215 161.23625Q95.87277 160.47063 95.74777 159.205ZM103.74777 159.205L105.04465 159.09563Q105.18527 160.03313 105.7009 160.5175Q106.23215 160.98625 106.96652 160.98625Q107.85715 160.98625 108.46652 160.31438Q109.09152 159.6425 109.09152 158.54875Q109.09152 157.48625 108.49777 156.87688Q107.90402 156.2675 106.9509 156.2675Q106.35715 156.2675 105.87277 156.54875Q105.40402 156.81438 105.12277 157.23625L103.96652 157.09563L104.93527 151.93938L109.91965 151.93938L109.91965 153.12688L105.91965 153.12688L105.3884 155.81438Q106.29465 155.18938 107.27902 155.18938Q108.59152 155.18938 109.48215 156.09563Q110.3884 157.00188 110.3884 158.43938Q110.3884 159.79875 109.60715 160.78313Q108.6384 162.00188 106.96652 162.00188Q105.60715 162.00188 104.73215 161.23625Q103.87277 160.47063 103.74777 159.205Z" fill-rule="nonzero"/><path stroke="#ffffff" stroke-width="3.0" stroke-linejoin="round" stroke-linecap="round" clip-path="url(#id_0)" d="M102.1384 110.2575L100.91965 110.35125Q100.74777 109.616875 100.4509 109.28875Q99.9509 108.773125 99.21652 108.773125Q98.62277 108.773125 98.18527 109.10125Q97.60715 109.523125 97.2634 110.335625Q96.93527 111.148125 96.91965 112.648125Q97.35715 111.97625 97.99777 111.648125Q98.65402 111.32 99.35715 111.32Q100.59152 111.32 101.4509 112.22625Q102.31027 113.1325 102.31027 114.57Q102.31027 115.5075 101.90402 116.32Q101.49777 117.1325 100.77902 117.57Q100.0759 117.991875 99.16965 117.991875Q97.6384 117.991875 96.66965 116.866875Q95.7009 115.72625 95.7009 113.1325Q95.7009 110.22625 96.7634 108.898125Q97.7009 107.7575 99.29465 107.7575Q100.48215 107.7575 101.23215 108.429375Q101.98215 109.085625 102.1384 110.2575ZM97.10715 114.57Q97.10715 115.210625 97.37277 115.78875Q97.65402 116.366875 98.1384 116.679375Q98.62277 116.97625 99.15402 116.97625Q99.93527 116.97625 100.49777 116.35125Q101.06027 115.72625 101.06027 114.648125Q101.06027 113.60125 100.49777 113.0075Q99.9509 112.398125 99.10715 112.398125Q98.27902 112.398125 97.68527 113.0075Q97.10715 113.60125 97.10715 114.57ZM110.21652 116.6325L110.21652 117.82L103.59152 117.82Q103.5759 117.3825 103.73215 116.960625Q103.99777 116.28875 104.54465 115.6325Q105.10715 114.97625 106.15402 114.116875Q107.79465 112.773125 108.35715 111.991875Q108.93527 111.210625 108.93527 110.5075Q108.93527 109.773125 108.40402 109.273125Q107.8884 108.773125 107.06027 108.773125Q106.16965 108.773125 105.62277 109.304375Q105.09152 109.835625 105.09152 110.78875L103.8259 110.648125Q103.9509 109.241875 104.79465 108.5075Q105.65402 107.7575 107.0759 107.7575Q108.52902 107.7575 109.35715 108.554375Q110.2009 109.35125 110.2009 110.53875Q110.2009 111.148125 109.9509 111.72625Q109.71652 112.304375 109.1384 112.945Q108.5759 113.585625 107.24777 114.710625Q106.1384 115.6325 105.8259 115.97625Q105.5134 116.304375 105.31027 116.6325L110.21652 116.6325Z" fill-rule="nonzero"/><path fill="#1a1a1a" clip-path="url(#id_0)" d="M102.1384 110.2575L100.91965 110.35125Q100.74777 109.616875 100.4509 109.28875Q99.9509 108.773125 99.21652 108.773125Q98.62277 108.773125 98.18527 109.10125Q97.60715 109.523125 97.2634 110.335625Q96.93527 111.148125 96.91965 112.648125Q97.35715 111.97625 97.99777 111.648125Q98.65402 111.32 99.35715 111.32Q100.59152 111.32 101.4509 112.22625Q102.31027 113.1325 102.31027 114.57Q102.31027 115.5075 101.90402 116.32Q101.49777 117.1325 100.77902 117.57Q100.0759 117.991875 99.16965 117.991875Q97.6384 117.991875 96.66965 116.866875Q95.7009 115.72625 95.7009 113.1325Q95.7009 110.22625 96.7634 108.898125Q97.7009 107.7575 99.29465 107.7575Q100.48215 107.7575 101.23215 108.429375Q101.98215 109.085625 102.1384 110.2575ZM97.10715 114.57Q97.10715 115.210625 97.37277 115.78875Q97.65402 116.366875 98.1384 116.679375Q98.62277 116.97625 99.15402 116.97625Q99.93527 116.97625 100.49777 116.35125Q101.06027 115.72625 101.06027 114.648125Q101.06027 113.60125 100.49777 113.0075Q99.9509 112.398125 99.10715 112.398125Q98.27902 112.398125 97.68527 113.0075Q97.10715 113.60125 97.10715 114.57ZM110.21652 116.6325L110.21652 117.82L103.59152 117.82Q103.5759 117.3825 103.73215 116.960625Q103.99777 116.28875 104.54465 115.6325Q105.10715 114.97625 106.15402 114.116875Q107.79465 112.773125 108.35715 111.991875Q108.93527 111.210625 108.93527 110.5075Q108.93527 109.773125 108.40402 109.273125Q107.8884 108.773125 107.06027 108.773125Q106.16965 108.773125 105.62277 109.304375Q105.09152 109.835625 105.09152 110.78875L103.8259 110.648125Q103.9509 109.241875 104.79465 108.5075Q105.65402 107.7575 107.0759 107.7575Q108.52902 107.7575 109.35715 108.554375Q110.2009 109.35125 110.2009 110.53875Q110.2009 111.148125 109.9509 111.72625Q109.71652 112.304375 109.1384 112.945Q108.5759 113.585625 107.24777 114.710625Q106.1384 115.6325 105.8259 115.97625Q105.5134 116.304375 105.31027 116.6325L110.21652 116.6325Z" fill-rule="nonzero"/><path stroke="#ffffff" stroke-width="3.0" stroke-linejoin="round" stroke-linecap="round" clip-path="url(#id_0)" d="M123.388885 308.9605Q122.62326 308.67926 122.24826 308.16364Q121.888885 307.648 121.888885 306.91364Q121.888885 305.8199 122.670135 305.0855Q123.46701 304.3355 124.763885 304.3355Q126.076385 304.3355 126.87326 305.10114Q127.68576 305.86676 127.68576 306.9605Q127.68576 307.648 127.31076 308.16364Q126.951385 308.67926 126.201385 308.9605Q127.12326 309.2574 127.607635 309.92926Q128.09201 310.60114 128.09201 311.53864Q128.09201 312.8199 127.18576 313.6949Q126.27951 314.5699 124.795135 314.5699Q123.31076 314.5699 122.388885 313.6949Q121.482635 312.80426 121.482635 311.49176Q121.482635 310.523 121.982635 309.86676Q122.482635 309.1949 123.388885 308.9605ZM123.15451 306.8824Q123.15451 307.5855 123.607635 308.03864Q124.06076 308.49176 124.795135 308.49176Q125.513885 308.49176 125.96701 308.05426Q126.420135 307.60114 126.420135 306.9449Q126.420135 306.273 125.951385 305.8199Q125.482635 305.35114 124.77951 305.35114Q124.076385 305.35114 123.607635 305.80426Q123.15451 306.24176 123.15451 306.8824ZM122.74826 311.5074Q122.74826 312.03864 122.99826 312.53864Q123.24826 313.023 123.732635 313.28864Q124.232635 313.55426 124.81076 313.55426Q125.68576 313.55426 126.24826 312.99176Q126.826385 312.42926 126.826385 311.55426Q126.826385 310.66364 126.232635 310.0855Q125.65451 309.49176 124.763885 309.49176Q123.888885 309.49176 123.31076 310.0699Q122.74826 310.648 122.74826 311.5074ZM130.17014 314.398L130.17014 312.99176L131.56076 312.99176L131.56076 314.398Q131.56076 315.16364 131.27951 315.6324Q131.01389 316.11676 130.42014 316.3824L130.07639 315.85114Q130.46701 315.67926 130.65451 315.35114Q130.84201 315.023 130.85764 314.398L130.17014 314.398ZM137.45139 314.398L137.45139 311.99176L133.09201 311.99176L133.09201 310.86676L137.67014 304.3824L138.67014 304.3824L138.67014 310.86676L140.02951 310.86676L140.02951 311.99176L138.67014 311.99176L138.67014 314.398L137.45139 314.398ZM137.45139 310.86676L137.45139 306.35114L134.31076 310.86676L137.45139 310.86676Z" fill-rule="nonzero"/><path fill="#1a1a1a" clip-path="url(#id_0)" d="M123.388885 308.9605Q122.62326 308.67926 122.24826 308.16364Q121.888885 307.648 121.888885 306.91364Q121.888885 305.8199 122.670135 305.0855Q123.46701 304.3355 124.763885 304.3355Q126.076385 304.3355 126.87326 305.10114Q127.68576 305.86676 127.68576 306.9605Q127.68576 307.648 127.31076 308.16364Q126.951385 308.67926 126.201385 308.9605Q127.12326 309.2574 127.607635 309.92926Q128.09201 310.60114 128.09201 311.53864Q128.09201 312.8199 127.18576 313.6949Q126.27951 314.5699 124.795135 314.5699Q123.31076 314.5699 122.388885 313.6949Q121.482635 312.80426 121.482635 311.49176Q121.482635 310.523 121.982635 309.86676Q122.482635 309.1949 123.388885 308.9605ZM123.15451 306.8824Q123.15451 307.5855 123.607635 308.03864Q124.06076 308.49176 124.795135 308.49176Q125.513885 308.49176 125.96701 308.05426Q126.420135 307.60114 126.420135 306.9449Q126.420135 306.273 125.951385 305.8199Q125.482635 305.35114 124.77951 305.35114Q124.076385 305.35114 123.607635 305.80426Q123.15451 306.24176 123.15451 306.8824ZM122.74826 311.5074Q122.74826 312.03864 122.99826 312.53864Q123.24826 313.023 123.732635 313.28864Q124.232635 313.55426 124.81076 313.55426Q125.68576 313.55426 126.24826 312.99176Q126.826385 312.42926 126.826385 311.55426Q126.826385 310.66364 126.232635 310.0855Q125.65451 309.49176 124.763885 309.49176Q123.888885 309.49176 123.31076 310.0699Q122.74826 310.648 122.74826 311.5074ZM130.17014 314.398L130.17014 312.99176L131.56076 312.99176L131.56076 314.398Q131.56076 315.16364 131.27951 315.6324Q131.01389 316.11676 130.42014 316.3824L130.07639 315.85114Q130.46701 315.67926 130.65451 315.35114Q130.84201 315.023 130.85764 314.398L130.17014 314.398ZM137.45139 314.398L137.45139 311.99176L133.09201 311.99176L133.09201 310.86676L137.67014 304.3824L138.67014 304.3824L138.67014 310.86676L140.02951 310.86676L140.02951 311.99176L138.67014 311.99176L138.67014 314.398L137.45139 314.398ZM137.45139 310.86676L137.45139 306.35114L134.31076 310.86676L137.45139 310.86676Z" fill-rule="nonzero"/><path stroke="#ffffff" stroke-width="3.0" stroke-linejoin="round" stroke-linecap="round" clip-path="url(#id_0)" d="M123.513885 232.53937L124.732635 232.3675Q124.951385 233.41437 125.451385 233.88312Q125.96701 234.33624 126.701385 234.33624Q127.576385 234.33624 128.17014 233.7425Q128.76389 233.13312 128.76389 232.2425Q128.76389 231.39874 128.20139 230.85187Q127.65451 230.305 126.81076 230.305Q126.451385 230.305 125.93576 230.43L126.076385 229.35187Q126.201385 229.3675 126.263885 229.3675Q127.06076 229.3675 127.68576 228.96124Q128.31076 228.555 128.31076 227.69562Q128.31076 227.02374 127.857635 226.58624Q127.40451 226.13312 126.670135 226.13312Q125.951385 226.13312 125.46701 226.58624Q124.99826 227.02374 124.857635 227.93L123.638885 227.71124Q123.857635 226.47687 124.65451 225.805Q125.451385 225.1175 126.638885 225.1175Q127.46701 225.1175 128.15451 225.47687Q128.84201 225.82062 129.20139 226.43Q129.57639 227.03937 129.57639 227.72687Q129.57639 228.3675 129.23264 228.89874Q128.88889 229.43 128.20139 229.75812Q129.09201 229.96124 129.57639 230.60187Q130.07639 231.2425 130.07639 232.22687Q130.07639 233.53937 129.10764 234.44562Q128.15451 235.35187 126.701385 235.35187Q125.37326 235.35187 124.49826 234.57062Q123.638885 233.78937 123.513885 232.53937ZM135.45139 235.18L135.45139 232.77374L131.09201 232.77374L131.09201 231.64874L135.67014 225.16437L136.67014 225.16437L136.67014 231.64874L138.02951 231.64874L138.02951 232.77374L136.67014 232.77374L136.67014 235.18L135.45139 235.18ZM135.45139 231.64874L135.45139 227.13312L132.31076 231.64874L135.45139 231.64874Z" fill-rule="nonzero"/><path fill="#1a1a1a" clip-path="url(#id_0)" d="M123.513885 232.53937L124.732635 232.3675Q124.951385 233.41437 125.451385 233.88312Q125.96701 234.33624 126.701385 234.33624Q127.576385 234.33624 128.17014 233.7425Q128.76389 233.13312 128.76389 232.2425Q128.76389 231.39874 128.20139 230.85187Q127.65451 230.305 126.81076 230.305Q126.451385 230.305 125.93576 230.43L126.076385 229.35187Q126.201385 229.3675 126.263885 229.3675Q127.06076 229.3675 127.68576 228.96124Q128.31076 228.555 128.31076 227.69562Q128.31076 227.02374 127.857635 226.58624Q127.40451 226.13312 126.670135 226.13312Q125.951385 226.13312 125.46701 226.58624Q124.99826 227.02374 124.857635 227.93L123.638885 227.71124Q123.857635 226.47687 124.65451 225.805Q125.451385 225.1175 126.638885 225.1175Q127.46701 225.1175 128.15451 225.47687Q128.84201 225.82062 129.20139 226.43Q129.57639 227.03937 129.57639 227.72687Q129.57639 228.3675 129.23264 228.89874Q128.88889 229.43 128.20139 229.75812Q129.09201 229.96124 129.57639 230.60187Q130.07639 231.2425 130.07639 232.22687Q130.07639 233.53937 129.10764 234.44562Q128.15451 235.35187 126.701385 235.35187Q125.37326 235.35187 124.49826 234.57062Q123.638885 233.78937 123.513885 232.53937ZM135.45139 235.18L135.45139 232.77374L131.09201 232.77374L131.09201 231.64874L135.67014 225.16437L136.67014 225.16437L136.67014 231.64874L138.02951 231.64874L138.02951 232.77374L136.67014 232.77374L136.67014 235.18L135.45139 235.18ZM135.45139 231.64874L135.45139 227.13312L132.31076 231.64874L135.45139 231.64874Z" fill-rule="nonzero"/><path stroke="#ffffff" stroke-width="3.0" stroke-linejoin="round" stroke-linecap="round" clip-path="url(#id_0)" d="M123.49826 173.875L124.795135 173.76562Q124.93576 174.70312 125.451385 175.1875Q125.982635 175.65625 126.71701 175.65625Q127.607635 175.65625 128.21701 174.98438Q128.84201 174.3125 128.84201 173.21875Q128.84201 172.15625 128.24826 171.54688Q127.65451 170.9375 126.701385 170.9375Q126.107635 170.9375 125.62326 171.21875Q125.15451 171.48438 124.87326 171.90625L123.71701 171.76562L124.68576 166.60938L129.67014 166.60938L129.67014 167.79688L125.670135 167.79688L125.138885 170.48438Q126.045135 169.85938 127.02951 169.85938Q128.34201 169.85938 129.23264 170.76562Q130.13889 171.67188 130.13889 173.10938Q130.13889 174.46875 129.35764 175.45312Q128.38889 176.67188 126.71701 176.67188Q125.357635 176.67188 124.482635 175.90625Q123.62326 175.14062 123.49826 173.875ZM137.88889 168.9375L136.67014 169.03125Q136.49826 168.29688 136.20139 167.96875Q135.70139 167.45312 134.96701 167.45312Q134.37326 167.45312 133.93576 167.78125Q133.35764 168.20312 133.01389 169.01562Q132.68576 169.82812 132.67014 171.32812Q133.10764 170.65625 133.74826 170.32812Q134.40451 170.0 135.10764 170.0Q136.34201 170.0 137.20139 170.90625Q138.06076 171.8125 138.06076 173.25Q138.06076 174.1875 137.65451 175.0Q137.24826 175.8125 136.52951 176.25Q135.82639 176.67188 134.92014 176.67188Q133.38889 176.67188 132.42014 175.54688Q131.45139 174.40625 131.45139 171.8125Q131.45139 168.90625 132.51389 167.57812Q133.45139 166.4375 135.04514 166.4375Q136.23264 166.4375 136.98264 167.10938Q137.73264 167.76562 137.88889 168.9375ZM132.85764 173.25Q132.85764 173.89062 133.12326 174.46875Q133.40451 175.04688 133.88889 175.35938Q134.37326 175.65625 134.90451 175.65625Q135.68576 175.65625 136.24826 175.03125Q136.81076 174.40625 136.81076 173.32812Q136.81076 172.28125 136.24826 171.6875Q135.70139 171.07812 134.85764 171.07812Q134.02951 171.07812 133.43576 171.6875Q132.85764 172.28125 132.85764 173.25Z" fill-rule="nonzero"/><path fill="#1a1a1a" clip-path="url(#id_0)" d="M123.49826 173.875L124.795135 173.76562Q124.93576 174.70312 125.451385 175.1875Q125.982635 175.65625 126.71701 175.65625Q127.607635 175.65625 128.21701 174.98438Q128.84201 174.3125 128.84201 173.21875Q128.84201 172.15625 128.24826 171.54688Q127.65451 170.9375 126.701385 170.9375Q126.107635 170.9375 125.62326 171.21875Q125.15451 171.48438 124.87326 171.90625L123.71701 171.76562L124.68576 166.60938L129.67014 166.60938L129.67014 167.79688L125.670135 167.79688L125.138885 170.48438Q126.045135 169.85938 127.02951 169.85938Q128.34201 169.85938 129.23264 170.76562Q130.13889 171.67188 130.13889 173.10938Q130.13889 174.46875 129.35764 175.45312Q128.38889 176.67188 126.71701 176.67188Q125.357635 176.67188 124.482635 175.90625Q123.62326 175.14062 123.49826 173.875ZM137.88889 168.9375L136.67014 169.03125Q136.49826 168.29688 136.20139 167.96875Q135.70139 167.45312 134.96701 167.45312Q134.37326 167.45312 133.93576 167.78125Q133.35764 168.20312 133.01389 169.01562Q132.68576 169.82812 132.67014 171.32812Q133.10764 170.65625 133.74826 170.32812Q134.40451 170.0 135.10764 170.0Q136.34201 170.0 137.20139 170.90625Q138.06076 171.8125 138.06076 173.25Q138.06076 174.1875 137.65451 175.0Q137.24826 175.8125 136.52951 176.25Q135.82639 176.67188 134.92014 176.67188Q133.38889 176.67188 132.42014 175.54688Q131.45139 174.40625 131.45139 171.8125Q131.45139 168.90625 132.51389 167.57812Q133.45139 166.4375 135.04514 166.4375Q136.23264 166.4375 136.98264 167.10938Q137.73264 167.76562 137.88889 168.9375ZM132.85764 173.25Q132.85764 173.89062 133.12326 174.46875Q133.40451 175.04688 133.88889 175.35938Q134.37326 175.65625 134.90451 175.65625Q135.68576 175.65625 136.24826 175.03125Q136.81076 174.40625 136.81076 173.32812Q136.81076 172.28125 136.24826 171.6875Q135.70139 171.07812 134.85764 171.07812Q134.02951 171.07812 133.43576 171.6875Q132.85764 172.28125 132.85764 173.25Z" fill-rule="nonzero"/><path stroke="#ffffff" stroke-width="3.0" stroke-linejoin="round" stroke-linecap="round" clip-path="url(#id_0)" d="M180.88986 171.0625Q180.12424 170.78125 179.74924 170.26562Q179.38986 169.75 179.38986 169.01562Q179.38986 167.92188 180.17111 167.1875Q180.96799 166.4375 182.26486 166.4375Q183.57736 166.4375 184.37424 167.20312Q185.18674 167.96875 185.18674 169.0625Q185.18674 169.75 184.81174 170.26562Q184.45236 170.78125 183.70236 171.0625Q184.62424 171.35938 185.10861 172.03125Q185.59299 172.70312 185.59299 173.64062Q185.59299 174.92188 184.68674 175.79688Q183.78049 176.67188 182.29611 176.67188Q180.81174 176.67188 179.88986 175.79688Q178.98361 174.90625 178.98361 173.59375Q178.98361 172.625 179.48361 171.96875Q179.98361 171.29688 180.88986 171.0625ZM180.65549 168.98438Q180.65549 169.6875 181.10861 170.14062Q181.56174 170.59375 182.29611 170.59375Q183.01486 170.59375 183.46799 170.15625Q183.92111 169.70312 183.92111 169.04688Q183.92111 168.375 183.45236 167.92188Q182.98361 167.45312 182.28049 167.45312Q181.57736 167.45312 181.10861 167.90625Q180.65549 168.34375 180.65549 168.98438ZM180.24924 173.60938Q180.24924 174.14062 180.49924 174.64062Q180.74924 175.125 181.23361 175.39062Q181.73361 175.65625 182.31174 175.65625Q183.18674 175.65625 183.74924 175.09375Q184.32736 174.53125 184.32736 173.65625Q184.32736 172.76562 183.73361 172.1875Q183.15549 171.59375 182.26486 171.59375Q181.38986 171.59375 180.81174 172.17188Q180.24924 172.75 180.24924 173.60938ZM186.99924 173.875L188.29611 173.76562Q188.43674 174.70312 188.95236 175.1875Q189.48361 175.65625 190.21799 175.65625Q191.10861 175.65625 191.71799 174.98438Q192.34299 174.3125 192.34299 173.21875Q192.34299 172.15625 191.74924 171.54688Q191.15549 170.9375 190.20236 170.9375Q189.60861 170.9375 189.12424 171.21875Q188.65549 171.48438 188.37424 171.90625L187.21799 171.76562L188.18674 166.60938L193.17111 166.60938L193.17111 167.79688L189.17111 167.79688L188.63986 170.48438Q189.54611 169.85938 190.53049 169.85938Q191.84299 169.85938 192.73361 170.76562Q193.63986 171.67188 193.63986 173.10938Q193.63986 174.46875 192.85861 175.45312Q191.88986 176.67188 190.21799 176.67188Q188.85861 176.67188 187.98361 175.90625Q187.12424 175.14062 186.99924 173.875Z" fill-rule="nonzero"/><path fill="#1a1a1a" clip-path="url(#id_0)" d="M180.88986 171.0625Q180.12424 170.78125 179.74924 170.26562Q179.38986 169.75 179.38986 169.01562Q179.38986 167.92188 180.17111 167.1875Q180.96799 166.4375 182.26486 166.4375Q183.57736 166.4375 184.37424 167.20312Q185.18674 167.96875 185.18674 169.0625Q185.18674 169.75 184.81174 170.26562Q184.45236 170.78125 183.70236 171.0625Q184.62424 171.35938 185.10861 172.03125Q185.59299 172.70312 185.59299 173.64062Q185.59299 174.92188 184.68674 175.79688Q183.78049 176.67188 182.29611 176.67188Q180.81174 176.67188 179.88986 175.79688Q178.98361 174.90625 178.98361 173.59375Q178.98361 172.625 179.48361 171.96875Q179.98361 171.29688 180.88986 171.0625ZM180.65549 168.98438Q180.65549 169.6875 181.10861 170.14062Q181.56174 170.59375 182.29611 170.59375Q183.01486 170.59375 183.46799 170.15625Q183.92111 169.70312 183.92111 169.04688Q183.92111 168.375 183.45236 167.92188Q182.98361 167.45312 182.28049 167.45312Q181.57736 167.45312 181.10861 167.90625Q180.65549 168.34375 180.65549 168.98438ZM180.24924 173.60938Q180.24924 174.14062 180.49924 174.64062Q180.74924 175.125 181.23361 175.39062Q181.73361 175.65625 182.31174 175.65625Q183.18674 175.65625 183.74924 175.09375Q184.32736 174.53125 184.32736 173.65625Q184.32736 172.76562 183.73361 172.1875Q183.15549 171.59375 182.26486 171.59375Q181.38986 171.59375 180.81174 172.17188Q180.24924 172.75 180.24924 173.60938ZM186.99924 173.875L188.29611 173.76562Q188.43674 174.70312 188.95236 175.1875Q189.48361 175.65625 190.21799 175.65625Q191.10861 175.65625 191.71799 174.98438Q192.34299 174.3125 192.34299 173.21875Q192.34299 172.15625 191.74924 171.54688Q191.15549 170.9375 190.20236 170.9375Q189.60861 170.9375 189.12424 171.21875Q188.65549 171.48438 188.37424 171.90625L187.21799 171.76562L188.18674 166.60938L193.17111 166.60938L193.17111 167.79688L189.17111 167.79688L188.63986 170.48438Q189.54611 169.85938 190.53049 169.85938Q191.84299 169.85938 192.73361 170.76562Q193.63986 171.67188 193.63986 173.10938Q193.63986 174.46875 192.85861 175.45312Q191.88986 176.67188 190.21799 176.67188Q188.85861 176.67188 187.98361 175.90625Q187.12424 175.14062 186.99924 173.875Z" fill-rule="nonzero"/><path stroke="#ffffff" stroke-width="3.0" stroke-linejoin="round" stroke-linecap="round" clip-path="url(#id_0)" d="M179.63986 29.8L178.40549 29.8L178.40549 21.95625Q177.96799 22.378124 177.23361 22.815624Q176.51486 23.2375 175.95236 23.440624L175.95236 22.253124Q176.98361 21.76875 177.74924 21.08125Q178.53049 20.39375 178.84299 19.7375L179.63986 19.7375L179.63986 29.8ZM189.38986 22.2375L188.17111 22.33125Q187.99924 21.596874 187.70236 21.26875Q187.20236 20.753124 186.46799 20.753124Q185.87424 20.753124 185.43674 21.08125Q184.85861 21.503124 184.51486 22.315624Q184.18674 23.128124 184.17111 24.628124Q184.60861 23.95625 185.24924 23.628124Q185.90549 23.3 186.60861 23.3Q187.84299 23.3 188.70236 24.20625Q189.56174 25.1125 189.56174 26.55Q189.56174 27.4875 189.15549 28.3Q188.74924 29.1125 188.03049 29.55Q187.32736 29.971874 186.42111 29.971874Q184.88986 29.971874 183.92111 28.846874Q182.95236 27.70625 182.95236 25.1125Q182.95236 22.20625 184.01486 20.878124Q184.95236 19.7375 186.54611 19.7375Q187.73361 19.7375 188.48361 20.409374Q189.23361 21.065624 189.38986 22.2375ZM184.35861 26.55Q184.35861 27.190624 184.62424 27.76875Q184.90549 28.346874 185.38986 28.659374Q185.87424 28.95625 186.40549 28.95625Q187.18674 28.95625 187.74924 28.33125Q188.31174 27.70625 188.31174 26.628124Q188.31174 25.58125 187.74924 24.9875Q187.20236 24.378124 186.35861 24.378124Q185.53049 24.378124 184.93674 24.9875Q184.35861 25.58125 184.35861 26.55ZM194.95236 29.8L194.95236 27.39375L190.59299 27.39375L190.59299 26.26875L195.17111 19.784374L196.17111 19.784374L196.17111 26.26875L197.53049 26.26875L197.53049 27.39375L196.17111 27.39375L196.17111 29.8L194.95236 29.8ZM194.95236 26.26875L194.95236 21.753124L191.81174 26.26875L194.95236 26.26875Z" fill-rule="nonzero"/><path fill="#1a1a1a" clip-path="url(#id_0)" d="M179.63986 29.8L178.40549 29.8L178.40549 21.95625Q177.96799 22.378124 177.23361 22.815624Q176.51486 23.2375 175.95236 23.440624L175.95236 22.253124Q176.98361 21.76875 177.74924 21.08125Q178.53049 20.39375 178.84299 19.7375L179.63986 19.7375L179.63986 29.8ZM189.38986 22.2375L188.17111 22.33125Q187.99924 21.596874 187.70236 21.26875Q187.20236 20.753124 186.46799 20.753124Q185.87424 20.753124 185.43674 21.08125Q184.85861 21.503124 184.51486 22.315624Q184.18674 23.128124 184.17111 24.628124Q184.60861 23.95625 185.24924 23.628124Q185.90549 23.3 186.60861 23.3Q187.84299 23.3 188.70236 24.20625Q189.56174 25.1125 189.56174 26.55Q189.56174 27.4875 189.15549 28.3Q188.74924 29.1125 188.03049 29.55Q187.32736 29.971874 186.42111 29.971874Q184.88986 29.971874 183.92111 28.846874Q182.95236 27.70625 182.95236 25.1125Q182.95236 22.20625 184.01486 20.878124Q184.95236 19.7375 186.54611 19.7375Q187.73361 19.7375 188.48361 20.409374Q189.23361 21.065624 189.38986 22.2375ZM184.35861 26.55Q184.35861 27.190624 184.62424 27.76875Q184.90549 28.346874 185.38986 28.659374Q185.87424 28.95625 186.40549 28.95625Q187.18674 28.95625 187.74924 28.33125Q188.31174 27.70625 188.31174 26.628124Q188.31174 25.58125 187.74924 24.9875Q187.20236 24.378124 186.35861 24.378124Q185.53049 24.378124 184.93674 24.9875Q184.35861 25.58125 184.35861 26.55ZM194.95236 29.8L194.95236 27.39375L190.59299 27.39375L190.59299 26.26875L195.17111 19.784374L196.17111 19.784374L196.17111 26.26875L197.53049 26.26875L197.53049 27.39375L196.17111 27.39375L196.17111 29.8L194.95236 29.8ZM194.95236 26.26875L194.95236 21.753124L191.81174 26.26875L194.95236 26.26875Z" fill-rule="nonzero"/><path stroke="#ffffff" stroke-width="3.0" stroke-linejoin="round" stroke-linecap="round" clip-path="url(#id_0)" d="M290.01685 311.7574L291.2356 311.5855Q291.45435 312.6324 291.95435 313.10114Q292.46997 313.55426 293.20435 313.55426Q294.07935 313.55426 294.6731 312.9605Q295.26685 312.35114 295.26685 311.4605Q295.26685 310.61676 294.70435 310.0699Q294.15747 309.523 293.31372 309.523Q292.95435 309.523 292.43872 309.648L292.57935 308.5699Q292.70435 308.5855 292.76685 308.5855Q293.56372 308.5855 294.18872 308.17926Q294.81372 307.773 294.81372 306.91364Q294.81372 306.24176 294.3606 305.80426Q293.90747 305.35114 293.1731 305.35114Q292.45435 305.35114 291.96997 305.80426Q291.50122 306.24176 291.3606 307.148L290.14185 306.92926Q290.3606 305.6949 291.15747 305.023Q291.95435 304.3355 293.14185 304.3355Q293.96997 304.3355 294.65747 304.6949Q295.34497 305.03864 295.70435 305.648Q296.07935 306.2574 296.07935 306.9449Q296.07935 307.5855 295.7356 308.11676Q295.39185 308.648 294.70435 308.97614Q295.59497 309.17926 296.07935 309.8199Q296.57935 310.4605 296.57935 311.4449Q296.57935 312.7574 295.6106 313.66364Q294.65747 314.5699 293.20435 314.5699Q291.87622 314.5699 291.00122 313.78864Q290.14185 313.0074 290.01685 311.7574ZM304.46997 313.2105L304.46997 314.398L297.84497 314.398Q297.82935 313.9605 297.9856 313.53864Q298.25122 312.86676 298.7981 312.2105Q299.3606 311.55426 300.40747 310.6949Q302.0481 309.35114 302.6106 308.5699Q303.18872 307.78864 303.18872 307.0855Q303.18872 306.35114 302.65747 305.85114Q302.14185 305.35114 301.31372 305.35114Q300.4231 305.35114 299.87622 305.8824Q299.34497 306.41364 299.34497 307.36676L298.07935 307.22614Q298.20435 305.8199 299.0481 305.0855Q299.90747 304.3355 301.32935 304.3355Q302.78247 304.3355 303.6106 305.1324Q304.45435 305.92926 304.45435 307.11676Q304.45435 307.72614 304.20435 308.30426Q303.96997 308.8824 303.39185 309.523Q302.82935 310.16364 301.50122 311.28864Q300.39185 312.2105 300.07935 312.55426Q299.76685 312.8824 299.56372 313.2105L304.46997 313.2105Z" fill-rule="nonzero"/><path fill="#1a1a1a" clip-path="url(#id_0)" d="M290.01685 311.7574L291.2356 311.5855Q291.45435 312.6324 291.95435 313.10114Q292.46997 313.55426 293.20435 313.55426Q294.07935 313.55426 294.6731 312.9605Q295.26685 312.35114 295.26685 311.4605Q295.26685 310.61676 294.70435 310.0699Q294.15747 309.523 293.31372 309.523Q292.95435 309.523 292.43872 309.648L292.57935 308.5699Q292.70435 308.5855 292.76685 308.5855Q293.56372 308.5855 294.18872 308.17926Q294.81372 307.773 294.81372 306.91364Q294.81372 306.24176 294.3606 305.80426Q293.90747 305.35114 293.1731 305.35114Q292.45435 305.35114 291.96997 305.80426Q291.50122 306.24176 291.3606 307.148L290.14185 306.92926Q290.3606 305.6949 291.15747 305.023Q291.95435 304.3355 293.14185 304.3355Q293.96997 304.3355 294.65747 304.6949Q295.34497 305.03864 295.70435 305.648Q296.07935 306.2574 296.07935 306.9449Q296.07935 307.5855 295.7356 308.11676Q295.39185 308.648 294.70435 308.97614Q295.59497 309.17926 296.07935 309.8199Q296.57935 310.4605 296.57935 311.4449Q296.57935 312.7574 295.6106 313.66364Q294.65747 314.5699 293.20435 314.5699Q291.87622 314.5699 291.00122 313.78864Q290.14185 313.0074 290.01685 311.7574ZM304.46997 313.2105L304.46997 314.398L297.84497 314.398Q297.82935 313.9605 297.9856 313.53864Q298.25122 312.86676 298.7981 312.2105Q299.3606 311.55426 300.40747 310.6949Q302.0481 309.35114 302.6106 308.5699Q303.18872 307.78864 303.18872 307.0855Q303.18872 306.35114 302.65747 305.85114Q302.14185 305.35114 301.31372 305.35114Q300.4231 305.35114 299.87622 305.8824Q299.34497 306.41364 299.34497 307.36676L298.07935 307.22614Q298.20435 305.8199 299.0481 305.0855Q299.90747 304.3355 301.32935 304.3355Q302.78247 304.3355 303.6106 305.1324Q304.45435 305.92926 304.45435 307.11676Q304.45435 307.72614 304.20435 308.30426Q303.96997 308.8824 303.39185 309.523Q302.82935 310.16364 301.50122 311.28864Q300.39185 312.2105 300.07935 312.55426Q299.76685 312.8824 299.56372 313.2105L304.46997 313.2105Z" fill-rule="nonzero"/><path stroke="#ffffff" stroke-width="3.0" stroke-linejoin="round" stroke-linecap="round" clip-path="url(#id_0)" d="M290.64185 235.18L289.40747 235.18L289.40747 227.33624Q288.96997 227.75812 288.2356 228.19562Q287.51685 228.6175 286.95435 228.82062L286.95435 227.63312Q287.9856 227.14874 288.75122 226.46124Q289.53247 225.77374 289.84497 225.1175L290.64185 225.1175L290.64185 235.18ZM294.00122 232.555L295.2981 232.44562Q295.43872 233.38312 295.95435 233.8675Q296.4856 234.33624 297.21997 234.33624Q298.1106 234.33624 298.71997 233.66437Q299.34497 232.9925 299.34497 231.89874Q299.34497 230.83624 298.75122 230.22687Q298.15747 229.6175 297.20435 229.6175Q296.6106 229.6175 296.12622 229.89874Q295.65747 230.16437 295.37622 230.58624L294.21997 230.44562L295.18872 225.28937L300.1731 225.28937L300.1731 226.47687L296.1731 226.47687L295.64185 229.16437Q296.5481 228.53937 297.53247 228.53937Q298.84497 228.53937 299.7356 229.44562Q300.64185 230.35187 300.64185 231.78937Q300.64185 233.14874 299.8606 234.13312Q298.89185 235.35187 297.21997 235.35187Q295.8606 235.35187 294.9856 234.58624Q294.12622 233.82062 294.00122 232.555ZM302.00122 230.2425Q302.00122 228.46124 302.3606 227.38312Q302.7356 226.28937 303.45435 225.71124Q304.1731 225.1175 305.26685 225.1175Q306.07935 225.1175 306.68872 225.44562Q307.2981 225.77374 307.68872 226.38312Q308.09497 226.9925 308.31372 227.8675Q308.53247 228.7425 308.53247 230.2425Q308.53247 232.00812 308.1731 233.08624Q307.81372 234.16437 307.09497 234.75812Q306.37622 235.35187 305.26685 235.35187Q303.82935 235.35187 303.00122 234.305Q302.00122 233.055 302.00122 230.2425ZM303.26685 230.2425Q303.26685 232.71124 303.84497 233.52374Q304.4231 234.33624 305.26685 234.33624Q306.12622 234.33624 306.70435 233.52374Q307.28247 232.69562 307.28247 230.2425Q307.28247 227.75812 306.70435 226.94562Q306.12622 226.13312 305.25122 226.13312Q304.40747 226.13312 303.90747 226.85187Q303.26685 227.77374 303.26685 230.2425Z" fill-rule="nonzero"/><path fill="#1a1a1a" clip-path="url(#id_0)" d="M290.64185 235.18L289.40747 235.18L289.40747 227.33624Q288.96997 227.75812 288.2356 228.19562Q287.51685 228.6175 286.95435 228.82062L286.95435 227.63312Q287.9856 227.14874 288.75122 226.46124Q289.53247 225.77374 289.84497 225.1175L290.64185 225.1175L290.64185 235.18ZM294.00122 232.555L295.2981 232.44562Q295.43872 233.38312 295.95435 233.8675Q296.4856 234.33624 297.21997 234.33624Q298.1106 234.33624 298.71997 233.66437Q299.34497 232.9925 299.34497 231.89874Q299.34497 230.83624 298.75122 230.22687Q298.15747 229.6175 297.20435 229.6175Q296.6106 229.6175 296.12622 229.89874Q295.65747 230.16437 295.37622 230.58624L294.21997 230.44562L295.18872 225.28937L300.1731 225.28937L300.1731 226.47687L296.1731 226.47687L295.64185 229.16437Q296.5481 228.53937 297.53247 228.53937Q298.84497 228.53937 299.7356 229.44562Q300.64185 230.35187 300.64185 231.78937Q300.64185 233.14874 299.8606 234.13312Q298.89185 235.35187 297.21997 235.35187Q295.8606 235.35187 294.9856 234.58624Q294.12622 233.82062 294.00122 232.555ZM302.00122 230.2425Q302.00122 228.46124 302.3606 227.38312Q302.7356 226.28937 303.45435 225.71124Q304.1731 225.1175 305.26685 225.1175Q306.07935 225.1175 306.68872 225.44562Q307.2981 225.77374 307.68872 226.38312Q308.09497 226.9925 308.31372 227.8675Q308.53247 228.7425 308.53247 230.2425Q308.53247 232.00812 308.1731 233.08624Q307.81372 234.16437 307.09497 234.75812Q306.37622 235.35187 305.26685 235.35187Q303.82935 235.35187 303.00122 234.305Q302.00122 233.055 302.00122 230.2425ZM303.26685 230.2425Q303.26685 232.71124 303.84497 233.52374Q304.4231 234.33624 305.26685 234.33624Q306.12622 234.33624 306.70435 233.52374Q307.28247 232.69562 307.28247 230.2425Q307.28247 227.75812 306.70435 226.94562Q306.12622 226.13312 305.25122 226.13312Q304.40747 226.13312 303.90747 226.85187Q303.26685 227.77374 303.26685 230.2425Z" fill-rule="nonzero"/><path stroke="#ffffff" stroke-width="3.0" stroke-linejoin="round" stroke-linecap="round" clip-path="url(#id_0)" d="M513.89575 308.9605Q513.1301 308.67926 512.7551 308.16364Q512.39575 307.648 512.39575 306.91364Q512.39575 305.8199 513.177 305.0855Q513.9739 304.3355 515.27075 304.3355Q516.58325 304.3355 517.3801 305.10114Q518.1926 305.86676 518.1926 306.9605Q518.1926 307.648 517.8176 308.16364Q517.45825 308.67926 516.70825 308.9605Q517.6301 309.2574 518.1145 309.92926Q518.5989 310.60114 518.5989 311.53864Q518.5989 312.8199 517.6926 313.6949Q516.7864 314.5699 515.302 314.5699Q513.8176 314.5699 512.89575 313.6949Q511.9895 312.80426 511.9895 311.49176Q511.9895 310.523 512.4895 309.86676Q512.9895 309.1949 513.89575 308.9605ZM513.6614 306.8824Q513.6614 307.5855 514.1145 308.03864Q514.5676 308.49176 515.302 308.49176Q516.02075 308.49176 516.4739 308.05426Q516.927 307.60114 516.927 306.9449Q516.927 306.273 516.45825 305.8199Q515.9895 305.35114 515.2864 305.35114Q514.58325 305.35114 514.1145 305.80426Q513.6614 306.24176 513.6614 306.8824ZM513.2551 311.5074Q513.2551 312.03864 513.5051 312.53864Q513.7551 313.023 514.2395 313.28864Q514.7395 313.55426 515.3176 313.55426Q516.1926 313.55426 516.7551 312.99176Q517.33325 312.42926 517.33325 311.55426Q517.33325 310.66364 516.7395 310.0855Q516.1614 309.49176 515.27075 309.49176Q514.39575 309.49176 513.8176 310.0699Q513.2551 310.648 513.2551 311.5074ZM520.0051 309.4605Q520.0051 307.67926 520.3645 306.60114Q520.7395 305.5074 521.45825 304.92926Q522.177 304.3355 523.27075 304.3355Q524.08325 304.3355 524.6926 304.66364Q525.302 304.99176 525.6926 305.60114Q526.0989 306.2105 526.3176 307.0855Q526.5364 307.9605 526.5364 309.4605Q526.5364 311.22614 526.177 312.30426Q525.8176 313.3824 525.0989 313.97614Q524.3801 314.5699 523.27075 314.5699Q521.83325 314.5699 521.0051 313.523Q520.0051 312.273 520.0051 309.4605ZM521.27075 309.4605Q521.27075 311.92926 521.8489 312.74176Q522.427 313.55426 523.27075 313.55426Q524.1301 313.55426 524.70825 312.74176Q525.2864 311.91364 525.2864 309.4605Q525.2864 306.97614 524.70825 306.16364Q524.1301 305.35114 523.2551 305.35114Q522.4114 305.35114 521.9114 306.0699Q521.27075 306.99176 521.27075 309.4605Z" fill-rule="nonzero"/><path fill="#1a1a1a" clip-path="url(#id_0)" d="M513.89575 308.9605Q513.1301 308.67926 512.7551 308.16364Q512.39575 307.648 512.39575 306.91364Q512.39575 305.8199 513.177 305.0855Q513.9739 304.3355 515.27075 304.3355Q516.58325 304.3355 517.3801 305.10114Q518.1926 305.86676 518.1926 306.9605Q518.1926 307.648 517.8176 308.16364Q517.45825 308.67926 516.70825 308.9605Q517.6301 309.2574 518.1145 309.92926Q518.5989 310.60114 518.5989 311.53864Q518.5989 312.8199 517.6926 313.6949Q516.7864 314.5699 515.302 314.5699Q513.8176 314.5699 512.89575 313.6949Q511.9895 312.80426 511.9895 311.49176Q511.9895 310.523 512.4895 309.86676Q512.9895 309.1949 513.89575 308.9605ZM513.6614 306.8824Q513.6614 307.5855 514.1145 308.03864Q514.5676 308.49176 515.302 308.49176Q516.02075 308.49176 516.4739 308.05426Q516.927 307.60114 516.927 306.9449Q516.927 306.273 516.45825 305.8199Q515.9895 305.35114 515.2864 305.35114Q514.58325 305.35114 514.1145 305.80426Q513.6614 306.24176 513.6614 306.8824ZM513.2551 311.5074Q513.2551 312.03864 513.5051 312.53864Q513.7551 313.023 514.2395 313.28864Q514.7395 313.55426 515.3176 313.55426Q516.1926 313.55426 516.7551 312.99176Q517.33325 312.42926 517.33325 311.55426Q517.33325 310.66364 516.7395 310.0855Q516.1614 309.49176 515.27075 309.49176Q514.39575 309.49176 513.8176 310.0699Q513.2551 310.648 513.2551 311.5074ZM520.0051 309.4605Q520.0051 307.67926 520.3645 306.60114Q520.7395 305.5074 521.45825 304.92926Q522.177 304.3355 523.27075 304.3355Q524.08325 304.3355 524.6926 304.66364Q525.302 304.99176 525.6926 305.60114Q526.0989 306.2105 526.3176 307.0855Q526.5364 307.9605 526.5364 309.4605Q526.5364 311.22614 526.177 312.30426Q525.8176 313.3824 525.0989 313.97614Q524.3801 314.5699 523.27075 314.5699Q521.83325 314.5699 521.0051 313.523Q520.0051 312.273 520.0051 309.4605ZM521.27075 309.4605Q521.27075 311.92926 521.8489 312.74176Q522.427 313.55426 523.27075 313.55426Q524.1301 313.55426 524.70825 312.74176Q525.2864 311.91364 525.2864 309.4605Q525.2864 306.97614 524.70825 306.16364Q524.1301 305.35114 523.2551 305.35114Q522.4114 305.35114 521.9114 306.0699Q521.27075 306.99176 521.27075 309.4605Z" fill-rule="nonzero"/><path fill="#000000" d="M32.3 317.96564Q32.3 316.4344 32.6125 315.5125Q32.925 314.575 33.534374 314.075Q34.159374 313.575 35.096874 313.575Q35.784374 313.575 36.3 313.85626Q36.83125 314.1375 37.175 314.66876Q37.51875 315.1844 37.70625 315.9344Q37.89375 316.6844 37.89375 317.96564Q37.89375 319.48126 37.58125 320.40314Q37.284374 321.325 36.659374 321.84064Q36.05 322.34064 35.096874 322.34064Q33.8625 322.34064 33.14375 321.45Q32.3 320.3875 32.3 317.96564ZM33.378124 317.96564Q33.378124 320.075 33.878124 320.77814Q34.378124 321.48126 35.096874 321.48126Q35.83125 321.48126 36.315624 320.77814Q36.815624 320.075 36.815624 317.96564Q36.815624 315.84064 36.315624 315.15314Q35.83125 314.45 35.08125 314.45Q34.3625 314.45 33.925 315.0594Q33.378124 315.84064 33.378124 317.96564Z" fill-rule="nonzero"/><path fill="#000000" d="M30.846874 247.83438L30.846874 248.85L25.159374 248.85Q25.159374 248.475 25.284374 248.11563Q25.503124 247.5375 25.971874 246.975Q26.45625 246.4125 27.3625 245.67813Q28.76875 244.52188 29.253124 243.85Q29.753124 243.17813 29.753124 242.58438Q29.753124 241.95938 29.3 241.5375Q28.846874 241.1 28.128124 241.1Q27.3625 241.1 26.909374 241.55313Q26.45625 242.00626 26.440624 242.81876L25.3625 242.70938Q25.471874 241.49063 26.190624 240.86563Q26.925 240.225 28.159374 240.225Q29.39375 240.225 30.1125 240.9125Q30.83125 241.6 30.83125 242.61563Q30.83125 243.13126 30.6125 243.63126Q30.409374 244.11563 29.909374 244.67813Q29.425 245.225 28.3 246.17813Q27.346874 246.975 27.065624 247.27188Q26.8 247.55313 26.628124 247.83438L30.846874 247.83438ZM32.3 246.6L33.409374 246.50626Q33.534374 247.31876 33.971874 247.725Q34.425 248.13126 35.065624 248.13126Q35.815624 248.13126 36.346874 247.55313Q36.878124 246.975 36.878124 246.0375Q36.878124 245.13126 36.3625 244.61563Q35.8625 244.08438 35.034374 244.08438Q34.534374 244.08438 34.1125 244.31876Q33.70625 244.55313 33.471874 244.9125L32.4875 244.7875L33.315624 240.38126L37.596874 240.38126L37.596874 241.38126L34.159374 241.38126L33.70625 243.69376Q34.471874 243.14688 35.315624 243.14688Q36.440624 243.14688 37.20625 243.92813Q37.9875 244.70938 37.9875 245.94376Q37.9875 247.1 37.315624 247.95938Q36.4875 248.99063 35.065624 248.99063Q33.89375 248.99063 33.14375 248.33438Q32.409374 247.67813 32.3 246.6Z" fill-rule="nonzero"/><path fill="#000000" d="M25.3 173.25L26.409374 173.15625Q26.534374 173.96875 26.971874 174.375Q27.425 174.78125 28.065624 174.78125Q28.815624 174.78125 29.346874 174.20312Q29.878124 173.625 29.878124 172.6875Q29.878124 171.78125 29.3625 171.26562Q28.8625 170.73438 28.034374 170.73438Q27.534374 170.73438 27.1125 170.96875Q26.70625 171.20312 26.471874 171.5625L25.4875 171.4375L26.315624 167.03125L30.596874 167.03125L30.596874 168.03125L27.159374 168.03125L26.70625 170.34375Q27.471874 169.79688 28.315624 169.79688Q29.440624 169.79688 30.20625 170.57812Q30.9875 171.35938 30.9875 172.59375Q30.9875 173.75 30.315624 174.60938Q29.4875 175.64062 28.065624 175.64062Q26.89375 175.64062 26.14375 174.98438Q25.409374 174.32812 25.3 173.25ZM32.3 171.26562Q32.3 169.73438 32.6125 168.8125Q32.925 167.875 33.534374 167.375Q34.159374 166.875 35.096874 166.875Q35.784374 166.875 36.3 167.15625Q36.83125 167.4375 37.175 167.96875Q37.51875 168.48438 37.70625 169.23438Q37.89375 169.98438 37.89375 171.26562Q37.89375 172.78125 37.58125 173.70312Q37.284374 174.625 36.659374 175.14062Q36.05 175.64062 35.096874 175.64062Q33.8625 175.64062 33.14375 174.75Q32.3 173.6875 32.3 171.26562ZM33.378124 171.26562Q33.378124 173.375 33.878124 174.07812Q34.378124 174.78125 35.096874 174.78125Q35.83125 174.78125 36.315624 174.07812Q36.815624 173.375 36.815624 171.26562Q36.815624 169.14062 36.315624 168.45312Q35.83125 167.75 35.08125 167.75Q34.3625 167.75 33.925 168.35938Q33.378124 169.14062 33.378124 171.26562Z" fill-rule="nonzero"/><path fill="#000000" d="M25.3625 94.68125L25.3625 93.66563L30.925 93.66563L30.925 94.49375Q30.1125 95.36875 29.3 96.82188Q28.503124 98.25938 28.065624 99.79063Q27.7375 100.86875 27.659374 102.15L26.565624 102.15Q26.58125 101.13438 26.95625 99.69688Q27.346874 98.25938 28.05 96.93125Q28.76875 95.60313 29.58125 94.68125L25.3625 94.68125ZM32.3 99.9L33.409374 99.80625Q33.534374 100.61875 33.971874 101.025Q34.425 101.43125 35.065624 101.43125Q35.815624 101.43125 36.346874 100.85313Q36.878124 100.275 36.878124 99.3375Q36.878124 98.43125 36.3625 97.91563Q35.8625 97.38438 35.034374 97.38438Q34.534374 97.38438 34.1125 97.61875Q33.70625 97.85313 33.471874 98.2125L32.4875 98.0875L33.315624 93.68125L37.596874 93.68125L37.596874 94.68125L34.159374 94.68125L33.70625 96.99375Q34.471874 96.44688 35.315624 96.44688Q36.440624 96.44688 37.20625 97.22813Q37.9875 98.00938 37.9875 99.24375Q37.9875 100.4 37.315624 101.25938Q36.4875 102.29063 35.065624 102.29063Q33.89375 102.29063 33.14375 101.63438Q32.409374 100.97813 32.3 99.9Z" fill-rule="nonzero"/><path fill="#000000" d="M22.26875 28.8L21.221874 28.8L21.221874 22.08125Q20.83125 22.440624 20.20625 22.815624Q19.596874 23.175 19.1125 23.346874L19.1125 22.33125Q19.9875 21.909374 20.64375 21.33125Q21.315624 20.7375 21.596874 20.175L22.26875 20.175L22.26875 28.8ZM25.3 24.565624Q25.3 23.034374 25.6125 22.1125Q25.925 21.175 26.534374 20.675Q27.159374 20.175 28.096874 20.175Q28.784374 20.175 29.3 20.45625Q29.83125 20.7375 30.175 21.26875Q30.51875 21.784374 30.70625 22.534374Q30.89375 23.284374 30.89375 24.565624Q30.89375 26.08125 30.58125 27.003124Q30.284374 27.925 29.659374 28.440624Q29.05 28.940624 28.096874 28.940624Q26.8625 28.940624 26.14375 28.05Q25.3 26.9875 25.3 24.565624ZM26.378124 24.565624Q26.378124 26.675 26.878124 27.378124Q27.378124 28.08125 28.096874 28.08125Q28.83125 28.08125 29.315624 27.378124Q29.815624 26.675 29.815624 24.565624Q29.815624 22.440624 29.315624 21.753124Q28.83125 21.05 28.08125 21.05Q27.3625 21.05 26.925 21.659374Q26.378124 22.440624 26.378124 24.565624ZM32.3 24.565624Q32.3 23.034374 32.6125 22.1125Q32.925 21.175 33.534374 20.675Q34.159374 20.175 35.096874 20.175Q35.784374 20.175 36.3 20.45625Q36.83125 20.7375 37.175 21.26875Q37.51875 21.784374 37.70625 22.534374Q37.89375 23.284374 37.89375 24.565624Q37.89375 26.08125 37.58125 27.003124Q37.284374 27.925 36.659374 28.440624Q36.05 28.940624 35.096874 28.940624Q33.8625 28.940624 33.14375 28.05Q32.3 26.9875 32.3 24.565624ZM33.378124 24.565624Q33.378124 26.675 33.878124 27.378124Q34.378124 28.08125 35.096874 28.08125Q35.83125 28.08125 36.315624 27.378124Q36.815624 26.675 36.815624 24.565624Q36.815624 22.440624 36.315624 21.753124Q35.83125 21.05 35.08125 21.05Q34.3625 21.05 33.925 21.659374Q33.378124 22.440624 33.378124 24.565624Z" fill-rule="nonzero"/><path fill="#000000" d="M72.41916 330.96564Q72.41916 329.4344 72.73166 328.5125Q73.04416 327.575 73.653534 327.075Q74.278534 326.575 75.216034 326.575Q75.903534 326.575 76.41916 326.85626Q76.95041 327.1375 77.29416 327.66876Q77.63791 328.1844 77.82541 328.9344Q78.01291 329.6844 78.01291 330.96564Q78.01291 332.48126 77.70041 333.40314Q77.403534 334.325 76.778534 334.84064Q76.16916 335.34064 75.216034 335.34064Q73.98166 335.34064 73.26291 334.45Q72.41916 333.3875 72.41916 330.96564ZM73.497284 330.96564Q73.497284 333.075 73.997284 333.77814Q74.497284 334.48126 75.216034 334.48126Q75.95041 334.48126 76.434784 333.77814Q76.934784 333.075 76.934784 330.96564Q76.934784 328.84064 76.434784 328.15314Q75.95041 327.45 75.20041 327.45Q74.48166 327.45 74.04416 328.0594Q73.497284 328.84064 73.497284 330.96564Z" fill-rule="nonzero"/><path fill="#000000" d="M173.8195 332.95L174.92888 332.85626Q175.05388 333.66876 175.49138 334.075Q175.9445 334.48126 176.58513 334.48126Q177.33513 334.48126 177.86638 333.90314Q178.39763 333.325 178.39763 332.3875Q178.39763 331.48126 177.882 330.96564Q177.382 330.4344 176.55388 330.4344Q176.05388 330.4344 175.632 330.66876Q175.22575 330.90314 174.99138 331.2625L174.007 331.1375L174.83513 326.73126L179.11638 326.73126L179.11638 327.73126L175.67888 327.73126L175.22575 330.04376Q175.99138 329.4969 176.83513 329.4969Q177.96013 329.4969 178.72575 330.27814Q179.507 331.0594 179.507 332.29376Q179.507 333.45 178.83513 334.3094Q178.007 335.34064 176.58513 335.34064Q175.41325 335.34064 174.66325 334.6844Q173.92888 334.02814 173.8195 332.95ZM180.8195 330.96564Q180.8195 329.4344 181.132 328.5125Q181.4445 327.575 182.05388 327.075Q182.67888 326.575 183.61638 326.575Q184.30388 326.575 184.8195 326.85626Q185.35075 327.1375 185.6945 327.66876Q186.03825 328.1844 186.22575 328.9344Q186.41325 329.6844 186.41325 330.96564Q186.41325 332.48126 186.10075 333.40314Q185.80388 334.325 185.17888 334.84064Q184.5695 335.34064 183.61638 335.34064Q182.382 335.34064 181.66325 334.45Q180.8195 333.3875 180.8195 330.96564ZM181.89763 330.96564Q181.89763 333.075 182.39763 333.77814Q182.89763 334.48126 183.61638 334.48126Q184.35075 334.48126 184.83513 333.77814Q185.33513 333.075 185.33513 330.96564Q185.33513 328.84064 184.83513 328.15314Q184.35075 327.45 183.60075 327.45Q182.882 327.45 182.4445 328.0594Q181.89763 328.84064 181.89763 330.96564ZM187.8195 330.96564Q187.8195 329.4344 188.132 328.5125Q188.4445 327.575 189.05388 327.075Q189.67888 326.575 190.61638 326.575Q191.30388 326.575 191.8195 326.85626Q192.35075 327.1375 192.6945 327.66876Q193.03825 328.1844 193.22575 328.9344Q193.41325 329.6844 193.41325 330.96564Q193.41325 332.48126 193.10075 333.40314Q192.80388 334.325 192.17888 334.84064Q191.5695 335.34064 190.61638 335.34064Q189.382 335.34064 188.66325 334.45Q187.8195 333.3875 187.8195 330.96564ZM188.89763 330.96564Q188.89763 333.075 189.39763 333.77814Q189.89763 334.48126 190.61638 334.48126Q191.35075 334.48126 191.83513 333.77814Q192.33513 333.075 192.33513 330.96564Q192.33513 328.84064 191.83513 328.15314Q191.35075 327.45 190.60075 327.45Q189.882 327.45 189.4445 328.0594Q188.89763 328.84064 188.89763 330.96564Z" fill-rule="nonzero"/><path fill="#000000" d="M282.68863 335.2L281.64175 335.2L281.64175 328.48126Q281.25113 328.84064 280.62613 329.21564Q280.01675 329.575 279.53238 329.7469L279.53238 328.73126Q280.40738 328.3094 281.06363 327.73126Q281.7355 327.1375 282.01675 326.575L282.68863 326.575L282.68863 335.2ZM285.71988 330.96564Q285.71988 329.4344 286.03238 328.5125Q286.34488 327.575 286.95425 327.075Q287.57925 326.575 288.51675 326.575Q289.20425 326.575 289.71988 326.85626Q290.25113 327.1375 290.59488 327.66876Q290.93863 328.1844 291.12613 328.9344Q291.31363 329.6844 291.31363 330.96564Q291.31363 332.48126 291.00113 333.40314Q290.70425 334.325 290.07925 334.84064Q289.46988 335.34064 288.51675 335.34064Q287.28238 335.34064 286.56363 334.45Q285.71988 333.3875 285.71988 330.96564ZM286.798 330.96564Q286.798 333.075 287.298 333.77814Q287.798 334.48126 288.51675 334.48126Q289.25113 334.48126 289.7355 333.77814Q290.2355 333.075 290.2355 330.96564Q290.2355 328.84064 289.7355 328.15314Q289.25113 327.45 288.50113 327.45Q287.78238 327.45 287.34488 328.0594Q286.798 328.84064 286.798 330.96564ZM292.71988 330.96564Q292.71988 329.4344 293.03238 328.5125Q293.34488 327.575 293.95425 327.075Q294.57925 326.575 295.51675 326.575Q296.20425 326.575 296.71988 326.85626Q297.25113 327.1375 297.59488 327.66876Q297.93863 328.1844 298.12613 328.9344Q298.31363 329.6844 298.31363 330.96564Q298.31363 332.48126 298.00113 333.40314Q297.70425 334.325 297.07925 334.84064Q296.46988 335.34064 295.51675 335.34064Q294.28238 335.34064 293.56363 334.45Q292.71988 333.3875 292.71988 330.96564ZM293.798 330.96564Q293.798 333.075 294.298 333.77814Q294.798 334.48126 295.51675 334.48126Q296.25113 334.48126 296.7355 333.77814Q297.2355 333.075 297.2355 330.96564Q297.2355 328.84064 296.7355 328.15314Q296.25113 327.45 295.50113 327.45Q294.78238 327.45 294.34488 328.0594Q293.798 328.84064 293.798 330.96564ZM299.71988 330.96564Q299.71988 329.4344 300.03238 328.5125Q300.34488 327.575 300.95425 327.075Q301.57925 326.575 302.51675 326.575Q303.20425 326.575 303.71988 326.85626Q304.25113 327.1375 304.59488 327.66876Q304.93863 328.1844 305.12613 328.9344Q305.31363 329.6844 305.31363 330.96564Q305.31363 332.48126 305.00113 333.40314Q304.70425 334.325 304.07925 334.84064Q303.46988 335.34064 302.51675 335.34064Q301.28238 335.34064 300.56363 334.45Q299.71988 333.3875 299.71988 330.96564ZM300.798 330.96564Q300.798 333.075 301.298 333.77814Q301.798 334.48126 302.51675 334.48126Q303.25113 334.48126 303.7355 333.77814Q304.2355 333.075 304.2355 330.96564Q304.2355 328.84064 303.7355 328.15314Q303.25113 327.45 302.50113 327.45Q301.78238 327.45 301.34488 328.0594Q300.798 328.84064 300.798 330.96564Z" fill-rule="nonzero"/><path fill="#000000" d="M391.08896 335.2L390.04208 335.2L390.04208 328.48126Q389.65146 328.84064 389.02646 329.21564Q388.41708 329.575 387.9327 329.7469L387.9327 328.73126Q388.8077 328.3094 389.46396 327.73126Q390.13583 327.1375 390.41708 326.575L391.08896 326.575L391.08896 335.2ZM394.1202 332.95L395.22958 332.85626Q395.35458 333.66876 395.79208 334.075Q396.2452 334.48126 396.88583 334.48126Q397.63583 334.48126 398.16708 333.90314Q398.69833 333.325 398.69833 332.3875Q398.69833 331.48126 398.1827 330.96564Q397.6827 330.4344 396.85458 330.4344Q396.35458 330.4344 395.9327 330.66876Q395.52646 330.90314 395.29208 331.2625L394.3077 331.1375L395.13583 326.73126L399.41708 326.73126L399.41708 327.73126L395.97958 327.73126L395.52646 330.04376Q396.29208 329.4969 397.13583 329.4969Q398.26083 329.4969 399.02646 330.27814Q399.8077 331.0594 399.8077 332.29376Q399.8077 333.45 399.13583 334.3094Q398.3077 335.34064 396.88583 335.34064Q395.71396 335.34064 394.96396 334.6844Q394.22958 334.02814 394.1202 332.95ZM401.1202 330.96564Q401.1202 329.4344 401.4327 328.5125Q401.7452 327.575 402.35458 327.075Q402.97958 326.575 403.91708 326.575Q404.60458 326.575 405.1202 326.85626Q405.65146 327.1375 405.9952 327.66876Q406.33896 328.1844 406.52646 328.9344Q406.71396 329.6844 406.71396 330.96564Q406.71396 332.48126 406.40146 333.40314Q406.10458 334.325 405.47958 334.84064Q404.8702 335.34064 403.91708 335.34064Q402.6827 335.34064 401.96396 334.45Q401.1202 333.3875 401.1202 330.96564ZM402.19833 330.96564Q402.19833 333.075 402.69833 333.77814Q403.19833 334.48126 403.91708 334.48126Q404.65146 334.48126 405.13583 333.77814Q405.63583 333.075 405.63583 330.96564Q405.63583 328.84064 405.13583 328.15314Q404.65146 327.45 403.90146 327.45Q403.1827 327.45 402.7452 328.0594Q402.19833 328.84064 402.19833 330.96564ZM408.1202 330.96564Q408.1202 329.4344 408.4327 328.5125Q408.7452 327.575 409.35458 327.075Q409.97958 326.575 410.91708 326.575Q411.60458 326.575 412.1202 326.85626Q412.65146 327.1375 412.9952 327.66876Q413.33896 328.1844 413.52646 328.9344Q413.71396 329.6844 413.71396 330.96564Q413.71396 332.48126 413.40146 333.40314Q413.10458 334.325 412.47958 334.84064Q411.8702 335.34064 410.91708 335.34064Q409.6827 335.34064 408.96396 334.45Q408.1202 333.3875 408.1202 330.96564ZM409.19833 330.96564Q409.19833 333.075 409.69833 333.77814Q410.19833 334.48126 410.91708 334.48126Q411.65146 334.48126 412.13583 333.77814Q412.63583 333.075 412.63583 330.96564Q412.63583 328.84064 412.13583 328.15314Q411.65146 327.45 410.90146 327.45Q410.1827 327.45 409.7452 328.0594Q409.19833 328.84064 409.19833 330.96564Z" fill-rule="nonzero"/><path fill="#000000" d="M501.06744 334.1844L501.06744 335.2L495.37994 335.2Q495.37994 334.825 495.50494 334.46564Q495.7237 333.8875 496.19244 333.325Q496.67682 332.7625 497.58307 332.02814Q498.98932 330.8719 499.4737 330.2Q499.9737 329.52814 499.9737 328.9344Q499.9737 328.3094 499.52057 327.8875Q499.06744 327.45 498.3487 327.45Q497.58307 327.45 497.12994 327.90314Q496.67682 328.35626 496.6612 329.16876L495.58307 329.0594Q495.69244 327.84064 496.4112 327.21564Q497.14557 326.575 498.37994 326.575Q499.61432 326.575 500.33307 327.2625Q501.05182 327.95 501.05182 328.96564Q501.05182 329.48126 500.83307 329.98126Q500.62994 330.46564 500.12994 331.02814Q499.64557 331.575 498.52057 332.52814Q497.56744 333.325 497.2862 333.6219Q497.02057 333.90314 496.8487 334.1844L501.06744 334.1844ZM502.52057 330.96564Q502.52057 329.4344 502.83307 328.5125Q503.14557 327.575 503.75494 327.075Q504.37994 326.575 505.31744 326.575Q506.00494 326.575 506.52057 326.85626Q507.05182 327.1375 507.39557 327.66876Q507.73932 328.1844 507.92682 328.9344Q508.11432 329.6844 508.11432 330.96564Q508.11432 332.48126 507.80182 333.40314Q507.50494 334.325 506.87994 334.84064Q506.27057 335.34064 505.31744 335.34064Q504.08307 335.34064 503.36432 334.45Q502.52057 333.3875 502.52057 330.96564ZM503.5987 330.96564Q503.5987 333.075 504.0987 333.77814Q504.5987 334.48126 505.31744 334.48126Q506.05182 334.48126 506.5362 333.77814Q507.0362 333.075 507.0362 330.96564Q507.0362 328.84064 506.5362 328.15314Q506.05182 327.45 505.30182 327.45Q504.58307 327.45 504.14557 328.0594Q503.5987 328.84064 503.5987 330.96564ZM509.52057 330.96564Q509.52057 329.4344 509.83307 328.5125Q510.14557 327.575 510.75494 327.075Q511.37994 326.575 512.31744 326.575Q513.00494 326.575 513.52057 326.85626Q514.0518 327.1375 514.39557 327.66876Q514.7393 328.1844 514.9268 328.9344Q515.1143 329.6844 515.1143 330.96564Q515.1143 332.48126 514.8018 333.40314Q514.50494 334.325 513.87994 334.84064Q513.27057 335.34064 512.31744 335.34064Q511.08307 335.34064 510.36432 334.45Q509.52057 333.3875 509.52057 330.96564ZM510.5987 330.96564Q510.5987 333.075 511.0987 333.77814Q511.5987 334.48126 512.31744 334.48126Q513.0518 334.48126 513.5362 333.77814Q514.0362 333.075 514.0362 330.96564Q514.0362 328.84064 513.5362 328.15314Q513.0518 327.45 512.3018 327.45Q511.58307 327.45 511.14557 328.0594Q510.5987 328.84064 510.5987 330.96564ZM516.52057 330.96564Q516.52057 329.4344 516.83307 328.5125Q517.14557 327.575 517.75494 327.075Q518.37994 326.575 519.31744 326.575Q520.00494 326.575 520.52057 326.85626Q521.0518 327.1375 521.39557 327.66876Q521.7393 328.1844 521.9268 328.9344Q522.1143 329.6844 522.1143 330.96564Q522.1143 332.48126 521.8018 333.40314Q521.50494 334.325 520.87994 334.84064Q520.27057 335.34064 519.31744 335.34064Q518.08307 335.34064 517.3643 334.45Q516.52057 333.3875 516.52057 330.96564ZM517.5987 330.96564Q517.5987 333.075 518.0987 333.77814Q518.5987 334.48126 519.31744 334.48126Q520.0518 334.48126 520.5362 333.77814Q521.0362 333.075 521.0362 330.96564Q521.0362 328.84064 520.5362 328.15314Q520.0518 327.45 519.3018 327.45Q518.58307 327.45 518.14557 328.0594Q517.5987 328.84064 517.5987 330.96564Z" fill-rule="nonzero"/></svg>