<svg version="1.1" viewBox="0.0 0.0 567.0 351.0" fill="none" stroke="none" stroke-linecap="square" stroke-miterlimit="10" width="567" height="351" xmlns:xlink="http://www.w3.org/1999/xlink" xmlns="http://www.w3.org/2000/svg"><path fill="#ffffff" d="M0 0L567.0 0L567.0 351.0L0 351.0L0 0Z" fill-rule="nonzero"/><path stroke="#333333" stroke-width="1.0" stroke-linecap="butt" d="M53.5 24.5L53.5 313.5" fill-rule="nonzero"/><path stroke="#cccccc" stroke-width="1.0" stroke-linecap="butt" d="M161.5 24.5L161.5 313.5" fill-rule="nonzero"/><path stroke="#cccccc" stroke-width="1.0" stroke-linecap="butt" d="M268.5 24.5L268.5 313.5" fill-rule="nonzero"/><path stroke="#cccccc" stroke-width="1.0" stroke-linecap="butt" d="M375.5 24.5L375.5 313.5" fill-rule="nonzero"/><path stroke="#cccccc" stroke-width="1.0" stroke-linecap="butt" d="M483.5 24.5L483.5 313.5" fill-rule="nonzero"/><path stroke="#e6e6e6" stroke-width="1.0" stroke-linecap="butt" d="M89.5 24.5L89.5 313.5" fill-rule="nonzero"/><path stroke="#e6e6e6" stroke-width="1.0" stroke-linecap="butt" d="M125.5 24.5L125.5 313.5" fill-rule="nonzero"/><path stroke="#e6e6e6" stroke-width="1.0" stroke-linecap="butt" d="M196.5 24.5L196.5 313.5" fill-rule="nonzero"/><path stroke="#e6e6e6" stroke-width="1.0" stroke-linecap="butt" d="M232.5 24.5L232.5 313.5" fill-rule="nonzero"/><path stroke="#e6e6e6" stroke-width="1.0" stroke-linecap="butt" d="M304.5 24.5L304.5 313.5" fill-rule="nonzero"/><path stroke="#e6e6e6" stroke-width="1.0" stroke-linecap="butt" d="M340.5 24.5L340.5 313.5" fill-rule="nonzero"/><path stroke="#e6e6e6" stroke-width="1.0" stroke-linecap="butt" d="M411.5 24.5L411.5 313.5" fill-rule="nonzero"/><path stroke="#e6e6e6" stroke-width="1.0" stroke-linecap="butt" d="M447.5 24.5L447.5 313.5" fill-rule="nonzero"/><path stroke="#e6e6e6" stroke-width="1.0" stroke-linecap="butt" d="M518.5 24.5L518.5 313.5" fill-rule="nonzero"/><path stroke="#333333" stroke-width="1.0" stroke-linecap="butt" d="M44.5 313.5L549.5 313.5" fill-rule="nonzero"/><path stroke="#cccccc" stroke-width="1.0" stroke-linecap="butt" d="M44.5 217.5L549.5 217.5" fill-rule="nonzero"/><path stroke="#cccccc" stroke-width="1.0" stroke-linecap="butt" d="M44.5 120.5L549.5 120.5" fill-rule="nonzero"/><path stroke="#cccccc" stroke-width="1.0" stroke-linecap="butt" d="M44.5 24.5L549.5 24.5" fill-rule="nonzero"/><path stroke="#e6e6e6" stroke-width="1.0" stroke-linecap="butt" d="M44.5 297.5L549.5 297.5" fill-rule="nonzero"/><path stroke="#e6e6e6" stroke-width="1.0" stroke-linecap="butt" d="M44.5 281.5L549.5 281.5" fill-rule="nonzero"/><path stroke="#e6e6e6" stroke-width="1.0" stroke-linecap="butt" d="M44.5 265.5L549.5 265.5" fill-rule="nonzero"/><path stroke="#e6e6e6" stroke-width="1.0" stroke-linecap="butt" d="M44.5 249.5L549.5 249.5" fill-rule="nonzero"/><path stroke="#e6e6e6" stroke-width="1.0" stroke-linecap="butt" d="M44.5 233.5L549.5 233.5" fill-rule="nonzero"/><path stroke="#e6e6e6" stroke-width="1.0" stroke-linecap="butt" d="M44.5 201.5L549.5 201.5" fill-rule="nonzero"/><path stroke="#e6e6e6" stroke-width="1.0" stroke-linecap="butt" d="M44.5 185.5L549.5 185.5" fill-rule="nonzero"/><path stroke="#e6e6e6" stroke-width="1.0" stroke-linecap="butt" d="M44.5 169.5L549.5 169.5" fill-rule="nonzero"/><path stroke="#e6e6e6" stroke-width="1.0" stroke-linecap="butt" d="M44.5 152.5L549.5 152.5" fill-rule="nonzero"/><path stroke="#e6e6e6" stroke-width="1.0" stroke-linecap="butt" d="M44.5 136.5L549.5 136.5" fill-rule="nonzero"/><path stroke="#e6e6e6" stroke-width="1.0" stroke-linecap="butt" d="M44.5 104.5L549.5 104.5" fill-rule="nonzero"/><path stroke="#e6e6e6" stroke-width="1.0" stroke-linecap="butt" d="M44.5 88.5L549.5 88.5" fill-rule="nonzero"/><path stroke="#e6e6e6" stroke-width="1.0" stroke-linecap="butt" d="M44.5 72.5L549.5 72.5" fill-rule="nonzero"/><path stroke="#e6e6e6" stroke-width="1.0" stroke-linecap="butt" d="M44.5 56.5L549.5 56.5" fill-rule="nonzero"/><path stroke="#e6e6e6" stroke-width="1.0" stroke-linecap="butt" d="M44.5 40.5L549.5 40.5" fill-rule="nonzero"/><clipPath id="id_0"><path d="M44.55 24.55L549.45 24.55L549.45 313.45L44.55 313.45L44.55 24.55Z" clip-rule="nonzero"/></clipPath><path fill="#4285f4" fill-opacity="0.8" clip-path="url(#id_0)" d="M60.318848 308.635C60.318848 311.9487 57.632557 314.635 54.318848 314.635C51.00514 314.635 48.318848 311.9487 48.318848 308.635C48.318848 305.3213 51.00514 302.635 54.318848 302.635C57.632557 302.635 60.318848 305.3213 60.318848 308.635Z" fill-rule="nonzero"/><path fill="#ea4335" fill-opacity="0.8" clip-path="url(#id_0)" d="M138.49544 169.0C138.49544 185.38051 125.216415 198.65953 108.83591 198.65953C92.45541 198.65953 79.176384 185.38051 79.176384 169.0C79.176384 152.61949 92.45541 139.34047 108.83591 139.34047C125.216415 139.34047 138.49544 152.61949 138.49544 169.0Z" fill-rule="nonzero"/><path fill="#fbbc04" fill-opacity="0.8" clip-path="url(#id_0)" d="M139.8359 48.625C139.8359 65.74583 125.95673 79.625 108.83591 79.625C91.71508 79.625 77.83591 65.74583 77.83591 48.625C77.83591 31.504173 91.71508 17.625 108.83591 17.625C125.95673 17.625 139.8359 31.504173 139.8359 48.625Z" fill-rule="nonzero"/><path fill="#34a853" fill-opacity="0.8" clip-path="url(#id_0)" d="M194.62546 72.7C194.62546 89.73424 180.81647 103.54321 163.78224 103.54321C146.748 103.54321 132.93903 89.73424 132.93903 72.7C132.93903 55.665764 146.748 41.856785 163.78224 41.856785C180.81647 41.856785 194.62546 55.665764 194.62546 72.7Z" fill-rule="nonzero"/><path fill="#ff6d01" fill-opacity="0.8" clip-path="url(#id_0)" d="M523.1175 169.0C523.1175 185.37929 509.83948 198.65732 493.4602 198.65732C477.08093 198.65732 463.8029 185.37929 463.8029 169.0C463.8029 152.62071 477.08093 139.34268 493.4602 139.34268C509.83948 139.34268 523.1175 152.62071 523.1175 169.0Z" fill-rule="nonzero"/><path stroke="#ffffff" stroke-width="3.0" stroke-linejoin="round" stroke-linecap="round" clip-path="url(#id_0)" d="M44.896973 308.6975Q44.896973 306.91626 45.256348 305.83813Q45.631348 304.7444 46.350098 304.16626Q47.068848 303.5725 48.162598 303.5725Q48.975098 303.5725 49.584473 303.90063Q50.193848 304.22876 50.584473 304.83813Q50.990723 305.4475 51.209473 306.3225Q51.428223 307.1975 51.428223 308.6975Q51.428223 310.46313 51.068848 311.54126Q50.709473 312.6194 49.990723 313.21313Q49.271973 313.8069 48.162598 313.8069Q46.725098 313.8069 45.896973 312.76Q44.896973 311.51 44.896973 308.6975ZM46.162598 308.6975Q46.162598 311.16626 46.740723 311.97876Q47.318848 312.79126 48.162598 312.79126Q49.021973 312.79126 49.600098 311.97876Q50.178223 311.15063 50.178223 308.6975Q50.178223 306.21313 49.600098 305.40063Q49.021973 304.58813 48.146973 304.58813Q47.303223 304.58813 46.803223 305.3069Q46.162598 306.22876 46.162598 308.6975ZM53.131348 306.02563Q53.131348 304.9475 53.662598 304.1975Q54.209473 303.4475 55.240723 303.4475Q56.178223 303.4475 56.787598 304.1194Q57.412598 304.79126 57.412598 306.08813Q57.412598 307.3694 56.787598 308.0569Q56.162598 308.7444 55.256348 308.7444Q54.350098 308.7444 53.740723 308.0725Q53.131348 307.385 53.131348 306.02563ZM55.271973 304.29126Q54.818848 304.29126 54.506348 304.6975Q54.209473 305.08813 54.209473 306.135Q54.209473 307.10376 54.506348 307.4944Q54.818848 307.885 55.271973 307.885Q55.740723 307.885 56.037598 307.4944Q56.350098 307.10376 56.350098 306.04126Q56.350098 305.0725 56.037598 304.6819Q55.725098 304.29126 55.271973 304.29126ZM55.271973 314.01L60.756348 303.4475L61.756348 303.4475L56.303223 314.01L55.271973 314.01ZM59.615723 311.27563Q59.615723 310.1975 60.146973 309.46313Q60.693848 308.71313 61.725098 308.71313Q62.662598 308.71313 63.287598 309.385Q63.912598 310.0569 63.912598 311.35376Q63.912598 312.635 63.287598 313.3225Q62.662598 314.01 61.725098 314.01Q60.818848 314.01 60.209473 313.33813Q59.615723 312.65063 59.615723 311.27563ZM61.756348 309.5569Q61.287598 309.5569 60.990723 309.96313Q60.693848 310.35376 60.693848 311.40063Q60.693848 312.3694 60.990723 312.76Q61.303223 313.15063 61.756348 313.15063Q62.225098 313.15063 62.521973 312.76Q62.834473 312.3694 62.834473 311.3069Q62.834473 310.33813 62.521973 309.9475Q62.225098 309.5569 61.756348 309.5569Z" fill-rule="nonzero"/><path fill="#1a1a1a" clip-path="url(#id_0)" d="M44.896973 308.6975Q44.896973 306.91626 45.256348 305.83813Q45.631348 304.7444 46.350098 304.16626Q47.068848 303.5725 48.162598 303.5725Q48.975098 303.5725 49.584473 303.90063Q50.193848 304.22876 50.584473 304.83813Q50.990723 305.4475 51.209473 306.3225Q51.428223 307.1975 51.428223 308.6975Q51.428223 310.46313 51.068848 311.54126Q50.709473 312.6194 49.990723 313.21313Q49.271973 313.8069 48.162598 313.8069Q46.725098 313.8069 45.896973 312.76Q44.896973 311.51 44.896973 308.6975ZM46.162598 308.6975Q46.162598 311.16626 46.740723 311.97876Q47.318848 312.79126 48.162598 312.79126Q49.021973 312.79126 49.600098 311.97876Q50.178223 311.15063 50.178223 308.6975Q50.178223 306.21313 49.600098 305.40063Q49.021973 304.58813 48.146973 304.58813Q47.303223 304.58813 46.803223 305.3069Q46.162598 306.22876 46.162598 308.6975ZM53.131348 306.02563Q53.131348 304.9475 53.662598 304.1975Q54.209473 303.4475 55.240723 303.4475Q56.178223 303.4475 56.787598 304.1194Q57.412598 304.79126 57.412598 306.08813Q57.412598 307.3694 56.787598 308.0569Q56.162598 308.7444 55.256348 308.7444Q54.350098 308.7444 53.740723 308.0725Q53.131348 307.385 53.131348 306.02563ZM55.271973 304.29126Q54.818848 304.29126 54.506348 304.6975Q54.209473 305.08813 54.209473 306.135Q54.209473 307.10376 54.506348 307.4944Q54.818848 307.885 55.271973 307.885Q55.740723 307.885 56.037598 307.4944Q56.350098 307.10376 56.350098 306.04126Q56.350098 305.0725 56.037598 304.6819Q55.725098 304.29126 55.271973 304.29126ZM55.271973 314.01L60.756348 303.4475L61.756348 303.4475L56.303223 314.01L55.271973 314.01ZM59.615723 311.27563Q59.615723 310.1975 60.146973 309.46313Q60.693848 308.71313 61.725098 308.71313Q62.662598 308.71313 63.287598 309.385Q63.912598 310.0569 63.912598 311.35376Q63.912598 312.635 63.287598 313.3225Q62.662598 314.01 61.725098 314.01Q60.818848 314.01 60.209473 313.33813Q59.615723 312.65063 59.615723 311.27563ZM61.756348 309.5569Q61.287598 309.5569 60.990723 309.96313Q60.693848 310.35376 60.693848 311.40063Q60.693848 312.3694 60.990723 312.76Q61.303223 313.15063 61.756348 313.15063Q62.225098 313.15063 62.521973 312.76Q62.834473 312.3694 62.834473 311.3069Q62.834473 310.33813 62.521973 309.9475Q62.225098 309.5569 61.756348 309.5569Z" fill-rule="nonzero"/><path stroke="#ffffff" stroke-width="3.0" stroke-linejoin="round" stroke-linecap="round" clip-path="url(#id_0)" d="M85.42966 171.35938L86.64841 171.1875Q86.86716 172.23438 87.36716 172.70312Q87.88278 173.15625 88.61716 173.15625Q89.49216 173.15625 90.08591 172.5625Q90.67966 171.95312 90.67966 171.0625Q90.67966 170.21875 90.11716 169.67188Q89.57028 169.125 88.72653 169.125Q88.36716 169.125 87.85153 169.25L87.99216 168.17188Q88.11716 168.1875 88.17966 168.1875Q88.97653 168.1875 89.60153 167.78125Q90.22653 167.375 90.22653 166.51562Q90.22653 165.84375 89.77341 165.40625Q89.32028 164.95312 88.58591 164.95312Q87.86716 164.95312 87.38278 165.40625Q86.91403 165.84375 86.77341 166.75L85.55466 166.53125Q85.77341 165.29688 86.57028 164.625Q87.36716 163.9375 88.55466 163.9375Q89.38278 163.9375 90.07028 164.29688Q90.75778 164.64062 91.11716 165.25Q91.49216 165.85938 91.49216 166.54688Q91.49216 167.1875 91.14841 167.71875Q90.80466 168.25 90.11716 168.57812Q91.00778 168.78125 91.49216 169.42188Q91.99216 170.0625 91.99216 171.04688Q91.99216 172.35938 91.02341 173.26562Q90.07028 174.17188 88.61716 174.17188Q87.28903 174.17188 86.41403 173.39062Q85.55466 172.60938 85.42966 171.35938ZM97.36716 174.0L97.36716 171.59375L93.00778 171.59375L93.00778 170.46875L97.58591 163.98438L98.58591 163.98438L98.58591 170.46875L99.94528 170.46875L99.94528 171.59375L98.58591 171.59375L98.58591 174.0L97.36716 174.0ZM97.36716 170.46875L97.36716 165.95312L94.22653 170.46875L97.36716 170.46875ZM102.08591 174.0L102.08591 172.59375L103.47653 172.59375L103.47653 174.0Q103.47653 174.76562 103.19528 175.23438Q102.92966 175.71875 102.33591 175.98438L101.99216 175.45312Q102.38278 175.28125 102.57028 174.95312Q102.75778 174.625 102.77341 174.0L102.08591 174.0ZM109.36716 174.0L109.36716 171.59375L105.00778 171.59375L105.00778 170.46875L109.58591 163.98438L110.58591 163.98438L110.58591 170.46875L111.94528 170.46875L111.94528 171.59375L110.58591 171.59375L110.58591 174.0L109.36716 174.0ZM109.36716 170.46875L109.36716 165.95312L106.22653 170.46875L109.36716 170.46875ZM113.41403 169.0625Q113.41403 167.28125 113.77341 166.20312Q114.14841 165.10938 114.86716 164.53125Q115.58591 163.9375 116.67966 163.9375Q117.49216 163.9375 118.10153 164.26562Q118.71091 164.59375 119.10153 165.20312Q119.50778 165.8125 119.72653 166.6875Q119.94528 167.5625 119.94528 169.0625Q119.94528 170.82812 119.58591 171.90625Q119.22653 172.98438 118.50778 173.57812Q117.78903 174.17188 116.67966 174.17188Q115.24216 174.17188 114.41403 173.125Q113.41403 171.875 113.41403 169.0625ZM114.67966 169.0625Q114.67966 171.53125 115.25778 172.34375Q115.83591 173.15625 116.67966 173.15625Q117.53903 173.15625 118.11716 172.34375Q118.69528 171.51562 118.69528 169.0625Q118.69528 166.57812 118.11716 165.76562Q117.53903 164.95312 116.66403 164.95312Q115.82028 164.95312 115.32028 165.67188Q114.67966 166.59375 114.67966 169.0625ZM121.64841 166.39062Q121.64841 165.3125 122.17966 164.5625Q122.72653 163.8125 123.75778 163.8125Q124.69528 163.8125 125.30466 164.48438Q125.92966 165.15625 125.92966 166.45312Q125.92966 167.73438 125.30466 168.42188Q124.67966 169.10938 123.77341 169.10938Q122.86716 169.10938 122.25778 168.4375Q121.64841 167.75 121.64841 166.39062ZM123.78903 164.65625Q123.33591 164.65625 123.02341 165.0625Q122.72653 165.45312 122.72653 166.5Q122.72653 167.46875 123.02341 167.85938Q123.33591 168.25 123.78903 168.25Q124.25778 168.25 124.55466 167.85938Q124.86716 167.46875 124.86716 166.40625Q124.86716 165.4375 124.55466 165.04688Q124.24216 164.65625 123.78903 164.65625ZM123.78903 174.375L129.2734 163.8125L130.2734 163.8125L124.82028 174.375L123.78903 174.375ZM128.13278 171.64062Q128.13278 170.5625 128.66403 169.82812Q129.2109 169.07812 130.24216 169.07812Q131.17966 169.07812 131.80466 169.75Q132.42966 170.42188 132.42966 171.71875Q132.42966 173.0 131.80466 173.6875Q131.17966 174.375 130.24216 174.375Q129.3359 174.375 128.72653 173.70312Q128.13278 173.01562 128.13278 171.64062ZM130.2734 169.92188Q129.80466 169.92188 129.50778 170.32812Q129.2109 170.71875 129.2109 171.76562Q129.2109 172.73438 129.50778 173.125Q129.82028 173.51562 130.2734 173.51562Q130.74216 173.51562 131.03903 173.125Q131.35153 172.73438 131.35153 171.67188Q131.35153 170.70312 131.03903 170.3125Q130.74216 169.92188 130.2734 169.92188Z" fill-rule="nonzero"/><path fill="#1a1a1a" clip-path="url(#id_0)" d="M85.42966 171.35938L86.64841 171.1875Q86.86716 172.23438 87.36716 172.70312Q87.88278 173.15625 88.61716 173.15625Q89.49216 173.15625 90.08591 172.5625Q90.67966 171.95312 90.67966 171.0625Q90.67966 170.21875 90.11716 169.67188Q89.57028 169.125 88.72653 169.125Q88.36716 169.125 87.85153 169.25L87.99216 168.17188Q88.11716 168.1875 88.17966 168.1875Q88.97653 168.1875 89.60153 167.78125Q90.22653 167.375 90.22653 166.51562Q90.22653 165.84375 89.77341 165.40625Q89.32028 164.95312 88.58591 164.95312Q87.86716 164.95312 87.38278 165.40625Q86.91403 165.84375 86.77341 166.75L85.55466 166.53125Q85.77341 165.29688 86.57028 164.625Q87.36716 163.9375 88.55466 163.9375Q89.38278 163.9375 90.07028 164.29688Q90.75778 164.64062 91.11716 165.25Q91.49216 165.85938 91.49216 166.54688Q91.49216 167.1875 91.14841 167.71875Q90.80466 168.25 90.11716 168.57812Q91.00778 168.78125 91.49216 169.42188Q91.99216 170.0625 91.99216 171.04688Q91.99216 172.35938 91.02341 173.26562Q90.07028 174.17188 88.61716 174.17188Q87.28903 174.17188 86.41403 173.39062Q85.55466 172.60938 85.42966 171.35938ZM97.36716 174.0L97.36716 171.59375L93.00778 171.59375L93.00778 170.46875L97.58591 163.98438L98.58591 163.98438L98.58591 170.46875L99.94528 170.46875L99.94528 171.59375L98.58591 171.59375L98.58591 174.0L97.36716 174.0ZM97.36716 170.46875L97.36716 165.95312L94.22653 170.46875L97.36716 170.46875ZM102.08591 174.0L102.08591 172.59375L103.47653 172.59375L103.47653 174.0Q103.47653 174.76562 103.19528 175.23438Q102.92966 175.71875 102.33591 175.98438L101.99216 175.45312Q102.38278 175.28125 102.57028 174.95312Q102.75778 174.625 102.77341 174.0L102.08591 174.0ZM109.36716 174.0L109.36716 171.59375L105.00778 171.59375L105.00778 170.46875L109.58591 163.98438L110.58591 163.98438L110.58591 170.46875L111.94528 170.46875L111.94528 171.59375L110.58591 171.59375L110.58591 174.0L109.36716 174.0ZM109.36716 170.46875L109.36716 165.95312L106.22653 170.46875L109.36716 170.46875ZM113.41403 169.0625Q113.41403 167.28125 113.77341 166.20312Q114.14841 165.10938 114.86716 164.53125Q115.58591 163.9375 116.67966 163.9375Q117.49216 163.9375 118.10153 164.26562Q118.71091 164.59375 119.10153 165.20312Q119.50778 165.8125 119.72653 166.6875Q119.94528 167.5625 119.94528 169.0625Q119.94528 170.82812 119.58591 171.90625Q119.22653 172.98438 118.50778 173.57812Q117.78903 174.17188 116.67966 174.17188Q115.24216 174.17188 114.41403 173.125Q113.41403 171.875 113.41403 169.0625ZM114.67966 169.0625Q114.67966 171.53125 115.25778 172.34375Q115.83591 173.15625 116.67966 173.15625Q117.53903 173.15625 118.11716 172.34375Q118.69528 171.51562 118.69528 169.0625Q118.69528 166.57812 118.11716 165.76562Q117.53903 164.95312 116.66403 164.95312Q115.82028 164.95312 115.32028 165.67188Q114.67966 166.59375 114.67966 169.0625ZM121.64841 166.39062Q121.64841 165.3125 122.17966 164.5625Q122.72653 163.8125 123.75778 163.8125Q124.69528 163.8125 125.30466 164.48438Q125.92966 165.15625 125.92966 166.45312Q125.92966 167.73438 125.30466 168.42188Q124.67966 169.10938 123.77341 169.10938Q122.86716 169.10938 122.25778 168.4375Q121.64841 167.75 121.64841 166.39062ZM123.78903 164.65625Q123.33591 164.65625 123.02341 165.0625Q122.72653 165.45312 122.72653 166.5Q122.72653 167.46875 123.02341 167.85938Q123.33591 168.25 123.78903 168.25Q124.25778 168.25 124.55466 167.85938Q124.86716 167.46875 124.86716 166.40625Q124.86716 165.4375 124.55466 165.04688Q124.24216 164.65625 123.78903 164.65625ZM123.78903 174.375L129.2734 163.8125L130.2734 163.8125L124.82028 174.375L123.78903 174.375ZM128.13278 171.64062Q128.13278 170.5625 128.66403 169.82812Q129.2109 169.07812 130.24216 169.07812Q131.17966 169.07812 131.80466 169.75Q132.42966 170.42188 132.42966 171.71875Q132.42966 173.0 131.80466 173.6875Q131.17966 174.375 130.24216 174.375Q129.3359 174.375 128.72653 173.70312Q128.13278 173.01562 128.13278 171.64062ZM130.2734 169.92188Q129.80466 169.92188 129.50778 170.32812Q129.2109 170.71875 129.2109 171.76562Q129.2109 172.73438 129.50778 173.125Q129.82028 173.51562 130.2734 173.51562Q130.74216 173.51562 131.03903 173.125Q131.35153 172.73438 131.35153 171.67188Q131.35153 170.70312 131.03903 170.3125Q130.74216 169.92188 130.2734 169.92188Z" fill-rule="nonzero"/><path stroke="#ffffff" stroke-width="3.0" stroke-linejoin="round" stroke-linecap="round" clip-path="url(#id_0)" d="M85.42966 50.984375L86.64841 50.8125Q86.86716 51.859375 87.36716 52.328125Q87.88278 52.78125 88.61716 52.78125Q89.49216 52.78125 90.08591 52.1875Q90.67966 51.578125 90.67966 50.6875Q90.67966 49.84375 90.11716 49.296875Q89.57028 48.75 88.72653 48.75Q88.36716 48.75 87.85153 48.875L87.99216 47.796875Q88.11716 47.8125 88.17966 47.8125Q88.97653 47.8125 89.60153 47.40625Q90.22653 47.0 90.22653 46.140625Q90.22653 45.46875 89.77341 45.03125Q89.32028 44.578125 88.58591 44.578125Q87.86716 44.578125 87.38278 45.03125Q86.91403 45.46875 86.77341 46.375L85.55466 46.15625Q85.77341 44.921875 86.57028 44.25Q87.36716 43.5625 88.55466 43.5625Q89.38278 43.5625 90.07028 43.921875Q90.75778 44.265625 91.11716 44.875Q91.49216 45.484375 91.49216 46.171875Q91.49216 46.8125 91.14841 47.34375Q90.80466 47.875 90.11716 48.203125Q91.00778 48.40625 91.49216 49.046875Q91.99216 49.6875 91.99216 50.671875Q91.99216 51.984375 91.02341 52.890625Q90.07028 53.796875 88.61716 53.796875Q87.28903 53.796875 86.41403 53.015625Q85.55466 52.234375 85.42966 50.984375ZM95.30466 48.1875Q94.53903 47.90625 94.16403 47.390625Q93.80466 46.875 93.80466 46.140625Q93.80466 45.046875 94.58591 44.3125Q95.38278 43.5625 96.67966 43.5625Q97.99216 43.5625 98.78903 44.328125Q99.60153 45.09375 99.60153 46.1875Q99.60153 46.875 99.22653 47.390625Q98.86716 47.90625 98.11716 48.1875Q99.03903 48.484375 99.52341 49.15625Q100.00778 49.828125 100.00778 50.765625Q100.00778 52.046875 99.10153 52.921875Q98.19528 53.796875 96.71091 53.796875Q95.22653 53.796875 94.30466 52.921875Q93.39841 52.03125 93.39841 50.71875Q93.39841 49.75 93.89841 49.09375Q94.39841 48.421875 95.30466 48.1875ZM95.07028 46.109375Q95.07028 46.8125 95.52341 47.265625Q95.97653 47.71875 96.71091 47.71875Q97.42966 47.71875 97.88278 47.28125Q98.33591 46.828125 98.33591 46.171875Q98.33591 45.5 97.86716 45.046875Q97.39841 44.578125 96.69528 44.578125Q95.99216 44.578125 95.52341 45.03125Q95.07028 45.46875 95.07028 46.109375ZM94.66403 50.734375Q94.66403 51.265625 94.91403 51.765625Q95.16403 52.25 95.64841 52.515625Q96.14841 52.78125 96.72653 52.78125Q97.60153 52.78125 98.16403 52.21875Q98.74216 51.65625 98.74216 50.78125Q98.74216 49.890625 98.14841 49.3125Q97.57028 48.71875 96.67966 48.71875Q95.80466 48.71875 95.22653 49.296875Q94.66403 49.875 94.66403 50.734375ZM102.08591 53.625L102.08591 52.21875L103.47653 52.21875L103.47653 53.625Q103.47653 54.390625 103.19528 54.859375Q102.92966 55.34375 102.33591 55.609375L101.99216 55.078125Q102.38278 54.90625 102.57028 54.578125Q102.75778 54.25 102.77341 53.625L102.08591 53.625ZM109.36716 53.625L109.36716 51.21875L105.00778 51.21875L105.00778 50.09375L109.58591 43.609375L110.58591 43.609375L110.58591 50.09375L111.94528 50.09375L111.94528 51.21875L110.58591 51.21875L110.58591 53.625L109.36716 53.625ZM109.36716 50.09375L109.36716 45.578125L106.22653 50.09375L109.36716 50.09375ZM113.41403 48.6875Q113.41403 46.90625 113.77341 45.828125Q114.14841 44.734375 114.86716 44.15625Q115.58591 43.5625 116.67966 43.5625Q117.49216 43.5625 118.10153 43.890625Q118.71091 44.21875 119.10153 44.828125Q119.50778 45.4375 119.72653 46.3125Q119.94528 47.1875 119.94528 48.6875Q119.94528 50.453125 119.58591 51.53125Q119.22653 52.609375 118.50778 53.203125Q117.78903 53.796875 116.67966 53.796875Q115.24216 53.796875 114.41403 52.75Q113.41403 51.5 113.41403 48.6875ZM114.67966 48.6875Q114.67966 51.15625 115.25778 51.96875Q115.83591 52.78125 116.67966 52.78125Q117.53903 52.78125 118.11716 51.96875Q118.69528 51.140625 118.69528 48.6875Q118.69528 46.203125 118.11716 45.390625Q117.53903 44.578125 116.66403 44.578125Q115.82028 44.578125 115.32028 45.296875Q114.67966 46.21875 114.67966 48.6875ZM121.64841 46.015625Q121.64841 44.9375 122.17966 44.1875Q122.72653 43.4375 123.75778 43.4375Q124.69528 43.4375 125.30466 44.109375Q125.92966 44.78125 125.92966 46.078125Q125.92966 47.359375 125.30466 48.046875Q124.67966 48.734375 123.77341 48.734375Q122.86716 48.734375 122.25778 48.0625Q121.64841 47.375 121.64841 46.015625ZM123.78903 44.28125Q123.33591 44.28125 123.02341 44.6875Q122.72653 45.078125 122.72653 46.125Q122.72653 47.09375 123.02341 47.484375Q123.33591 47.875 123.78903 47.875Q124.25778 47.875 124.55466 47.484375Q124.86716 47.09375 124.86716 46.03125Q124.86716 45.0625 124.55466 44.671875Q124.24216 44.28125 123.78903 44.28125ZM123.78903 54.0L129.2734 43.4375L130.2734 43.4375L124.82028 54.0L123.78903 54.0ZM128.13278 51.265625Q128.13278 50.1875 128.66403 49.453125Q129.2109 48.703125 130.24216 48.703125Q131.17966 48.703125 131.80466 49.375Q132.42966 50.046875 132.42966 51.34375Q132.42966 52.625 131.80466 53.3125Q131.17966 54.0 130.24216 54.0Q129.3359 54.0 128.72653 53.328125Q128.13278 52.640625 128.13278 51.265625ZM130.2734 49.546875Q129.80466 49.546875 129.50778 49.953125Q129.2109 50.34375 129.2109 51.390625Q129.2109 52.359375 129.50778 52.75Q129.82028 53.140625 130.2734 53.140625Q130.74216 53.140625 131.03903 52.75Q131.35153 52.359375 131.35153 51.296875Q131.35153 50.328125 131.03903 49.9375Q130.74216 49.546875 130.2734 49.546875Z" fill-rule="nonzero"/><path fill="#1a1a1a" clip-path="url(#id_0)" d="M85.42966 50.984375L86.64841 50.8125Q86.86716 51.859375 87.36716 52.328125Q87.88278 52.78125 88.61716 52.78125Q89.49216 52.78125 90.08591 52.1875Q90.67966 51.578125 90.67966 50.6875Q90.67966 49.84375 90.11716 49.296875Q89.57028 48.75 88.72653 48.75Q88.36716 48.75 87.85153 48.875L87.99216 47.796875Q88.11716 47.8125 88.17966 47.8125Q88.97653 47.8125 89.60153 47.40625Q90.22653 47.0 90.22653 46.140625Q90.22653 45.46875 89.77341 45.03125Q89.32028 44.578125 88.58591 44.578125Q87.86716 44.578125 87.38278 45.03125Q86.91403 45.46875 86.77341 46.375L85.55466 46.15625Q85.77341 44.921875 86.57028 44.25Q87.36716 43.5625 88.55466 43.5625Q89.38278 43.5625 90.07028 43.921875Q90.75778 44.265625 91.11716 44.875Q91.49216 45.484375 91.49216 46.171875Q91.49216 46.8125 91.14841 47.34375Q90.80466 47.875 90.11716 48.203125Q91.00778 48.40625 91.49216 49.046875Q91.99216 49.6875 91.99216 50.671875Q91.99216 51.984375 91.02341 52.890625Q90.07028 53.796875 88.61716 53.796875Q87.28903 53.796875 86.41403 53.015625Q85.55466 52.234375 85.42966 50.984375ZM95.30466 48.1875Q94.53903 47.90625 94.16403 47.390625Q93.80466 46.875 93.80466 46.140625Q93.80466 45.046875 94.58591 44.3125Q95.38278 43.5625 96.67966 43.5625Q97.99216 43.5625 98.78903 44.328125Q99.60153 45.09375 99.60153 46.1875Q99.60153 46.875 99.22653 47.390625Q98.86716 47.90625 98.11716 48.1875Q99.03903 48.484375 99.52341 49.15625Q100.00778 49.828125 100.00778 50.765625Q100.00778 52.046875 99.10153 52.921875Q98.19528 53.796875 96.71091 53.796875Q95.22653 53.796875 94.30466 52.921875Q93.39841 52.03125 93.39841 50.71875Q93.39841 49.75 93.89841 49.09375Q94.39841 48.421875 95.30466 48.1875ZM95.07028 46.109375Q95.07028 46.8125 95.52341 47.265625Q95.97653 47.71875 96.71091 47.71875Q97.42966 47.71875 97.88278 47.28125Q98.33591 46.828125 98.33591 46.171875Q98.33591 45.5 97.86716 45.046875Q97.39841 44.578125 96.69528 44.578125Q95.99216 44.578125 95.52341 45.03125Q95.07028 45.46875 95.07028 46.109375ZM94.66403 50.734375Q94.66403 51.265625 94.91403 51.765625Q95.16403 52.25 95.64841 52.515625Q96.14841 52.78125 96.72653 52.78125Q97.60153 52.78125 98.16403 52.21875Q98.74216 51.65625 98.74216 50.78125Q98.74216 49.890625 98.14841 49.3125Q97.57028 48.71875 96.67966 48.71875Q95.80466 48.71875 95.22653 49.296875Q94.66403 49.875 94.66403 50.734375ZM102.08591 53.625L102.08591 52.21875L103.47653 52.21875L103.47653 53.625Q103.47653 54.390625 103.19528 54.859375Q102.92966 55.34375 102.33591 55.609375L101.99216 55.078125Q102.38278 54.90625 102.57028 54.578125Q102.75778 54.25 102.77341 53.625L102.08591 53.625ZM109.36716 53.625L109.36716 51.21875L105.00778 51.21875L105.00778 50.09375L109.58591 43.609375L110.58591 43.609375L110.58591 50.09375L111.94528 50.09375L111.94528 51.21875L110.58591 51.21875L110.58591 53.625L109.36716 53.625ZM109.36716 50.09375L109.36716 45.578125L106.22653 50.09375L109.36716 50.09375ZM113.41403 48.6875Q113.41403 46.90625 113.77341 45.828125Q114.14841 44.734375 114.86716 44.15625Q115.58591 43.5625 116.67966 43.5625Q117.49216 43.5625 118.10153 43.890625Q118.71091 44.21875 119.10153 44.828125Q119.50778 45.4375 119.72653 46.3125Q119.94528 47.1875 119.94528 48.6875Q119.94528 50.453125 119.58591 51.53125Q119.22653 52.609375 118.50778 53.203125Q117.78903 53.796875 116.67966 53.796875Q115.24216 53.796875 114.41403 52.75Q113.41403 51.5 113.41403 48.6875ZM114.67966 48.6875Q114.67966 51.15625 115.25778 51.96875Q115.83591 52.78125 116.67966 52.78125Q117.53903 52.78125 118.11716 51.96875Q118.69528 51.140625 118.69528 48.6875Q118.69528 46.203125 118.11716 45.390625Q117.53903 44.578125 116.66403 44.578125Q115.82028 44.578125 115.32028 45.296875Q114.67966 46.21875 114.67966 48.6875ZM121.64841 46.015625Q121.64841 44.9375 122.17966 44.1875Q122.72653 43.4375 123.75778 43.4375Q124.69528 43.4375 125.30466 44.109375Q125.92966 44.78125 125.92966 46.078125Q125.92966 47.359375 125.30466 48.046875Q124.67966 48.734375 123.77341 48.734375Q122.86716 48.734375 122.25778 48.0625Q121.64841 47.375 121.64841 46.015625ZM123.78903 44.28125Q123.33591 44.28125 123.02341 44.6875Q122.72653 45.078125 122.72653 46.125Q122.72653 47.09375 123.02341 47.484375Q123.33591 47.875 123.78903 47.875Q124.25778 47.875 124.55466 47.484375Q124.86716 47.09375 124.86716 46.03125Q124.86716 45.0625 124.55466 44.671875Q124.24216 44.28125 123.78903 44.28125ZM123.78903 54.0L129.2734 43.4375L130.2734 43.4375L124.82028 54.0L123.78903 54.0ZM128.13278 51.265625Q128.13278 50.1875 128.66403 49.453125Q129.2109 48.703125 130.24216 48.703125Q131.17966 48.703125 131.80466 49.375Q132.42966 50.046875 132.42966 51.34375Q132.42966 52.625 131.80466 53.3125Q131.17966 54.0 130.24216 54.0Q129.3359 54.0 128.72653 53.328125Q128.13278 52.640625 128.13278 51.265625ZM130.2734 49.546875Q129.80466 49.546875 129.50778 49.953125Q129.2109 50.34375 129.2109 51.390625Q129.2109 52.359375 129.50778 52.75Q129.82028 53.140625 130.2734 53.140625Q130.74216 53.140625 131.03903 52.75Q131.35153 52.359375 131.35153 51.296875Q131.35153 50.328125 131.03903 49.9375Q130.74216 49.546875 130.2734 49.546875Z" fill-rule="nonzero"/><path stroke="#ffffff" stroke-width="3.0" stroke-linejoin="round" stroke-linecap="round" clip-path="url(#id_0)" d="M140.37599 75.05937L141.59474 74.8875Q141.81349 75.93437 142.31349 76.40312Q142.82912 76.85625 143.56349 76.85625Q144.43849 76.85625 145.03224 76.2625Q145.62599 75.65312 145.62599 74.7625Q145.62599 73.91875 145.06349 73.37187Q144.51662 72.825 143.67287 72.825Q143.31349 72.825 142.79787 72.95L142.93849 71.87187Q143.06349 71.8875 143.12599 71.8875Q143.92287 71.8875 144.54787 71.48125Q145.17287 71.075 145.17287 70.21562Q145.17287 69.54375 144.71974 69.10625Q144.26662 68.65312 143.53224 68.65312Q142.81349 68.65312 142.32912 69.10625Q141.86037 69.54375 141.71974 70.45L140.50099 70.23125Q140.71974 68.99687 141.51662 68.325Q142.31349 67.6375 143.50099 67.6375Q144.32912 67.6375 145.01662 67.99687Q145.70412 68.34062 146.06349 68.95Q146.43849 69.55937 146.43849 70.24687Q146.43849 70.8875 146.09474 71.41875Q145.75099 71.95 145.06349 72.27812Q145.95412 72.48125 146.43849 73.12187Q146.93849 73.7625 146.93849 74.74687Q146.93849 76.05937 145.96974 76.96562Q145.01662 77.87187 143.56349 77.87187Q142.23537 77.87187 141.36037 77.09062Q140.50099 76.30937 140.37599 75.05937ZM148.43849 68.99687L148.43849 67.80937L154.93849 67.80937L154.93849 68.7625Q153.96974 69.77812 153.03224 71.46562Q152.09474 73.15312 151.57912 74.95Q151.21974 76.2 151.11037 77.7L149.84474 77.7Q149.86037 76.5125 150.29787 74.84062Q150.75099 73.16875 151.57912 71.62187Q152.42287 70.05937 153.36037 68.99687L148.43849 68.99687ZM157.03224 77.7L157.03224 76.29375L158.42287 76.29375L158.42287 77.7Q158.42287 78.46562 158.14162 78.93437Q157.87599 79.41875 157.28224 79.68437L156.93849 79.15312Q157.32912 78.98125 157.51662 78.65312Q157.70412 78.325 157.71974 77.7L157.03224 77.7ZM160.54787 75.3875L161.73537 75.27812Q161.87599 76.10625 162.29787 76.48125Q162.73537 76.85625 163.39162 76.85625Q163.95412 76.85625 164.37599 76.60625Q164.81349 76.34062 165.07912 75.90312Q165.36037 75.46562 165.54787 74.73125Q165.73537 73.99687 165.73537 73.23125Q165.73537 73.15312 165.71974 72.98125Q165.36037 73.575 164.71974 73.95Q164.07912 74.30937 163.32912 74.30937Q162.07912 74.30937 161.21974 73.40312Q160.36037 72.49687 160.36037 71.02812Q160.36037 69.49687 161.25099 68.575Q162.15724 67.6375 163.51662 67.6375Q164.48537 67.6375 165.29787 68.16875Q166.11037 68.68437 166.53224 69.66875Q166.95412 70.6375 166.95412 72.48125Q166.95412 74.40312 166.53224 75.54375Q166.12599 76.68437 165.29787 77.27812Q164.46974 77.87187 163.36037 77.87187Q162.18849 77.87187 161.43849 77.21562Q160.70412 76.55937 160.54787 75.3875ZM165.57912 70.96562Q165.57912 69.90312 165.01662 69.27812Q164.45412 68.65312 163.67287 68.65312Q162.84474 68.65312 162.23537 69.325Q161.62599 69.99687 161.62599 71.05937Q161.62599 72.0125 162.20412 72.62187Q162.78224 73.21562 163.62599 73.21562Q164.48537 73.21562 165.03224 72.62187Q165.57912 72.0125 165.57912 70.96562ZM174.82912 76.5125L174.82912 77.7L168.20412 77.7Q168.18849 77.2625 168.34474 76.84062Q168.61037 76.16875 169.15724 75.5125Q169.71974 74.85625 170.76662 73.99687Q172.40724 72.65312 172.96974 71.87187Q173.54787 71.09062 173.54787 70.3875Q173.54787 69.65312 173.01662 69.15312Q172.50099 68.65312 171.67287 68.65312Q170.78224 68.65312 170.23537 69.18437Q169.70412 69.71562 169.70412 70.66875L168.43849 70.52812Q168.56349 69.12187 169.40724 68.3875Q170.26662 67.6375 171.68849 67.6375Q173.14162 67.6375 173.96974 68.43437Q174.81349 69.23125 174.81349 70.41875Q174.81349 71.02812 174.56349 71.60625Q174.32912 72.18437 173.75099 72.825Q173.18849 73.46562 171.86037 74.59062Q170.75099 75.5125 170.43849 75.85625Q170.12599 76.18437 169.92287 76.5125L174.82912 76.5125ZM176.59474 70.09062Q176.59474 69.0125 177.12599 68.2625Q177.67287 67.5125 178.70412 67.5125Q179.64162 67.5125 180.25099 68.18437Q180.87599 68.85625 180.87599 70.15312Q180.87599 71.43437 180.25099 72.12187Q179.62599 72.80937 178.71974 72.80937Q177.81349 72.80937 177.20412 72.1375Q176.59474 71.45 176.59474 70.09062ZM178.73537 68.35625Q178.28224 68.35625 177.96974 68.7625Q177.67287 69.15312 177.67287 70.2Q177.67287 71.16875 177.96974 71.55937Q178.28224 71.95 178.73537 71.95Q179.20412 71.95 179.50099 71.55937Q179.81349 71.16875 179.81349 70.10625Q179.81349 69.1375 179.50099 68.74687Q179.18849 68.35625 178.73537 68.35625ZM178.73537 78.075L184.21974 67.5125L185.21974 67.5125L179.76662 78.075L178.73537 78.075ZM183.07912 75.34062Q183.07912 74.2625 183.61037 73.52812Q184.15724 72.77812 185.18849 72.77812Q186.12599 72.77812 186.75099 73.45Q187.37599 74.12187 187.37599 75.41875Q187.37599 76.7 186.75099 77.3875Q186.12599 78.075 185.18849 78.075Q184.28224 78.075 183.67287 77.40312Q183.07912 76.71562 183.07912 75.34062ZM185.21974 73.62187Q184.75099 73.62187 184.45412 74.02812Q184.15724 74.41875 184.15724 75.46562Q184.15724 76.43437 184.45412 76.825Q184.76662 77.21562 185.21974 77.21562Q185.68849 77.21562 185.98537 76.825Q186.29787 76.43437 186.29787 75.37187Q186.29787 74.40312 185.98537 74.0125Q185.68849 73.62187 185.21974 73.62187Z" fill-rule="nonzero"/><path fill="#1a1a1a" clip-path="url(#id_0)" d="M140.37599 75.05937L141.59474 74.8875Q141.81349 75.93437 142.31349 76.40312Q142.82912 76.85625 143.56349 76.85625Q144.43849 76.85625 145.03224 76.2625Q145.62599 75.65312 145.62599 74.7625Q145.62599 73.91875 145.06349 73.37187Q144.51662 72.825 143.67287 72.825Q143.31349 72.825 142.79787 72.95L142.93849 71.87187Q143.06349 71.8875 143.12599 71.8875Q143.92287 71.8875 144.54787 71.48125Q145.17287 71.075 145.17287 70.21562Q145.17287 69.54375 144.71974 69.10625Q144.26662 68.65312 143.53224 68.65312Q142.81349 68.65312 142.32912 69.10625Q141.86037 69.54375 141.71974 70.45L140.50099 70.23125Q140.71974 68.99687 141.51662 68.325Q142.31349 67.6375 143.50099 67.6375Q144.32912 67.6375 145.01662 67.99687Q145.70412 68.34062 146.06349 68.95Q146.43849 69.55937 146.43849 70.24687Q146.43849 70.8875 146.09474 71.41875Q145.75099 71.95 145.06349 72.27812Q145.95412 72.48125 146.43849 73.12187Q146.93849 73.7625 146.93849 74.74687Q146.93849 76.05937 145.96974 76.96562Q145.01662 77.87187 143.56349 77.87187Q142.23537 77.87187 141.36037 77.09062Q140.50099 76.30937 140.37599 75.05937ZM148.43849 68.99687L148.43849 67.80937L154.93849 67.80937L154.93849 68.7625Q153.96974 69.77812 153.03224 71.46562Q152.09474 73.15312 151.57912 74.95Q151.21974 76.2 151.11037 77.7L149.84474 77.7Q149.86037 76.5125 150.29787 74.84062Q150.75099 73.16875 151.57912 71.62187Q152.42287 70.05937 153.36037 68.99687L148.43849 68.99687ZM157.03224 77.7L157.03224 76.29375L158.42287 76.29375L158.42287 77.7Q158.42287 78.46562 158.14162 78.93437Q157.87599 79.41875 157.28224 79.68437L156.93849 79.15312Q157.32912 78.98125 157.51662 78.65312Q157.70412 78.325 157.71974 77.7L157.03224 77.7ZM160.54787 75.3875L161.73537 75.27812Q161.87599 76.10625 162.29787 76.48125Q162.73537 76.85625 163.39162 76.85625Q163.95412 76.85625 164.37599 76.60625Q164.81349 76.34062 165.07912 75.90312Q165.36037 75.46562 165.54787 74.73125Q165.73537 73.99687 165.73537 73.23125Q165.73537 73.15312 165.71974 72.98125Q165.36037 73.575 164.71974 73.95Q164.07912 74.30937 163.32912 74.30937Q162.07912 74.30937 161.21974 73.40312Q160.36037 72.49687 160.36037 71.02812Q160.36037 69.49687 161.25099 68.575Q162.15724 67.6375 163.51662 67.6375Q164.48537 67.6375 165.29787 68.16875Q166.11037 68.68437 166.53224 69.66875Q166.95412 70.6375 166.95412 72.48125Q166.95412 74.40312 166.53224 75.54375Q166.12599 76.68437 165.29787 77.27812Q164.46974 77.87187 163.36037 77.87187Q162.18849 77.87187 161.43849 77.21562Q160.70412 76.55937 160.54787 75.3875ZM165.57912 70.96562Q165.57912 69.90312 165.01662 69.27812Q164.45412 68.65312 163.67287 68.65312Q162.84474 68.65312 162.23537 69.325Q161.62599 69.99687 161.62599 71.05937Q161.62599 72.0125 162.20412 72.62187Q162.78224 73.21562 163.62599 73.21562Q164.48537 73.21562 165.03224 72.62187Q165.57912 72.0125 165.57912 70.96562ZM174.82912 76.5125L174.82912 77.7L168.20412 77.7Q168.18849 77.2625 168.34474 76.84062Q168.61037 76.16875 169.15724 75.5125Q169.71974 74.85625 170.76662 73.99687Q172.40724 72.65312 172.96974 71.87187Q173.54787 71.09062 173.54787 70.3875Q173.54787 69.65312 173.01662 69.15312Q172.50099 68.65312 171.67287 68.65312Q170.78224 68.65312 170.23537 69.18437Q169.70412 69.71562 169.70412 70.66875L168.43849 70.52812Q168.56349 69.12187 169.40724 68.3875Q170.26662 67.6375 171.68849 67.6375Q173.14162 67.6375 173.96974 68.43437Q174.81349 69.23125 174.81349 70.41875Q174.81349 71.02812 174.56349 71.60625Q174.32912 72.18437 173.75099 72.825Q173.18849 73.46562 171.86037 74.59062Q170.75099 75.5125 170.43849 75.85625Q170.12599 76.18437 169.92287 76.5125L174.82912 76.5125ZM176.59474 70.09062Q176.59474 69.0125 177.12599 68.2625Q177.67287 67.5125 178.70412 67.5125Q179.64162 67.5125 180.25099 68.18437Q180.87599 68.85625 180.87599 70.15312Q180.87599 71.43437 180.25099 72.12187Q179.62599 72.80937 178.71974 72.80937Q177.81349 72.80937 177.20412 72.1375Q176.59474 71.45 176.59474 70.09062ZM178.73537 68.35625Q178.28224 68.35625 177.96974 68.7625Q177.67287 69.15312 177.67287 70.2Q177.67287 71.16875 177.96974 71.55937Q178.28224 71.95 178.73537 71.95Q179.20412 71.95 179.50099 71.55937Q179.81349 71.16875 179.81349 70.10625Q179.81349 69.1375 179.50099 68.74687Q179.18849 68.35625 178.73537 68.35625ZM178.73537 78.075L184.21974 67.5125L185.21974 67.5125L179.76662 78.075L178.73537 78.075ZM183.07912 75.34062Q183.07912 74.2625 183.61037 73.52812Q184.15724 72.77812 185.18849 72.77812Q186.12599 72.77812 186.75099 73.45Q187.37599 74.12187 187.37599 75.41875Q187.37599 76.7 186.75099 77.3875Q186.12599 78.075 185.18849 78.075Q184.28224 78.075 183.67287 77.40312Q183.07912 76.71562 183.07912 75.34062ZM185.21974 73.62187Q184.75099 73.62187 184.45412 74.02812Q184.15724 74.41875 184.15724 75.46562Q184.15724 76.43437 184.45412 76.825Q184.76662 77.21562 185.21974 77.21562Q185.68849 77.21562 185.98537 76.825Q186.29787 76.43437 186.29787 75.37187Q186.29787 74.40312 185.98537 74.0125Q185.68849 73.62187 185.21974 73.62187Z" fill-rule="nonzero"/><path stroke="#ffffff" stroke-width="3.0" stroke-linejoin="round" stroke-linecap="round" clip-path="url(#id_0)" d="M470.05396 171.35938L471.2727 171.1875Q471.49146 172.23438 471.99146 172.70312Q472.50708 173.15625 473.24146 173.15625Q474.11646 173.15625 474.7102 172.5625Q475.30396 171.95312 475.30396 171.0625Q475.30396 170.21875 474.74146 169.67188Q474.19458 169.125 473.35083 169.125Q472.99146 169.125 472.47583 169.25L472.61646 168.17188Q472.74146 168.1875 472.80396 168.1875Q473.60083 168.1875 474.22583 167.78125Q474.85083 167.375 474.85083 166.51562Q474.85083 165.84375 474.3977 165.40625Q473.94458 164.95312 473.2102 164.95312Q472.49146 164.95312 472.00708 165.40625Q471.53833 165.84375 471.3977 166.75L470.17896 166.53125Q470.3977 165.29688 471.19458 164.625Q471.99146 163.9375 473.17896 163.9375Q474.00708 163.9375 474.69458 164.29688Q475.38208 164.64062 475.74146 165.25Q476.11646 165.85938 476.11646 166.54688Q476.11646 167.1875 475.7727 167.71875Q475.42896 168.25 474.74146 168.57812Q475.63208 168.78125 476.11646 169.42188Q476.61646 170.0625 476.61646 171.04688Q476.61646 172.35938 475.6477 173.26562Q474.69458 174.17188 473.24146 174.17188Q471.91333 174.17188 471.03833 173.39062Q470.17896 172.60938 470.05396 171.35938ZM481.99146 174.0L481.99146 171.59375L477.63208 171.59375L477.63208 170.46875L482.2102 163.98438L483.2102 163.98438L483.2102 170.46875L484.56958 170.46875L484.56958 171.59375L483.2102 171.59375L483.2102 174.0L481.99146 174.0ZM481.99146 170.46875L481.99146 165.95312L478.85083 170.46875L481.99146 170.46875ZM486.7102 174.0L486.7102 172.59375L488.10083 172.59375L488.10083 174.0Q488.10083 174.76562 487.81958 175.23438Q487.55396 175.71875 486.9602 175.98438L486.61646 175.45312Q487.00708 175.28125 487.19458 174.95312Q487.38208 174.625 487.3977 174.0L486.7102 174.0ZM490.05396 171.35938L491.2727 171.1875Q491.49146 172.23438 491.99146 172.70312Q492.50708 173.15625 493.24146 173.15625Q494.11646 173.15625 494.7102 172.5625Q495.30396 171.95312 495.30396 171.0625Q495.30396 170.21875 494.74146 169.67188Q494.19458 169.125 493.35083 169.125Q492.99146 169.125 492.47583 169.25L492.61646 168.17188Q492.74146 168.1875 492.80396 168.1875Q493.60083 168.1875 494.22583 167.78125Q494.85083 167.375 494.85083 166.51562Q494.85083 165.84375 494.3977 165.40625Q493.94458 164.95312 493.2102 164.95312Q492.49146 164.95312 492.00708 165.40625Q491.53833 165.84375 491.3977 166.75L490.17896 166.53125Q490.3977 165.29688 491.19458 164.625Q491.99146 163.9375 493.17896 163.9375Q494.00708 163.9375 494.69458 164.29688Q495.38208 164.64062 495.74146 165.25Q496.11646 165.85938 496.11646 166.54688Q496.11646 167.1875 495.7727 167.71875Q495.42896 168.25 494.74146 168.57812Q495.63208 168.78125 496.11646 169.42188Q496.61646 170.0625 496.61646 171.04688Q496.61646 172.35938 495.6477 173.26562Q494.69458 174.17188 493.24146 174.17188Q491.91333 174.17188 491.03833 173.39062Q490.17896 172.60938 490.05396 171.35938ZM498.22583 171.6875L499.41333 171.57812Q499.55396 172.40625 499.97583 172.78125Q500.41333 173.15625 501.06958 173.15625Q501.63208 173.15625 502.05396 172.90625Q502.49146 172.64062 502.75708 172.20312Q503.03833 171.76562 503.22583 171.03125Q503.41333 170.29688 503.41333 169.53125Q503.41333 169.45312 503.3977 169.28125Q503.03833 169.875 502.3977 170.25Q501.75708 170.60938 501.00708 170.60938Q499.75708 170.60938 498.8977 169.70312Q498.03833 168.79688 498.03833 167.32812Q498.03833 165.79688 498.92896 164.875Q499.8352 163.9375 501.19458 163.9375Q502.16333 163.9375 502.97583 164.46875Q503.78833 164.98438 504.2102 165.96875Q504.63208 166.9375 504.63208 168.78125Q504.63208 170.70312 504.2102 171.84375Q503.80396 172.98438 502.97583 173.57812Q502.1477 174.17188 501.03833 174.17188Q499.86646 174.17188 499.11646 173.51562Q498.38208 172.85938 498.22583 171.6875ZM503.25708 167.26562Q503.25708 166.20312 502.69458 165.57812Q502.13208 164.95312 501.35083 164.95312Q500.5227 164.95312 499.91333 165.625Q499.30396 166.29688 499.30396 167.35938Q499.30396 168.3125 499.88208 168.92188Q500.4602 169.51562 501.30396 169.51562Q502.16333 169.51562 502.7102 168.92188Q503.25708 168.3125 503.25708 167.26562ZM506.2727 166.39062Q506.2727 165.3125 506.80396 164.5625Q507.35083 163.8125 508.38208 163.8125Q509.31958 163.8125 509.92896 164.48438Q510.55396 165.15625 510.55396 166.45312Q510.55396 167.73438 509.92896 168.42188Q509.30396 169.10938 508.3977 169.10938Q507.49146 169.10938 506.88208 168.4375Q506.2727 167.75 506.2727 166.39062ZM508.41333 164.65625Q507.9602 164.65625 507.6477 165.0625Q507.35083 165.45312 507.35083 166.5Q507.35083 167.46875 507.6477 167.85938Q507.9602 168.25 508.41333 168.25Q508.88208 168.25 509.17896 167.85938Q509.49146 167.46875 509.49146 166.40625Q509.49146 165.4375 509.17896 165.04688Q508.86646 164.65625 508.41333 164.65625ZM508.41333 174.375L513.8977 163.8125L514.8977 163.8125L509.44458 174.375L508.41333 174.375ZM512.7571 171.64062Q512.7571 170.5625 513.2883 169.82812Q513.8352 169.07812 514.86646 169.07812Q515.80396 169.07812 516.42896 169.75Q517.05396 170.42188 517.05396 171.71875Q517.05396 173.0 516.42896 173.6875Q515.80396 174.375 514.86646 174.375Q513.9602 174.375 513.3508 173.70312Q512.7571 173.01562 512.7571 171.64062ZM514.8977 169.92188Q514.42896 169.92188 514.1321 170.32812Q513.8352 170.71875 513.8352 171.76562Q513.8352 172.73438 514.1321 173.125Q514.4446 173.51562 514.8977 173.51562Q515.36646 173.51562 515.6633 173.125Q515.9758 172.73438 515.9758 171.67188Q515.9758 170.70312 515.6633 170.3125Q515.36646 169.92188 514.8977 169.92188Z" fill-rule="nonzero"/><path fill="#1a1a1a" clip-path="url(#id_0)" d="M470.05396 171.35938L471.2727 171.1875Q471.49146 172.23438 471.99146 172.70312Q472.50708 173.15625 473.24146 173.15625Q474.11646 173.15625 474.7102 172.5625Q475.30396 171.95312 475.30396 171.0625Q475.30396 170.21875 474.74146 169.67188Q474.19458 169.125 473.35083 169.125Q472.99146 169.125 472.47583 169.25L472.61646 168.17188Q472.74146 168.1875 472.80396 168.1875Q473.60083 168.1875 474.22583 167.78125Q474.85083 167.375 474.85083 166.51562Q474.85083 165.84375 474.3977 165.40625Q473.94458 164.95312 473.2102 164.95312Q472.49146 164.95312 472.00708 165.40625Q471.53833 165.84375 471.3977 166.75L470.17896 166.53125Q470.3977 165.29688 471.19458 164.625Q471.99146 163.9375 473.17896 163.9375Q474.00708 163.9375 474.69458 164.29688Q475.38208 164.64062 475.74146 165.25Q476.11646 165.85938 476.11646 166.54688Q476.11646 167.1875 475.7727 167.71875Q475.42896 168.25 474.74146 168.57812Q475.63208 168.78125 476.11646 169.42188Q476.61646 170.0625 476.61646 171.04688Q476.61646 172.35938 475.6477 173.26562Q474.69458 174.17188 473.24146 174.17188Q471.91333 174.17188 471.03833 173.39062Q470.17896 172.60938 470.05396 171.35938ZM481.99146 174.0L481.99146 171.59375L477.63208 171.59375L477.63208 170.46875L482.2102 163.98438L483.2102 163.98438L483.2102 170.46875L484.56958 170.46875L484.56958 171.59375L483.2102 171.59375L483.2102 174.0L481.99146 174.0ZM481.99146 170.46875L481.99146 165.95312L478.85083 170.46875L481.99146 170.46875ZM486.7102 174.0L486.7102 172.59375L488.10083 172.59375L488.10083 174.0Q488.10083 174.76562 487.81958 175.23438Q487.55396 175.71875 486.9602 175.98438L486.61646 175.45312Q487.00708 175.28125 487.19458 174.95312Q487.38208 174.625 487.3977 174.0L486.7102 174.0ZM490.05396 171.35938L491.2727 171.1875Q491.49146 172.23438 491.99146 172.70312Q492.50708 173.15625 493.24146 173.15625Q494.11646 173.15625 494.7102 172.5625Q495.30396 171.95312 495.30396 171.0625Q495.30396 170.21875 494.74146 169.67188Q494.19458 169.125 493.35083 169.125Q492.99146 169.125 492.47583 169.25L492.61646 168.17188Q492.74146 168.1875 492.80396 168.1875Q493.60083 168.1875 494.22583 167.78125Q494.85083 167.375 494.85083 166.51562Q494.85083 165.84375 494.3977 165.40625Q493.94458 164.95312 493.2102 164.95312Q492.49146 164.95312 492.00708 165.40625Q491.53833 165.84375 491.3977 166.75L490.17896 166.53125Q490.3977 165.29688 491.19458 164.625Q491.99146 163.9375 493.17896 163.9375Q494.00708 163.9375 494.69458 164.29688Q495.38208 164.64062 495.74146 165.25Q496.11646 165.85938 496.11646 166.54688Q496.11646 167.1875 495.7727 167.71875Q495.42896 168.25 494.74146 168.57812Q495.63208 168.78125 496.11646 169.42188Q496.61646 170.0625 496.61646 171.04688Q496.61646 172.35938 495.6477 173.26562Q494.69458 174.17188 493.24146 174.17188Q491.91333 174.17188 491.03833 173.39062Q490.17896 172.60938 490.05396 171.35938ZM498.22583 171.6875L499.41333 171.57812Q499.55396 172.40625 499.97583 172.78125Q500.41333 173.15625 501.06958 173.15625Q501.63208 173.15625 502.05396 172.90625Q502.49146 172.64062 502.75708 172.20312Q503.03833 171.76562 503.22583 171.03125Q503.41333 170.29688 503.41333 169.53125Q503.41333 169.45312 503.3977 169.28125Q503.03833 169.875 502.3977 170.25Q501.75708 170.60938 501.00708 170.60938Q499.75708 170.60938 498.8977 169.70312Q498.03833 168.79688 498.03833 167.32812Q498.03833 165.79688 498.92896 164.875Q499.8352 163.9375 501.19458 163.9375Q502.16333 163.9375 502.97583 164.46875Q503.78833 164.98438 504.2102 165.96875Q504.63208 166.9375 504.63208 168.78125Q504.63208 170.70312 504.2102 171.84375Q503.80396 172.98438 502.97583 173.57812Q502.1477 174.17188 501.03833 174.17188Q499.86646 174.17188 499.11646 173.51562Q498.38208 172.85938 498.22583 171.6875ZM503.25708 167.26562Q503.25708 166.20312 502.69458 165.57812Q502.13208 164.95312 501.35083 164.95312Q500.5227 164.95312 499.91333 165.625Q499.30396 166.29688 499.30396 167.35938Q499.30396 168.3125 499.88208 168.92188Q500.4602 169.51562 501.30396 169.51562Q502.16333 169.51562 502.7102 168.92188Q503.25708 168.3125 503.25708 167.26562ZM506.2727 166.39062Q506.2727 165.3125 506.80396 164.5625Q507.35083 163.8125 508.38208 163.8125Q509.31958 163.8125 509.92896 164.48438Q510.55396 165.15625 510.55396 166.45312Q510.55396 167.73438 509.92896 168.42188Q509.30396 169.10938 508.3977 169.10938Q507.49146 169.10938 506.88208 168.4375Q506.2727 167.75 506.2727 166.39062ZM508.41333 164.65625Q507.9602 164.65625 507.6477 165.0625Q507.35083 165.45312 507.35083 166.5Q507.35083 167.46875 507.6477 167.85938Q507.9602 168.25 508.41333 168.25Q508.88208 168.25 509.17896 167.85938Q509.49146 167.46875 509.49146 166.40625Q509.49146 165.4375 509.17896 165.04688Q508.86646 164.65625 508.41333 164.65625ZM508.41333 174.375L513.8977 163.8125L514.8977 163.8125L509.44458 174.375L508.41333 174.375ZM512.7571 171.64062Q512.7571 170.5625 513.2883 169.82812Q513.8352 169.07812 514.86646 169.07812Q515.80396 169.07812 516.42896 169.75Q517.05396 170.42188 517.05396 171.71875Q517.05396 173.0 516.42896 173.6875Q515.80396 174.375 514.86646 174.375Q513.9602 174.375 513.3508 173.70312Q512.7571 173.01562 512.7571 171.64062ZM514.8977 169.92188Q514.42896 169.92188 514.1321 170.32812Q513.8352 170.71875 513.8352 171.76562Q513.8352 172.73438 514.1321 173.125Q514.4446 173.51562 514.8977 173.51562Q515.36646 173.51562 515.6633 173.125Q515.9758 172.73438 515.9758 171.67188Q515.9758 170.70312 515.6633 170.3125Q515.36646 169.92188 514.8977 169.92188Z" fill-rule="nonzero"/><path fill="#000000" d="M32.05 313.21564Q32.05 311.6844 32.3625 310.7625Q32.675 309.825 33.284374 309.325Q33.909374 308.825 34.846874 308.825Q35.534374 308.825 36.05 309.10626Q36.58125 309.3875 36.925 309.91876Q37.26875 310.4344 37.45625 311.1844Q37.64375 311.9344 37.64375 313.21564Q37.64375 314.73126 37.33125 315.65314Q37.034374 316.575 36.409374 317.09064Q35.8 317.59064 34.846874 317.59064Q33.6125 317.59064 32.89375 316.7Q32.05 315.6375 32.05 313.21564ZM33.128124 313.21564Q33.128124 315.325 33.628124 316.02814Q34.128124 316.73126 34.846874 316.73126Q35.58125 316.73126 36.065624 316.02814Q36.565624 315.325 36.565624 313.21564Q36.565624 311.09064 36.065624 310.40314Q35.58125 309.7 34.83125 309.7Q34.1125 309.7 33.675 310.3094Q33.128124 311.09064 33.128124 313.21564Z" fill-rule="nonzero"/><path fill="#000000" d="M30.596874 220.13437L30.596874 221.15L24.909374 221.15Q24.909374 220.775 25.034374 220.41562Q25.253124 219.8375 25.721874 219.275Q26.20625 218.7125 27.1125 217.97812Q28.51875 216.82187 29.003124 216.15Q29.503124 215.47812 29.503124 214.88437Q29.503124 214.25937 29.05 213.8375Q28.596874 213.4 27.878124 213.4Q27.1125 213.4 26.659374 213.85312Q26.20625 214.30624 26.190624 215.11874L25.1125 215.00937Q25.221874 213.79062 25.940624 213.16562Q26.675 212.525 27.909374 212.525Q29.14375 212.525 29.8625 213.2125Q30.58125 213.9 30.58125 214.91562Q30.58125 215.43124 30.3625 215.93124Q30.159374 216.41562 29.659374 216.97812Q29.175 217.525 28.05 218.47812Q27.096874 219.275 26.815624 219.57187Q26.55 219.85312 26.378124 220.13437L30.596874 220.13437ZM32.05 216.91562Q32.05 215.38437 32.3625 214.4625Q32.675 213.525 33.284374 213.025Q33.909374 212.525 34.846874 212.525Q35.534374 212.525 36.05 212.80624Q36.58125 213.0875 36.925 213.61874Q37.26875 214.13437 37.45625 214.88437Q37.64375 215.63437 37.64375 216.91562Q37.64375 218.43124 37.33125 219.35312Q37.034374 220.275 36.409374 220.79062Q35.8 221.29062 34.846874 221.29062Q33.6125 221.29062 32.89375 220.4Q32.05 219.3375 32.05 216.91562ZM33.128124 216.91562Q33.128124 219.025 33.628124 219.72812Q34.128124 220.43124 34.846874 220.43124Q35.58125 220.43124 36.065624 219.72812Q36.565624 219.025 36.565624 216.91562Q36.565624 214.79062 36.065624 214.10312Q35.58125 213.4 34.83125 213.4Q34.1125 213.4 33.675 214.00937Q33.128124 214.79062 33.128124 216.91562Z" fill-rule="nonzero"/><path fill="#000000" d="M28.425 124.85L28.425 122.7875L24.70625 122.7875L24.70625 121.81875L28.628124 116.25625L29.4875 116.25625L29.4875 121.81875L30.64375 121.81875L30.64375 122.7875L29.4875 122.7875L29.4875 124.85L28.425 124.85ZM28.425 121.81875L28.425 117.95937L25.7375 121.81875L28.425 121.81875ZM32.05 120.61562Q32.05 119.08437 32.3625 118.1625Q32.675 117.225 33.284374 116.725Q33.909374 116.225 34.846874 116.225Q35.534374 116.225 36.05 116.50625Q36.58125 116.7875 36.925 117.31875Q37.26875 117.83437 37.45625 118.58437Q37.64375 119.33437 37.64375 120.61562Q37.64375 122.13125 37.33125 123.05312Q37.034374 123.975 36.409374 124.49062Q35.8 124.99062 34.846874 124.99062Q33.6125 124.99062 32.89375 124.1Q32.05 123.0375 32.05 120.61562ZM33.128124 120.61562Q33.128124 122.725 33.628124 123.42812Q34.128124 124.13125 34.846874 124.13125Q35.58125 124.13125 36.065624 123.42812Q36.565624 122.725 36.565624 120.61562Q36.565624 118.49062 36.065624 117.80312Q35.58125 117.1 34.83125 117.1Q34.1125 117.1 33.675 117.70937Q33.128124 118.49062 33.128124 120.61562Z" fill-rule="nonzero"/><path fill="#000000" d="M30.51875 22.065624L29.471874 22.14375Q29.33125 21.51875 29.08125 21.2375Q28.64375 20.784374 28.01875 20.784374Q27.51875 20.784374 27.128124 21.065624Q26.64375 21.440624 26.346874 22.14375Q26.065624 22.83125 26.05 24.1125Q26.425 23.534374 26.971874 23.253124Q27.534374 22.971874 28.14375 22.971874Q29.190624 22.971874 29.925 23.753124Q30.675 24.534374 30.675 25.753124Q30.675 26.565624 30.315624 27.26875Q29.971874 27.95625 29.3625 28.33125Q28.753124 28.690624 27.9875 28.690624Q26.659374 28.690624 25.83125 27.721874Q25.003124 26.753124 25.003124 24.534374Q25.003124 22.034374 25.925 20.909374Q26.721874 19.925 28.08125 19.925Q29.096874 19.925 29.7375 20.503124Q30.39375 21.065624 30.51875 22.065624ZM26.221874 25.76875Q26.221874 26.315624 26.440624 26.815624Q26.675 27.3 27.08125 27.565624Q27.503124 27.83125 27.971874 27.83125Q28.628124 27.83125 29.1125 27.3Q29.596874 26.753124 29.596874 25.83125Q29.596874 24.940624 29.1125 24.425Q28.64375 23.909374 27.925 23.909374Q27.20625 23.909374 26.70625 24.425Q26.221874 24.940624 26.221874 25.76875ZM32.05 24.315624Q32.05 22.784374 32.3625 21.8625Q32.675 20.925 33.284374 20.425Q33.909374 19.925 34.846874 19.925Q35.534374 19.925 36.05 20.20625Q36.58125 20.4875 36.925 21.01875Q37.26875 21.534374 37.45625 22.284374Q37.64375 23.034374 37.64375 24.315624Q37.64375 25.83125 37.33125 26.753124Q37.034374 27.675 36.409374 28.190624Q35.8 28.690624 34.846874 28.690624Q33.6125 28.690624 32.89375 27.8Q32.05 26.7375 32.05 24.315624ZM33.128124 24.315624Q33.128124 26.425 33.628124 27.128124Q34.128124 27.83125 34.846874 27.83125Q35.58125 27.83125 36.065624 27.128124Q36.565624 26.425 36.565624 24.315624Q36.565624 22.190624 36.065624 21.503124Q35.58125 20.8 34.83125 20.8Q34.1125 20.8 33.675 21.409374Q33.128124 22.190624 33.128124 24.315624Z" fill-rule="nonzero"/><path fill="#000000" d="M50.88958 326.21564Q50.88958 324.6844 51.20208 323.7625Q51.51458 322.825 52.123955 322.325Q52.748955 321.825 53.686455 321.825Q54.373955 321.825 54.88958 322.10626Q55.42083 322.3875 55.76458 322.91876Q56.10833 323.4344 56.29583 324.1844Q56.48333 324.9344 56.48333 326.21564Q56.48333 327.73126 56.17083 328.65314Q55.873955 329.575 55.248955 330.09064Q54.63958 330.59064 53.686455 330.59064Q52.45208 330.59064 51.73333 329.7Q50.88958 328.6375 50.88958 326.21564ZM51.967705 326.21564Q51.967705 328.325 52.467705 329.02814Q52.967705 329.73126 53.686455 329.73126Q54.42083 329.73126 54.905205 329.02814Q55.405205 328.325 55.405205 326.21564Q55.405205 324.09064 54.905205 323.40314Q54.42083 322.7 53.67083 322.7Q52.95208 322.7 52.51458 323.3094Q51.967705 324.09064 51.967705 326.21564Z" fill-rule="nonzero"/><path fill="#000000" d="M156.75351 329.4344L156.75351 330.45L151.06601 330.45Q151.06601 330.075 151.19101 329.71564Q151.40976 329.1375 151.87851 328.575Q152.36288 328.0125 153.26913 327.27814Q154.67538 326.1219 155.15976 325.45Q155.65976 324.77814 155.65976 324.1844Q155.65976 323.5594 155.20663 323.1375Q154.75351 322.7 154.03476 322.7Q153.26913 322.7 152.81601 323.15314Q152.36288 323.60626 152.34726 324.41876L151.26913 324.3094Q151.37851 323.09064 152.09726 322.46564Q152.83163 321.825 154.06601 321.825Q155.30038 321.825 156.01913 322.5125Q156.73788 323.2 156.73788 324.21564Q156.73788 324.73126 156.51913 325.23126Q156.31601 325.71564 155.81601 326.27814Q155.33163 326.825 154.20663 327.77814Q153.25351 328.575 152.97226 328.8719Q152.70663 329.15314 152.53476 329.4344L156.75351 329.4344ZM158.20663 328.2L159.31601 328.10626Q159.44101 328.91876 159.87851 329.325Q160.33163 329.73126 160.97226 329.73126Q161.72226 329.73126 162.25351 329.15314Q162.78476 328.575 162.78476 327.6375Q162.78476 326.73126 162.26913 326.21564Q161.76913 325.6844 160.94101 325.6844Q160.44101 325.6844 160.01913 325.91876Q159.61288 326.15314 159.37851 326.5125L158.39413 326.3875L159.22226 321.98126L163.50351 321.98126L163.50351 322.98126L160.06601 322.98126L159.61288 325.29376Q160.37851 324.7469 161.22226 324.7469Q162.34726 324.7469 163.11288 325.52814Q163.89413 326.3094 163.89413 327.54376Q163.89413 328.7 163.22226 329.5594Q162.39413 330.59064 160.97226 330.59064Q159.80038 330.59064 159.05038 329.9344Q158.31601 329.27814 158.20663 328.2ZM165.20663 326.21564Q165.20663 324.6844 165.51913 323.7625Q165.83163 322.825 166.44101 322.325Q167.06601 321.825 168.00351 321.825Q168.69101 321.825 169.20663 322.10626Q169.73788 322.3875 170.08163 322.91876Q170.42538 323.4344 170.61288 324.1844Q170.80038 324.9344 170.80038 326.21564Q170.80038 327.73126 170.48788 328.65314Q170.19101 329.575 169.56601 330.09064Q168.95663 330.59064 168.00351 330.59064Q166.76913 330.59064 166.05038 329.7Q165.20663 328.6375 165.20663 326.21564ZM166.28476 326.21564Q166.28476 328.325 166.78476 329.02814Q167.28476 329.73126 168.00351 329.73126Q168.73788 329.73126 169.22226 329.02814Q169.72226 328.325 169.72226 326.21564Q169.72226 324.09064 169.22226 323.40314Q168.73788 322.7 167.98788 322.7Q167.26913 322.7 166.83163 323.3094Q166.28476 324.09064 166.28476 326.21564Z" fill-rule="nonzero"/><path fill="#000000" d="M258.52368 328.2L259.63306 328.10626Q259.75806 328.91876 260.19556 329.325Q260.64868 329.73126 261.2893 329.73126Q262.0393 329.73126 262.57056 329.15314Q263.1018 328.575 263.1018 327.6375Q263.1018 326.73126 262.58618 326.21564Q262.08618 325.6844 261.25806 325.6844Q260.75806 325.6844 260.33618 325.91876Q259.92993 326.15314 259.69556 326.5125L258.71118 326.3875L259.5393 321.98126L263.82056 321.98126L263.82056 322.98126L260.38306 322.98126L259.92993 325.29376Q260.69556 324.7469 261.5393 324.7469Q262.6643 324.7469 263.42993 325.52814Q264.21118 326.3094 264.21118 327.54376Q264.21118 328.7 263.5393 329.5594Q262.71118 330.59064 261.2893 330.59064Q260.11743 330.59064 259.36743 329.9344Q258.63306 329.27814 258.52368 328.2ZM265.52368 326.21564Q265.52368 324.6844 265.83618 323.7625Q266.14868 322.825 266.75806 322.325Q267.38306 321.825 268.32056 321.825Q269.00806 321.825 269.52368 322.10626Q270.05493 322.3875 270.39868 322.91876Q270.74243 323.4344 270.92993 324.1844Q271.11743 324.9344 271.11743 326.21564Q271.11743 327.73126 270.80493 328.65314Q270.50806 329.575 269.88306 330.09064Q269.27368 330.59064 268.32056 330.59064Q267.08618 330.59064 266.36743 329.7Q265.52368 328.6375 265.52368 326.21564ZM266.6018 326.21564Q266.6018 328.325 267.1018 329.02814Q267.6018 329.73126 268.32056 329.73126Q269.05493 329.73126 269.5393 329.02814Q270.0393 328.325 270.0393 326.21564Q270.0393 324.09064 269.5393 323.40314Q269.05493 322.7 268.30493 322.7Q267.58618 322.7 267.14868 323.3094Q266.6018 324.09064 266.6018 326.21564ZM272.52368 326.21564Q272.52368 324.6844 272.83618 323.7625Q273.14868 322.825 273.75806 322.325Q274.38306 321.825 275.32056 321.825Q276.00806 321.825 276.52368 322.10626Q277.05493 322.3875 277.39868 322.91876Q277.74243 323.4344 277.92993 324.1844Q278.11743 324.9344 278.11743 326.21564Q278.11743 327.73126 277.80493 328.65314Q277.50806 329.575 276.88306 330.09064Q276.27368 330.59064 275.32056 330.59064Q274.08618 330.59064 273.36743 329.7Q272.52368 328.6375 272.52368 326.21564ZM273.6018 326.21564Q273.6018 328.325 274.1018 329.02814Q274.6018 329.73126 275.32056 329.73126Q276.05493 329.73126 276.5393 329.02814Q277.0393 328.325 277.0393 326.21564Q277.0393 324.09064 276.5393 323.40314Q276.05493 322.7 275.30493 322.7Q274.58618 322.7 274.14868 323.3094Q273.6018 324.09064 273.6018 326.21564Z" fill-rule="nonzero"/><path fill="#000000" d="M365.90323 322.98126L365.90323 321.96564L371.46573 321.96564L371.46573 322.79376Q370.65323 323.66876 369.84073 325.1219Q369.04385 326.5594 368.60635 328.09064Q368.27823 329.16876 368.2001 330.45L367.10635 330.45Q367.12198 329.4344 367.49698 327.9969Q367.8876 326.5594 368.59073 325.23126Q369.30948 323.90314 370.12198 322.98126L365.90323 322.98126ZM372.84073 328.2L373.9501 328.10626Q374.0751 328.91876 374.5126 329.325Q374.96573 329.73126 375.60635 329.73126Q376.35635 329.73126 376.8876 329.15314Q377.41885 328.575 377.41885 327.6375Q377.41885 326.73126 376.90323 326.21564Q376.40323 325.6844 375.5751 325.6844Q375.0751 325.6844 374.65323 325.91876Q374.24698 326.15314 374.0126 326.5125L373.02823 326.3875L373.85635 321.98126L378.1376 321.98126L378.1376 322.98126L374.7001 322.98126L374.24698 325.29376Q375.0126 324.7469 375.85635 324.7469Q376.98135 324.7469 377.74698 325.52814Q378.52823 326.3094 378.52823 327.54376Q378.52823 328.7 377.85635 329.5594Q377.02823 330.59064 375.60635 330.59064Q374.43448 330.59064 373.68448 329.9344Q372.9501 329.27814 372.84073 328.2ZM379.84073 326.21564Q379.84073 324.6844 380.15323 323.7625Q380.46573 322.825 381.0751 322.325Q381.7001 321.825 382.6376 321.825Q383.3251 321.825 383.84073 322.10626Q384.37198 322.3875 384.71573 322.91876Q385.05948 323.4344 385.24698 324.1844Q385.43448 324.9344 385.43448 326.21564Q385.43448 327.73126 385.12198 328.65314Q384.8251 329.575 384.2001 330.09064Q383.59073 330.59064 382.6376 330.59064Q381.40323 330.59064 380.68448 329.7Q379.84073 328.6375 379.84073 326.21564ZM380.91885 326.21564Q380.91885 328.325 381.41885 329.02814Q381.91885 329.73126 382.6376 329.73126Q383.37198 329.73126 383.85635 329.02814Q384.35635 328.325 384.35635 326.21564Q384.35635 324.09064 383.85635 323.40314Q383.37198 322.7 382.62198 322.7Q381.90323 322.7 381.46573 323.3094Q380.91885 324.09064 380.91885 326.21564Z" fill-rule="nonzero"/><path fill="#000000" d="M473.62653 330.45L472.57965 330.45L472.57965 323.73126Q472.18903 324.09064 471.56403 324.46564Q470.95465 324.825 470.47028 324.9969L470.47028 323.98126Q471.34528 323.5594 472.00153 322.98126Q472.6734 322.3875 472.95465 321.825L473.62653 321.825L473.62653 330.45ZM476.65778 326.21564Q476.65778 324.6844 476.97028 323.7625Q477.28278 322.825 477.89215 322.325Q478.51715 321.825 479.45465 321.825Q480.14215 321.825 480.65778 322.10626Q481.18903 322.3875 481.53278 322.91876Q481.87653 323.4344 482.06403 324.1844Q482.25153 324.9344 482.25153 326.21564Q482.25153 327.73126 481.93903 328.65314Q481.64215 329.575 481.01715 330.09064Q480.40778 330.59064 479.45465 330.59064Q478.22028 330.59064 477.50153 329.7Q476.65778 328.6375 476.65778 326.21564ZM477.7359 326.21564Q477.7359 328.325 478.2359 329.02814Q478.7359 329.73126 479.45465 329.73126Q480.18903 329.73126 480.6734 329.02814Q481.1734 328.325 481.1734 326.21564Q481.1734 324.09064 480.6734 323.40314Q480.18903 322.7 479.43903 322.7Q478.72028 322.7 478.28278 323.3094Q477.7359 324.09064 477.7359 326.21564ZM483.65778 326.21564Q483.65778 324.6844 483.97028 323.7625Q484.28278 322.825 484.89215 322.325Q485.51715 321.825 486.45465 321.825Q487.14215 321.825 487.65778 322.10626Q488.18903 322.3875 488.53278 322.91876Q488.87653 323.4344 489.06403 324.1844Q489.25153 324.9344 489.25153 326.21564Q489.25153 327.73126 488.93903 328.65314Q488.64215 329.575 488.01715 330.09064Q487.40778 330.59064 486.45465 330.59064Q485.22028 330.59064 484.50153 329.7Q483.65778 328.6375 483.65778 326.21564ZM484.7359 326.21564Q484.7359 328.325 485.2359 329.02814Q485.7359 329.73126 486.45465 329.73126Q487.18903 329.73126 487.6734 329.02814Q488.1734 328.325 488.1734 326.21564Q488.1734 324.09064 487.6734 323.40314Q487.18903 322.7 486.43903 322.7Q485.72028 322.7 485.28278 323.3094Q484.7359 324.09064 484.7359 326.21564ZM490.65778 326.21564Q490.65778 324.6844 490.97028 323.7625Q491.28278 322.825 491.89215 322.325Q492.51715 321.825 493.45465 321.825Q494.14215 321.825 494.65778 322.10626Q495.18903 322.3875 495.53278 322.91876Q495.87653 323.4344 496.06403 324.1844Q496.25153 324.9344 496.25153 326.21564Q496.25153 327.73126 495.93903 328.65314Q495.64215 329.575 495.01715 330.09064Q494.40778 330.59064 493.45465 330.59064Q492.22028 330.59064 491.50153 329.7Q490.65778 328.6375 490.65778 326.21564ZM491.7359 326.21564Q491.7359 328.325 492.2359 329.02814Q492.7359 329.73126 493.45465 329.73126Q494.18903 329.73126 494.6734 329.02814Q495.1734 328.325 495.1734 326.21564Q495.1734 324.09064 494.6734 323.40314Q494.18903 322.7 493.43903 322.7Q492.72028 322.7 492.28278 323.3094Q491.7359 324.09064 491.7359 326.21564Z" fill-rule="nonzero"/></svg>