<svg version="1.1" viewBox="0.0 0.0 509.0 315.0" fill="none" stroke="none" stroke-linecap="square" stroke-miterlimit="10" width="509" height="315" xmlns:xlink="http://www.w3.org/1999/xlink" xmlns="http://www.w3.org/2000/svg"><path fill="#ffffff" d="M0 0L509.0 0L509.0 315.0L0 315.0L0 0Z" fill-rule="nonzero"/><path stroke="#cccccc" stroke-width="1.0" stroke-linecap="butt" d="M70.5 22.5L70.5 265.5" fill-rule="nonzero"/><path stroke="#cccccc" stroke-width="1.0" stroke-linecap="butt" d="M97.5 22.5L97.5 265.5" fill-rule="nonzero"/><path stroke="#cccccc" stroke-width="1.0" stroke-linecap="butt" d="M117.5 22.5L117.5 265.5" fill-rule="nonzero"/><path stroke="#cccccc" stroke-width="1.0" stroke-linecap="butt" d="M132.5 22.5L132.5 265.5" fill-rule="nonzero"/><path stroke="#cccccc" stroke-width="1.0" stroke-linecap="butt" d="M178.5 22.5L178.5 265.5" fill-rule="nonzero"/><path stroke="#cccccc" stroke-width="1.0" stroke-linecap="butt" d="M225.5 22.5L225.5 265.5" fill-rule="nonzero"/><path stroke="#cccccc" stroke-width="1.0" stroke-linecap="butt" d="M252.5 22.5L252.5 265.5" fill-rule="nonzero"/><path stroke="#cccccc" stroke-width="1.0" stroke-linecap="butt" d="M272.5 22.5L272.5 265.5" fill-rule="nonzero"/><path stroke="#cccccc" stroke-width="1.0" stroke-linecap="butt" d="M287.5 22.5L287.5 265.5" fill-rule="nonzero"/><path stroke="#cccccc" stroke-width="1.0" stroke-linecap="butt" d="M333.5 22.5L333.5 265.5" fill-rule="nonzero"/><path stroke="#cccccc" stroke-width="1.0" stroke-linecap="butt" d="M380.5 22.5L380.5 265.5" fill-rule="nonzero"/><path stroke="#cccccc" stroke-width="1.0" stroke-linecap="butt" d="M407.5 22.5L407.5 265.5" fill-rule="nonzero"/><path stroke="#cccccc" stroke-width="1.0" stroke-linecap="butt" d="M426.5 22.5L426.5 265.5" fill-rule="nonzero"/><path stroke="#cccccc" stroke-width="1.0" stroke-linecap="butt" d="M441.5 22.5L441.5 265.5" fill-rule="nonzero"/><path stroke="#cccccc" stroke-width="1.0" stroke-linecap="butt" d="M488.5 22.5L488.5 265.5" fill-rule="nonzero"/><path stroke="#333333" stroke-width="1.0" stroke-linecap="butt" d="M42.5 265.5L493.5 265.5" fill-rule="nonzero"/><path stroke="#cccccc" stroke-width="1.0" stroke-linecap="butt" d="M42.5 204.5L493.5 204.5" fill-rule="nonzero"/><path stroke="#cccccc" stroke-width="1.0" stroke-linecap="butt" d="M42.5 144.5L493.5 144.5" fill-rule="nonzero"/><path stroke="#cccccc" stroke-width="1.0" stroke-linecap="butt" d="M42.5 83.5L493.5 83.5" fill-rule="nonzero"/><path stroke="#cccccc" stroke-width="1.0" stroke-linecap="butt" d="M42.5 22.5L493.5 22.5" fill-rule="nonzero"/><path stroke="#e6e6e6" stroke-width="1.0" stroke-linecap="butt" d="M42.5 255.5L493.5 255.5" fill-rule="nonzero"/><path stroke="#e6e6e6" stroke-width="1.0" stroke-linecap="butt" d="M42.5 245.5L493.5 245.5" fill-rule="nonzero"/><path stroke="#e6e6e6" stroke-width="1.0" stroke-linecap="butt" d="M42.5 234.5L493.5 234.5" fill-rule="nonzero"/><path stroke="#e6e6e6" stroke-width="1.0" stroke-linecap="butt" d="M42.5 224.5L493.5 224.5" fill-rule="nonzero"/><path stroke="#e6e6e6" stroke-width="1.0" stroke-linecap="butt" d="M42.5 214.5L493.5 214.5" fill-rule="nonzero"/><path stroke="#e6e6e6" stroke-width="1.0" stroke-linecap="butt" d="M42.5 194.5L493.5 194.5" fill-rule="nonzero"/><path stroke="#e6e6e6" stroke-width="1.0" stroke-linecap="butt" d="M42.5 184.5L493.5 184.5" fill-rule="nonzero"/><path stroke="#e6e6e6" stroke-width="1.0" stroke-linecap="butt" d="M42.5 174.5L493.5 174.5" fill-rule="nonzero"/><path stroke="#e6e6e6" stroke-width="1.0" stroke-linecap="butt" d="M42.5 164.5L493.5 164.5" fill-rule="nonzero"/><path stroke="#e6e6e6" stroke-width="1.0" stroke-linecap="butt" d="M42.5 154.5L493.5 154.5" fill-rule="nonzero"/><path stroke="#e6e6e6" stroke-width="1.0" stroke-linecap="butt" d="M42.5 133.5L493.5 133.5" fill-rule="nonzero"/><path stroke="#e6e6e6" stroke-width="1.0" stroke-linecap="butt" d="M42.5 123.5L493.5 123.5" fill-rule="nonzero"/><path stroke="#e6e6e6" stroke-width="1.0" stroke-linecap="butt" d="M42.5 113.5L493.5 113.5" fill-rule="nonzero"/><path stroke="#e6e6e6" stroke-width="1.0" stroke-linecap="butt" d="M42.5 103.5L493.5 103.5" fill-rule="nonzero"/><path stroke="#e6e6e6" stroke-width="1.0" stroke-linecap="butt" d="M42.5 93.5L493.5 93.5" fill-rule="nonzero"/><path stroke="#e6e6e6" stroke-width="1.0" stroke-linecap="butt" d="M42.5 73.5L493.5 73.5" fill-rule="nonzero"/><path stroke="#e6e6e6" stroke-width="1.0" stroke-linecap="butt" d="M42.5 63.5L493.5 63.5" fill-rule="nonzero"/><path stroke="#e6e6e6" stroke-width="1.0" stroke-linecap="butt" d="M42.5 53.5L493.5 53.5" fill-rule="nonzero"/><path stroke="#e6e6e6" stroke-width="1.0" stroke-linecap="butt" d="M42.5 42.5L493.5 42.5" fill-rule="nonzero"/><path stroke="#e6e6e6" stroke-width="1.0" stroke-linecap="butt" d="M42.5 32.5L493.5 32.5" fill-rule="nonzero"/><clipPath id="id_0"><path d="M42.75 22.75L493.25 22.75L493.25 265.25L42.75 265.25L42.75 22.75Z" clip-rule="nonzero"/></clipPath><path fill="#ea4335" fill-opacity="0.8" clip-path="url(#id_0)" d="M88.485016 113.6875C88.485016 123.54307 80.4955 131.5326 70.63993 131.5326C60.78436 131.5326 52.794838 123.54307 52.794838 113.6875C52.794838 103.83193 60.78436 95.842415 70.63993 95.842415C80.4955 95.842415 88.485016 103.83193 88.485016 113.6875Z" fill-rule="nonzero"/><path fill="#fbbc04" fill-opacity="0.8" clip-path="url(#id_0)" d="M309.7274 174.3125C309.7274 177.6262 307.0411 180.3125 303.7274 180.3125C300.41367 180.3125 297.7274 177.6262 297.7274 174.3125C297.7274 170.9988 300.41367 168.3125 303.7274 168.3125C307.0411 168.3125 309.7274 170.9988 309.7274 174.3125Z" fill-rule="nonzero"/><path fill="#34a853" fill-opacity="0.8" clip-path="url(#id_0)" d="M323.09045 98.53125C323.09045 109.225174 314.42133 117.89431 303.7274 117.89431C293.03348 117.89431 284.36432 109.225174 284.36432 98.53125C284.36432 87.837326 293.03348 79.16819 303.7274 79.16819C314.42133 79.16819 323.09045 87.837326 323.09045 98.53125Z" fill-rule="nonzero"/><path fill="#ff6d01" fill-opacity="0.8" clip-path="url(#id_0)" d="M327.22375 53.0625C327.22375 66.03918 316.70407 76.55885 303.7274 76.55885C290.7507 76.55885 280.23102 66.03918 280.23102 53.0625C280.23102 40.085823 290.7507 29.566145 303.7274 29.566145C316.70407 29.566145 327.22375 40.085823 327.22375 53.0625Z" fill-rule="nonzero"/><path fill="#46bdc6" fill-opacity="0.8" clip-path="url(#id_0)" d="M375.5776 113.6875C375.5776 127.62315 364.28055 138.92023 350.34488 138.92023C336.40924 138.92023 325.11215 127.62315 325.11215 113.6875C325.11215 99.75185 336.40924 88.454765 350.34488 88.454765C364.28055 88.454765 375.5776 99.75185 375.5776 113.6875Z" fill-rule="nonzero"/><path fill="#7baaf7" fill-opacity="0.8" clip-path="url(#id_0)" d="M462.45685 256.15625C462.45685 266.58173 454.00534 275.03323 443.57986 275.03323C433.1544 275.03323 424.70288 266.58173 424.70288 256.15625C424.70288 245.73079 433.1544 237.27928 443.57986 237.27928C454.00534 237.27928 462.45685 245.73079 462.45685 256.15625Z" fill-rule="nonzero"/><path fill="#f07b72" fill-opacity="0.8" clip-path="url(#id_0)" d="M474.57986 174.3125C474.57986 191.43333 460.70068 205.3125 443.57986 205.3125C426.45905 205.3125 412.57986 191.43333 412.57986 174.3125C412.57986 157.19167 426.45905 143.3125 443.57986 143.3125C460.70068 143.3125 474.57986 157.19167 474.57986 174.3125Z" fill-rule="nonzero"/><path stroke="#ffffff" stroke-width="3.0" stroke-linejoin="round" stroke-linecap="round" clip-path="url(#id_0)" d="M63.233677 116.046875L64.45243 115.875Q64.67118 116.921875 65.17118 117.390625Q65.686806 117.84375 66.42118 117.84375Q67.29618 117.84375 67.88993 117.25Q68.48368 116.640625 68.48368 115.75Q68.48368 114.90625 67.92118 114.359375Q67.374306 113.8125 66.530556 113.8125Q66.17118 113.8125 65.655556 113.9375L65.79618 112.859375Q65.92118 112.875 65.98368 112.875Q66.780556 112.875 67.405556 112.46875Q68.030556 112.0625 68.030556 111.203125Q68.030556 110.53125 67.57743 110.09375Q67.124306 109.640625 66.38993 109.640625Q65.67118 109.640625 65.186806 110.09375Q64.718056 110.53125 64.57743 111.4375L63.358677 111.21875Q63.577427 109.984375 64.374306 109.3125Q65.17118 108.625 66.35868 108.625Q67.186806 108.625 67.874306 108.984375Q68.561806 109.328125 68.92118 109.9375Q69.29618 110.546875 69.29618 111.234375Q69.29618 111.875 68.95243 112.40625Q68.60868 112.9375 67.92118 113.265625Q68.811806 113.46875 69.29618 114.109375Q69.79618 114.75 69.79618 115.734375Q69.79618 117.046875 68.82743 117.953125Q67.874306 118.859375 66.42118 118.859375Q65.093056 118.859375 64.218056 118.078125Q63.358677 117.296875 63.233677 116.046875ZM77.686806 117.5L77.686806 118.6875L71.061806 118.6875Q71.04618 118.25 71.20243 117.828125Q71.468056 117.15625 72.01493 116.5Q72.57743 115.84375 73.624306 114.984375Q75.26493 113.640625 75.82743 112.859375Q76.405556 112.078125 76.405556 111.375Q76.405556 110.640625 75.874306 110.140625Q75.35868 109.640625 74.530556 109.640625Q73.63993 109.640625 73.093056 110.171875Q72.561806 110.703125 72.561806 111.65625L71.29618 111.515625Q71.42118 110.109375 72.26493 109.375Q73.124306 108.625 74.54618 108.625Q75.999306 108.625 76.82743 109.421875Q77.67118 110.21875 77.67118 111.40625Q77.67118 112.015625 77.42118 112.59375Q77.186806 113.171875 76.60868 113.8125Q76.04618 114.453125 74.718056 115.578125Q73.60868 116.5 73.29618 116.84375Q72.98368 117.171875 72.780556 117.5L77.686806 117.5Z" fill-rule="nonzero"/><path fill="#1a1a1a" clip-path="url(#id_0)" d="M63.233677 116.046875L64.45242 115.875Q64.67117 116.921875 65.17117 117.390625Q65.6868 117.84375 66.42117 117.84375Q67.29617 117.84375 67.88992 117.25Q68.48367 116.640625 68.48367 115.75Q68.48367 114.90625 67.92117 114.359375Q67.3743 113.8125 66.53055 113.8125Q66.17117 113.8125 65.65555 113.9375L65.79617 112.859375Q65.92117 112.875 65.98367 112.875Q66.78055 112.875 67.40555 112.46875Q68.03055 112.0625 68.03055 111.203125Q68.03055 110.53125 67.57742 110.09375Q67.1243 109.640625 66.38992 109.640625Q65.67117 109.640625 65.1868 110.09375Q64.71805 110.53125 64.57742 111.4375L63.358677 111.21875Q63.577427 109.984375 64.3743 109.3125Q65.17117 108.625 66.35867 108.625Q67.1868 108.625 67.8743 108.984375Q68.5618 109.328125 68.92117 109.9375Q69.29617 110.546875 69.29617 111.234375Q69.29617 111.875 68.95242 112.40625Q68.60867 112.9375 67.92117 113.265625Q68.8118 113.46875 69.29617 114.109375Q69.79617 114.75 69.79617 115.734375Q69.79617 117.046875 68.82742 117.953125Q67.8743 118.859375 66.42117 118.859375Q65.09305 118.859375 64.21805 118.078125Q63.358677 117.296875 63.233677 116.046875ZM77.6868 117.5L77.6868 118.6875L71.0618 118.6875Q71.04617 118.25 71.20242 117.828125Q71.46805 117.15625 72.01492 116.5Q72.57742 115.84375 73.6243 114.984375Q75.26492 113.640625 75.82742 112.859375Q76.40555 112.078125 76.40555 111.375Q76.40555 110.640625 75.8743 110.140625Q75.35867 109.640625 74.53055 109.640625Q73.63992 109.640625 73.09305 110.171875Q72.5618 110.703125 72.5618 111.65625L71.29617 111.515625Q71.42117 110.109375 72.26492 109.375Q73.1243 108.625 74.54617 108.625Q75.9993 108.625 76.82742 109.421875Q77.67117 110.21875 77.67117 111.40625Q77.67117 112.015625 77.42117 112.59375Q77.1868 113.171875 76.60867 113.8125Q76.04617 114.453125 74.71805 115.578125Q73.60867 116.5 73.29617 116.84375Q72.98367 117.171875 72.78055 117.5L77.6868 117.5Z" fill-rule="nonzero"/><path stroke="#ffffff" stroke-width="3.0" stroke-linejoin="round" stroke-linecap="round" clip-path="url(#id_0)" d="M302.77426 178.125L302.77426 179.3125L296.14926 179.3125Q296.13364 178.875 296.2899 178.45312Q296.5555 177.78125 297.1024 177.125Q297.6649 176.46875 298.71176 175.60938Q300.3524 174.26562 300.9149 173.48438Q301.493 172.70312 301.493 172.0Q301.493 171.26562 300.96176 170.76562Q300.44614 170.26562 299.618 170.26562Q298.7274 170.26562 298.1805 170.79688Q297.64926 171.32812 297.64926 172.28125L296.38364 172.14062Q296.50864 170.73438 297.3524 170.0Q298.21176 169.25 299.63364 169.25Q301.08676 169.25 301.9149 170.04688Q302.75864 170.84375 302.75864 172.03125Q302.75864 172.64062 302.50864 173.21875Q302.27426 173.79688 301.69614 174.4375Q301.13364 175.07812 299.8055 176.20312Q298.69614 177.125 298.38364 177.46875Q298.07114 177.79688 297.868 178.125L302.77426 178.125ZM308.94614 179.3125L307.71176 179.3125L307.71176 171.46875Q307.27426 171.89062 306.5399 172.32812Q305.82114 172.75 305.25864 172.95312L305.25864 171.76562Q306.2899 171.28125 307.0555 170.59375Q307.83676 169.90625 308.14926 169.25L308.94614 169.25L308.94614 179.3125Z" fill-rule="nonzero"/><path fill="#1a1a1a" clip-path="url(#id_0)" d="M302.77426 178.125L302.77426 179.3125L296.14926 179.3125Q296.13364 178.875 296.2899 178.45312Q296.5555 177.78125 297.1024 177.125Q297.6649 176.46875 298.71176 175.60938Q300.3524 174.26562 300.9149 173.48438Q301.493 172.70312 301.493 172.0Q301.493 171.26562 300.96176 170.76562Q300.44614 170.26562 299.618 170.26562Q298.7274 170.26562 298.1805 170.79688Q297.64926 171.32812 297.64926 172.28125L296.38364 172.14062Q296.50864 170.73438 297.3524 170.0Q298.21176 169.25 299.63364 169.25Q301.08676 169.25 301.9149 170.04688Q302.75864 170.84375 302.75864 172.03125Q302.75864 172.64062 302.50864 173.21875Q302.27426 173.79688 301.69614 174.4375Q301.13364 175.07812 299.8055 176.20312Q298.69614 177.125 298.38364 177.46875Q298.07114 177.79688 297.868 178.125L302.77426 178.125ZM308.94614 179.3125L307.71176 179.3125L307.71176 171.46875Q307.27426 171.89062 306.5399 172.32812Q305.82114 172.75 305.25864 172.95312L305.25864 171.76562Q306.2899 171.28125 307.0555 170.59375Q307.83676 169.90625 308.14926 169.25L308.94614 169.25L308.94614 179.3125Z" fill-rule="nonzero"/><path stroke="#ffffff" stroke-width="3.0" stroke-linejoin="round" stroke-linecap="round" clip-path="url(#id_0)" d="M296.32114 100.890625L297.5399 100.71875Q297.75864 101.765625 298.25864 102.234375Q298.77426 102.6875 299.50864 102.6875Q300.38364 102.6875 300.9774 102.09375Q301.57114 101.484375 301.57114 100.59375Q301.57114 99.75 301.00864 99.203125Q300.46176 98.65625 299.618 98.65625Q299.25864 98.65625 298.743 98.78125L298.88364 97.703125Q299.00864 97.71875 299.07114 97.71875Q299.868 97.71875 300.493 97.3125Q301.118 96.90625 301.118 96.046875Q301.118 95.375 300.6649 94.9375Q300.21176 94.484375 299.4774 94.484375Q298.75864 94.484375 298.27426 94.9375Q297.8055 95.375 297.6649 96.28125L296.44614 96.0625Q296.6649 94.828125 297.46176 94.15625Q298.25864 93.46875 299.44614 93.46875Q300.27426 93.46875 300.96176 93.828125Q301.64926 94.171875 302.00864 94.78125Q302.38364 95.390625 302.38364 96.078125Q302.38364 96.71875 302.0399 97.25Q301.69614 97.78125 301.00864 98.109375Q301.89926 98.3125 302.38364 98.953125Q302.88364 99.59375 302.88364 100.578125Q302.88364 101.890625 301.9149 102.796875Q300.96176 103.703125 299.50864 103.703125Q298.1805 103.703125 297.3055 102.921875Q296.44614 102.140625 296.32114 100.890625ZM304.3055 100.90625L305.6024 100.796875Q305.743 101.734375 306.25864 102.21875Q306.7899 102.6875 307.52426 102.6875Q308.4149 102.6875 309.02426 102.015625Q309.64926 101.34375 309.64926 100.25Q309.64926 99.1875 309.0555 98.578125Q308.46176 97.96875 307.50864 97.96875Q306.9149 97.96875 306.4305 98.25Q305.96176 98.515625 305.6805 98.9375L304.52426 98.796875L305.493 93.640625L310.4774 93.640625L310.4774 94.828125L306.4774 94.828125L305.94614 97.515625Q306.8524 96.890625 307.83676 96.890625Q309.14926 96.890625 310.0399 97.796875Q310.94614 98.703125 310.94614 100.140625Q310.94614 101.5 310.1649 102.484375Q309.19614 103.703125 307.52426 103.703125Q306.1649 103.703125 305.2899 102.9375Q304.4305 102.171875 304.3055 100.90625Z" fill-rule="nonzero"/><path fill="#1a1a1a" clip-path="url(#id_0)" d="M296.32114 100.890625L297.5399 100.71875Q297.75864 101.765625 298.25864 102.234375Q298.77426 102.6875 299.50864 102.6875Q300.38364 102.6875 300.9774 102.09375Q301.57114 101.484375 301.57114 100.59375Q301.57114 99.75 301.00864 99.203125Q300.46176 98.65625 299.618 98.65625Q299.25864 98.65625 298.743 98.78125L298.88364 97.703125Q299.00864 97.71875 299.07114 97.71875Q299.868 97.71875 300.493 97.3125Q301.118 96.90625 301.118 96.046875Q301.118 95.375 300.6649 94.9375Q300.21176 94.484375 299.4774 94.484375Q298.75864 94.484375 298.27426 94.9375Q297.8055 95.375 297.6649 96.28125L296.44614 96.0625Q296.6649 94.828125 297.46176 94.15625Q298.25864 93.46875 299.44614 93.46875Q300.27426 93.46875 300.96176 93.828125Q301.64926 94.171875 302.00864 94.78125Q302.38364 95.390625 302.38364 96.078125Q302.38364 96.71875 302.0399 97.25Q301.69614 97.78125 301.00864 98.109375Q301.89926 98.3125 302.38364 98.953125Q302.88364 99.59375 302.88364 100.578125Q302.88364 101.890625 301.9149 102.796875Q300.96176 103.703125 299.50864 103.703125Q298.1805 103.703125 297.3055 102.921875Q296.44614 102.140625 296.32114 100.890625ZM304.3055 100.90625L305.6024 100.796875Q305.743 101.734375 306.25864 102.21875Q306.7899 102.6875 307.52426 102.6875Q308.4149 102.6875 309.02426 102.015625Q309.64926 101.34375 309.64926 100.25Q309.64926 99.1875 309.0555 98.578125Q308.46176 97.96875 307.50864 97.96875Q306.9149 97.96875 306.4305 98.25Q305.96176 98.515625 305.6805 98.9375L304.52426 98.796875L305.493 93.640625L310.4774 93.640625L310.4774 94.828125L306.4774 94.828125L305.94614 97.515625Q306.8524 96.890625 307.83676 96.890625Q309.14926 96.890625 310.0399 97.796875Q310.94614 98.703125 310.94614 100.140625Q310.94614 101.5 310.1649 102.484375Q309.19614 103.703125 307.52426 103.703125Q306.1649 103.703125 305.2899 102.9375Q304.4305 102.171875 304.3055 100.90625Z" fill-rule="nonzero"/><path stroke="#ffffff" stroke-width="3.0" stroke-linejoin="round" stroke-linecap="round" clip-path="url(#id_0)" d="M300.25864 58.0625L300.25864 55.65625L295.89926 55.65625L295.89926 54.53125L300.4774 48.046875L301.4774 48.046875L301.4774 54.53125L302.83676 54.53125L302.83676 55.65625L301.4774 55.65625L301.4774 58.0625L300.25864 58.0625ZM300.25864 54.53125L300.25864 50.015625L297.118 54.53125L300.25864 54.53125ZM304.3055 55.4375L305.6024 55.328125Q305.743 56.265625 306.25864 56.75Q306.7899 57.21875 307.52426 57.21875Q308.4149 57.21875 309.02426 56.546875Q309.64926 55.875 309.64926 54.78125Q309.64926 53.71875 309.0555 53.109375Q308.46176 52.5 307.50864 52.5Q306.9149 52.5 306.4305 52.78125Q305.96176 53.046875 305.6805 53.46875L304.52426 53.328125L305.493 48.171875L310.4774 48.171875L310.4774 49.359375L306.4774 49.359375L305.94614 52.046875Q306.8524 51.421875 307.83676 51.421875Q309.14926 51.421875 310.0399 52.328125Q310.94614 53.234375 310.94614 54.671875Q310.94614 56.03125 310.1649 57.015625Q309.19614 58.234375 307.52426 58.234375Q306.1649 58.234375 305.2899 57.46875Q304.4305 56.703125 304.3055 55.4375Z" fill-rule="nonzero"/><path fill="#1a1a1a" clip-path="url(#id_0)" d="M300.25864 58.0625L300.25864 55.65625L295.89926 55.65625L295.89926 54.53125L300.4774 48.046875L301.4774 48.046875L301.4774 54.53125L302.83676 54.53125L302.83676 55.65625L301.4774 55.65625L301.4774 58.0625L300.25864 58.0625ZM300.25864 54.53125L300.25864 50.015625L297.118 54.53125L300.25864 54.53125ZM304.3055 55.4375L305.6024 55.328125Q305.743 56.265625 306.25864 56.75Q306.7899 57.21875 307.52426 57.21875Q308.4149 57.21875 309.02426 56.546875Q309.64926 55.875 309.64926 54.78125Q309.64926 53.71875 309.0555 53.109375Q308.46176 52.5 307.50864 52.5Q306.9149 52.5 306.4305 52.78125Q305.96176 53.046875 305.6805 53.46875L304.52426 53.328125L305.493 48.171875L310.4774 48.171875L310.4774 49.359375L306.4774 49.359375L305.94614 52.046875Q306.8524 51.421875 307.83676 51.421875Q309.14926 51.421875 310.0399 52.328125Q310.94614 53.234375 310.94614 54.671875Q310.94614 56.03125 310.1649 57.015625Q309.19614 58.234375 307.52426 58.234375Q306.1649 58.234375 305.2899 57.46875Q304.4305 56.703125 304.3055 55.4375Z" fill-rule="nonzero"/><path stroke="#ffffff" stroke-width="3.0" stroke-linejoin="round" stroke-linecap="round" clip-path="url(#id_0)" d="M342.923 116.0625L344.21988 115.953125Q344.3605 116.890625 344.87613 117.375Q345.40738 117.84375 346.14175 117.84375Q347.03238 117.84375 347.64175 117.171875Q348.26675 116.5 348.26675 115.40625Q348.26675 114.34375 347.673 113.734375Q347.07925 113.125 346.12613 113.125Q345.53238 113.125 345.048 113.40625Q344.57925 113.671875 344.298 114.09375L343.14175 113.953125L344.1105 108.796875L349.09488 108.796875L349.09488 109.984375L345.09488 109.984375L344.56363 112.671875Q345.46988 112.046875 346.45425 112.046875Q347.76675 112.046875 348.65738 112.953125Q349.56363 113.859375 349.56363 115.296875Q349.56363 116.65625 348.78238 117.640625Q347.81363 118.859375 346.14175 118.859375Q344.78238 118.859375 343.90738 118.09375Q343.048 117.328125 342.923 116.0625ZM350.923 113.75Q350.923 111.96875 351.28238 110.890625Q351.65738 109.796875 352.37613 109.21875Q353.09488 108.625 354.18863 108.625Q355.00113 108.625 355.6105 108.953125Q356.21988 109.28125 356.6105 109.890625Q357.01675 110.5 357.2355 111.375Q357.45425 112.25 357.45425 113.75Q357.45425 115.515625 357.09488 116.59375Q356.7355 117.671875 356.01675 118.265625Q355.298 118.859375 354.18863 118.859375Q352.75113 118.859375 351.923 117.8125Q350.923 116.5625 350.923 113.75ZM352.18863 113.75Q352.18863 116.21875 352.76675 117.03125Q353.34488 117.84375 354.18863 117.84375Q355.048 117.84375 355.62613 117.03125Q356.20425 116.203125 356.20425 113.75Q356.20425 111.265625 355.62613 110.453125Q355.048 109.640625 354.173 109.640625Q353.32925 109.640625 352.82925 110.359375Q352.18863 111.28125 352.18863 113.75Z" fill-rule="nonzero"/><path fill="#1a1a1a" clip-path="url(#id_0)" d="M342.923 116.0625L344.21988 115.953125Q344.3605 116.890625 344.87613 117.375Q345.40738 117.84375 346.14175 117.84375Q347.03238 117.84375 347.64175 117.171875Q348.26675 116.5 348.26675 115.40625Q348.26675 114.34375 347.673 113.734375Q347.07925 113.125 346.12613 113.125Q345.53238 113.125 345.048 113.40625Q344.57925 113.671875 344.298 114.09375L343.14175 113.953125L344.1105 108.796875L349.09488 108.796875L349.09488 109.984375L345.09488 109.984375L344.56363 112.671875Q345.46988 112.046875 346.45425 112.046875Q347.76675 112.046875 348.65738 112.953125Q349.56363 113.859375 349.56363 115.296875Q349.56363 116.65625 348.78238 117.640625Q347.81363 118.859375 346.14175 118.859375Q344.78238 118.859375 343.90738 118.09375Q343.048 117.328125 342.923 116.0625ZM350.923 113.75Q350.923 111.96875 351.28238 110.890625Q351.65738 109.796875 352.37613 109.21875Q353.09488 108.625 354.18863 108.625Q355.00113 108.625 355.6105 108.953125Q356.21988 109.28125 356.6105 109.890625Q357.01675 110.5 357.2355 111.375Q357.45425 112.25 357.45425 113.75Q357.45425 115.515625 357.09488 116.59375Q356.7355 117.671875 356.01675 118.265625Q355.298 118.859375 354.18863 118.859375Q352.75113 118.859375 351.923 117.8125Q350.923 116.5625 350.923 113.75ZM352.18863 113.75Q352.18863 116.21875 352.76675 117.03125Q353.34488 117.84375 354.18863 117.84375Q355.048 117.84375 355.62613 117.03125Q356.20425 116.203125 356.20425 113.75Q356.20425 111.265625 355.62613 110.453125Q355.048 109.640625 354.173 109.640625Q353.32925 109.640625 352.82925 110.359375Q352.18863 111.28125 352.18863 113.75Z" fill-rule="nonzero"/><path stroke="#ffffff" stroke-width="3.0" stroke-linejoin="round" stroke-linecap="round" clip-path="url(#id_0)" d="M436.1736 258.51562L437.39236 258.34375Q437.6111 259.39062 438.1111 259.85938Q438.62674 260.3125 439.3611 260.3125Q440.2361 260.3125 440.82986 259.71875Q441.4236 259.10938 441.4236 258.21875Q441.4236 257.375 440.8611 256.82812Q440.31424 256.28125 439.4705 256.28125Q439.1111 256.28125 438.5955 256.40625L438.7361 255.32812Q438.8611 255.34375 438.9236 255.34375Q439.7205 255.34375 440.3455 254.9375Q440.9705 254.53125 440.9705 253.67188Q440.9705 253.0 440.51736 252.5625Q440.06424 252.10938 439.32986 252.10938Q438.6111 252.10938 438.12674 252.5625Q437.658 253.0 437.51736 253.90625L436.2986 253.6875Q436.51736 252.45312 437.31424 251.78125Q438.1111 251.09375 439.2986 251.09375Q440.12674 251.09375 440.81424 251.45312Q441.50174 251.79688 441.8611 252.40625Q442.2361 253.01562 442.2361 253.70312Q442.2361 254.34375 441.89236 254.875Q441.5486 255.40625 440.8611 255.73438Q441.75174 255.9375 442.2361 256.57812Q442.7361 257.21875 442.7361 258.20312Q442.7361 259.51562 441.76736 260.42188Q440.81424 261.32812 439.3611 261.32812Q438.033 261.32812 437.158 260.54688Q436.2986 259.76562 436.1736 258.51562ZM448.1111 261.15625L448.1111 258.75L443.75174 258.75L443.75174 257.625L448.32986 251.14062L449.32986 251.14062L449.32986 257.625L450.68924 257.625L450.68924 258.75L449.32986 258.75L449.32986 261.15625L448.1111 261.15625ZM448.1111 257.625L448.1111 253.10938L444.9705 257.625L448.1111 257.625Z" fill-rule="nonzero"/><path fill="#1a1a1a" clip-path="url(#id_0)" d="M436.1736 258.51562L437.39236 258.34375Q437.6111 259.39062 438.1111 259.85938Q438.62674 260.3125 439.3611 260.3125Q440.2361 260.3125 440.82986 259.71875Q441.4236 259.10938 441.4236 258.21875Q441.4236 257.375 440.8611 256.82812Q440.31424 256.28125 439.4705 256.28125Q439.1111 256.28125 438.5955 256.40625L438.7361 255.32812Q438.8611 255.34375 438.9236 255.34375Q439.7205 255.34375 440.3455 254.9375Q440.9705 254.53125 440.9705 253.67188Q440.9705 253.0 440.51736 252.5625Q440.06424 252.10938 439.32986 252.10938Q438.6111 252.10938 438.12674 252.5625Q437.658 253.0 437.51736 253.90625L436.2986 253.6875Q436.51736 252.45312 437.31424 251.78125Q438.1111 251.09375 439.2986 251.09375Q440.12674 251.09375 440.81424 251.45312Q441.50174 251.79688 441.8611 252.40625Q442.2361 253.01562 442.2361 253.70312Q442.2361 254.34375 441.89236 254.875Q441.5486 255.40625 440.8611 255.73438Q441.75174 255.9375 442.2361 256.57812Q442.7361 257.21875 442.7361 258.20312Q442.7361 259.51562 441.76736 260.42188Q440.81424 261.32812 439.3611 261.32812Q438.033 261.32812 437.158 260.54688Q436.2986 259.76562 436.1736 258.51562ZM448.1111 261.15625L448.1111 258.75L443.75174 258.75L443.75174 257.625L448.32986 251.14062L449.32986 251.14062L449.32986 257.625L450.68924 257.625L450.68924 258.75L449.32986 258.75L449.32986 261.15625L448.1111 261.15625ZM448.1111 257.625L448.1111 253.10938L444.9705 257.625L448.1111 257.625Z" fill-rule="nonzero"/><path stroke="#ffffff" stroke-width="3.0" stroke-linejoin="round" stroke-linecap="round" clip-path="url(#id_0)" d="M436.2361 170.60938L436.2361 169.42188L442.7361 169.42188L442.7361 170.375Q441.76736 171.39062 440.82986 173.07812Q439.89236 174.76562 439.37674 176.5625Q439.01736 177.8125 438.908 179.3125L437.64236 179.3125Q437.658 178.125 438.0955 176.45312Q438.5486 174.78125 439.37674 173.23438Q440.2205 171.67188 441.158 170.60938L436.2361 170.60938ZM444.158 174.375Q444.158 172.59375 444.51736 171.51562Q444.89236 170.42188 445.6111 169.84375Q446.32986 169.25 447.4236 169.25Q448.2361 169.25 448.8455 169.57812Q449.45486 169.90625 449.8455 170.51562Q450.25174 171.125 450.4705 172.0Q450.68924 172.875 450.68924 174.375Q450.68924 176.14062 450.32986 177.21875Q449.9705 178.29688 449.25174 178.89062Q448.533 179.48438 447.4236 179.48438Q445.9861 179.48438 445.158 178.4375Q444.158 177.1875 444.158 174.375ZM445.4236 174.375Q445.4236 176.84375 446.00174 177.65625Q446.57986 178.46875 447.4236 178.46875Q448.283 178.46875 448.8611 177.65625Q449.43924 176.82812 449.43924 174.375Q449.43924 171.89062 448.8611 171.07812Q448.283 170.26562 447.408 170.26562Q446.56424 170.26562 446.06424 170.98438Q445.4236 171.90625 445.4236 174.375Z" fill-rule="nonzero"/><path fill="#1a1a1a" clip-path="url(#id_0)" d="M436.2361 170.60938L436.2361 169.42188L442.7361 169.42188L442.7361 170.375Q441.76736 171.39062 440.82986 173.07812Q439.89236 174.76562 439.37674 176.5625Q439.01736 177.8125 438.908 179.3125L437.64236 179.3125Q437.658 178.125 438.0955 176.45312Q438.5486 174.78125 439.37674 173.23438Q440.2205 171.67188 441.158 170.60938L436.2361 170.60938ZM444.158 174.375Q444.158 172.59375 444.51736 171.51562Q444.89236 170.42188 445.6111 169.84375Q446.32986 169.25 447.4236 169.25Q448.2361 169.25 448.8455 169.57812Q449.45486 169.90625 449.8455 170.51562Q450.25174 171.125 450.4705 172.0Q450.68924 172.875 450.68924 174.375Q450.68924 176.14062 450.32986 177.21875Q449.9705 178.29688 449.25174 178.89062Q448.533 179.48438 447.4236 179.48438Q445.9861 179.48438 445.158 178.4375Q444.158 177.1875 444.158 174.375ZM445.4236 174.375Q445.4236 176.84375 446.00174 177.65625Q446.57986 178.46875 447.4236 178.46875Q448.283 178.46875 448.8611 177.65625Q449.43924 176.82812 449.43924 174.375Q449.43924 171.89062 448.8611 171.07812Q448.283 170.26562 447.408 170.26562Q446.56424 170.26562 446.06424 170.98438Q445.4236 171.90625 445.4236 174.375Z" fill-rule="nonzero"/><path fill="#000000" d="M30.25 265.01562Q30.25 263.48438 30.5625 262.5625Q30.875 261.625 31.484375 261.125Q32.109375 260.625 33.046875 260.625Q33.734375 260.625 34.25 260.90625Q34.78125 261.1875 35.125 261.71875Q35.46875 262.23438 35.65625 262.98438Q35.84375 263.73438 35.84375 265.01562Q35.84375 266.53125 35.53125 267.45312Q35.234375 268.375 34.609375 268.89062Q34.0 269.39062 33.046875 269.39062Q31.8125 269.39062 31.09375 268.5Q30.25 267.4375 30.25 265.01562ZM31.328125 265.01562Q31.328125 267.125 31.828125 267.82812Q32.328125 268.53125 33.046875 268.53125Q33.78125 268.53125 34.265625 267.82812Q34.765625 267.125 34.765625 265.01562Q34.765625 262.89062 34.265625 262.20312Q33.78125 261.5 33.03125 261.5Q32.3125 261.5 31.875 262.10938Q31.328125 262.89062 31.328125 265.01562Z" fill-rule="nonzero"/><path fill="#000000" d="M28.796875 207.60938L28.796875 208.625L23.109375 208.625Q23.109375 208.25 23.234375 207.89062Q23.453125 207.3125 23.921875 206.75Q24.40625 206.1875 25.3125 205.45312Q26.71875 204.29688 27.203125 203.625Q27.703125 202.95312 27.703125 202.35938Q27.703125 201.73438 27.25 201.3125Q26.796875 200.875 26.078125 200.875Q25.3125 200.875 24.859375 201.32812Q24.40625 201.78125 24.390625 202.59375L23.3125 202.48438Q23.421875 201.26562 24.140625 200.64062Q24.875 200.0 26.109375 200.0Q27.34375 200.0 28.0625 200.6875Q28.78125 201.375 28.78125 202.39062Q28.78125 202.90625 28.5625 203.40625Q28.359375 203.89062 27.859375 204.45312Q27.375 205.0 26.25 205.95312Q25.296875 206.75 25.015625 207.04688Q24.75 207.32812 24.578125 207.60938L28.796875 207.60938ZM30.25 204.39062Q30.25 202.85938 30.5625 201.9375Q30.875 201.0 31.484375 200.5Q32.109375 200.0 33.046875 200.0Q33.734375 200.0 34.25 200.28125Q34.78125 200.5625 35.125 201.09375Q35.46875 201.60938 35.65625 202.35938Q35.84375 203.10938 35.84375 204.39062Q35.84375 205.90625 35.53125 206.82812Q35.234375 207.75 34.609375 208.26562Q34.0 208.76562 33.046875 208.76562Q31.8125 208.76562 31.09375 207.875Q30.25 206.8125 30.25 204.39062ZM31.328125 204.39062Q31.328125 206.5 31.828125 207.20312Q32.328125 207.90625 33.046875 207.90625Q33.78125 207.90625 34.265625 207.20312Q34.765625 206.5 34.765625 204.39062Q34.765625 202.26562 34.265625 201.57812Q33.78125 200.875 33.03125 200.875Q32.3125 200.875 31.875 201.48438Q31.328125 202.26562 31.328125 204.39062Z" fill-rule="nonzero"/><path fill="#000000" d="M26.625 148.0L26.625 145.9375L22.90625 145.9375L22.90625 144.96875L26.828125 139.40625L27.6875 139.40625L27.6875 144.96875L28.84375 144.96875L28.84375 145.9375L27.6875 145.9375L27.6875 148.0L26.625 148.0ZM26.625 144.96875L26.625 141.10938L23.9375 144.96875L26.625 144.96875ZM30.25 143.76562Q30.25 142.23438 30.5625 141.3125Q30.875 140.375 31.484375 139.875Q32.109375 139.375 33.046875 139.375Q33.734375 139.375 34.25 139.65625Q34.78125 139.9375 35.125 140.46875Q35.46875 140.98438 35.65625 141.73438Q35.84375 142.48438 35.84375 143.76562Q35.84375 145.28125 35.53125 146.20312Q35.234375 147.125 34.609375 147.64062Q34.0 148.14062 33.046875 148.14062Q31.8125 148.14062 31.09375 147.25Q30.25 146.1875 30.25 143.76562ZM31.328125 143.76562Q31.328125 145.875 31.828125 146.57812Q32.328125 147.28125 33.046875 147.28125Q33.78125 147.28125 34.265625 146.57812Q34.765625 145.875 34.765625 143.76562Q34.765625 141.64062 34.265625 140.95312Q33.78125 140.25 33.03125 140.25Q32.3125 140.25 31.875 140.85938Q31.328125 141.64062 31.328125 143.76562Z" fill-rule="nonzero"/><path fill="#000000" d="M28.71875 80.890625L27.671875 80.96875Q27.53125 80.34375 27.28125 80.0625Q26.84375 79.609375 26.21875 79.609375Q25.71875 79.609375 25.328125 79.890625Q24.84375 80.265625 24.546875 80.96875Q24.265625 81.65625 24.25 82.9375Q24.625 82.359375 25.171875 82.078125Q25.734375 81.796875 26.34375 81.796875Q27.390625 81.796875 28.125 82.578125Q28.875 83.359375 28.875 84.578125Q28.875 85.390625 28.515625 86.09375Q28.171875 86.78125 27.5625 87.15625Q26.953125 87.515625 26.1875 87.515625Q24.859375 87.515625 24.03125 86.546875Q23.203125 85.578125 23.203125 83.359375Q23.203125 80.859375 24.125 79.734375Q24.921875 78.75 26.28125 78.75Q27.296875 78.75 27.9375 79.328125Q28.59375 79.890625 28.71875 80.890625ZM24.421875 84.59375Q24.421875 85.140625 24.640625 85.640625Q24.875 86.125 25.28125 86.390625Q25.703125 86.65625 26.171875 86.65625Q26.828125 86.65625 27.3125 86.125Q27.796875 85.578125 27.796875 84.65625Q27.796875 83.765625 27.3125 83.25Q26.84375 82.734375 26.125 82.734375Q25.40625 82.734375 24.90625 83.25Q24.421875 83.765625 24.421875 84.59375ZM30.25 83.140625Q30.25 81.609375 30.5625 80.6875Q30.875 79.75 31.484375 79.25Q32.109375 78.75 33.046875 78.75Q33.734375 78.75 34.25 79.03125Q34.78125 79.3125 35.125 79.84375Q35.46875 80.359375 35.65625 81.109375Q35.84375 81.859375 35.84375 83.140625Q35.84375 84.65625 35.53125 85.578125Q35.234375 86.5 34.609375 87.015625Q34.0 87.515625 33.046875 87.515625Q31.8125 87.515625 31.09375 86.625Q30.25 85.5625 30.25 83.140625ZM31.328125 83.140625Q31.328125 85.25 31.828125 85.953125Q32.328125 86.65625 33.046875 86.65625Q33.78125 86.65625 34.265625 85.953125Q34.765625 85.25 34.765625 83.140625Q34.765625 81.015625 34.265625 80.328125Q33.78125 79.625 33.03125 79.625Q32.3125 79.625 31.875 80.234375Q31.328125 81.015625 31.328125 83.140625Z" fill-rule="nonzero"/><path fill="#000000" d="M24.875 22.09375Q24.21875 21.84375 23.890625 21.40625Q23.578125 20.953125 23.578125 20.34375Q23.578125 19.40625 24.25 18.765625Q24.9375 18.125 26.046875 18.125Q27.171875 18.125 27.859375 18.78125Q28.546875 19.4375 28.546875 20.375Q28.546875 20.96875 28.234375 21.40625Q27.921875 21.84375 27.28125 22.09375Q28.078125 22.34375 28.484375 22.921875Q28.890625 23.5 28.890625 24.296875Q28.890625 25.390625 28.109375 26.140625Q27.34375 26.890625 26.0625 26.890625Q24.796875 26.890625 24.015625 26.140625Q23.234375 25.390625 23.234375 24.265625Q23.234375 23.421875 23.65625 22.859375Q24.09375 22.296875 24.875 22.09375ZM24.65625 20.296875Q24.65625 20.90625 25.046875 21.296875Q25.453125 21.6875 26.078125 21.6875Q26.6875 21.6875 27.078125 21.3125Q27.46875 20.921875 27.46875 20.359375Q27.46875 19.78125 27.0625 19.390625Q26.65625 18.984375 26.0625 18.984375Q25.453125 18.984375 25.046875 19.375Q24.65625 19.765625 24.65625 20.296875ZM24.328125 24.265625Q24.328125 24.71875 24.53125 25.140625Q24.75 25.5625 25.171875 25.796875Q25.59375 26.03125 26.078125 26.03125Q26.828125 26.03125 27.3125 25.546875Q27.8125 25.0625 27.8125 24.3125Q27.8125 23.546875 27.3125 23.046875Q26.8125 22.546875 26.046875 22.546875Q25.296875 22.546875 24.8125 23.046875Q24.328125 23.53125 24.328125 24.265625ZM30.25 22.515625Q30.25 20.984375 30.5625 20.0625Q30.875 19.125 31.484375 18.625Q32.109375 18.125 33.046875 18.125Q33.734375 18.125 34.25 18.40625Q34.78125 18.6875 35.125 19.21875Q35.46875 19.734375 35.65625 20.484375Q35.84375 21.234375 35.84375 22.515625Q35.84375 24.03125 35.53125 24.953125Q35.234375 25.875 34.609375 26.390625Q34.0 26.890625 33.046875 26.890625Q31.8125 26.890625 31.09375 26.0Q30.25 24.9375 30.25 22.515625ZM31.328125 22.515625Q31.328125 24.625 31.828125 25.328125Q32.328125 26.03125 33.046875 26.03125Q33.78125 26.03125 34.265625 25.328125Q34.765625 24.625 34.765625 22.515625Q34.765625 20.390625 34.265625 19.703125Q33.78125 19.0 33.03125 19.0Q32.3125 19.0 31.875 19.609375Q31.328125 20.390625 31.328125 22.515625Z" fill-rule="nonzero"/><path fill="#000000" d="M74.63993 274.375L72.57743 274.375L72.57743 278.09375L71.60868 278.09375L66.04618 274.17188L66.04618 273.3125L71.60868 273.3125L71.60868 272.15625L72.57743 272.15625L72.57743 273.3125L74.63993 273.3125L74.63993 274.375ZM71.60868 274.375L67.749306 274.375L71.60868 277.0625L71.60868 274.375Z" fill-rule="nonzero"/><path fill="#000000" d="M95.42504 272.28125L95.50317 273.32812Q94.87817 273.46875 94.59692 273.71875Q94.14379 274.15625 94.14379 274.78125Q94.14379 275.28125 94.42504 275.67188Q94.80004 276.15625 95.50317 276.45312Q96.19067 276.73438 97.47192 276.75Q96.89379 276.375 96.61254 275.82812Q96.33129 275.26562 96.33129 274.65625Q96.33129 273.60938 97.11254 272.875Q97.89379 272.125 99.11254 272.125Q99.92504 272.125 100.62817 272.48438Q101.31567 272.82812 101.69067 273.4375Q102.05004 274.04688 102.05004 274.8125Q102.05004 276.14062 101.08129 276.96875Q100.11254 277.79688 97.89379 277.79688Q95.39379 277.79688 94.26879 276.875Q93.28442 276.07812 93.28442 274.71875Q93.28442 273.70312 93.86254 273.0625Q94.42504 272.40625 95.42504 272.28125ZM99.12817 276.57812Q99.67504 276.57812 100.17504 276.35938Q100.65942 276.125 100.92504 275.71875Q101.19067 275.29688 101.19067 274.82812Q101.19067 274.17188 100.65942 273.6875Q100.11254 273.20312 99.19067 273.20312Q98.30004 273.20312 97.78442 273.6875Q97.26879 274.15625 97.26879 274.875Q97.26879 275.59375 97.78442 276.09375Q98.30004 276.57812 99.12817 276.57812Z" fill-rule="nonzero"/><path fill="#000000" d="M116.60117 276.125Q116.35117 276.78125 115.91367 277.10938Q115.46055 277.42188 114.85117 277.42188Q113.91367 277.42188 113.27305 276.75Q112.63242 276.0625 112.63242 274.95312Q112.63242 273.82812 113.28867 273.14062Q113.94492 272.45312 114.88242 272.45312Q115.47617 272.45312 115.91367 272.76562Q116.35117 273.07812 116.60117 273.71875Q116.85117 272.92188 117.4293 272.51562Q118.00742 272.10938 118.8043 272.10938Q119.89805 272.10938 120.64805 272.89062Q121.39805 273.65625 121.39805 274.9375Q121.39805 276.20312 120.64805 276.98438Q119.89805 277.76562 118.77305 277.76562Q117.9293 277.76562 117.3668 277.34375Q116.8043 276.90625 116.60117 276.125ZM114.8043 276.34375Q115.41367 276.34375 115.8043 275.95312Q116.19492 275.54688 116.19492 274.92188Q116.19492 274.3125 115.81992 273.92188Q115.4293 273.53125 114.8668 273.53125Q114.28867 273.53125 113.89805 273.9375Q113.4918 274.34375 113.4918 274.9375Q113.4918 275.54688 113.88242 275.95312Q114.27305 276.34375 114.8043 276.34375ZM118.77305 276.67188Q119.22617 276.67188 119.64805 276.46875Q120.06992 276.25 120.3043 275.82812Q120.53867 275.40625 120.53867 274.92188Q120.53867 274.17188 120.0543 273.6875Q119.56992 273.1875 118.81992 273.1875Q118.0543 273.1875 117.5543 273.6875Q117.0543 274.1875 117.0543 274.95312Q117.0543 275.70312 117.5543 276.1875Q118.03867 276.67188 118.77305 276.67188Z" fill-rule="nonzero"/><path fill="#000000" d="M136.26491 280.78125L136.26491 281.82812L129.54616 281.82812Q129.90553 282.21875 130.28053 282.84375Q130.63991 283.45312 130.81178 283.9375L129.79616 283.9375Q129.37428 283.0625 128.79616 282.40625Q128.20241 281.73438 127.6399 281.45312L127.6399 280.78125L136.26491 280.78125ZM132.03053 277.75Q130.49928 277.75 129.57741 277.4375Q128.63991 277.125 128.13991 276.51562Q127.6399 275.89062 127.6399 274.95312Q127.6399 274.26562 127.92115 273.75Q128.20241 273.21875 128.73366 272.875Q129.24928 272.53125 129.99928 272.34375Q130.74928 272.15625 132.03053 272.15625Q133.54616 272.15625 134.46803 272.46875Q135.38991 272.76562 135.90553 273.39062Q136.40553 274.0 136.40553 274.95312Q136.40553 276.1875 135.51491 276.90625Q134.45241 277.75 132.03053 277.75ZM132.03053 276.67188Q134.13991 276.67188 134.84303 276.17188Q135.54616 275.67188 135.54616 274.95312Q135.54616 274.21875 134.84303 273.73438Q134.13991 273.23438 132.03053 273.23438Q129.90553 273.23438 129.21803 273.73438Q128.51491 274.21875 128.51491 274.96875Q128.51491 275.6875 129.12428 276.125Q129.90553 276.67188 132.03053 276.67188Z" fill-rule="nonzero"/><path fill="#000000" d="M181.86676 279.20312L182.88239 279.20312L182.88239 284.89062Q182.50739 284.89062 182.14801 284.76562Q181.56989 284.54688 181.00739 284.07812Q180.44489 283.59375 179.71051 282.6875Q178.55426 281.28125 177.88239 280.79688Q177.21051 280.29688 176.61676 280.29688Q175.99176 280.29688 175.56989 280.75Q175.13239 281.20312 175.13239 281.92188Q175.13239 282.6875 175.58551 283.14062Q176.03864 283.59375 176.85114 283.60938L176.74176 284.6875Q175.52301 284.57812 174.89801 283.85938Q174.25739 283.125 174.25739 281.89062Q174.25739 280.65625 174.94489 279.9375Q175.63239 279.21875 176.64801 279.21875Q177.16364 279.21875 177.66364 279.4375Q178.14801 279.64062 178.71051 280.14062Q179.25739 280.625 180.21051 281.75Q181.00739 282.70312 181.30426 282.98438Q181.58551 283.25 181.86676 283.42188L181.86676 279.20312ZM178.64801 277.75Q177.11676 277.75 176.19489 277.4375Q175.25739 277.125 174.75739 276.51562Q174.25739 275.89062 174.25739 274.95312Q174.25739 274.26562 174.53864 273.75Q174.81989 273.21875 175.35114 272.875Q175.86676 272.53125 176.61676 272.34375Q177.36676 272.15625 178.64801 272.15625Q180.16364 272.15625 181.08551 272.46875Q182.00739 272.76562 182.52301 273.39062Q183.02301 274.0 183.02301 274.95312Q183.02301 276.1875 182.13239 276.90625Q181.06989 277.75 178.64801 277.75ZM178.64801 276.67188Q180.75739 276.67188 181.46051 276.17188Q182.16364 275.67188 182.16364 274.95312Q182.16364 274.21875 181.46051 273.73438Q180.75739 273.23438 178.64801 273.23438Q176.52301 273.23438 175.83551 273.73438Q175.13239 274.21875 175.13239 274.96875Q175.13239 275.6875 175.74176 276.125Q176.52301 276.67188 178.64801 276.67188Z" fill-rule="nonzero"/><path fill="#000000" d="M229.49988 281.375L227.43738 281.375L227.43738 285.09375L226.46863 285.09375L220.90613 281.17188L220.90613 280.3125L226.46863 280.3125L226.46863 279.15625L227.43738 279.15625L227.43738 280.3125L229.49988 280.3125L229.49988 281.375ZM226.46863 281.375L222.60925 281.375L226.46863 284.0625L226.46863 281.375ZM225.2655 277.75Q223.73425 277.75 222.81238 277.4375Q221.87488 277.125 221.37488 276.51562Q220.87488 275.89062 220.87488 274.95312Q220.87488 274.26562 221.15613 273.75Q221.43738 273.21875 221.96863 272.875Q222.48425 272.53125 223.23425 272.34375Q223.98425 272.15625 225.2655 272.15625Q226.78113 272.15625 227.703 272.46875Q228.62488 272.76562 229.1405 273.39062Q229.6405 274.0 229.6405 274.95312Q229.6405 276.1875 228.74988 276.90625Q227.68738 277.75 225.2655 277.75ZM225.2655 276.67188Q227.37488 276.67188 228.078 276.17188Q228.78113 275.67188 228.78113 274.95312Q228.78113 274.21875 228.078 273.73438Q227.37488 273.23438 225.2655 273.23438Q223.1405 273.23438 222.453 273.73438Q221.74988 274.21875 221.74988 274.96875Q221.74988 275.6875 222.35925 276.125Q223.1405 276.67188 225.2655 276.67188Z" fill-rule="nonzero"/><path fill="#000000" d="M250.28499 279.28125L250.36311 280.32812Q249.73811 280.46875 249.45686 280.71875Q249.00374 281.15625 249.00374 281.78125Q249.00374 282.28125 249.28499 282.67188Q249.65999 283.15625 250.36311 283.45312Q251.05061 283.73438 252.33186 283.75Q251.75374 283.375 251.47249 282.82812Q251.19124 282.26562 251.19124 281.65625Q251.19124 280.60938 251.97249 279.875Q252.75374 279.125 253.97249 279.125Q254.78499 279.125 255.48811 279.48438Q256.17563 279.82812 256.55063 280.4375Q256.91 281.04688 256.91 281.8125Q256.91 283.14062 255.94124 283.96875Q254.97249 284.79688 252.75374 284.79688Q250.25374 284.79688 249.12874 283.875Q248.14436 283.07812 248.14436 281.71875Q248.14436 280.70312 248.72249 280.0625Q249.28499 279.40625 250.28499 279.28125ZM253.98811 283.57812Q254.53499 283.57812 255.03499 283.35938Q255.51936 283.125 255.78499 282.71875Q256.05063 282.29688 256.05063 281.82812Q256.05063 281.17188 255.51936 280.6875Q254.97249 280.20312 254.05061 280.20312Q253.15999 280.20312 252.64436 280.6875Q252.12874 281.15625 252.12874 281.875Q252.12874 282.59375 252.64436 283.09375Q253.15999 283.57812 253.98811 283.57812ZM252.53499 277.75Q251.00374 277.75 250.08186 277.4375Q249.14436 277.125 248.64436 276.51562Q248.14436 275.89062 248.14436 274.95312Q248.14436 274.26562 248.42561 273.75Q248.70686 273.21875 249.23811 272.875Q249.75374 272.53125 250.50374 272.34375Q251.25374 272.15625 252.53499 272.15625Q254.05061 272.15625 254.97249 272.46875Q255.89436 272.76562 256.41 273.39062Q256.91 274.0 256.91 274.95312Q256.91 276.1875 256.01938 276.90625Q254.95686 277.75 252.53499 277.75ZM252.53499 276.67188Q254.64436 276.67188 255.34749 276.17188Q256.05063 275.67188 256.05063 274.95312Q256.05063 274.21875 255.34749 273.73438Q254.64436 273.23438 252.53499 273.23438Q250.40999 273.23438 249.72249 273.73438Q249.01936 274.21875 249.01936 274.96875Q249.01936 275.6875 249.62874 276.125Q250.40999 276.67188 252.53499 276.67188Z" fill-rule="nonzero"/><path fill="#000000" d="M271.46112 283.125Q271.21112 283.78125 270.77362 284.10938Q270.3205 284.42188 269.71112 284.42188Q268.77362 284.42188 268.133 283.75Q267.49237 283.0625 267.49237 281.95312Q267.49237 280.82812 268.14862 280.14062Q268.80487 279.45312 269.74237 279.45312Q270.33612 279.45312 270.77362 279.76562Q271.21112 280.07812 271.46112 280.71875Q271.71112 279.92188 272.28925 279.51562Q272.86737 279.10938 273.66425 279.10938Q274.758 279.10938 275.508 279.89062Q276.258 280.65625 276.258 281.9375Q276.258 283.20312 275.508 283.98438Q274.758 284.76562 273.633 284.76562Q272.78925 284.76562 272.22675 284.34375Q271.66425 283.90625 271.46112 283.125ZM269.66425 283.34375Q270.27362 283.34375 270.66425 282.95312Q271.05487 282.54688 271.05487 281.92188Q271.05487 281.3125 270.67987 280.92188Q270.28925 280.53125 269.72675 280.53125Q269.14862 280.53125 268.758 280.9375Q268.35175 281.34375 268.35175 281.9375Q268.35175 282.54688 268.74237 282.95312Q269.133 283.34375 269.66425 283.34375ZM273.633 283.67188Q274.08612 283.67188 274.508 283.46875Q274.92987 283.25 275.16425 282.82812Q275.39862 282.40625 275.39862 281.92188Q275.39862 281.17188 274.91425 280.6875Q274.42987 280.1875 273.67987 280.1875Q272.91425 280.1875 272.41425 280.6875Q271.91425 281.1875 271.91425 281.95312Q271.91425 282.70312 272.41425 283.1875Q272.89862 283.67188 273.633 283.67188ZM271.883 277.75Q270.35175 277.75 269.42987 277.4375Q268.49237 277.125 267.99237 276.51562Q267.49237 275.89062 267.49237 274.95312Q267.49237 274.26562 267.77362 273.75Q268.05487 273.21875 268.58612 272.875Q269.10175 272.53125 269.85175 272.34375Q270.60175 272.15625 271.883 272.15625Q273.39862 272.15625 274.3205 272.46875Q275.24237 272.76562 275.758 273.39062Q276.258 274.0 276.258 274.95312Q276.258 276.1875 275.36737 276.90625Q274.30487 277.75 271.883 277.75ZM271.883 276.67188Q273.99237 276.67188 274.6955 276.17188Q275.39862 275.67188 275.39862 274.95312Q275.39862 274.21875 274.6955 273.73438Q273.99237 273.23438 271.883 273.23438Q269.758 273.23438 269.0705 273.73438Q268.36737 274.21875 268.36737 274.96875Q268.36737 275.6875 268.97675 276.125Q269.758 276.67188 271.883 276.67188Z" fill-rule="nonzero"/><path fill="#000000" d="M291.12485 287.78125L291.12485 288.82812L284.4061 288.82812Q284.76547 289.21875 285.14047 289.84375Q285.49985 290.45312 285.67172 290.9375L284.6561 290.9375Q284.23422 290.0625 283.6561 289.40625Q283.06235 288.73438 282.49985 288.45312L282.49985 287.78125L291.12485 287.78125ZM286.89047 284.75Q285.35922 284.75 284.43735 284.4375Q283.49985 284.125 282.99985 283.51562Q282.49985 282.89062 282.49985 281.95312Q282.49985 281.26562 282.7811 280.75Q283.06235 280.21875 283.5936 279.875Q284.10922 279.53125 284.85922 279.34375Q285.60922 279.15625 286.89047 279.15625Q288.4061 279.15625 289.32797 279.46875Q290.24985 279.76562 290.76547 280.39062Q291.26547 281.0 291.26547 281.95312Q291.26547 283.1875 290.37485 283.90625Q289.31235 284.75 286.89047 284.75ZM286.89047 283.67188Q288.99985 283.67188 289.70297 283.17188Q290.4061 282.67188 290.4061 281.95312Q290.4061 281.21875 289.70297 280.73438Q288.99985 280.23438 286.89047 280.23438Q284.76547 280.23438 284.07797 280.73438Q283.37485 281.21875 283.37485 281.96875Q283.37485 282.6875 283.98422 283.125Q284.76547 283.67188 286.89047 283.67188ZM286.89047 277.75Q285.35922 277.75 284.43735 277.4375Q283.49985 277.125 282.99985 276.51562Q282.49985 275.89062 282.49985 274.95312Q282.49985 274.26562 282.7811 273.75Q283.06235 273.21875 283.5936 272.875Q284.10922 272.53125 284.85922 272.34375Q285.60922 272.15625 286.89047 272.15625Q288.4061 272.15625 289.32797 272.46875Q290.24985 272.76562 290.76547 273.39062Q291.26547 274.0 291.26547 274.95312Q291.26547 276.1875 290.37485 276.90625Q289.31235 277.75 286.89047 277.75ZM286.89047 276.67188Q288.99985 276.67188 289.70297 276.17188Q290.4061 275.67188 290.4061 274.95312Q290.4061 274.21875 289.70297 273.73438Q288.99985 273.23438 286.89047 273.23438Q284.76547 273.23438 284.07797 273.73438Q283.37485 274.21875 283.37485 274.96875Q283.37485 275.6875 283.98422 276.125Q284.76547 276.67188 286.89047 276.67188Z" fill-rule="nonzero"/><path fill="#000000" d="M336.7267 286.20312L337.74234 286.20312L337.74234 291.89062Q337.36734 291.89062 337.00797 291.76562Q336.42984 291.54688 335.86734 291.07812Q335.30484 290.59375 334.57047 289.6875Q333.4142 288.28125 332.74234 287.79688Q332.07047 287.29688 331.4767 287.29688Q330.8517 287.29688 330.42984 287.75Q329.99234 288.20312 329.99234 288.92188Q329.99234 289.6875 330.44547 290.14062Q330.8986 290.59375 331.7111 290.60938L331.6017 291.6875Q330.38297 291.57812 329.75797 290.85938Q329.11734 290.125 329.11734 288.89062Q329.11734 287.65625 329.80484 286.9375Q330.49234 286.21875 331.50797 286.21875Q332.0236 286.21875 332.5236 286.4375Q333.00797 286.64062 333.57047 287.14062Q334.11734 287.625 335.07047 288.75Q335.86734 289.70312 336.1642 289.98438Q336.44547 290.25 336.7267 290.42188L336.7267 286.20312ZM333.50797 284.75Q331.9767 284.75 331.05484 284.4375Q330.11734 284.125 329.61734 283.51562Q329.11734 282.89062 329.11734 281.95312Q329.11734 281.26562 329.3986 280.75Q329.67984 280.21875 330.2111 279.875Q330.7267 279.53125 331.4767 279.34375Q332.2267 279.15625 333.50797 279.15625Q335.0236 279.15625 335.94547 279.46875Q336.86734 279.76562 337.38297 280.39062Q337.88297 281.0 337.88297 281.95312Q337.88297 283.1875 336.99234 283.90625Q335.92984 284.75 333.50797 284.75ZM333.50797 283.67188Q335.61734 283.67188 336.32047 283.17188Q337.0236 282.67188 337.0236 281.95312Q337.0236 281.21875 336.32047 280.73438Q335.61734 280.23438 333.50797 280.23438Q331.38297 280.23438 330.69547 280.73438Q329.99234 281.21875 329.99234 281.96875Q329.99234 282.6875 330.6017 283.125Q331.38297 283.67188 333.50797 283.67188ZM333.50797 277.75Q331.9767 277.75 331.05484 277.4375Q330.11734 277.125 329.61734 276.51562Q329.11734 275.89062 329.11734 274.95312Q329.11734 274.26562 329.3986 273.75Q329.67984 273.21875 330.2111 272.875Q330.7267 272.53125 331.4767 272.34375Q332.2267 272.15625 333.50797 272.15625Q335.0236 272.15625 335.94547 272.46875Q336.86734 272.76562 337.38297 273.39062Q337.88297 274.0 337.88297 274.95312Q337.88297 276.1875 336.99234 276.90625Q335.92984 277.75 333.50797 277.75ZM333.50797 276.67188Q335.61734 276.67188 336.32047 276.17188Q337.0236 275.67188 337.0236 274.95312Q337.0236 274.21875 336.32047 273.73438Q335.61734 273.23438 333.50797 273.23438Q331.38297 273.23438 330.69547 273.73438Q329.99234 274.21875 329.99234 274.96875Q329.99234 275.6875 330.6017 276.125Q331.38297 276.67188 333.50797 276.67188Z" fill-rule="nonzero"/><path fill="#000000" d="M384.35983 288.375L382.29733 288.375L382.29733 292.09375L381.32858 292.09375L375.76608 288.17188L375.76608 287.3125L381.32858 287.3125L381.32858 286.15625L382.29733 286.15625L382.29733 287.3125L384.35983 287.3125L384.35983 288.375ZM381.32858 288.375L377.4692 288.375L381.32858 291.0625L381.32858 288.375ZM380.12546 284.75Q378.5942 284.75 377.67233 284.4375Q376.73483 284.125 376.23483 283.51562Q375.73483 282.89062 375.73483 281.95312Q375.73483 281.26562 376.01608 280.75Q376.29733 280.21875 376.82858 279.875Q377.3442 279.53125 378.0942 279.34375Q378.8442 279.15625 380.12546 279.15625Q381.64108 279.15625 382.56296 279.46875Q383.48483 279.76562 384.00046 280.39062Q384.50046 281.0 384.50046 281.95312Q384.50046 283.1875 383.60983 283.90625Q382.54733 284.75 380.12546 284.75ZM380.12546 283.67188Q382.23483 283.67188 382.93796 283.17188Q383.64108 282.67188 383.64108 281.95312Q383.64108 281.21875 382.93796 280.73438Q382.23483 280.23438 380.12546 280.23438Q378.00046 280.23438 377.31296 280.73438Q376.60983 281.21875 376.60983 281.96875Q376.60983 282.6875 377.2192 283.125Q378.00046 283.67188 380.12546 283.67188ZM380.12546 277.75Q378.5942 277.75 377.67233 277.4375Q376.73483 277.125 376.23483 276.51562Q375.73483 275.89062 375.73483 274.95312Q375.73483 274.26562 376.01608 273.75Q376.29733 273.21875 376.82858 272.875Q377.3442 272.53125 378.0942 272.34375Q378.8442 272.15625 380.12546 272.15625Q381.64108 272.15625 382.56296 272.46875Q383.48483 272.76562 384.00046 273.39062Q384.50046 274.0 384.50046 274.95312Q384.50046 276.1875 383.60983 276.90625Q382.54733 277.75 380.12546 277.75ZM380.12546 276.67188Q382.23483 276.67188 382.93796 276.17188Q383.64108 275.67188 383.64108 274.95312Q383.64108 274.21875 382.93796 273.73438Q382.23483 273.23438 380.12546 273.23438Q378.00046 273.23438 377.31296 273.73438Q376.60983 274.21875 376.60983 274.96875Q376.60983 275.6875 377.2192 276.125Q378.00046 276.67188 380.12546 276.67188Z" fill-rule="nonzero"/><path fill="#000000" d="M405.14496 286.28125L405.22308 287.32812Q404.59808 287.46875 404.31683 287.71875Q403.8637 288.15625 403.8637 288.78125Q403.8637 289.28125 404.14496 289.67188Q404.51996 290.15625 405.22308 290.45312Q405.91058 290.73438 407.19183 290.75Q406.6137 290.375 406.33246 289.82812Q406.0512 289.26562 406.0512 288.65625Q406.0512 287.60938 406.83246 286.875Q407.6137 286.125 408.83246 286.125Q409.64496 286.125 410.34808 286.48438Q411.03558 286.82812 411.41058 287.4375Q411.76996 288.04688 411.76996 288.8125Q411.76996 290.14062 410.8012 290.96875Q409.83246 291.79688 407.6137 291.79688Q405.1137 291.79688 403.9887 290.875Q403.00433 290.07812 403.00433 288.71875Q403.00433 287.70312 403.58246 287.0625Q404.14496 286.40625 405.14496 286.28125ZM408.84808 290.57812Q409.39496 290.57812 409.89496 290.35938Q410.37933 290.125 410.64496 289.71875Q410.91058 289.29688 410.91058 288.82812Q410.91058 288.17188 410.37933 287.6875Q409.83246 287.20312 408.91058 287.20312Q408.01996 287.20312 407.50433 287.6875Q406.9887 288.15625 406.9887 288.875Q406.9887 289.59375 407.50433 290.09375Q408.01996 290.57812 408.84808 290.57812ZM407.39496 284.75Q405.8637 284.75 404.94183 284.4375Q404.00433 284.125 403.50433 283.51562Q403.00433 282.89062 403.00433 281.95312Q403.00433 281.26562 403.28558 280.75Q403.56683 280.21875 404.09808 279.875Q404.6137 279.53125 405.3637 279.34375Q406.1137 279.15625 407.39496 279.15625Q408.91058 279.15625 409.83246 279.46875Q410.75433 279.76562 411.26996 280.39062Q411.76996 281.0 411.76996 281.95312Q411.76996 283.1875 410.87933 283.90625Q409.81683 284.75 407.39496 284.75ZM407.39496 283.67188Q409.50433 283.67188 410.20746 283.17188Q410.91058 282.67188 410.91058 281.95312Q410.91058 281.21875 410.20746 280.73438Q409.50433 280.23438 407.39496 280.23438Q405.26996 280.23438 404.58246 280.73438Q403.87933 281.21875 403.87933 281.96875Q403.87933 282.6875 404.4887 283.125Q405.26996 283.67188 407.39496 283.67188ZM407.39496 277.75Q405.8637 277.75 404.94183 277.4375Q404.00433 277.125 403.50433 276.51562Q403.00433 275.89062 403.00433 274.95312Q403.00433 274.26562 403.28558 273.75Q403.56683 273.21875 404.09808 272.875Q404.6137 272.53125 405.3637 272.34375Q406.1137 272.15625 407.39496 272.15625Q408.91058 272.15625 409.83246 272.46875Q410.75433 272.76562 411.26996 273.39062Q411.76996 274.0 411.76996 274.95312Q411.76996 276.1875 410.87933 276.90625Q409.81683 277.75 407.39496 277.75ZM407.39496 276.67188Q409.50433 276.67188 410.20746 276.17188Q410.91058 275.67188 410.91058 274.95312Q410.91058 274.21875 410.20746 273.73438Q409.50433 273.23438 407.39496 273.23438Q405.26996 273.23438 404.58246 273.73438Q403.87933 274.21875 403.87933 274.96875Q403.87933 275.6875 404.4887 276.125Q405.26996 276.67188 407.39496 276.67188Z" fill-rule="nonzero"/><path fill="#000000" d="M426.32108 290.125Q426.07108 290.78125 425.63358 291.10938Q425.18045 291.42188 424.57108 291.42188Q423.63358 291.42188 422.99295 290.75Q422.35233 290.0625 422.35233 288.95312Q422.35233 287.82812 423.00858 287.14062Q423.66483 286.45312 424.60233 286.45312Q425.19608 286.45312 425.63358 286.76562Q426.07108 287.07812 426.32108 287.71875Q426.57108 286.92188 427.1492 286.51562Q427.72733 286.10938 428.5242 286.10938Q429.61795 286.10938 430.36795 286.89062Q431.11795 287.65625 431.11795 288.9375Q431.11795 290.20312 430.36795 290.98438Q429.61795 291.76562 428.49295 291.76562Q427.6492 291.76562 427.0867 291.34375Q426.5242 290.90625 426.32108 290.125ZM424.5242 290.34375Q425.13358 290.34375 425.5242 289.95312Q425.91483 289.54688 425.91483 288.92188Q425.91483 288.3125 425.53983 287.92188Q425.1492 287.53125 424.5867 287.53125Q424.00858 287.53125 423.61795 287.9375Q423.2117 288.34375 423.2117 288.9375Q423.2117 289.54688 423.60233 289.95312Q423.99295 290.34375 424.5242 290.34375ZM428.49295 290.67188Q428.94608 290.67188 429.36795 290.46875Q429.78983 290.25 430.0242 289.82812Q430.25858 289.40625 430.25858 288.92188Q430.25858 288.17188 429.7742 287.6875Q429.28983 287.1875 428.53983 287.1875Q427.7742 287.1875 427.2742 287.6875Q426.7742 288.1875 426.7742 288.95312Q426.7742 289.70312 427.2742 290.1875Q427.75858 290.67188 428.49295 290.67188ZM426.74295 284.75Q425.2117 284.75 424.28983 284.4375Q423.35233 284.125 422.85233 283.51562Q422.35233 282.89062 422.35233 281.95312Q422.35233 281.26562 422.63358 280.75Q422.91483 280.21875 423.44608 279.875Q423.9617 279.53125 424.7117 279.34375Q425.4617 279.15625 426.74295 279.15625Q428.25858 279.15625 429.18045 279.46875Q430.10233 279.76562 430.61795 280.39062Q431.11795 281.0 431.11795 281.95312Q431.11795 283.1875 430.22733 283.90625Q429.16483 284.75 426.74295 284.75ZM426.74295 283.67188Q428.85233 283.67188 429.55545 283.17188Q430.25858 282.67188 430.25858 281.95312Q430.25858 281.21875 429.55545 280.73438Q428.85233 280.23438 426.74295 280.23438Q424.61795 280.23438 423.93045 280.73438Q423.22733 281.21875 423.22733 281.96875Q423.22733 282.6875 423.8367 283.125Q424.61795 283.67188 426.74295 283.67188ZM426.74295 277.75Q425.2117 277.75 424.28983 277.4375Q423.35233 277.125 422.85233 276.51562Q422.35233 275.89062 422.35233 274.95312Q422.35233 274.26562 422.63358 273.75Q422.91483 273.21875 423.44608 272.875Q423.9617 272.53125 424.7117 272.34375Q425.4617 272.15625 426.74295 272.15625Q428.25858 272.15625 429.18045 272.46875Q430.10233 272.76562 430.61795 273.39062Q431.11795 274.0 431.11795 274.95312Q431.11795 276.1875 430.22733 276.90625Q429.16483 277.75 426.74295 277.75ZM426.74295 276.67188Q428.85233 276.67188 429.55545 276.17188Q430.25858 275.67188 430.25858 274.95312Q430.25858 274.21875 429.55545 273.73438Q428.85233 273.23438 426.74295 273.23438Q424.61795 273.23438 423.93045 273.73438Q423.22733 274.21875 423.22733 274.96875Q423.22733 275.6875 423.8367 276.125Q424.61795 276.67188 426.74295 276.67188Z" fill-rule="nonzero"/><path fill="#000000" d="M445.9848 294.78125L445.9848 295.82812L439.26605 295.82812Q439.62543 296.21875 440.00043 296.84375Q440.3598 297.45312 440.53168 297.9375L439.51605 297.9375Q439.09418 297.0625 438.51605 296.40625Q437.9223 295.73438 437.3598 295.45312L437.3598 294.78125L445.9848 294.78125ZM441.75043 291.75Q440.21918 291.75 439.2973 291.4375Q438.3598 291.125 437.8598 290.51562Q437.3598 289.89062 437.3598 288.95312Q437.3598 288.26562 437.64105 287.75Q437.9223 287.21875 438.45355 286.875Q438.96918 286.53125 439.71918 286.34375Q440.46918 286.15625 441.75043 286.15625Q443.26605 286.15625 444.18793 286.46875Q445.1098 286.76562 445.62543 287.39062Q446.12543 288.0 446.12543 288.95312Q446.12543 290.1875 445.2348 290.90625Q444.1723 291.75 441.75043 291.75ZM441.75043 290.67188Q443.8598 290.67188 444.56293 290.17188Q445.26605 289.67188 445.26605 288.95312Q445.26605 288.21875 444.56293 287.73438Q443.8598 287.23438 441.75043 287.23438Q439.62543 287.23438 438.93793 287.73438Q438.2348 288.21875 438.2348 288.96875Q438.2348 289.6875 438.84418 290.125Q439.62543 290.67188 441.75043 290.67188ZM441.75043 284.75Q440.21918 284.75 439.2973 284.4375Q438.3598 284.125 437.8598 283.51562Q437.3598 282.89062 437.3598 281.95312Q437.3598 281.26562 437.64105 280.75Q437.9223 280.21875 438.45355 279.875Q438.96918 279.53125 439.71918 279.34375Q440.46918 279.15625 441.75043 279.15625Q443.26605 279.15625 444.18793 279.46875Q445.1098 279.76562 445.62543 280.39062Q446.12543 281.0 446.12543 281.95312Q446.12543 283.1875 445.2348 283.90625Q444.1723 284.75 441.75043 284.75ZM441.75043 283.67188Q443.8598 283.67188 444.56293 283.17188Q445.26605 282.67188 445.26605 281.95312Q445.26605 281.21875 444.56293 280.73438Q443.8598 280.23438 441.75043 280.23438Q439.62543 280.23438 438.93793 280.73438Q438.2348 281.21875 438.2348 281.96875Q438.2348 282.6875 438.84418 283.125Q439.62543 283.67188 441.75043 283.67188ZM441.75043 277.75Q440.21918 277.75 439.2973 277.4375Q438.3598 277.125 437.8598 276.51562Q437.3598 275.89062 437.3598 274.95312Q437.3598 274.26562 437.64105 273.75Q437.9223 273.21875 438.45355 272.875Q438.96918 272.53125 439.71918 272.34375Q440.46918 272.15625 441.75043 272.15625Q443.26605 272.15625 444.18793 272.46875Q445.1098 272.76562 445.62543 273.39062Q446.12543 274.0 446.12543 274.95312Q446.12543 276.1875 445.2348 276.90625Q444.1723 277.75 441.75043 277.75ZM441.75043 276.67188Q443.8598 276.67188 444.56293 276.17188Q445.26605 275.67188 445.26605 274.95312Q445.26605 274.21875 444.56293 273.73438Q443.8598 273.23438 441.75043 273.23438Q439.62543 273.23438 438.93793 273.73438Q438.2348 274.21875 438.2348 274.96875Q438.2348 275.6875 438.84418 276.125Q439.62543 276.67188 441.75043 276.67188Z" fill-rule="nonzero"/><path fill="#000000" d="M491.58667 293.20312L492.6023 293.20312L492.6023 298.89062Q492.2273 298.89062 491.86792 298.76562Q491.2898 298.54688 490.7273 298.07812Q490.1648 297.59375 489.43042 296.6875Q488.27417 295.28125 487.6023 294.79688Q486.93042 294.29688 486.33667 294.29688Q485.71167 294.29688 485.2898 294.75Q484.8523 295.20312 484.8523 295.92188Q484.8523 296.6875 485.30542 297.14062Q485.75854 297.59375 486.57104 297.60938L486.46167 298.6875Q485.24292 298.57812 484.61792 297.85938Q483.9773 297.125 483.9773 295.89062Q483.9773 294.65625 484.6648 293.9375Q485.3523 293.21875 486.36792 293.21875Q486.88354 293.21875 487.38354 293.4375Q487.86792 293.64062 488.43042 294.14062Q488.9773 294.625 489.93042 295.75Q490.7273 296.70312 491.02417 296.98438Q491.30542 297.25 491.58667 297.42188L491.58667 293.20312ZM488.36792 291.75Q486.83667 291.75 485.9148 291.4375Q484.9773 291.125 484.4773 290.51562Q483.9773 289.89062 483.9773 288.95312Q483.9773 288.26562 484.25854 287.75Q484.5398 287.21875 485.07104 286.875Q485.58667 286.53125 486.33667 286.34375Q487.08667 286.15625 488.36792 286.15625Q489.88354 286.15625 490.80542 286.46875Q491.7273 286.76562 492.24292 287.39062Q492.74292 288.0 492.74292 288.95312Q492.74292 290.1875 491.8523 290.90625Q490.7898 291.75 488.36792 291.75ZM488.36792 290.67188Q490.4773 290.67188 491.18042 290.17188Q491.88354 289.67188 491.88354 288.95312Q491.88354 288.21875 491.18042 287.73438Q490.4773 287.23438 488.36792 287.23438Q486.24292 287.23438 485.55542 287.73438Q484.8523 288.21875 484.8523 288.96875Q484.8523 289.6875 485.46167 290.125Q486.24292 290.67188 488.36792 290.67188ZM488.36792 284.75Q486.83667 284.75 485.9148 284.4375Q484.9773 284.125 484.4773 283.51562Q483.9773 282.89062 483.9773 281.95312Q483.9773 281.26562 484.25854 280.75Q484.5398 280.21875 485.07104 279.875Q485.58667 279.53125 486.33667 279.34375Q487.08667 279.15625 488.36792 279.15625Q489.88354 279.15625 490.80542 279.46875Q491.7273 279.76562 492.24292 280.39062Q492.74292 281.0 492.74292 281.95312Q492.74292 283.1875 491.8523 283.90625Q490.7898 284.75 488.36792 284.75ZM488.36792 283.67188Q490.4773 283.67188 491.18042 283.17188Q491.88354 282.67188 491.88354 281.95312Q491.88354 281.21875 491.18042 280.73438Q490.4773 280.23438 488.36792 280.23438Q486.24292 280.23438 485.55542 280.73438Q484.8523 281.21875 484.8523 281.96875Q484.8523 282.6875 485.46167 283.125Q486.24292 283.67188 488.36792 283.67188ZM488.36792 277.75Q486.83667 277.75 485.9148 277.4375Q484.9773 277.125 484.4773 276.51562Q483.9773 275.89062 483.9773 274.95312Q483.9773 274.26562 484.25854 273.75Q484.5398 273.21875 485.07104 272.875Q485.58667 272.53125 486.33667 272.34375Q487.08667 272.15625 488.36792 272.15625Q489.88354 272.15625 490.80542 272.46875Q491.7273 272.76562 492.24292 273.39062Q492.74292 274.0 492.74292 274.95312Q492.74292 276.1875 491.8523 276.90625Q490.7898 277.75 488.36792 277.75ZM488.36792 276.67188Q490.4773 276.67188 491.18042 276.17188Q491.88354 275.67188 491.88354 274.95312Q491.88354 274.21875 491.18042 273.73438Q490.4773 273.23438 488.36792 273.23438Q486.24292 273.23438 485.55542 273.73438Q484.8523 274.21875 484.8523 274.96875Q484.8523 275.6875 485.46167 276.125Q486.24292 276.67188 488.36792 276.67188Z" fill-rule="nonzero"/></svg>