<svg version="1.1" viewBox="0.0 0.0 509.0 316.0" fill="none" stroke="none" stroke-linecap="square" stroke-miterlimit="10" width="509" height="316" xmlns:xlink="http://www.w3.org/1999/xlink" xmlns="http://www.w3.org/2000/svg"><path fill="#ffffff" d="M0 0L509.0 0L509.0 316.0L0 316.0L0 0Z" fill-rule="nonzero"/><path stroke="#cccccc" stroke-width="1.0" stroke-linecap="butt" d="M51.5 22.5L51.5 266.5" fill-rule="nonzero"/><path stroke="#cccccc" stroke-width="1.0" stroke-linecap="butt" d="M77.5 22.5L77.5 266.5" fill-rule="nonzero"/><path stroke="#cccccc" stroke-width="1.0" stroke-linecap="butt" d="M95.5 22.5L95.5 266.5" fill-rule="nonzero"/><path stroke="#cccccc" stroke-width="1.0" stroke-linecap="butt" d="M109.5 22.5L109.5 266.5" fill-rule="nonzero"/><path stroke="#cccccc" stroke-width="1.0" stroke-linecap="butt" d="M153.5 22.5L153.5 266.5" fill-rule="nonzero"/><path stroke="#cccccc" stroke-width="1.0" stroke-linecap="butt" d="M196.5 22.5L196.5 266.5" fill-rule="nonzero"/><path stroke="#cccccc" stroke-width="1.0" stroke-linecap="butt" d="M222.5 22.5L222.5 266.5" fill-rule="nonzero"/><path stroke="#cccccc" stroke-width="1.0" stroke-linecap="butt" d="M240.5 22.5L240.5 266.5" fill-rule="nonzero"/><path stroke="#cccccc" stroke-width="1.0" stroke-linecap="butt" d="M254.5 22.5L254.5 266.5" fill-rule="nonzero"/><path stroke="#cccccc" stroke-width="1.0" stroke-linecap="butt" d="M298.5 22.5L298.5 266.5" fill-rule="nonzero"/><path stroke="#cccccc" stroke-width="1.0" stroke-linecap="butt" d="M342.5 22.5L342.5 266.5" fill-rule="nonzero"/><path stroke="#cccccc" stroke-width="1.0" stroke-linecap="butt" d="M368.5 22.5L368.5 266.5" fill-rule="nonzero"/><path stroke="#cccccc" stroke-width="1.0" stroke-linecap="butt" d="M386.5 22.5L386.5 266.5" fill-rule="nonzero"/><path stroke="#cccccc" stroke-width="1.0" stroke-linecap="butt" d="M400.5 22.5L400.5 266.5" fill-rule="nonzero"/><path stroke="#cccccc" stroke-width="1.0" stroke-linecap="butt" d="M444.5 22.5L444.5 266.5" fill-rule="nonzero"/><path stroke="#cccccc" stroke-width="1.0" stroke-linecap="butt" d="M487.5 22.5L487.5 266.5" fill-rule="nonzero"/><path stroke="#333333" stroke-width="1.0" stroke-linecap="butt" d="M42.5 266.5L493.5 266.5" fill-rule="nonzero"/><path stroke="#cccccc" stroke-width="1.0" stroke-linecap="butt" d="M42.5 205.5L493.5 205.5" fill-rule="nonzero"/><path stroke="#cccccc" stroke-width="1.0" stroke-linecap="butt" d="M42.5 144.5L493.5 144.5" fill-rule="nonzero"/><path stroke="#cccccc" stroke-width="1.0" stroke-linecap="butt" d="M42.5 83.5L493.5 83.5" fill-rule="nonzero"/><path stroke="#cccccc" stroke-width="1.0" stroke-linecap="butt" d="M42.5 22.5L493.5 22.5" fill-rule="nonzero"/><path stroke="#e6e6e6" stroke-width="1.0" stroke-linecap="butt" d="M42.5 256.5L493.5 256.5" fill-rule="nonzero"/><path stroke="#e6e6e6" stroke-width="1.0" stroke-linecap="butt" d="M42.5 245.5L493.5 245.5" fill-rule="nonzero"/><path stroke="#e6e6e6" stroke-width="1.0" stroke-linecap="butt" d="M42.5 235.5L493.5 235.5" fill-rule="nonzero"/><path stroke="#e6e6e6" stroke-width="1.0" stroke-linecap="butt" d="M42.5 225.5L493.5 225.5" fill-rule="nonzero"/><path stroke="#e6e6e6" stroke-width="1.0" stroke-linecap="butt" d="M42.5 215.5L493.5 215.5" fill-rule="nonzero"/><path stroke="#e6e6e6" stroke-width="1.0" stroke-linecap="butt" d="M42.5 195.5L493.5 195.5" fill-rule="nonzero"/><path stroke="#e6e6e6" stroke-width="1.0" stroke-linecap="butt" d="M42.5 185.5L493.5 185.5" fill-rule="nonzero"/><path stroke="#e6e6e6" stroke-width="1.0" stroke-linecap="butt" d="M42.5 174.5L493.5 174.5" fill-rule="nonzero"/><path stroke="#e6e6e6" stroke-width="1.0" stroke-linecap="butt" d="M42.5 164.5L493.5 164.5" fill-rule="nonzero"/><path stroke="#e6e6e6" stroke-width="1.0" stroke-linecap="butt" d="M42.5 154.5L493.5 154.5" fill-rule="nonzero"/><path stroke="#e6e6e6" stroke-width="1.0" stroke-linecap="butt" d="M42.5 134.5L493.5 134.5" fill-rule="nonzero"/><path stroke="#e6e6e6" stroke-width="1.0" stroke-linecap="butt" d="M42.5 124.5L493.5 124.5" fill-rule="nonzero"/><path stroke="#e6e6e6" stroke-width="1.0" stroke-linecap="butt" d="M42.5 114.5L493.5 114.5" fill-rule="nonzero"/><path stroke="#e6e6e6" stroke-width="1.0" stroke-linecap="butt" d="M42.5 103.5L493.5 103.5" fill-rule="nonzero"/><path stroke="#e6e6e6" stroke-width="1.0" stroke-linecap="butt" d="M42.5 93.5L493.5 93.5" fill-rule="nonzero"/><path stroke="#e6e6e6" stroke-width="1.0" stroke-linecap="butt" d="M42.5 73.5L493.5 73.5" fill-rule="nonzero"/><path stroke="#e6e6e6" stroke-width="1.0" stroke-linecap="butt" d="M42.5 63.5L493.5 63.5" fill-rule="nonzero"/><path stroke="#e6e6e6" stroke-width="1.0" stroke-linecap="butt" d="M42.5 53.5L493.5 53.5" fill-rule="nonzero"/><path stroke="#e6e6e6" stroke-width="1.0" stroke-linecap="butt" d="M42.5 43.5L493.5 43.5" fill-rule="nonzero"/><path stroke="#e6e6e6" stroke-width="1.0" stroke-linecap="butt" d="M42.5 32.5L493.5 32.5" fill-rule="nonzero"/><clipPath id="id_0"><path d="M42.8 22.8L493.2 22.8L493.2 266.2L42.8 266.2L42.8 22.8Z" clip-rule="nonzero"/></clipPath><path fill="#ea4335" fill-opacity="0.8" clip-path="url(#id_0)" d="M57.548584 174.925C57.548584 178.23871 54.862293 180.925 51.548584 180.925C48.234875 180.925 45.548584 178.23871 45.548584 174.925C45.548584 171.6113 48.234875 168.925 51.548584 168.925C54.862293 168.925 57.548584 171.6113 57.548584 174.925Z" fill-rule="nonzero"/><path fill="#ea4335" fill-opacity="0.8" clip-path="url(#id_0)" d="M57.548584 114.075C57.548584 117.38871 54.862293 120.075 51.548584 120.075C48.234875 120.075 45.548584 117.38871 45.548584 114.075C45.548584 110.76129 48.234875 108.075 51.548584 108.075C54.862293 108.075 57.548584 110.76129 57.548584 114.075Z" fill-rule="nonzero"/><path fill="#fbbc04" fill-opacity="0.8" clip-path="url(#id_0)" d="M287.92838 174.925C287.92838 184.57385 280.10645 192.39578 270.4576 192.39578C260.80875 192.39578 252.98682 184.57385 252.98682 174.925C252.98682 165.27615 260.80875 157.45421 270.4576 157.45421C280.10645 157.45421 287.92838 165.27615 287.92838 174.925Z" fill-rule="nonzero"/><path fill="#34a853" fill-opacity="0.8" clip-path="url(#id_0)" d="M295.90726 98.8625C295.90726 112.91796 284.51306 124.312164 270.4576 124.312164C256.40213 124.312164 245.00793 112.91796 245.00793 98.8625C245.00793 84.80704 256.40213 73.412834 270.4576 73.412834C284.51306 73.412834 295.90726 84.80704 295.90726 98.8625Z" fill-rule="nonzero"/><path fill="#ff6d01" fill-opacity="0.8" clip-path="url(#id_0)" d="M301.4576 53.225C301.4576 70.345825 287.57843 84.225 270.4576 84.225C253.33678 84.225 239.4576 70.345825 239.4576 53.225C239.4576 36.10417 253.33678 22.225 270.4576 22.225C287.57843 22.225 301.4576 36.10417 301.4576 53.225Z" fill-rule="nonzero"/><path fill="#34a853" fill-opacity="0.8" clip-path="url(#id_0)" d="M339.68906 114.075C339.68906 128.13046 328.29486 139.52466 314.2394 139.52466C300.18393 139.52466 288.78973 128.13046 288.78973 114.075C288.78973 100.01954 300.18393 88.625336 314.2394 88.625336C328.29486 88.625336 339.68906 100.01954 339.68906 114.075Z" fill-rule="nonzero"/><path fill="#46bdc6" fill-opacity="0.8" clip-path="url(#id_0)" d="M425.9399 257.0725C425.9399 270.40295 415.13345 281.2094 401.803 281.2094C388.47256 281.2094 377.6661 270.40295 377.6661 257.0725C377.6661 243.74205 388.47256 232.9356 401.803 232.9356C415.13345 232.9356 425.9399 243.74205 425.9399 257.0725Z" fill-rule="nonzero"/><path fill="#7baaf7" fill-opacity="0.8" clip-path="url(#id_0)" d="M430.01608 174.925C430.01608 190.50665 417.38467 203.13808 401.803 203.13808C386.22134 203.13808 373.58994 190.50665 373.58994 174.925C373.58994 159.34334 386.22134 146.71191 401.803 146.71191C417.38467 146.71191 430.01608 159.34334 430.01608 174.925Z" fill-rule="nonzero"/><path fill="#7baaf7" fill-opacity="0.8" clip-path="url(#id_0)" d="M473.79788 257.0725C473.79788 272.65414 461.16647 285.28558 445.5848 285.28558C430.00314 285.28558 417.37173 272.65414 417.37173 257.0725C417.37173 241.49084 430.00314 228.85942 445.5848 228.85942C461.16647 228.85942 473.79788 241.49084 473.79788 257.0725Z" fill-rule="nonzero"/><path stroke="#ffffff" stroke-width="3.0" stroke-linejoin="round" stroke-linecap="round" clip-path="url(#id_0)" d="M52.767334 179.925L51.53296 179.925L51.53296 172.08125Q51.09546 172.50313 50.361084 172.94063Q49.642334 173.3625 49.079834 173.56563L49.079834 172.37813Q50.111084 171.89375 50.87671 171.20625Q51.65796 170.51875 51.97046 169.8625L52.767334 169.8625L52.767334 179.925Z" fill-rule="nonzero"/><path fill="#1a1a1a" clip-path="url(#id_0)" d="M52.767334 179.925L51.53296 179.925L51.53296 172.08125Q51.09546 172.50313 50.361084 172.94063Q49.642334 173.3625 49.079834 173.56563L49.079834 172.37813Q50.111084 171.89375 50.87671 171.20625Q51.65796 170.51875 51.97046 169.8625L52.767334 169.8625L52.767334 179.925Z" fill-rule="nonzero"/><path stroke="#ffffff" stroke-width="3.0" stroke-linejoin="round" stroke-linecap="round" clip-path="url(#id_0)" d="M52.767334 119.075L51.53296 119.075L51.53296 111.23125Q51.09546 111.65312 50.361084 112.09062Q49.642334 112.5125 49.079834 112.71562L49.079834 111.52812Q50.111084 111.04375 50.87671 110.35625Q51.65796 109.66875 51.97046 109.0125L52.767334 109.0125L52.767334 119.075Z" fill-rule="nonzero"/><path fill="#1a1a1a" clip-path="url(#id_0)" d="M52.767334 119.075L51.53296 119.075L51.53296 111.23125Q51.09546 111.65312 50.361084 112.09062Q49.642334 112.5125 49.079834 112.71562L49.079834 111.52812Q50.111084 111.04375 50.87671 110.35625Q51.65796 109.66875 51.97046 109.0125L52.767334 109.0125L52.767334 119.075Z" fill-rule="nonzero"/><path stroke="#ffffff" stroke-width="3.0" stroke-linejoin="round" stroke-linecap="round" clip-path="url(#id_0)" d="M265.67636 179.925L264.442 179.925L264.442 172.08125Q264.0045 172.50313 263.2701 172.94063Q262.55136 173.3625 261.98886 173.56563L261.98886 172.37813Q263.0201 171.89375 263.78574 171.20625Q264.567 170.51875 264.8795 169.8625L265.67636 169.8625L265.67636 179.925ZM269.7076 179.925L269.7076 178.51875L271.09824 178.51875L271.09824 179.925Q271.09824 180.69063 270.817 181.15938Q270.55136 181.64375 269.9576 181.90938L269.61386 181.37813Q270.0045 181.20625 270.192 180.87813Q270.3795 180.55 270.3951 179.925L269.7076 179.925ZM274.92636 174.4875Q274.16074 174.20625 273.78574 173.69063Q273.42636 173.175 273.42636 172.44063Q273.42636 171.34688 274.2076 170.6125Q275.0045 169.8625 276.30136 169.8625Q277.61386 169.8625 278.41074 170.62813Q279.22324 171.39375 279.22324 172.4875Q279.22324 173.175 278.84824 173.69063Q278.48886 174.20625 277.73886 174.4875Q278.66074 174.78438 279.1451 175.45625Q279.6295 176.12813 279.6295 177.06563Q279.6295 178.34688 278.72324 179.22188Q277.817 180.09688 276.3326 180.09688Q274.84824 180.09688 273.92636 179.22188Q273.0201 178.33125 273.0201 177.01875Q273.0201 176.05 273.5201 175.39375Q274.0201 174.72188 274.92636 174.4875ZM274.692 172.40938Q274.692 173.1125 275.1451 173.56563Q275.59824 174.01875 276.3326 174.01875Q277.05136 174.01875 277.5045 173.58125Q277.9576 173.12813 277.9576 172.47188Q277.9576 171.8 277.48886 171.34688Q277.0201 170.87813 276.317 170.87813Q275.61386 170.87813 275.1451 171.33125Q274.692 171.76875 274.692 172.40938ZM274.28574 177.03438Q274.28574 177.56563 274.53574 178.06563Q274.78574 178.55 275.2701 178.81563Q275.7701 179.08125 276.34824 179.08125Q277.22324 179.08125 277.78574 178.51875Q278.36386 177.95625 278.36386 177.08125Q278.36386 176.19063 277.7701 175.6125Q277.192 175.01875 276.30136 175.01875Q275.42636 175.01875 274.84824 175.59688Q274.28574 176.175 274.28574 177.03438Z" fill-rule="nonzero"/><path fill="#1a1a1a" clip-path="url(#id_0)" d="M265.67636 179.925L264.442 179.925L264.442 172.08125Q264.0045 172.50313 263.2701 172.94063Q262.55136 173.3625 261.98886 173.56563L261.98886 172.37813Q263.0201 171.89375 263.78574 171.20625Q264.567 170.51875 264.8795 169.8625L265.67636 169.8625L265.67636 179.925ZM269.7076 179.925L269.7076 178.51875L271.09824 178.51875L271.09824 179.925Q271.09824 180.69063 270.817 181.15938Q270.55136 181.64375 269.9576 181.90938L269.61386 181.37813Q270.0045 181.20625 270.192 180.87813Q270.3795 180.55 270.3951 179.925L269.7076 179.925ZM274.92636 174.4875Q274.16074 174.20625 273.78574 173.69063Q273.42636 173.175 273.42636 172.44063Q273.42636 171.34688 274.2076 170.6125Q275.0045 169.8625 276.30136 169.8625Q277.61386 169.8625 278.41074 170.62813Q279.22324 171.39375 279.22324 172.4875Q279.22324 173.175 278.84824 173.69063Q278.48886 174.20625 277.73886 174.4875Q278.66074 174.78438 279.1451 175.45625Q279.6295 176.12813 279.6295 177.06563Q279.6295 178.34688 278.72324 179.22188Q277.817 180.09688 276.3326 180.09688Q274.84824 180.09688 273.92636 179.22188Q273.0201 178.33125 273.0201 177.01875Q273.0201 176.05 273.5201 175.39375Q274.0201 174.72188 274.92636 174.4875ZM274.692 172.40938Q274.692 173.1125 275.1451 173.56563Q275.59824 174.01875 276.3326 174.01875Q277.05136 174.01875 277.5045 173.58125Q277.9576 173.12813 277.9576 172.47188Q277.9576 171.8 277.48886 171.34688Q277.0201 170.87813 276.317 170.87813Q275.61386 170.87813 275.1451 171.33125Q274.692 171.76875 274.692 172.40938ZM274.28574 177.03438Q274.28574 177.56563 274.53574 178.06563Q274.78574 178.55 275.2701 178.81563Q275.7701 179.08125 276.34824 179.08125Q277.22324 179.08125 277.78574 178.51875Q278.36386 177.95625 278.36386 177.08125Q278.36386 176.19063 277.7701 175.6125Q277.192 175.01875 276.30136 175.01875Q275.42636 175.01875 274.84824 175.59688Q274.28574 176.175 274.28574 177.03438Z" fill-rule="nonzero"/><path stroke="#ffffff" stroke-width="3.0" stroke-linejoin="round" stroke-linecap="round" clip-path="url(#id_0)" d="M261.05136 101.22188L262.2701 101.05Q262.48886 102.09688 262.98886 102.56563Q263.5045 103.01875 264.23886 103.01875Q265.11386 103.01875 265.7076 102.425Q266.30136 101.81563 266.30136 100.925Q266.30136 100.08125 265.73886 99.53438Q265.192 98.9875 264.34824 98.9875Q263.98886 98.9875 263.47324 99.1125L263.61386 98.03438Q263.73886 98.05 263.80136 98.05Q264.59824 98.05 265.22324 97.64375Q265.84824 97.2375 265.84824 96.37813Q265.84824 95.70625 265.3951 95.26875Q264.942 94.81563 264.2076 94.81563Q263.48886 94.81563 263.0045 95.26875Q262.53574 95.70625 262.3951 96.6125L261.17636 96.39375Q261.3951 95.15938 262.192 94.4875Q262.98886 93.8 264.17636 93.8Q265.0045 93.8 265.692 94.15938Q266.3795 94.50313 266.73886 95.1125Q267.11386 95.72188 267.11386 96.40938Q267.11386 97.05 266.7701 97.58125Q266.42636 98.1125 265.73886 98.44063Q266.6295 98.64375 267.11386 99.28438Q267.61386 99.925 267.61386 100.90938Q267.61386 102.22188 266.6451 103.12813Q265.692 104.03438 264.23886 104.03438Q262.91074 104.03438 262.03574 103.25313Q261.17636 102.47188 261.05136 101.22188ZM269.7076 103.8625L269.7076 102.45625L271.09824 102.45625L271.09824 103.8625Q271.09824 104.62813 270.817 105.09688Q270.55136 105.58125 269.9576 105.84688L269.61386 105.31563Q270.0045 105.14375 270.192 104.81563Q270.3795 104.4875 270.3951 103.8625L269.7076 103.8625ZM273.05136 101.22188L274.2701 101.05Q274.48886 102.09688 274.98886 102.56563Q275.5045 103.01875 276.23886 103.01875Q277.11386 103.01875 277.7076 102.425Q278.30136 101.81563 278.30136 100.925Q278.30136 100.08125 277.73886 99.53438Q277.192 98.9875 276.34824 98.9875Q275.98886 98.9875 275.47324 99.1125L275.61386 98.03438Q275.73886 98.05 275.80136 98.05Q276.59824 98.05 277.22324 97.64375Q277.84824 97.2375 277.84824 96.37813Q277.84824 95.70625 277.3951 95.26875Q276.942 94.81563 276.2076 94.81563Q275.48886 94.81563 275.0045 95.26875Q274.53574 95.70625 274.3951 96.6125L273.17636 96.39375Q273.3951 95.15938 274.192 94.4875Q274.98886 93.8 276.17636 93.8Q277.0045 93.8 277.692 94.15938Q278.3795 94.50313 278.73886 95.1125Q279.11386 95.72188 279.11386 96.40938Q279.11386 97.05 278.7701 97.58125Q278.42636 98.1125 277.73886 98.44063Q278.6295 98.64375 279.11386 99.28438Q279.61386 99.925 279.61386 100.90938Q279.61386 102.22188 278.6451 103.12813Q277.692 104.03438 276.23886 104.03438Q274.91074 104.03438 274.03574 103.25313Q273.17636 102.47188 273.05136 101.22188Z" fill-rule="nonzero"/><path fill="#1a1a1a" clip-path="url(#id_0)" d="M261.05136 101.22188L262.2701 101.05Q262.48886 102.09688 262.98886 102.56563Q263.5045 103.01875 264.23886 103.01875Q265.11386 103.01875 265.7076 102.425Q266.30136 101.81563 266.30136 100.925Q266.30136 100.08125 265.73886 99.53438Q265.192 98.9875 264.34824 98.9875Q263.98886 98.9875 263.47324 99.1125L263.61386 98.03438Q263.73886 98.05 263.80136 98.05Q264.59824 98.05 265.22324 97.64375Q265.84824 97.2375 265.84824 96.37813Q265.84824 95.70625 265.3951 95.26875Q264.942 94.81563 264.2076 94.81563Q263.48886 94.81563 263.0045 95.26875Q262.53574 95.70625 262.3951 96.6125L261.17636 96.39375Q261.3951 95.15938 262.192 94.4875Q262.98886 93.8 264.17636 93.8Q265.0045 93.8 265.692 94.15938Q266.3795 94.50313 266.73886 95.1125Q267.11386 95.72188 267.11386 96.40938Q267.11386 97.05 266.7701 97.58125Q266.42636 98.1125 265.73886 98.44063Q266.6295 98.64375 267.11386 99.28438Q267.61386 99.925 267.61386 100.90938Q267.61386 102.22188 266.6451 103.12813Q265.692 104.03438 264.23886 104.03438Q262.91074 104.03438 262.03574 103.25313Q261.17636 102.47188 261.05136 101.22188ZM269.7076 103.8625L269.7076 102.45625L271.09824 102.45625L271.09824 103.8625Q271.09824 104.62813 270.817 105.09688Q270.55136 105.58125 269.9576 105.84688L269.61386 105.31563Q270.0045 105.14375 270.192 104.81563Q270.3795 104.4875 270.3951 103.8625L269.7076 103.8625ZM273.05136 101.22188L274.2701 101.05Q274.48886 102.09688 274.98886 102.56563Q275.5045 103.01875 276.23886 103.01875Q277.11386 103.01875 277.7076 102.425Q278.30136 101.81563 278.30136 100.925Q278.30136 100.08125 277.73886 99.53438Q277.192 98.9875 276.34824 98.9875Q275.98886 98.9875 275.47324 99.1125L275.61386 98.03438Q275.73886 98.05 275.80136 98.05Q276.59824 98.05 277.22324 97.64375Q277.84824 97.2375 277.84824 96.37813Q277.84824 95.70625 277.3951 95.26875Q276.942 94.81563 276.2076 94.81563Q275.48886 94.81563 275.0045 95.26875Q274.53574 95.70625 274.3951 96.6125L273.17636 96.39375Q273.3951 95.15938 274.192 94.4875Q274.98886 93.8 276.17636 93.8Q277.0045 93.8 277.692 94.15938Q278.3795 94.50313 278.73886 95.1125Q279.11386 95.72188 279.11386 96.40938Q279.11386 97.05 278.7701 97.58125Q278.42636 98.1125 277.73886 98.44063Q278.6295 98.64375 279.11386 99.28438Q279.61386 99.925 279.61386 100.90938Q279.61386 102.22188 278.6451 103.12813Q277.692 104.03438 276.23886 104.03438Q274.91074 104.03438 274.03574 103.25313Q273.17636 102.47188 273.05136 101.22188Z" fill-rule="nonzero"/><path stroke="#ffffff" stroke-width="3.0" stroke-linejoin="round" stroke-linecap="round" clip-path="url(#id_0)" d="M264.98886 58.225L264.98886 55.81875L260.6295 55.81875L260.6295 54.69375L265.2076 48.209373L266.2076 48.209373L266.2076 54.69375L267.567 54.69375L267.567 55.81875L266.2076 55.81875L266.2076 58.225L264.98886 58.225ZM264.98886 54.69375L264.98886 50.178123L261.84824 54.69375L264.98886 54.69375ZM269.7076 58.225L269.7076 56.81875L271.09824 56.81875L271.09824 58.225Q271.09824 58.990623 270.817 59.459373Q270.55136 59.94375 269.9576 60.209373L269.61386 59.678123Q270.0045 59.50625 270.192 59.178123Q270.3795 58.85 270.3951 58.225L269.7076 58.225ZM274.92636 52.7875Q274.16074 52.50625 273.78574 51.990623Q273.42636 51.475 273.42636 50.740623Q273.42636 49.646873 274.2076 48.9125Q275.0045 48.1625 276.30136 48.1625Q277.61386 48.1625 278.41074 48.928123Q279.22324 49.69375 279.22324 50.7875Q279.22324 51.475 278.84824 51.990623Q278.48886 52.50625 277.73886 52.7875Q278.66074 53.084373 279.1451 53.75625Q279.6295 54.428123 279.6295 55.365623Q279.6295 56.646873 278.72324 57.521873Q277.817 58.396873 276.3326 58.396873Q274.84824 58.396873 273.92636 57.521873Q273.0201 56.63125 273.0201 55.31875Q273.0201 54.35 273.5201 53.69375Q274.0201 53.021873 274.92636 52.7875ZM274.692 50.709373Q274.692 51.4125 275.1451 51.865623Q275.59824 52.31875 276.3326 52.31875Q277.05136 52.31875 277.5045 51.88125Q277.9576 51.428123 277.9576 50.771873Q277.9576 50.1 277.48886 49.646873Q277.0201 49.178123 276.317 49.178123Q275.61386 49.178123 275.1451 49.63125Q274.692 50.06875 274.692 50.709373ZM274.28574 55.334373Q274.28574 55.865623 274.53574 56.365623Q274.78574 56.85 275.2701 57.115623Q275.7701 57.38125 276.34824 57.38125Q277.22324 57.38125 277.78574 56.81875Q278.36386 56.25625 278.36386 55.38125Q278.36386 54.490623 277.7701 53.9125Q277.192 53.31875 276.30136 53.31875Q275.42636 53.31875 274.84824 53.896873Q274.28574 54.475 274.28574 55.334373Z" fill-rule="nonzero"/><path fill="#1a1a1a" clip-path="url(#id_0)" d="M264.98886 58.225L264.98886 55.81875L260.6295 55.81875L260.6295 54.69375L265.2076 48.209373L266.2076 48.209373L266.2076 54.69375L267.567 54.69375L267.567 55.81875L266.2076 55.81875L266.2076 58.225L264.98886 58.225ZM264.98886 54.69375L264.98886 50.178123L261.84824 54.69375L264.98886 54.69375ZM269.7076 58.225L269.7076 56.81875L271.09824 56.81875L271.09824 58.225Q271.09824 58.990623 270.817 59.459373Q270.55136 59.94375 269.9576 60.209373L269.61386 59.678123Q270.0045 59.50625 270.192 59.178123Q270.3795 58.85 270.3951 58.225L269.7076 58.225ZM274.92636 52.7875Q274.16074 52.50625 273.78574 51.990623Q273.42636 51.475 273.42636 50.740623Q273.42636 49.646873 274.2076 48.9125Q275.0045 48.1625 276.30136 48.1625Q277.61386 48.1625 278.41074 48.928123Q279.22324 49.69375 279.22324 50.7875Q279.22324 51.475 278.84824 51.990623Q278.48886 52.50625 277.73886 52.7875Q278.66074 53.084373 279.1451 53.75625Q279.6295 54.428123 279.6295 55.365623Q279.6295 56.646873 278.72324 57.521873Q277.817 58.396873 276.3326 58.396873Q274.84824 58.396873 273.92636 57.521873Q273.0201 56.63125 273.0201 55.31875Q273.0201 54.35 273.5201 53.69375Q274.0201 53.021873 274.92636 52.7875ZM274.692 50.709373Q274.692 51.4125 275.1451 51.865623Q275.59824 52.31875 276.3326 52.31875Q277.05136 52.31875 277.5045 51.88125Q277.9576 51.428123 277.9576 50.771873Q277.9576 50.1 277.48886 49.646873Q277.0201 49.178123 276.317 49.178123Q275.61386 49.178123 275.1451 49.63125Q274.692 50.06875 274.692 50.709373ZM274.28574 55.334373Q274.28574 55.865623 274.53574 56.365623Q274.78574 56.85 275.2701 57.115623Q275.7701 57.38125 276.34824 57.38125Q277.22324 57.38125 277.78574 56.81875Q278.36386 56.25625 278.36386 55.38125Q278.36386 54.490623 277.7701 53.9125Q277.192 53.31875 276.30136 53.31875Q275.42636 53.31875 274.84824 53.896873Q274.28574 54.475 274.28574 55.334373Z" fill-rule="nonzero"/><path stroke="#ffffff" stroke-width="3.0" stroke-linejoin="round" stroke-linecap="round" clip-path="url(#id_0)" d="M304.83316 116.43437L306.0519 116.2625Q306.27066 117.30937 306.77066 117.77812Q307.2863 118.23125 308.02066 118.23125Q308.89566 118.23125 309.4894 117.6375Q310.08316 117.02812 310.08316 116.1375Q310.08316 115.29375 309.52066 114.74687Q308.9738 114.2 308.13004 114.2Q307.77066 114.2 307.25504 114.325L307.39566 113.24687Q307.52066 113.2625 307.58316 113.2625Q308.38004 113.2625 309.00504 112.85625Q309.63004 112.45 309.63004 111.59062Q309.63004 110.91875 309.1769 110.48125Q308.7238 110.02812 307.9894 110.02812Q307.27066 110.02812 306.7863 110.48125Q306.31754 110.91875 306.1769 111.825L304.95816 111.60625Q305.1769 110.37187 305.9738 109.7Q306.77066 109.0125 307.95816 109.0125Q308.7863 109.0125 309.4738 109.37187Q310.1613 109.71562 310.52066 110.325Q310.89566 110.93437 310.89566 111.62187Q310.89566 112.2625 310.5519 112.79375Q310.20816 113.325 309.52066 113.65312Q310.4113 113.85625 310.89566 114.49687Q311.39566 115.1375 311.39566 116.12187Q311.39566 117.43437 310.4269 118.34062Q309.4738 119.24687 308.02066 119.24687Q306.69254 119.24687 305.81754 118.46562Q304.95816 117.68437 304.83316 116.43437ZM313.4894 119.075L313.4894 117.66875L314.88004 117.66875L314.88004 119.075Q314.88004 119.84062 314.5988 120.30937Q314.33316 120.79375 313.7394 121.05937L313.39566 120.52812Q313.7863 120.35625 313.9738 120.02812Q314.1613 119.7 314.1769 119.075L313.4894 119.075ZM316.83316 116.43437L318.0519 116.2625Q318.27066 117.30937 318.77066 117.77812Q319.2863 118.23125 320.02066 118.23125Q320.89566 118.23125 321.4894 117.6375Q322.08316 117.02812 322.08316 116.1375Q322.08316 115.29375 321.52066 114.74687Q320.9738 114.2 320.13004 114.2Q319.77066 114.2 319.25504 114.325L319.39566 113.24687Q319.52066 113.2625 319.58316 113.2625Q320.38004 113.2625 321.00504 112.85625Q321.63004 112.45 321.63004 111.59062Q321.63004 110.91875 321.1769 110.48125Q320.7238 110.02812 319.9894 110.02812Q319.27066 110.02812 318.7863 110.48125Q318.31754 110.91875 318.1769 111.825L316.95816 111.60625Q317.1769 110.37187 317.9738 109.7Q318.77066 109.0125 319.95816 109.0125Q320.7863 109.0125 321.4738 109.37187Q322.1613 109.71562 322.52066 110.325Q322.89566 110.93437 322.89566 111.62187Q322.89566 112.2625 322.5519 112.79375Q322.20816 113.325 321.52066 113.65312Q322.4113 113.85625 322.89566 114.49687Q323.39566 115.1375 323.39566 116.12187Q323.39566 117.43437 322.4269 118.34062Q321.4738 119.24687 320.02066 119.24687Q318.69254 119.24687 317.81754 118.46562Q316.95816 117.68437 316.83316 116.43437Z" fill-rule="nonzero"/><path fill="#1a1a1a" clip-path="url(#id_0)" d="M304.83316 116.43437L306.0519 116.2625Q306.27066 117.30937 306.77066 117.77812Q307.2863 118.23125 308.02066 118.23125Q308.89566 118.23125 309.4894 117.6375Q310.08316 117.02812 310.08316 116.1375Q310.08316 115.29375 309.52066 114.74687Q308.9738 114.2 308.13004 114.2Q307.77066 114.2 307.25504 114.325L307.39566 113.24687Q307.52066 113.2625 307.58316 113.2625Q308.38004 113.2625 309.00504 112.85625Q309.63004 112.45 309.63004 111.59062Q309.63004 110.91875 309.1769 110.48125Q308.7238 110.02812 307.9894 110.02812Q307.27066 110.02812 306.7863 110.48125Q306.31754 110.91875 306.1769 111.825L304.95816 111.60625Q305.1769 110.37187 305.9738 109.7Q306.77066 109.0125 307.95816 109.0125Q308.7863 109.0125 309.4738 109.37187Q310.1613 109.71562 310.52066 110.325Q310.89566 110.93437 310.89566 111.62187Q310.89566 112.2625 310.5519 112.79375Q310.20816 113.325 309.52066 113.65312Q310.4113 113.85625 310.89566 114.49687Q311.39566 115.1375 311.39566 116.12187Q311.39566 117.43437 310.4269 118.34062Q309.4738 119.24687 308.02066 119.24687Q306.69254 119.24687 305.81754 118.46562Q304.95816 117.68437 304.83316 116.43437ZM313.4894 119.075L313.4894 117.66875L314.88004 117.66875L314.88004 119.075Q314.88004 119.84062 314.5988 120.30937Q314.33316 120.79375 313.7394 121.05937L313.39566 120.52812Q313.7863 120.35625 313.9738 120.02812Q314.1613 119.7 314.1769 119.075L313.4894 119.075ZM316.83316 116.43437L318.0519 116.2625Q318.27066 117.30937 318.77066 117.77812Q319.2863 118.23125 320.02066 118.23125Q320.89566 118.23125 321.4894 117.6375Q322.08316 117.02812 322.08316 116.1375Q322.08316 115.29375 321.52066 114.74687Q320.9738 114.2 320.13004 114.2Q319.77066 114.2 319.25504 114.325L319.39566 113.24687Q319.52066 113.2625 319.58316 113.2625Q320.38004 113.2625 321.00504 112.85625Q321.63004 112.45 321.63004 111.59062Q321.63004 110.91875 321.1769 110.48125Q320.7238 110.02812 319.9894 110.02812Q319.27066 110.02812 318.7863 110.48125Q318.31754 110.91875 318.1769 111.825L316.95816 111.60625Q317.1769 110.37187 317.9738 109.7Q318.77066 109.0125 319.95816 109.0125Q320.7863 109.0125 321.4738 109.37187Q322.1613 109.71562 322.52066 110.325Q322.89566 110.93437 322.89566 111.62187Q322.89566 112.2625 322.5519 112.79375Q322.20816 113.325 321.52066 113.65312Q322.4113 113.85625 322.89566 114.49687Q323.39566 115.1375 323.39566 116.12187Q323.39566 117.43437 322.4269 118.34062Q321.4738 119.24687 320.02066 119.24687Q318.69254 119.24687 317.81754 118.46562Q316.95816 117.68437 316.83316 116.43437Z" fill-rule="nonzero"/><path stroke="#ffffff" stroke-width="3.0" stroke-linejoin="round" stroke-linecap="round" clip-path="url(#id_0)" d="M398.39676 259.4319L399.6155 259.26Q399.83426 260.3069 400.33426 260.77563Q400.84988 261.22876 401.58426 261.22876Q402.45926 261.22876 403.053 260.635Q403.64676 260.02563 403.64676 259.135Q403.64676 258.29126 403.08426 257.7444Q402.53738 257.1975 401.69363 257.1975Q401.33426 257.1975 400.81863 257.3225L400.95926 256.2444Q401.08426 256.26 401.14676 256.26Q401.94363 256.26 402.56863 255.85374Q403.19363 255.4475 403.19363 254.58812Q403.19363 253.91624 402.7405 253.47874Q402.28738 253.02562 401.553 253.02562Q400.83426 253.02562 400.34988 253.47874Q399.88113 253.91624 399.7405 254.8225L398.52176 254.60374Q398.7405 253.36937 399.53738 252.6975Q400.33426 252.01 401.52176 252.01Q402.34988 252.01 403.03738 252.36937Q403.72488 252.71312 404.08426 253.3225Q404.45926 253.93187 404.45926 254.61937Q404.45926 255.26 404.1155 255.79124Q403.77176 256.3225 403.08426 256.65063Q403.97488 256.85376 404.45926 257.4944Q404.95926 258.135 404.95926 259.1194Q404.95926 260.4319 403.9905 261.33813Q403.03738 262.2444 401.58426 262.2444Q400.25613 262.2444 399.38113 261.46313Q398.52176 260.6819 398.39676 259.4319Z" fill-rule="nonzero"/><path fill="#1a1a1a" clip-path="url(#id_0)" d="M398.39676 259.4319L399.6155 259.26Q399.83426 260.3069 400.33426 260.77563Q400.84988 261.22876 401.58426 261.22876Q402.45926 261.22876 403.053 260.635Q403.64676 260.02563 403.64676 259.135Q403.64676 258.29126 403.08426 257.7444Q402.53738 257.1975 401.69363 257.1975Q401.33426 257.1975 400.81863 257.3225L400.95926 256.2444Q401.08426 256.26 401.14676 256.26Q401.94363 256.26 402.56863 255.85376Q403.19363 255.44751 403.19363 254.58813Q403.19363 253.91626 402.7405 253.47876Q402.28738 253.02563 401.553 253.02563Q400.83426 253.02563 400.34988 253.47876Q399.88113 253.91626 399.7405 254.82251L398.52176 254.60376Q398.7405 253.36938 399.53738 252.69751Q400.33426 252.01001 401.52176 252.01001Q402.34988 252.01001 403.03738 252.36938Q403.72488 252.71313 404.08426 253.32251Q404.45926 253.93188 404.45926 254.61938Q404.45926 255.26001 404.1155 255.79126Q403.77176 256.3225 403.08426 256.65063Q403.97488 256.85376 404.45926 257.4944Q404.95926 258.135 404.95926 259.1194Q404.95926 260.4319 403.9905 261.33813Q403.03738 262.2444 401.58426 262.2444Q400.25613 262.2444 399.38113 261.46313Q398.52176 260.6819 398.39676 259.4319Z" fill-rule="nonzero"/><path stroke="#ffffff" stroke-width="3.0" stroke-linejoin="round" stroke-linecap="round" clip-path="url(#id_0)" d="M402.33426 179.925L402.33426 177.51875L397.97488 177.51875L397.97488 176.39375L402.553 169.90938L403.553 169.90938L403.553 176.39375L404.91238 176.39375L404.91238 177.51875L403.553 177.51875L403.553 179.925L402.33426 179.925ZM402.33426 176.39375L402.33426 171.87813L399.19363 176.39375L402.33426 176.39375Z" fill-rule="nonzero"/><path fill="#1a1a1a" clip-path="url(#id_0)" d="M402.33426 179.925L402.33426 177.51875L397.97488 177.51875L397.97488 176.39375L402.553 169.90938L403.553 169.90938L403.553 176.39375L404.91238 176.39375L404.91238 177.51875L403.553 177.51875L403.553 179.925L402.33426 179.925ZM402.33426 176.39375L402.33426 171.87813L399.19363 176.39375L402.33426 176.39375Z" fill-rule="nonzero"/><path stroke="#ffffff" stroke-width="3.0" stroke-linejoin="round" stroke-linecap="round" clip-path="url(#id_0)" d="M446.11606 262.0725L446.11606 259.66626L441.75668 259.66626L441.75668 258.54126L446.3348 252.05687L447.3348 252.05687L447.3348 258.54126L448.69418 258.54126L448.69418 259.66626L447.3348 259.66626L447.3348 262.0725L446.11606 262.0725ZM446.11606 258.54126L446.11606 254.02562L442.97543 258.54126L446.11606 258.54126Z" fill-rule="nonzero"/><path fill="#1a1a1a" clip-path="url(#id_0)" d="M446.11606 262.0725L446.11606 259.66626L441.75668 259.66626L441.75668 258.54126L446.3348 252.05688L447.3348 252.05688L447.3348 258.54126L448.69418 258.54126L448.69418 259.66626L447.3348 259.66626L447.3348 262.0725L446.11606 262.0725ZM446.11606 258.54126L446.11606 254.02563L442.97543 258.54126L446.11606 258.54126Z" fill-rule="nonzero"/><path fill="#000000" d="M30.3 265.96564Q30.3 264.4344 30.6125 263.5125Q30.925 262.575 31.534374 262.075Q32.159374 261.575 33.096874 261.575Q33.784374 261.575 34.3 261.85626Q34.83125 262.1375 35.175 262.66876Q35.51875 263.1844 35.70625 263.9344Q35.89375 264.6844 35.89375 265.96564Q35.89375 267.48126 35.58125 268.40314Q35.284374 269.325 34.659374 269.84064Q34.05 270.34064 33.096874 270.34064Q31.8625 270.34064 31.14375 269.45Q30.3 268.3875 30.3 265.96564ZM31.378124 265.96564Q31.378124 268.075 31.878124 268.77814Q32.378124 269.48126 33.096874 269.48126Q33.83125 269.48126 34.315624 268.77814Q34.815624 268.075 34.815624 265.96564Q34.815624 263.84064 34.315624 263.15314Q33.83125 262.45 33.08125 262.45Q32.3625 262.45 31.925 263.0594Q31.378124 263.84064 31.378124 265.96564Z" fill-rule="nonzero"/><path fill="#000000" d="M28.846874 208.33438L28.846874 209.35L23.159374 209.35Q23.159374 208.975 23.284374 208.61563Q23.503124 208.0375 23.971874 207.475Q24.45625 206.9125 25.3625 206.17813Q26.76875 205.02188 27.253124 204.35Q27.753124 203.67813 27.753124 203.08438Q27.753124 202.45938 27.3 202.0375Q26.846874 201.6 26.128124 201.6Q25.3625 201.6 24.909374 202.05313Q24.45625 202.50626 24.440624 203.31876L23.3625 203.20938Q23.471874 201.99063 24.190624 201.36563Q24.925 200.725 26.159374 200.725Q27.39375 200.725 28.1125 201.4125Q28.83125 202.1 28.83125 203.11563Q28.83125 203.63126 28.6125 204.13126Q28.409374 204.61563 27.909374 205.17813Q27.425 205.725 26.3 206.67813Q25.346874 207.475 25.065624 207.77188Q24.8 208.05313 24.628124 208.33438L28.846874 208.33438ZM30.3 205.11563Q30.3 203.58438 30.6125 202.6625Q30.925 201.725 31.534374 201.225Q32.159374 200.725 33.096874 200.725Q33.784374 200.725 34.3 201.00626Q34.83125 201.2875 35.175 201.81876Q35.51875 202.33438 35.70625 203.08438Q35.89375 203.83438 35.89375 205.11563Q35.89375 206.63126 35.58125 207.55313Q35.284374 208.475 34.659374 208.99063Q34.05 209.49063 33.096874 209.49063Q31.8625 209.49063 31.14375 208.6Q30.3 207.5375 30.3 205.11563ZM31.378124 205.11563Q31.378124 207.225 31.878124 207.92813Q32.378124 208.63126 33.096874 208.63126Q33.83125 208.63126 34.315624 207.92813Q34.815624 207.225 34.815624 205.11563Q34.815624 202.99063 34.315624 202.30313Q33.83125 201.6 33.08125 201.6Q32.3625 201.6 31.925 202.20938Q31.378124 202.99063 31.378124 205.11563Z" fill-rule="nonzero"/><path fill="#000000" d="M26.675 148.5L26.675 146.4375L22.95625 146.4375L22.95625 145.46875L26.878124 139.90625L27.7375 139.90625L27.7375 145.46875L28.89375 145.46875L28.89375 146.4375L27.7375 146.4375L27.7375 148.5L26.675 148.5ZM26.675 145.46875L26.675 141.60938L23.9875 145.46875L26.675 145.46875ZM30.3 144.26562Q30.3 142.73438 30.6125 141.8125Q30.925 140.875 31.534374 140.375Q32.159374 139.875 33.096874 139.875Q33.784374 139.875 34.3 140.15625Q34.83125 140.4375 35.175 140.96875Q35.51875 141.48438 35.70625 142.23438Q35.89375 142.98438 35.89375 144.26562Q35.89375 145.78125 35.58125 146.70312Q35.284374 147.625 34.659374 148.14062Q34.05 148.64062 33.096874 148.64062Q31.8625 148.64062 31.14375 147.75Q30.3 146.6875 30.3 144.26562ZM31.378124 144.26562Q31.378124 146.375 31.878124 147.07812Q32.378124 147.78125 33.096874 147.78125Q33.83125 147.78125 34.315624 147.07812Q34.815624 146.375 34.815624 144.26562Q34.815624 142.14062 34.315624 141.45312Q33.83125 140.75 33.08125 140.75Q32.3625 140.75 31.925 141.35938Q31.378124 142.14062 31.378124 144.26562Z" fill-rule="nonzero"/><path fill="#000000" d="M28.76875 81.16563L27.721874 81.24375Q27.58125 80.61875 27.33125 80.3375Q26.89375 79.88438 26.26875 79.88438Q25.76875 79.88438 25.378124 80.16563Q24.89375 80.54063 24.596874 81.24375Q24.315624 81.93125 24.3 83.2125Q24.675 82.63438 25.221874 82.35313Q25.784374 82.07188 26.39375 82.07188Q27.440624 82.07188 28.175 82.85313Q28.925 83.63438 28.925 84.85313Q28.925 85.66563 28.565624 86.36875Q28.221874 87.05625 27.6125 87.43125Q27.003124 87.79063 26.2375 87.79063Q24.909374 87.79063 24.08125 86.82188Q23.253124 85.85313 23.253124 83.63438Q23.253124 81.13438 24.175 80.00938Q24.971874 79.025 26.33125 79.025Q27.346874 79.025 27.9875 79.60313Q28.64375 80.16563 28.76875 81.16563ZM24.471874 84.86875Q24.471874 85.41563 24.690624 85.91563Q24.925 86.4 25.33125 86.66563Q25.753124 86.93125 26.221874 86.93125Q26.878124 86.93125 27.3625 86.4Q27.846874 85.85313 27.846874 84.93125Q27.846874 84.04063 27.3625 83.525Q26.89375 83.00938 26.175 83.00938Q25.45625 83.00938 24.95625 83.525Q24.471874 84.04063 24.471874 84.86875ZM30.3 83.41563Q30.3 81.88438 30.6125 80.9625Q30.925 80.025 31.534374 79.525Q32.159374 79.025 33.096874 79.025Q33.784374 79.025 34.3 79.30625Q34.83125 79.5875 35.175 80.11875Q35.51875 80.63438 35.70625 81.38438Q35.89375 82.13438 35.89375 83.41563Q35.89375 84.93125 35.58125 85.85313Q35.284374 86.775 34.659374 87.29063Q34.05 87.79063 33.096874 87.79063Q31.8625 87.79063 31.14375 86.9Q30.3 85.8375 30.3 83.41563ZM31.378124 83.41563Q31.378124 85.525 31.878124 86.22813Q32.378124 86.93125 33.096874 86.93125Q33.83125 86.93125 34.315624 86.22813Q34.815624 85.525 34.815624 83.41563Q34.815624 81.29063 34.315624 80.60313Q33.83125 79.9 33.08125 79.9Q32.3625 79.9 31.925 80.50938Q31.378124 81.29063 31.378124 83.41563Z" fill-rule="nonzero"/><path fill="#000000" d="M24.925 22.14375Q24.26875 21.89375 23.940624 21.45625Q23.628124 21.003124 23.628124 20.39375Q23.628124 19.45625 24.3 18.815624Q24.9875 18.175 26.096874 18.175Q27.221874 18.175 27.909374 18.83125Q28.596874 19.4875 28.596874 20.425Q28.596874 21.01875 28.284374 21.45625Q27.971874 21.89375 27.33125 22.14375Q28.128124 22.39375 28.534374 22.971874Q28.940624 23.55 28.940624 24.346874Q28.940624 25.440624 28.159374 26.190624Q27.39375 26.940624 26.1125 26.940624Q24.846874 26.940624 24.065624 26.190624Q23.284374 25.440624 23.284374 24.315624Q23.284374 23.471874 23.70625 22.909374Q24.14375 22.346874 24.925 22.14375ZM24.70625 20.346874Q24.70625 20.95625 25.096874 21.346874Q25.503124 21.7375 26.128124 21.7375Q26.7375 21.7375 27.128124 21.3625Q27.51875 20.971874 27.51875 20.409374Q27.51875 19.83125 27.1125 19.440624Q26.70625 19.034374 26.1125 19.034374Q25.503124 19.034374 25.096874 19.425Q24.70625 19.815624 24.70625 20.346874ZM24.378124 24.315624Q24.378124 24.76875 24.58125 25.190624Q24.8 25.6125 25.221874 25.846874Q25.64375 26.08125 26.128124 26.08125Q26.878124 26.08125 27.3625 25.596874Q27.8625 25.1125 27.8625 24.3625Q27.8625 23.596874 27.3625 23.096874Q26.8625 22.596874 26.096874 22.596874Q25.346874 22.596874 24.8625 23.096874Q24.378124 23.58125 24.378124 24.315624ZM30.3 22.565624Q30.3 21.034374 30.6125 20.1125Q30.925 19.175 31.534374 18.675Q32.159374 18.175 33.096874 18.175Q33.784374 18.175 34.3 18.45625Q34.83125 18.7375 35.175 19.26875Q35.51875 19.784374 35.70625 20.534374Q35.89375 21.284374 35.89375 22.565624Q35.89375 24.08125 35.58125 25.003124Q35.284374 25.925 34.659374 26.440624Q34.05 26.940624 33.096874 26.940624Q31.8625 26.940624 31.14375 26.05Q30.3 24.9875 30.3 22.565624ZM31.378124 22.565624Q31.378124 24.675 31.878124 25.378124Q32.378124 26.08125 33.096874 26.08125Q33.83125 26.08125 34.315624 25.378124Q34.815624 24.675 34.815624 22.565624Q34.815624 20.440624 34.315624 19.753124Q33.83125 19.05 33.08125 19.05Q32.3625 19.05 31.925 19.659374Q31.378124 20.440624 31.378124 22.565624Z" fill-rule="nonzero"/><path fill="#000000" d="M55.548573 275.325L53.486073 275.325L53.486073 279.04376L52.517323 279.04376L46.954823 275.1219L46.954823 274.2625L52.517323 274.2625L52.517323 273.10626L53.486073 273.10626L53.486073 274.2625L55.548573 274.2625L55.548573 275.325ZM52.517323 275.325L48.657948 275.325L52.517323 278.0125L52.517323 275.325Z" fill-rule="nonzero"/><path fill="#000000" d="M74.67491 273.23126L74.75304 274.27814Q74.12804 274.41876 73.84679 274.66876Q73.39366 275.10626 73.39366 275.73126Q73.39366 276.23126 73.67491 276.6219Q74.04991 277.10626 74.75304 277.40314Q75.44054 277.6844 76.72179 277.7Q76.14366 277.325 75.86241 276.77814Q75.58116 276.21564 75.58116 275.60626Q75.58116 274.5594 76.36241 273.825Q77.14366 273.075 78.36241 273.075Q79.17491 273.075 79.87804 273.4344Q80.56554 273.77814 80.94054 274.3875Q81.29991 274.9969 81.29991 275.7625Q81.29991 277.09064 80.33116 277.91876Q79.36241 278.7469 77.14366 278.7469Q74.64366 278.7469 73.51866 277.825Q72.53429 277.02814 72.53429 275.66876Q72.53429 274.65314 73.11241 274.0125Q73.67491 273.35626 74.67491 273.23126ZM78.37804 277.52814Q78.92491 277.52814 79.42491 277.3094Q79.90929 277.075 80.17491 276.66876Q80.44054 276.2469 80.44054 275.77814Q80.44054 275.1219 79.90929 274.6375Q79.36241 274.15314 78.44054 274.15314Q77.54991 274.15314 77.03429 274.6375Q76.51866 275.10626 76.51866 275.825Q76.51866 276.54376 77.03429 277.04376Q77.54991 277.52814 78.37804 277.52814Z" fill-rule="nonzero"/><path fill="#000000" d="M94.674126 277.075Q94.424126 277.73126 93.986626 278.0594Q93.5335 278.3719 92.924126 278.3719Q91.986626 278.3719 91.346 277.7Q90.705376 277.0125 90.705376 275.90314Q90.705376 274.77814 91.361626 274.09064Q92.017876 273.40314 92.955376 273.40314Q93.549126 273.40314 93.986626 273.71564Q94.424126 274.02814 94.674126 274.66876Q94.924126 273.8719 95.50225 273.46564Q96.080376 273.0594 96.87725 273.0594Q97.971 273.0594 98.721 273.84064Q99.471 274.60626 99.471 275.8875Q99.471 277.15314 98.721 277.9344Q97.971 278.71564 96.846 278.71564Q96.00225 278.71564 95.43975 278.29376Q94.87725 277.85626 94.674126 277.075ZM92.87725 277.29376Q93.486626 277.29376 93.87725 276.90314Q94.267876 276.4969 94.267876 275.8719Q94.267876 275.2625 93.892876 274.8719Q93.50225 274.48126 92.93975 274.48126Q92.361626 274.48126 91.971 274.8875Q91.56475 275.29376 91.56475 275.8875Q91.56475 276.4969 91.955376 276.90314Q92.346 277.29376 92.87725 277.29376ZM96.846 277.6219Q97.299126 277.6219 97.721 277.41876Q98.142876 277.2 98.37725 276.77814Q98.611626 276.35626 98.611626 275.8719Q98.611626 275.1219 98.12725 274.6375Q97.642876 274.1375 96.892876 274.1375Q96.12725 274.1375 95.62725 274.6375Q95.12725 275.1375 95.12725 275.90314Q95.12725 276.65314 95.62725 277.1375Q96.111626 277.6219 96.846 277.6219Z" fill-rule="nonzero"/><path fill="#000000" d="M113.424965 281.73126L113.424965 282.77814L106.706215 282.77814Q107.06559 283.16876 107.44059 283.79376Q107.799965 284.40314 107.97184 284.8875L106.956215 284.8875Q106.53434 284.0125 105.956215 283.35626Q105.362465 282.6844 104.799965 282.40314L104.799965 281.73126L113.424965 281.73126ZM109.19059 278.7Q107.65934 278.7 106.737465 278.3875Q105.799965 278.075 105.299965 277.46564Q104.799965 276.84064 104.799965 275.90314Q104.799965 275.21564 105.081215 274.7Q105.362465 274.16876 105.893715 273.825Q106.40934 273.48126 107.15934 273.29376Q107.90934 273.10626 109.19059 273.10626Q110.706215 273.10626 111.62809 273.41876Q112.549965 273.71564 113.06559 274.34064Q113.56559 274.95 113.56559 275.90314Q113.56559 277.1375 112.674965 277.85626Q111.612465 278.7 109.19059 278.7ZM109.19059 277.6219Q111.299965 277.6219 112.00309 277.1219Q112.706215 276.6219 112.706215 275.90314Q112.706215 275.16876 112.00309 274.6844Q111.299965 274.1844 109.19059 274.1844Q107.06559 274.1844 106.37809 274.6844Q105.674965 275.16876 105.674965 275.91876Q105.674965 276.6375 106.28434 277.075Q107.06559 277.6219 109.19059 277.6219Z" fill-rule="nonzero"/><path fill="#000000" d="M156.19115 280.15314L157.20677 280.15314L157.20677 285.84064Q156.83177 285.84064 156.4724 285.71564Q155.89427 285.4969 155.33177 285.02814Q154.76927 284.54376 154.0349 283.6375Q152.87865 282.23126 152.20677 281.7469Q151.5349 281.2469 150.94115 281.2469Q150.31615 281.2469 149.89427 281.7Q149.45677 282.15314 149.45677 282.8719Q149.45677 283.6375 149.9099 284.09064Q150.36302 284.54376 151.17552 284.5594L151.06615 285.6375Q149.8474 285.52814 149.2224 284.8094Q148.58177 284.075 148.58177 282.84064Q148.58177 281.60626 149.26927 280.8875Q149.95677 280.16876 150.9724 280.16876Q151.48802 280.16876 151.98802 280.3875Q152.4724 280.59064 153.0349 281.09064Q153.58177 281.575 154.5349 282.7Q155.33177 283.65314 155.62865 283.9344Q155.9099 284.2 156.19115 284.3719L156.19115 280.15314ZM152.9724 278.7Q151.44115 278.7 150.51927 278.3875Q149.58177 278.075 149.08177 277.46564Q148.58177 276.84064 148.58177 275.90314Q148.58177 275.21564 148.86302 274.7Q149.14427 274.16876 149.67552 273.825Q150.19115 273.48126 150.94115 273.29376Q151.69115 273.10626 152.9724 273.10626Q154.48802 273.10626 155.4099 273.41876Q156.33177 273.71564 156.8474 274.34064Q157.3474 274.95 157.3474 275.90314Q157.3474 277.1375 156.45677 277.85626Q155.39427 278.7 152.9724 278.7ZM152.9724 277.6219Q155.08177 277.6219 155.7849 277.1219Q156.48802 276.6219 156.48802 275.90314Q156.48802 275.16876 155.7849 274.6844Q155.08177 274.1844 152.9724 274.1844Q150.8474 274.1844 150.1599 274.6844Q149.45677 275.16876 149.45677 275.91876Q149.45677 276.6375 150.06615 277.075Q150.8474 277.6219 152.9724 277.6219Z" fill-rule="nonzero"/><path fill="#000000" d="M200.98857 282.32498L198.92607 282.32498L198.92607 286.04373L197.95732 286.04373L192.39482 282.12186L192.39482 281.26248L197.95732 281.26248L197.95732 280.10623L198.92607 280.10623L198.92607 281.26248L200.98857 281.26248L200.98857 282.32498ZM197.95732 282.32498L194.09795 282.32498L197.95732 285.01248L197.95732 282.32498ZM196.7542 278.69998Q195.22295 278.69998 194.30107 278.38748Q193.36357 278.07498 192.86357 277.4656Q192.36357 276.8406 192.36357 275.9031Q192.36357 275.2156 192.64482 274.69998Q192.92607 274.16873 193.45732 273.82498Q193.97295 273.48123 194.72295 273.29373Q195.47295 273.10623 196.7542 273.10623Q198.26982 273.10623 199.1917 273.41873Q200.11357 273.7156 200.6292 274.3406Q201.1292 274.94998 201.1292 275.9031Q201.1292 277.13748 200.23857 277.85623Q199.17607 278.69998 196.7542 278.69998ZM196.7542 277.62186Q198.86357 277.62186 199.5667 277.12186Q200.26982 276.62186 200.26982 275.9031Q200.26982 275.16873 199.5667 274.68436Q198.86357 274.18436 196.7542 274.18436Q194.6292 274.18436 193.9417 274.68436Q193.23857 275.16873 193.23857 275.91873Q193.23857 276.63748 193.84795 277.07498Q194.6292 277.62186 196.7542 277.62186Z" fill-rule="nonzero"/><path fill="#000000" d="M220.11491 280.23123L220.19304 281.2781Q219.56804 281.41873 219.28679 281.66873Q218.83366 282.10623 218.83366 282.73123Q218.83366 283.23123 219.11491 283.62186Q219.48991 284.10623 220.19304 284.4031Q220.88054 284.68436 222.16179 284.69998Q221.58366 284.32498 221.30241 283.7781Q221.02116 283.2156 221.02116 282.60623Q221.02116 281.55936 221.80241 280.82498Q222.58366 280.07498 223.80241 280.07498Q224.61491 280.07498 225.31804 280.43436Q226.00554 280.7781 226.38054 281.38748Q226.73991 281.99686 226.73991 282.76248Q226.73991 284.0906 225.77116 284.91873Q224.80241 285.74686 222.58366 285.74686Q220.08366 285.74686 218.95866 284.82498Q217.97429 284.0281 217.97429 282.66873Q217.97429 281.6531 218.55241 281.01248Q219.11491 280.35623 220.11491 280.23123ZM223.81804 284.5281Q224.36491 284.5281 224.86491 284.30936Q225.34929 284.07498 225.61491 283.66873Q225.88054 283.24686 225.88054 282.7781Q225.88054 282.12186 225.34929 281.63748Q224.80241 281.1531 223.88054 281.1531Q222.98991 281.1531 222.47429 281.63748Q221.95866 282.10623 221.95866 282.82498Q221.95866 283.54373 222.47429 284.04373Q222.98991 284.5281 223.81804 284.5281ZM222.36491 278.69998Q220.83366 278.69998 219.91179 278.38748Q218.97429 278.07498 218.47429 277.4656Q217.97429 276.8406 217.97429 275.9031Q217.97429 275.2156 218.25554 274.69998Q218.53679 274.16873 219.06804 273.82498Q219.58366 273.48123 220.33366 273.29373Q221.08366 273.10623 222.36491 273.10623Q223.88054 273.10623 224.80241 273.41873Q225.72429 273.7156 226.23991 274.3406Q226.73991 274.94998 226.73991 275.9031Q226.73991 277.13748 225.84929 277.85623Q224.78679 278.69998 222.36491 278.69998ZM222.36491 277.62186Q224.47429 277.62186 225.17741 277.12186Q225.88054 276.62186 225.88054 275.9031Q225.88054 275.16873 225.17741 274.68436Q224.47429 274.18436 222.36491 274.18436Q220.23991 274.18436 219.55241 274.68436Q218.84929 275.16873 218.84929 275.91873Q218.84929 276.63748 219.45866 277.07498Q220.23991 277.62186 222.36491 277.62186Z" fill-rule="nonzero"/><path fill="#000000" d="M240.11412 284.07498Q239.86412 284.73123 239.42662 285.05936Q238.9735 285.37186 238.36412 285.37186Q237.42662 285.37186 236.786 284.69998Q236.14537 284.01248 236.14537 282.9031Q236.14537 281.7781 236.80162 281.0906Q237.45787 280.4031 238.39537 280.4031Q238.98912 280.4031 239.42662 280.7156Q239.86412 281.0281 240.11412 281.66873Q240.36412 280.87186 240.94225 280.4656Q241.52037 280.05936 242.31725 280.05936Q243.411 280.05936 244.161 280.8406Q244.911 281.60623 244.911 282.88748Q244.911 284.1531 244.161 284.93436Q243.411 285.7156 242.286 285.7156Q241.44225 285.7156 240.87975 285.29373Q240.31725 284.85623 240.11412 284.07498ZM238.31725 284.29373Q238.92662 284.29373 239.31725 283.9031Q239.70787 283.49686 239.70787 282.87186Q239.70787 282.26248 239.33287 281.87186Q238.94225 281.48123 238.37975 281.48123Q237.80162 281.48123 237.411 281.88748Q237.00475 282.29373 237.00475 282.88748Q237.00475 283.49686 237.39537 283.9031Q237.786 284.29373 238.31725 284.29373ZM242.286 284.62186Q242.73912 284.62186 243.161 284.41873Q243.58287 284.19998 243.81725 283.7781Q244.05162 283.35623 244.05162 282.87186Q244.05162 282.12186 243.56725 281.63748Q243.08287 281.13748 242.33287 281.13748Q241.56725 281.13748 241.06725 281.63748Q240.56725 282.13748 240.56725 282.9031Q240.56725 283.6531 241.06725 284.13748Q241.55162 284.62186 242.286 284.62186ZM240.536 278.69998Q239.00475 278.69998 238.08287 278.38748Q237.14537 278.07498 236.64537 277.4656Q236.14537 276.8406 236.14537 275.9031Q236.14537 275.2156 236.42662 274.69998Q236.70787 274.16873 237.23912 273.82498Q237.75475 273.48123 238.50475 273.29373Q239.25475 273.10623 240.536 273.10623Q242.05162 273.10623 242.9735 273.41873Q243.89537 273.7156 244.411 274.3406Q244.911 274.94998 244.911 275.9031Q244.911 277.13748 244.02037 277.85623Q242.95787 278.69998 240.536 278.69998ZM240.536 277.62186Q242.64537 277.62186 243.3485 277.12186Q244.05162 276.62186 244.05162 275.9031Q244.05162 275.16873 243.3485 274.68436Q242.64537 274.18436 240.536 274.18436Q238.411 274.18436 237.7235 274.68436Q237.02037 275.16873 237.02037 275.91873Q237.02037 276.63748 237.62975 277.07498Q238.411 277.62186 240.536 277.62186Z" fill-rule="nonzero"/><path fill="#000000" d="M258.86496 288.73126L258.86496 289.77814L252.14622 289.77814Q252.5056 290.16876 252.8806 290.79376Q253.23997 291.40314 253.41185 291.8875L252.39622 291.8875Q251.97435 291.0125 251.39622 290.35626Q250.80247 289.6844 250.23997 289.40314L250.23997 288.73126L258.86496 288.73126ZM254.6306 285.7Q253.09935 285.7 252.17747 285.3875Q251.23997 285.075 250.73997 284.46564Q250.23997 283.84064 250.23997 282.90314Q250.23997 282.21564 250.52122 281.7Q250.80247 281.16876 251.33372 280.825Q251.84935 280.48126 252.59935 280.29376Q253.34935 280.10626 254.6306 280.10626Q256.1462 280.10626 257.06808 280.41876Q257.98996 280.71564 258.50558 281.34064Q259.00558 281.95 259.00558 282.90314Q259.00558 284.1375 258.11496 284.85626Q257.05246 285.7 254.6306 285.7ZM254.6306 284.6219Q256.73996 284.6219 257.44308 284.1219Q258.1462 283.6219 258.1462 282.90314Q258.1462 282.16876 257.44308 281.6844Q256.73996 281.1844 254.6306 281.1844Q252.5056 281.1844 251.8181 281.6844Q251.11497 282.16876 251.11497 282.91876Q251.11497 283.6375 251.72435 284.075Q252.5056 284.6219 254.6306 284.6219ZM254.6306 278.7Q253.09935 278.7 252.17747 278.3875Q251.23997 278.075 250.73997 277.46564Q250.23997 276.84064 250.23997 275.90314Q250.23997 275.21564 250.52122 274.7Q250.80247 274.16876 251.33372 273.825Q251.84935 273.48126 252.59935 273.29376Q253.34935 273.10626 254.6306 273.10626Q256.1462 273.10626 257.06808 273.41876Q257.98996 273.71564 258.50558 274.34064Q259.00558 274.95 259.00558 275.90314Q259.00558 277.1375 258.11496 277.85626Q257.05246 278.7 254.6306 278.7ZM254.6306 277.6219Q256.73996 277.6219 257.44308 277.1219Q258.1462 276.6219 258.1462 275.90314Q258.1462 275.16876 257.44308 274.6844Q256.73996 274.1844 254.6306 274.1844Q252.5056 274.1844 251.8181 274.6844Q251.11497 275.16876 251.11497 275.91876Q251.11497 276.6375 251.72435 277.075Q252.5056 277.6219 254.6306 277.6219Z" fill-rule="nonzero"/><path fill="#000000" d="M301.63113 287.1531L302.64676 287.1531L302.64676 292.8406Q302.27176 292.8406 301.91238 292.7156Q301.33426 292.49686 300.77176 292.0281Q300.20926 291.54373 299.47488 290.63748Q298.31863 289.23123 297.64676 288.74686Q296.97488 288.24686 296.38113 288.24686Q295.75613 288.24686 295.33426 288.69998Q294.89676 289.1531 294.89676 289.87186Q294.89676 290.63748 295.34988 291.0906Q295.803 291.54373 296.6155 291.55936L296.50613 292.63748Q295.28738 292.5281 294.66238 291.80936Q294.02176 291.07498 294.02176 289.8406Q294.02176 288.60623 294.70926 287.88748Q295.39676 287.16873 296.41238 287.16873Q296.928 287.16873 297.428 287.38748Q297.91238 287.5906 298.47488 288.0906Q299.02176 288.57498 299.97488 289.69998Q300.77176 290.6531 301.06863 290.93436Q301.34988 291.19998 301.63113 291.37186L301.63113 287.1531ZM298.41238 285.69998Q296.88113 285.69998 295.95926 285.38748Q295.02176 285.07498 294.52176 284.4656Q294.02176 283.8406 294.02176 282.9031Q294.02176 282.2156 294.303 281.69998Q294.58426 281.16873 295.1155 280.82498Q295.63113 280.48123 296.38113 280.29373Q297.13113 280.10623 298.41238 280.10623Q299.928 280.10623 300.84988 280.41873Q301.77176 280.7156 302.28738 281.3406Q302.78738 281.94998 302.78738 282.9031Q302.78738 284.13748 301.89676 284.85623Q300.83426 285.69998 298.41238 285.69998ZM298.41238 284.62186Q300.52176 284.62186 301.22488 284.12186Q301.928 283.62186 301.928 282.9031Q301.928 282.16873 301.22488 281.68436Q300.52176 281.18436 298.41238 281.18436Q296.28738 281.18436 295.59988 281.68436Q294.89676 282.16873 294.89676 282.91873Q294.89676 283.63748 295.50613 284.07498Q296.28738 284.62186 298.41238 284.62186ZM298.41238 278.69998Q296.88113 278.69998 295.95926 278.38748Q295.02176 278.07498 294.52176 277.4656Q294.02176 276.8406 294.02176 275.9031Q294.02176 275.2156 294.303 274.69998Q294.58426 274.16873 295.1155 273.82498Q295.63113 273.48123 296.38113 273.29373Q297.13113 273.10623 298.41238 273.10623Q299.928 273.10623 300.84988 273.41873Q301.77176 273.7156 302.28738 274.3406Q302.78738 274.94998 302.78738 275.9031Q302.78738 277.13748 301.89676 277.85623Q300.83426 278.69998 298.41238 278.69998ZM298.41238 277.62186Q300.52176 277.62186 301.22488 277.12186Q301.928 276.62186 301.928 275.9031Q301.928 275.16873 301.22488 274.68436Q300.52176 274.18436 298.41238 274.18436Q296.28738 274.18436 295.59988 274.68436Q294.89676 275.16873 294.89676 275.91873Q294.89676 276.63748 295.50613 277.07498Q296.28738 277.62186 298.41238 277.62186Z" fill-rule="nonzero"/><path fill="#000000" d="M346.4286 289.32498L344.3661 289.32498L344.3661 293.04373L343.39734 293.04373L337.83484 289.12186L337.83484 288.26248L343.39734 288.26248L343.39734 287.10623L344.3661 287.10623L344.3661 288.26248L346.4286 288.26248L346.4286 289.32498ZM343.39734 289.32498L339.53796 289.32498L343.39734 292.01248L343.39734 289.32498ZM342.1942 285.69998Q340.66296 285.69998 339.7411 285.38748Q338.8036 285.07498 338.3036 284.4656Q337.8036 283.8406 337.8036 282.9031Q337.8036 282.2156 338.08484 281.69998Q338.3661 281.16873 338.89734 280.82498Q339.41296 280.48123 340.16296 280.29373Q340.91296 280.10623 342.1942 280.10623Q343.70984 280.10623 344.6317 280.41873Q345.5536 280.7156 346.0692 281.3406Q346.5692 281.94998 346.5692 282.9031Q346.5692 284.13748 345.6786 284.85623Q344.6161 285.69998 342.1942 285.69998ZM342.1942 284.62186Q344.3036 284.62186 345.0067 284.12186Q345.70984 283.62186 345.70984 282.9031Q345.70984 282.16873 345.0067 281.68436Q344.3036 281.18436 342.1942 281.18436Q340.0692 281.18436 339.3817 281.68436Q338.6786 282.16873 338.6786 282.91873Q338.6786 283.63748 339.28796 284.07498Q340.0692 284.62186 342.1942 284.62186ZM342.1942 278.69998Q340.66296 278.69998 339.7411 278.38748Q338.8036 278.07498 338.3036 277.4656Q337.8036 276.8406 337.8036 275.9031Q337.8036 275.2156 338.08484 274.69998Q338.3661 274.16873 338.89734 273.82498Q339.41296 273.48123 340.16296 273.29373Q340.91296 273.10623 342.1942 273.10623Q343.70984 273.10623 344.6317 273.41873Q345.5536 273.7156 346.0692 274.3406Q346.5692 274.94998 346.5692 275.9031Q346.5692 277.13748 345.6786 277.85623Q344.6161 278.69998 342.1942 278.69998ZM342.1942 277.62186Q344.3036 277.62186 345.0067 277.12186Q345.70984 276.62186 345.70984 275.9031Q345.70984 275.16873 345.0067 274.68436Q344.3036 274.18436 342.1942 274.18436Q340.0692 274.18436 339.3817 274.68436Q338.6786 275.16873 338.6786 275.91873Q338.6786 276.63748 339.28796 277.07498Q340.0692 277.62186 342.1942 277.62186Z" fill-rule="nonzero"/><path fill="#000000" d="M365.5549 287.23123L365.63303 288.2781Q365.00803 288.41873 364.72678 288.66873Q364.27365 289.10623 364.27365 289.73123Q364.27365 290.23123 364.5549 290.62186Q364.9299 291.10623 365.63303 291.4031Q366.32053 291.68436 367.60178 291.69998Q367.02365 291.32498 366.7424 290.7781Q366.46115 290.2156 366.46115 289.60623Q366.46115 288.55936 367.2424 287.82498Q368.02365 287.07498 369.2424 287.07498Q370.0549 287.07498 370.75803 287.43436Q371.44553 287.7781 371.82053 288.38748Q372.1799 288.99686 372.1799 289.76248Q372.1799 291.0906 371.21115 291.91873Q370.2424 292.74686 368.02365 292.74686Q365.52365 292.74686 364.39865 291.82498Q363.41428 291.0281 363.41428 289.66873Q363.41428 288.6531 363.9924 288.01248Q364.5549 287.35623 365.5549 287.23123ZM369.25803 291.5281Q369.8049 291.5281 370.3049 291.30936Q370.78928 291.07498 371.0549 290.66873Q371.32053 290.24686 371.32053 289.7781Q371.32053 289.12186 370.78928 288.63748Q370.2424 288.1531 369.32053 288.1531Q368.4299 288.1531 367.91428 288.63748Q367.39865 289.10623 367.39865 289.82498Q367.39865 290.54373 367.91428 291.04373Q368.4299 291.5281 369.25803 291.5281ZM367.8049 285.69998Q366.27365 285.69998 365.35178 285.38748Q364.41428 285.07498 363.91428 284.4656Q363.41428 283.8406 363.41428 282.9031Q363.41428 282.2156 363.69553 281.69998Q363.97678 281.16873 364.50803 280.82498Q365.02365 280.48123 365.77365 280.29373Q366.52365 280.10623 367.8049 280.10623Q369.32053 280.10623 370.2424 280.41873Q371.16428 280.7156 371.6799 281.3406Q372.1799 281.94998 372.1799 282.9031Q372.1799 284.13748 371.28928 284.85623Q370.22678 285.69998 367.8049 285.69998ZM367.8049 284.62186Q369.91428 284.62186 370.6174 284.12186Q371.32053 283.62186 371.32053 282.9031Q371.32053 282.16873 370.6174 281.68436Q369.91428 281.18436 367.8049 281.18436Q365.6799 281.18436 364.9924 281.68436Q364.28928 282.16873 364.28928 282.91873Q364.28928 283.63748 364.89865 284.07498Q365.6799 284.62186 367.8049 284.62186ZM367.8049 278.69998Q366.27365 278.69998 365.35178 278.38748Q364.41428 278.07498 363.91428 277.4656Q363.41428 276.8406 363.41428 275.9031Q363.41428 275.2156 363.69553 274.69998Q363.97678 274.16873 364.50803 273.82498Q365.02365 273.48123 365.77365 273.29373Q366.52365 273.10623 367.8049 273.10623Q369.32053 273.10623 370.2424 273.41873Q371.16428 273.7156 371.6799 274.3406Q372.1799 274.94998 372.1799 275.9031Q372.1799 277.13748 371.28928 277.85623Q370.22678 278.69998 367.8049 278.69998ZM367.8049 277.62186Q369.91428 277.62186 370.6174 277.12186Q371.32053 276.62186 371.32053 275.9031Q371.32053 275.16873 370.6174 274.68436Q369.91428 274.18436 367.8049 274.18436Q365.6799 274.18436 364.9924 274.68436Q364.28928 275.16873 364.28928 275.91873Q364.28928 276.63748 364.89865 277.07498Q365.6799 277.62186 367.8049 277.62186Z" fill-rule="nonzero"/><path fill="#000000" d="M385.55414 291.07498Q385.30414 291.73123 384.86664 292.05936Q384.4135 292.37186 383.80414 292.37186Q382.86664 292.37186 382.226 291.69998Q381.5854 291.01248 381.5854 289.9031Q381.5854 288.7781 382.24164 288.0906Q382.8979 287.4031 383.8354 287.4031Q384.42914 287.4031 384.86664 287.7156Q385.30414 288.0281 385.55414 288.66873Q385.80414 287.87186 386.38226 287.4656Q386.9604 287.05936 387.75726 287.05936Q388.851 287.05936 389.601 287.8406Q390.351 288.60623 390.351 289.88748Q390.351 291.1531 389.601 291.93436Q388.851 292.7156 387.726 292.7156Q386.88226 292.7156 386.31976 292.29373Q385.75726 291.85623 385.55414 291.07498ZM383.75726 291.29373Q384.36664 291.29373 384.75726 290.9031Q385.1479 290.49686 385.1479 289.87186Q385.1479 289.26248 384.7729 288.87186Q384.38226 288.48123 383.81976 288.48123Q383.24164 288.48123 382.851 288.88748Q382.44476 289.29373 382.44476 289.88748Q382.44476 290.49686 382.8354 290.9031Q383.226 291.29373 383.75726 291.29373ZM387.726 291.62186Q388.17914 291.62186 388.601 291.41873Q389.0229 291.19998 389.25726 290.7781Q389.49164 290.35623 389.49164 289.87186Q389.49164 289.12186 389.00726 288.63748Q388.5229 288.13748 387.7729 288.13748Q387.00726 288.13748 386.50726 288.63748Q386.00726 289.13748 386.00726 289.9031Q386.00726 290.6531 386.50726 291.13748Q386.99164 291.62186 387.726 291.62186ZM385.976 285.69998Q384.44476 285.69998 383.5229 285.38748Q382.5854 285.07498 382.0854 284.4656Q381.5854 283.8406 381.5854 282.9031Q381.5854 282.2156 381.86664 281.69998Q382.1479 281.16873 382.67914 280.82498Q383.19476 280.48123 383.94476 280.29373Q384.69476 280.10623 385.976 280.10623Q387.49164 280.10623 388.4135 280.41873Q389.3354 280.7156 389.851 281.3406Q390.351 281.94998 390.351 282.9031Q390.351 284.13748 389.4604 284.85623Q388.3979 285.69998 385.976 285.69998ZM385.976 284.62186Q388.0854 284.62186 388.7885 284.12186Q389.49164 283.62186 389.49164 282.9031Q389.49164 282.16873 388.7885 281.68436Q388.0854 281.18436 385.976 281.18436Q383.851 281.18436 383.1635 281.68436Q382.4604 282.16873 382.4604 282.91873Q382.4604 283.63748 383.06976 284.07498Q383.851 284.62186 385.976 284.62186ZM385.976 278.69998Q384.44476 278.69998 383.5229 278.38748Q382.5854 278.07498 382.0854 277.4656Q381.5854 276.8406 381.5854 275.9031Q381.5854 275.2156 381.86664 274.69998Q382.1479 274.16873 382.67914 273.82498Q383.19476 273.48123 383.94476 273.29373Q384.69476 273.10623 385.976 273.10623Q387.49164 273.10623 388.4135 273.41873Q389.3354 273.7156 389.851 274.3406Q390.351 274.94998 390.351 275.9031Q390.351 277.13748 389.4604 277.85623Q388.3979 278.69998 385.976 278.69998ZM385.976 277.62186Q388.0854 277.62186 388.7885 277.12186Q389.49164 276.62186 389.49164 275.9031Q389.49164 275.16873 388.7885 274.68436Q388.0854 274.18436 385.976 274.18436Q383.851 274.18436 383.1635 274.68436Q382.4604 275.16873 382.4604 275.91873Q382.4604 276.63748 383.06976 277.07498Q383.851 277.62186 385.976 277.62186Z" fill-rule="nonzero"/><path fill="#000000" d="M404.30496 295.73126L404.30496 296.77814L397.5862 296.77814Q397.9456 297.16876 398.3206 297.79376Q398.67996 298.40314 398.85184 298.8875L397.8362 298.8875Q397.41434 298.0125 396.8362 297.35626Q396.24246 296.6844 395.67996 296.40314L395.67996 295.73126L404.30496 295.73126ZM400.0706 292.7Q398.53934 292.7 397.61746 292.3875Q396.67996 292.075 396.17996 291.46564Q395.67996 290.84064 395.67996 289.90314Q395.67996 289.21564 395.9612 288.7Q396.24246 288.16876 396.7737 287.825Q397.28934 287.48126 398.03934 287.29376Q398.78934 287.10626 400.0706 287.10626Q401.5862 287.10626 402.5081 287.41876Q403.42996 287.71564 403.9456 288.34064Q404.4456 288.95 404.4456 289.90314Q404.4456 291.1375 403.55496 291.85626Q402.49246 292.7 400.0706 292.7ZM400.0706 291.6219Q402.17996 291.6219 402.8831 291.1219Q403.5862 290.6219 403.5862 289.90314Q403.5862 289.16876 402.8831 288.6844Q402.17996 288.1844 400.0706 288.1844Q397.9456 288.1844 397.2581 288.6844Q396.55496 289.16876 396.55496 289.91876Q396.55496 290.6375 397.16434 291.075Q397.9456 291.6219 400.0706 291.6219ZM400.0706 285.7Q398.53934 285.7 397.61746 285.3875Q396.67996 285.075 396.17996 284.46564Q395.67996 283.84064 395.67996 282.90314Q395.67996 282.21564 395.9612 281.7Q396.24246 281.16876 396.7737 280.825Q397.28934 280.48126 398.03934 280.29376Q398.78934 280.10626 400.0706 280.10626Q401.5862 280.10626 402.5081 280.41876Q403.42996 280.71564 403.9456 281.34064Q404.4456 281.95 404.4456 282.90314Q404.4456 284.1375 403.55496 284.85626Q402.49246 285.7 400.0706 285.7ZM400.0706 284.6219Q402.17996 284.6219 402.8831 284.1219Q403.5862 283.6219 403.5862 282.90314Q403.5862 282.16876 402.8831 281.6844Q402.17996 281.1844 400.0706 281.1844Q397.9456 281.1844 397.2581 281.6844Q396.55496 282.16876 396.55496 282.91876Q396.55496 283.6375 397.16434 284.075Q397.9456 284.6219 400.0706 284.6219ZM400.0706 278.7Q398.53934 278.7 397.61746 278.3875Q396.67996 278.075 396.17996 277.46564Q395.67996 276.84064 395.67996 275.90314Q395.67996 275.21564 395.9612 274.7Q396.24246 274.16876 396.7737 273.825Q397.28934 273.48126 398.03934 273.29376Q398.78934 273.10626 400.0706 273.10626Q401.5862 273.10626 402.5081 273.41876Q403.42996 273.71564 403.9456 274.34064Q404.4456 274.95 404.4456 275.90314Q404.4456 277.1375 403.55496 277.85626Q402.49246 278.7 400.0706 278.7ZM400.0706 277.6219Q402.17996 277.6219 402.8831 277.1219Q403.5862 276.6219 403.5862 275.90314Q403.5862 275.16876 402.8831 274.6844Q402.17996 274.1844 400.0706 274.1844Q397.9456 274.1844 397.2581 274.6844Q396.55496 275.16876 396.55496 275.91876Q396.55496 276.6375 397.16434 277.075Q397.9456 277.6219 400.0706 277.6219Z" fill-rule="nonzero"/><path fill="#000000" d="M447.07114 294.1531L448.08676 294.1531L448.08676 299.8406Q447.71176 299.8406 447.3524 299.7156Q446.77426 299.49686 446.21176 299.0281Q445.64926 298.54373 444.9149 297.63748Q443.75864 296.23123 443.08676 295.74686Q442.4149 295.24686 441.82114 295.24686Q441.19614 295.24686 440.77426 295.69998Q440.33676 296.1531 440.33676 296.87186Q440.33676 297.63748 440.7899 298.0906Q441.243 298.54373 442.0555 298.55936L441.94614 299.63748Q440.7274 299.5281 440.1024 298.80936Q439.46176 298.07498 439.46176 296.8406Q439.46176 295.60623 440.14926 294.88748Q440.83676 294.16873 441.8524 294.16873Q442.368 294.16873 442.868 294.38748Q443.3524 294.5906 443.9149 295.0906Q444.46176 295.57498 445.4149 296.69998Q446.21176 297.6531 446.50864 297.93436Q446.7899 298.19998 447.07114 298.37186L447.07114 294.1531ZM443.8524 292.69998Q442.32114 292.69998 441.39926 292.38748Q440.46176 292.07498 439.96176 291.4656Q439.46176 290.8406 439.46176 289.9031Q439.46176 289.2156 439.743 288.69998Q440.02426 288.16873 440.5555 287.82498Q441.07114 287.48123 441.82114 287.29373Q442.57114 287.10623 443.8524 287.10623Q445.368 287.10623 446.2899 287.41873Q447.21176 287.7156 447.7274 288.3406Q448.2274 288.94998 448.2274 289.9031Q448.2274 291.13748 447.33676 291.85623Q446.27426 292.69998 443.8524 292.69998ZM443.8524 291.62186Q445.96176 291.62186 446.6649 291.12186Q447.368 290.62186 447.368 289.9031Q447.368 289.16873 446.6649 288.68436Q445.96176 288.18436 443.8524 288.18436Q441.7274 288.18436 441.0399 288.68436Q440.33676 289.16873 440.33676 289.91873Q440.33676 290.63748 440.94614 291.07498Q441.7274 291.62186 443.8524 291.62186ZM443.8524 285.69998Q442.32114 285.69998 441.39926 285.38748Q440.46176 285.07498 439.96176 284.4656Q439.46176 283.8406 439.46176 282.9031Q439.46176 282.2156 439.743 281.69998Q440.02426 281.16873 440.5555 280.82498Q441.07114 280.48123 441.82114 280.29373Q442.57114 280.10623 443.8524 280.10623Q445.368 280.10623 446.2899 280.41873Q447.21176 280.7156 447.7274 281.3406Q448.2274 281.94998 448.2274 282.9031Q448.2274 284.13748 447.33676 284.85623Q446.27426 285.69998 443.8524 285.69998ZM443.8524 284.62186Q445.96176 284.62186 446.6649 284.12186Q447.368 283.62186 447.368 282.9031Q447.368 282.16873 446.6649 281.68436Q445.96176 281.18436 443.8524 281.18436Q441.7274 281.18436 441.0399 281.68436Q440.33676 282.16873 440.33676 282.91873Q440.33676 283.63748 440.94614 284.07498Q441.7274 284.62186 443.8524 284.62186ZM443.8524 278.69998Q442.32114 278.69998 441.39926 278.38748Q440.46176 278.07498 439.96176 277.4656Q439.46176 276.8406 439.46176 275.9031Q439.46176 275.2156 439.743 274.69998Q440.02426 274.16873 440.5555 273.82498Q441.07114 273.48123 441.82114 273.29373Q442.57114 273.10623 443.8524 273.10623Q445.368 273.10623 446.2899 273.41873Q447.21176 273.7156 447.7274 274.3406Q448.2274 274.94998 448.2274 275.9031Q448.2274 277.13748 447.33676 277.85623Q446.27426 278.69998 443.8524 278.69998ZM443.8524 277.62186Q445.96176 277.62186 446.6649 277.12186Q447.368 276.62186 447.368 275.9031Q447.368 275.16873 446.6649 274.68436Q445.96176 274.18436 443.8524 274.18436Q441.7274 274.18436 441.0399 274.68436Q440.33676 275.16873 440.33676 275.91873Q440.33676 276.63748 440.94614 277.07498Q441.7274 277.62186 443.8524 277.62186Z" fill-rule="nonzero"/><path fill="#000000" d="M491.8686 296.325L489.8061 296.325L489.8061 300.04376L488.83734 300.04376L483.27484 296.1219L483.27484 295.2625L488.83734 295.2625L488.83734 294.10626L489.8061 294.10626L489.8061 295.2625L491.8686 295.2625L491.8686 296.325ZM488.83734 296.325L484.97797 296.325L488.83734 299.0125L488.83734 296.325ZM487.63422 292.7Q486.10297 292.7 485.1811 292.3875Q484.2436 292.075 483.7436 291.46564Q483.2436 290.84064 483.2436 289.90314Q483.2436 289.21564 483.52484 288.7Q483.8061 288.16876 484.33734 287.825Q484.85297 287.48126 485.60297 287.29376Q486.35297 287.10626 487.63422 287.10626Q489.14984 287.10626 490.07172 287.41876Q490.9936 287.71564 491.50922 288.34064Q492.00922 288.95 492.00922 289.90314Q492.00922 291.1375 491.1186 291.85626Q490.0561 292.7 487.63422 292.7ZM487.63422 291.6219Q489.7436 291.6219 490.44672 291.1219Q491.14984 290.6219 491.14984 289.90314Q491.14984 289.16876 490.44672 288.6844Q489.7436 288.1844 487.63422 288.1844Q485.50922 288.1844 484.82172 288.6844Q484.1186 289.16876 484.1186 289.91876Q484.1186 290.6375 484.72797 291.075Q485.50922 291.6219 487.63422 291.6219ZM487.63422 285.7Q486.10297 285.7 485.1811 285.3875Q484.2436 285.075 483.7436 284.46564Q483.2436 283.84064 483.2436 282.90314Q483.2436 282.21564 483.52484 281.7Q483.8061 281.16876 484.33734 280.825Q484.85297 280.48126 485.60297 280.29376Q486.35297 280.10626 487.63422 280.10626Q489.14984 280.10626 490.07172 280.41876Q490.9936 280.71564 491.50922 281.34064Q492.00922 281.95 492.00922 282.90314Q492.00922 284.1375 491.1186 284.85626Q490.0561 285.7 487.63422 285.7ZM487.63422 284.6219Q489.7436 284.6219 490.44672 284.1219Q491.14984 283.6219 491.14984 282.90314Q491.14984 282.16876 490.44672 281.6844Q489.7436 281.1844 487.63422 281.1844Q485.50922 281.1844 484.82172 281.6844Q484.1186 282.16876 484.1186 282.91876Q484.1186 283.6375 484.72797 284.075Q485.50922 284.6219 487.63422 284.6219ZM487.63422 278.7Q486.10297 278.7 485.1811 278.3875Q484.2436 278.075 483.7436 277.46564Q483.2436 276.84064 483.2436 275.90314Q483.2436 275.21564 483.52484 274.7Q483.8061 274.16876 484.33734 273.825Q484.85297 273.48126 485.60297 273.29376Q486.35297 273.10626 487.63422 273.10626Q489.14984 273.10626 490.07172 273.41876Q490.9936 273.71564 491.50922 274.34064Q492.00922 274.95 492.00922 275.90314Q492.00922 277.1375 491.1186 277.85626Q490.0561 278.7 487.63422 278.7ZM487.63422 277.6219Q489.7436 277.6219 490.44672 277.1219Q491.14984 276.6219 491.14984 275.90314Q491.14984 275.16876 490.44672 274.6844Q489.7436 274.1844 487.63422 274.1844Q485.50922 274.1844 484.82172 274.6844Q484.1186 275.16876 484.1186 275.91876Q484.1186 276.6375 484.72797 277.075Q485.50922 277.6219 487.63422 277.6219Z" fill-rule="nonzero"/></svg>