<svg version="1.1" viewBox="0.0 0.0 567.0 351.0" fill="none" stroke="none" stroke-linecap="square" stroke-miterlimit="10" width="567" height="351" xmlns:xlink="http://www.w3.org/1999/xlink" xmlns="http://www.w3.org/2000/svg"><path fill="#ffffff" d="M0 0L567.0 0L567.0 351.0L0 351.0L0 0Z" fill-rule="nonzero"/><path stroke="#333333" stroke-width="1.0" stroke-linecap="butt" d="M97.5 50.5L97.5 313.5" fill-rule="nonzero"/><path stroke="#cccccc" stroke-width="1.0" stroke-linecap="butt" d="M195.5 50.5L195.5 313.5" fill-rule="nonzero"/><path stroke="#cccccc" stroke-width="1.0" stroke-linecap="butt" d="M294.5 50.5L294.5 313.5" fill-rule="nonzero"/><path stroke="#cccccc" stroke-width="1.0" stroke-linecap="butt" d="M392.5 50.5L392.5 313.5" fill-rule="nonzero"/><path stroke="#cccccc" stroke-width="1.0" stroke-linecap="butt" d="M490.5 50.5L490.5 313.5" fill-rule="nonzero"/><path stroke="#e6e6e6" stroke-width="1.0" stroke-linecap="butt" d="M65.5 50.5L65.5 313.5" fill-rule="nonzero"/><path stroke="#e6e6e6" stroke-width="1.0" stroke-linecap="butt" d="M130.5 50.5L130.5 313.5" fill-rule="nonzero"/><path stroke="#e6e6e6" stroke-width="1.0" stroke-linecap="butt" d="M163.5 50.5L163.5 313.5" fill-rule="nonzero"/><path stroke="#e6e6e6" stroke-width="1.0" stroke-linecap="butt" d="M228.5 50.5L228.5 313.5" fill-rule="nonzero"/><path stroke="#e6e6e6" stroke-width="1.0" stroke-linecap="butt" d="M261.5 50.5L261.5 313.5" fill-rule="nonzero"/><path stroke="#e6e6e6" stroke-width="1.0" stroke-linecap="butt" d="M326.5 50.5L326.5 313.5" fill-rule="nonzero"/><path stroke="#e6e6e6" stroke-width="1.0" stroke-linecap="butt" d="M359.5 50.5L359.5 313.5" fill-rule="nonzero"/><path stroke="#e6e6e6" stroke-width="1.0" stroke-linecap="butt" d="M425.5 50.5L425.5 313.5" fill-rule="nonzero"/><path stroke="#e6e6e6" stroke-width="1.0" stroke-linecap="butt" d="M457.5 50.5L457.5 313.5" fill-rule="nonzero"/><path stroke="#e6e6e6" stroke-width="1.0" stroke-linecap="butt" d="M523.5 50.5L523.5 313.5" fill-rule="nonzero"/><path stroke="#333333" stroke-width="1.0" stroke-linecap="butt" d="M44.5 313.5L549.5 313.5" fill-rule="nonzero"/><path stroke="#cccccc" stroke-width="1.0" stroke-linecap="butt" d="M44.5 225.5L549.5 225.5" fill-rule="nonzero"/><path stroke="#cccccc" stroke-width="1.0" stroke-linecap="butt" d="M44.5 137.5L549.5 137.5" fill-rule="nonzero"/><path stroke="#cccccc" stroke-width="1.0" stroke-linecap="butt" d="M44.5 50.5L549.5 50.5" fill-rule="nonzero"/><path stroke="#e6e6e6" stroke-width="1.0" stroke-linecap="butt" d="M44.5 298.5L549.5 298.5" fill-rule="nonzero"/><path stroke="#e6e6e6" stroke-width="1.0" stroke-linecap="butt" d="M44.5 284.5L549.5 284.5" fill-rule="nonzero"/><path stroke="#e6e6e6" stroke-width="1.0" stroke-linecap="butt" d="M44.5 269.5L549.5 269.5" fill-rule="nonzero"/><path stroke="#e6e6e6" stroke-width="1.0" stroke-linecap="butt" d="M44.5 254.5L549.5 254.5" fill-rule="nonzero"/><path stroke="#e6e6e6" stroke-width="1.0" stroke-linecap="butt" d="M44.5 240.5L549.5 240.5" fill-rule="nonzero"/><path stroke="#e6e6e6" stroke-width="1.0" stroke-linecap="butt" d="M44.5 211.5L549.5 211.5" fill-rule="nonzero"/><path stroke="#e6e6e6" stroke-width="1.0" stroke-linecap="butt" d="M44.5 196.5L549.5 196.5" fill-rule="nonzero"/><path stroke="#e6e6e6" stroke-width="1.0" stroke-linecap="butt" d="M44.5 181.5L549.5 181.5" fill-rule="nonzero"/><path stroke="#e6e6e6" stroke-width="1.0" stroke-linecap="butt" d="M44.5 167.5L549.5 167.5" fill-rule="nonzero"/><path stroke="#e6e6e6" stroke-width="1.0" stroke-linecap="butt" d="M44.5 152.5L549.5 152.5" fill-rule="nonzero"/><path stroke="#e6e6e6" stroke-width="1.0" stroke-linecap="butt" d="M44.5 123.5L549.5 123.5" fill-rule="nonzero"/><path stroke="#e6e6e6" stroke-width="1.0" stroke-linecap="butt" d="M44.5 108.5L549.5 108.5" fill-rule="nonzero"/><path stroke="#e6e6e6" stroke-width="1.0" stroke-linecap="butt" d="M44.5 94.5L549.5 94.5" fill-rule="nonzero"/><path stroke="#e6e6e6" stroke-width="1.0" stroke-linecap="butt" d="M44.5 79.5L549.5 79.5" fill-rule="nonzero"/><path stroke="#e6e6e6" stroke-width="1.0" stroke-linecap="butt" d="M44.5 64.5L549.5 64.5" fill-rule="nonzero"/><clipPath id="id_0"><path d="M44.55 50.25L549.45 50.25L549.45 313.45L44.55 313.45L44.55 50.25Z" clip-rule="nonzero"/></clipPath><path fill="#4285f4" fill-opacity="0.8" clip-path="url(#id_0)" d="M129.17719 309.06332C129.17719 326.18417 115.29802 340.06332 98.17719 340.06332C81.056366 340.06332 67.17719 326.18417 67.17719 309.06332C67.17719 291.9425 81.056366 278.06332 98.17719 278.06332C115.29802 278.06332 129.17719 291.9425 129.17719 309.06332Z" fill-rule="nonzero"/><path fill="#ea4335" fill-opacity="0.8" clip-path="url(#id_0)" d="M162.13309 181.85C162.13309 189.62413 155.8309 195.92632 148.05678 195.92632C140.28265 195.92632 133.98047 189.62413 133.98047 181.85C133.98047 174.07587 140.28265 167.7737 148.05678 167.7737C155.8309 167.7737 162.13309 174.07587 162.13309 181.85Z" fill-rule="nonzero"/><path fill="#fbbc04" fill-opacity="0.8" clip-path="url(#id_0)" d="M154.05678 72.183334C154.05678 75.49704 151.37048 78.183334 148.05678 78.183334C144.74307 78.183334 142.05678 75.49704 142.05678 72.183334C142.05678 68.86962 144.74307 66.183334 148.05678 66.183334C151.37048 66.183334 154.05678 68.86962 154.05678 72.183334Z" fill-rule="nonzero"/><path fill="#34a853" fill-opacity="0.8" clip-path="url(#id_0)" d="M207.12459 94.11667C207.12459 98.974266 203.18672 102.91213 198.32912 102.91213C193.47151 102.91213 189.53365 98.974266 189.53365 94.11667C189.53365 89.25906 193.47151 85.3212 198.32912 85.3212C203.18672 85.3212 207.12459 89.25906 207.12459 94.11667Z" fill-rule="nonzero"/><path fill="#ff6d01" fill-opacity="0.8" clip-path="url(#id_0)" d="M514.04596 181.85C514.04596 189.62772 507.74088 195.93279 499.96317 195.93279C492.18546 195.93279 485.88037 189.62772 485.88037 181.85C485.88037 174.0723 492.18546 167.76721 499.96317 167.76721C507.74088 167.76721 514.04596 174.0723 514.04596 181.85Z" fill-rule="nonzero"/><path stroke="#ffffff" stroke-width="3.0" stroke-linejoin="round" stroke-linecap="round" clip-path="url(#id_0)" d="M86.31782 314.06332L86.31782 313.14145Q85.61469 314.2352 84.28657 314.2352Q83.41157 314.2352 82.67719 313.75082Q81.95844 313.26645 81.55219 312.40707Q81.16157 311.5477 81.16157 310.43832Q81.16157 309.3602 81.52094 308.46957Q81.88032 307.57895 82.59907 307.1102Q83.33344 306.64145 84.22407 306.64145Q84.88032 306.64145 85.39594 306.9227Q85.91157 307.18832 86.22407 307.64145L86.22407 304.0477L87.45844 304.0477L87.45844 314.06332L86.31782 314.06332ZM82.42719 310.43832Q82.42719 311.82895 83.00532 312.53207Q83.59907 313.21957 84.39594 313.21957Q85.20844 313.21957 85.77094 312.56332Q86.33344 311.89145 86.33344 310.5477Q86.33344 309.0477 85.75532 308.3602Q85.17719 307.65707 84.34907 307.65707Q83.52094 307.65707 82.97407 308.32895Q82.42719 309.00082 82.42719 310.43832ZM89.61469 305.45395L89.61469 304.0477L90.83344 304.0477L90.83344 305.45395L89.61469 305.45395ZM89.61469 314.06332L89.61469 306.7977L90.83344 306.7977L90.83344 314.06332L89.61469 314.06332ZM92.58344 314.06332L92.58344 306.7977L93.69282 306.7977L93.69282 307.90707Q94.11469 307.12582 94.47407 306.89145Q94.83344 306.64145 95.27094 306.64145Q95.89594 306.64145 96.53657 307.03207L96.11469 308.1727Q95.66157 307.90707 95.20844 307.90707Q94.80219 307.90707 94.47407 308.15707Q94.16157 308.39145 94.02094 308.82895Q93.81782 309.4852 93.81782 310.26645L93.81782 314.06332L92.58344 314.06332ZM102.56782 311.71957L103.84907 311.87582Q103.53657 313.00082 102.72407 313.62582Q101.91157 314.2352 100.64594 314.2352Q99.05219 314.2352 98.11469 313.25082Q97.19282 312.26645 97.19282 310.50082Q97.19282 308.65707 98.13032 307.65707Q99.08344 306.64145 100.58344 306.64145Q102.03657 306.64145 102.95844 307.64145Q103.88032 308.62582 103.88032 310.4227Q103.88032 310.53207 103.88032 310.75082L98.45844 310.75082Q98.53657 311.93832 99.13032 312.57895Q99.73969 313.21957 100.66157 313.21957Q101.33344 313.21957 101.80219 312.8602Q102.28657 312.50082 102.56782 311.71957ZM98.53657 309.7352L102.58344 309.7352Q102.50532 308.81332 102.11469 308.3602Q101.53657 307.65707 100.59907 307.65707Q99.73969 307.65707 99.16157 308.21957Q98.59907 308.78207 98.53657 309.7352ZM110.33344 311.40707L111.55219 311.56332Q111.34907 312.81332 110.52094 313.53207Q109.70844 314.2352 108.52094 314.2352Q107.03657 314.2352 106.13032 313.26645Q105.22407 312.28207 105.22407 310.45395Q105.22407 309.28207 105.61469 308.40707Q106.00532 307.51645 106.80219 307.07895Q107.59907 306.64145 108.53657 306.64145Q109.70844 306.64145 110.45844 307.2352Q111.22407 307.82895 111.42719 308.93832L110.23969 309.12582Q110.06782 308.39145 109.63032 308.03207Q109.19282 307.65707 108.58344 307.65707Q107.64594 307.65707 107.06782 308.32895Q106.48969 308.9852 106.48969 310.4227Q106.48969 311.89145 107.05219 312.56332Q107.61469 313.21957 108.50532 313.21957Q109.23969 313.21957 109.72407 312.78207Q110.20844 312.32895 110.33344 311.40707ZM115.28657 312.96957L115.45844 314.0477Q114.94282 314.15707 114.53657 314.15707Q113.86469 314.15707 113.48969 313.95395Q113.13032 313.7352 112.97407 313.39145Q112.83344 313.0477 112.83344 311.93832L112.83344 307.76645L111.92719 307.76645L111.92719 306.7977L112.83344 306.7977L112.83344 305.00082L114.05219 304.26645L114.05219 306.7977L115.28657 306.7977L115.28657 307.76645L114.05219 307.76645L114.05219 312.00082Q114.05219 312.53207 114.11469 312.68832Q114.17719 312.82895 114.31782 312.9227Q114.47407 313.01645 114.73969 313.01645Q114.95844 313.01645 115.28657 312.96957Z" fill-rule="nonzero"/><path fill="#1a1a1a" clip-path="url(#id_0)" d="M86.31782 314.06332L86.31782 313.14145Q85.61469 314.2352 84.28657 314.2352Q83.41157 314.2352 82.67719 313.75082Q81.95844 313.26645 81.55219 312.40707Q81.16157 311.5477 81.16157 310.43832Q81.16157 309.3602 81.52094 308.46957Q81.88032 307.57895 82.59907 307.1102Q83.33344 306.64145 84.22407 306.64145Q84.88032 306.64145 85.39594 306.9227Q85.91157 307.18832 86.22407 307.64145L86.22407 304.0477L87.45844 304.0477L87.45844 314.06332L86.31782 314.06332ZM82.42719 310.43832Q82.42719 311.82895 83.00532 312.53207Q83.59907 313.21957 84.39594 313.21957Q85.20844 313.21957 85.77094 312.56332Q86.33344 311.89145 86.33344 310.5477Q86.33344 309.0477 85.75532 308.3602Q85.17719 307.65707 84.34907 307.65707Q83.52094 307.65707 82.97407 308.32895Q82.42719 309.00082 82.42719 310.43832ZM89.61469 305.45395L89.61469 304.0477L90.83344 304.0477L90.83344 305.45395L89.61469 305.45395ZM89.61469 314.06332L89.61469 306.7977L90.83344 306.7977L90.83344 314.06332L89.61469 314.06332ZM92.58344 314.06332L92.58344 306.7977L93.69282 306.7977L93.69282 307.90707Q94.11469 307.12582 94.47407 306.89145Q94.83344 306.64145 95.27094 306.64145Q95.89594 306.64145 96.53657 307.03207L96.11469 308.1727Q95.66157 307.90707 95.20844 307.90707Q94.80219 307.90707 94.47407 308.15707Q94.16157 308.39145 94.02094 308.82895Q93.81782 309.4852 93.81782 310.26645L93.81782 314.06332L92.58344 314.06332ZM102.56782 311.71957L103.84907 311.87582Q103.53657 313.00082 102.72407 313.62582Q101.91157 314.2352 100.64594 314.2352Q99.05219 314.2352 98.11469 313.25082Q97.19282 312.26645 97.19282 310.50082Q97.19282 308.65707 98.13032 307.65707Q99.08344 306.64145 100.58344 306.64145Q102.03657 306.64145 102.95844 307.64145Q103.88032 308.62582 103.88032 310.4227Q103.88032 310.53207 103.88032 310.75082L98.45844 310.75082Q98.53657 311.93832 99.13032 312.57895Q99.73969 313.21957 100.66157 313.21957Q101.33344 313.21957 101.80219 312.8602Q102.28657 312.50082 102.56782 311.71957ZM98.53657 309.7352L102.58344 309.7352Q102.50532 308.81332 102.11469 308.3602Q101.53657 307.65707 100.59907 307.65707Q99.73969 307.65707 99.16157 308.21957Q98.59907 308.78207 98.53657 309.7352ZM110.33344 311.40707L111.55219 311.56332Q111.34907 312.81332 110.52094 313.53207Q109.70844 314.2352 108.52094 314.2352Q107.03657 314.2352 106.13032 313.26645Q105.22407 312.28207 105.22407 310.45395Q105.22407 309.28207 105.61469 308.40707Q106.00532 307.51645 106.80219 307.07895Q107.59907 306.64145 108.53657 306.64145Q109.70844 306.64145 110.45844 307.2352Q111.22407 307.82895 111.42719 308.93832L110.23969 309.12582Q110.06782 308.39145 109.63032 308.03207Q109.19282 307.65707 108.58344 307.65707Q107.64594 307.65707 107.06782 308.32895Q106.48969 308.9852 106.48969 310.4227Q106.48969 311.89145 107.05219 312.56332Q107.61469 313.21957 108.50532 313.21957Q109.23969 313.21957 109.72407 312.78207Q110.20844 312.32895 110.33344 311.40707ZM115.28657 312.96957L115.45844 314.0477Q114.94282 314.15707 114.53657 314.15707Q113.86469 314.15707 113.48969 313.95395Q113.13032 313.7352 112.97407 313.39145Q112.83344 313.0477 112.83344 311.93832L112.83344 307.76645L111.92719 307.76645L111.92719 306.7977L112.83344 306.7977L112.83344 305.00082L114.05219 304.26645L114.05219 306.7977L115.28657 306.7977L115.28657 307.76645L114.05219 307.76645L114.05219 312.00082Q114.05219 312.53207 114.11469 312.68832Q114.17719 312.82895 114.31782 312.9227Q114.47407 313.01645 114.73969 313.01645Q114.95844 313.01645 115.28657 312.96957Z" fill-rule="nonzero"/><path stroke="#ffffff" stroke-width="3.0" stroke-linejoin="round" stroke-linecap="round" clip-path="url(#id_0)" d="M130.77553 186.85L129.54115 186.85L129.54115 179.00626Q129.10365 179.42813 128.36928 179.86563Q127.65053 180.2875 127.08803 180.49063L127.08803 179.30313Q128.11928 178.81876 128.8849 178.13126Q129.66615 177.44376 129.97865 176.7875L130.77553 176.7875L130.77553 186.85ZM140.60365 185.6625L140.60365 186.85L133.97865 186.85Q133.96303 186.4125 134.11928 185.99063Q134.3849 185.31876 134.93178 184.6625Q135.49428 184.00626 136.54115 183.14688Q138.18178 181.80313 138.74428 181.02188Q139.3224 180.24063 139.3224 179.5375Q139.3224 178.80313 138.79115 178.30313Q138.27553 177.80313 137.4474 177.80313Q136.55678 177.80313 136.0099 178.33438Q135.47865 178.86563 135.47865 179.81876L134.21303 179.67813Q134.33803 178.27188 135.18178 177.5375Q136.04115 176.7875 137.46303 176.7875Q138.91615 176.7875 139.74428 177.58438Q140.58803 178.38126 140.58803 179.56876Q140.58803 180.17813 140.33803 180.75626Q140.10365 181.33438 139.52553 181.975Q138.96303 182.61563 137.6349 183.74063Q136.52553 184.6625 136.21303 185.00626Q135.90053 185.33438 135.6974 185.6625L140.60365 185.6625ZM144.02553 181.4125Q143.2599 181.13126 142.8849 180.61563Q142.52553 180.1 142.52553 179.36563Q142.52553 178.27188 143.30678 177.5375Q144.10365 176.7875 145.40053 176.7875Q146.71303 176.7875 147.5099 177.55313Q148.3224 178.31876 148.3224 179.4125Q148.3224 180.1 147.9474 180.61563Q147.58803 181.13126 146.83803 181.4125Q147.7599 181.70938 148.24428 182.38126Q148.72865 183.05313 148.72865 183.99063Q148.72865 185.27188 147.8224 186.14688Q146.91615 187.02188 145.43178 187.02188Q143.9474 187.02188 143.02553 186.14688Q142.11928 185.25626 142.11928 183.94376Q142.11928 182.975 142.61928 182.31876Q143.11928 181.64688 144.02553 181.4125ZM143.79115 179.33438Q143.79115 180.0375 144.24428 180.49063Q144.6974 180.94376 145.43178 180.94376Q146.15053 180.94376 146.60365 180.50626Q147.05678 180.05313 147.05678 179.39688Q147.05678 178.725 146.58803 178.27188Q146.11928 177.80313 145.41615 177.80313Q144.71303 177.80313 144.24428 178.25626Q143.79115 178.69376 143.79115 179.33438ZM143.3849 183.95938Q143.3849 184.49063 143.6349 184.99063Q143.8849 185.475 144.36928 185.74063Q144.86928 186.00626 145.4474 186.00626Q146.3224 186.00626 146.8849 185.44376Q147.46303 184.88126 147.46303 184.00626Q147.46303 183.11563 146.86928 182.5375Q146.29115 181.94376 145.40053 181.94376Q144.52553 181.94376 143.9474 182.52188Q143.3849 183.1 143.3849 183.95938ZM149.99428 183.83438L149.99428 182.6L153.77553 182.6L153.77553 183.83438L149.99428 183.83438ZM155.15053 184.20938L156.36928 184.0375Q156.58803 185.08438 157.08803 185.55313Q157.60365 186.00626 158.33803 186.00626Q159.21303 186.00626 159.80678 185.4125Q160.40053 184.80313 160.40053 183.9125Q160.40053 183.06876 159.83803 182.52188Q159.29115 181.975 158.4474 181.975Q158.08803 181.975 157.5724 182.1L157.71303 181.02188Q157.83803 181.0375 157.90053 181.0375Q158.6974 181.0375 159.3224 180.63126Q159.9474 180.225 159.9474 179.36563Q159.9474 178.69376 159.49428 178.25626Q159.04115 177.80313 158.30678 177.80313Q157.58803 177.80313 157.10365 178.25626Q156.6349 178.69376 156.49428 179.6L155.27553 179.38126Q155.49428 178.14688 156.29115 177.475Q157.08803 176.7875 158.27553 176.7875Q159.10365 176.7875 159.79115 177.14688Q160.47865 177.49063 160.83803 178.1Q161.21303 178.70938 161.21303 179.39688Q161.21303 180.0375 160.86928 180.56876Q160.52553 181.1 159.83803 181.42813Q160.72865 181.63126 161.21303 182.27188Q161.71303 182.9125 161.71303 183.89688Q161.71303 185.20938 160.74428 186.11563Q159.79115 187.02188 158.33803 187.02188Q157.0099 187.02188 156.1349 186.24063Q155.27553 185.45938 155.15053 184.20938ZM163.1349 181.9125Q163.1349 180.13126 163.49428 179.05313Q163.86928 177.95938 164.58803 177.38126Q165.30678 176.7875 166.40053 176.7875Q167.21303 176.7875 167.8224 177.11563Q168.43178 177.44376 168.8224 178.05313Q169.22865 178.6625 169.4474 179.5375Q169.66615 180.4125 169.66615 181.9125Q169.66615 183.67813 169.30678 184.75626Q168.9474 185.83438 168.22865 186.42813Q167.5099 187.02188 166.40053 187.02188Q164.96303 187.02188 164.1349 185.975Q163.1349 184.725 163.1349 181.9125ZM164.40053 181.9125Q164.40053 184.38126 164.97865 185.19376Q165.55678 186.00626 166.40053 186.00626Q167.2599 186.00626 167.83803 185.19376Q168.41615 184.36563 168.41615 181.9125Q168.41615 179.42813 167.83803 178.61563Q167.2599 177.80313 166.3849 177.80313Q165.54115 177.80313 165.04115 178.52188Q164.40053 179.44376 164.40053 181.9125Z" fill-rule="nonzero"/><path fill="#1a1a1a" clip-path="url(#id_0)" d="M130.77553 186.85L129.54115 186.85L129.54115 179.00626Q129.10365 179.42813 128.36928 179.86563Q127.65053 180.2875 127.08803 180.49063L127.08803 179.30313Q128.11928 178.81876 128.8849 178.13126Q129.66615 177.44376 129.97865 176.7875L130.77553 176.7875L130.77553 186.85ZM140.60365 185.6625L140.60365 186.85L133.97865 186.85Q133.96303 186.4125 134.11928 185.99063Q134.3849 185.31876 134.93178 184.6625Q135.49428 184.00626 136.54115 183.14688Q138.18178 181.80313 138.74428 181.02188Q139.3224 180.24063 139.3224 179.5375Q139.3224 178.80313 138.79115 178.30313Q138.27553 177.80313 137.4474 177.80313Q136.55678 177.80313 136.0099 178.33438Q135.47865 178.86563 135.47865 179.81876L134.21303 179.67813Q134.33803 178.27188 135.18178 177.5375Q136.04115 176.7875 137.46303 176.7875Q138.91615 176.7875 139.74428 177.58438Q140.58803 178.38126 140.58803 179.56876Q140.58803 180.17813 140.33803 180.75626Q140.10365 181.33438 139.52553 181.975Q138.96303 182.61563 137.6349 183.74063Q136.52553 184.6625 136.21303 185.00626Q135.90053 185.33438 135.6974 185.6625L140.60365 185.6625ZM144.02553 181.4125Q143.2599 181.13126 142.8849 180.61563Q142.52553 180.1 142.52553 179.36563Q142.52553 178.27188 143.30678 177.5375Q144.10365 176.7875 145.40053 176.7875Q146.71303 176.7875 147.5099 177.55313Q148.3224 178.31876 148.3224 179.4125Q148.3224 180.1 147.9474 180.61563Q147.58803 181.13126 146.83803 181.4125Q147.7599 181.70938 148.24428 182.38126Q148.72865 183.05313 148.72865 183.99063Q148.72865 185.27188 147.8224 186.14688Q146.91615 187.02188 145.43178 187.02188Q143.9474 187.02188 143.02553 186.14688Q142.11928 185.25626 142.11928 183.94376Q142.11928 182.975 142.61928 182.31876Q143.11928 181.64688 144.02553 181.4125ZM143.79115 179.33438Q143.79115 180.0375 144.24428 180.49063Q144.6974 180.94376 145.43178 180.94376Q146.15053 180.94376 146.60365 180.50626Q147.05678 180.05313 147.05678 179.39688Q147.05678 178.725 146.58803 178.27188Q146.11928 177.80313 145.41615 177.80313Q144.71303 177.80313 144.24428 178.25626Q143.79115 178.69376 143.79115 179.33438ZM143.3849 183.95938Q143.3849 184.49063 143.6349 184.99063Q143.8849 185.475 144.36928 185.74063Q144.86928 186.00626 145.4474 186.00626Q146.3224 186.00626 146.8849 185.44376Q147.46303 184.88126 147.46303 184.00626Q147.46303 183.11563 146.86928 182.5375Q146.29115 181.94376 145.40053 181.94376Q144.52553 181.94376 143.9474 182.52188Q143.3849 183.1 143.3849 183.95938ZM149.99428 183.83438L149.99428 182.6L153.77553 182.6L153.77553 183.83438L149.99428 183.83438ZM155.15053 184.20938L156.36928 184.0375Q156.58803 185.08438 157.08803 185.55313Q157.60365 186.00626 158.33803 186.00626Q159.21303 186.00626 159.80678 185.4125Q160.40053 184.80313 160.40053 183.9125Q160.40053 183.06876 159.83803 182.52188Q159.29115 181.975 158.4474 181.975Q158.08803 181.975 157.5724 182.1L157.71303 181.02188Q157.83803 181.0375 157.90053 181.0375Q158.6974 181.0375 159.3224 180.63126Q159.9474 180.225 159.9474 179.36563Q159.9474 178.69376 159.49428 178.25626Q159.04115 177.80313 158.30678 177.80313Q157.58803 177.80313 157.10365 178.25626Q156.6349 178.69376 156.49428 179.6L155.27553 179.38126Q155.49428 178.14688 156.29115 177.475Q157.08803 176.7875 158.27553 176.7875Q159.10365 176.7875 159.79115 177.14688Q160.47865 177.49063 160.83803 178.1Q161.21303 178.70938 161.21303 179.39688Q161.21303 180.0375 160.86928 180.56876Q160.52553 181.1 159.83803 181.42813Q160.72865 181.63126 161.21303 182.27188Q161.71303 182.9125 161.71303 183.89688Q161.71303 185.20938 160.74428 186.11563Q159.79115 187.02188 158.33803 187.02188Q157.0099 187.02188 156.1349 186.24063Q155.27553 185.45938 155.15053 184.20938ZM163.1349 181.9125Q163.1349 180.13126 163.49428 179.05313Q163.86928 177.95938 164.58803 177.38126Q165.30678 176.7875 166.40053 176.7875Q167.21303 176.7875 167.8224 177.11563Q168.43178 177.44376 168.8224 178.05313Q169.22865 178.6625 169.4474 179.5375Q169.66615 180.4125 169.66615 181.9125Q169.66615 183.67813 169.30678 184.75626Q168.9474 185.83438 168.22865 186.42813Q167.5099 187.02188 166.40053 187.02188Q164.96303 187.02188 164.1349 185.975Q163.1349 184.725 163.1349 181.9125ZM164.40053 181.9125Q164.40053 184.38126 164.97865 185.19376Q165.55678 186.00626 166.40053 186.00626Q167.2599 186.00626 167.83803 185.19376Q168.41615 184.36563 168.41615 181.9125Q168.41615 179.42813 167.83803 178.61563Q167.2599 177.80313 166.3849 177.80313Q165.54115 177.80313 165.04115 178.52188Q164.40053 179.44376 164.40053 181.9125Z" fill-rule="nonzero"/><path stroke="#ffffff" stroke-width="3.0" stroke-linejoin="round" stroke-linecap="round" clip-path="url(#id_0)" d="M130.77553 77.183334L129.54115 77.183334L129.54115 69.339584Q129.10365 69.76146 128.36928 70.19896Q127.65053 70.620834 127.08803 70.82396L127.08803 69.63646Q128.11928 69.152084 128.8849 68.464584Q129.66615 67.777084 129.97865 67.120834L130.77553 67.120834L130.77553 77.183334ZM140.60365 75.995834L140.60365 77.183334L133.97865 77.183334Q133.96303 76.745834 134.11928 76.32396Q134.3849 75.652084 134.93178 74.995834Q135.49428 74.339584 136.54115 73.48021Q138.18178 72.13646 138.74428 71.35521Q139.3224 70.57396 139.3224 69.870834Q139.3224 69.13646 138.79115 68.63646Q138.27553 68.13646 137.4474 68.13646Q136.55678 68.13646 136.0099 68.66771Q135.47865 69.19896 135.47865 70.152084L134.21303 70.01146Q134.33803 68.60521 135.18178 67.870834Q136.04115 67.120834 137.46303 67.120834Q138.91615 67.120834 139.74428 67.91771Q140.58803 68.714584 140.58803 69.902084Q140.58803 70.51146 140.33803 71.089584Q140.10365 71.66771 139.52553 72.308334Q138.96303 72.94896 137.6349 74.07396Q136.52553 74.995834 136.21303 75.339584Q135.90053 75.66771 135.6974 75.995834L140.60365 75.995834ZM144.02553 71.745834Q143.2599 71.464584 142.8849 70.94896Q142.52553 70.433334 142.52553 69.69896Q142.52553 68.60521 143.30678 67.870834Q144.10365 67.120834 145.40053 67.120834Q146.71303 67.120834 147.5099 67.88646Q148.3224 68.652084 148.3224 69.745834Q148.3224 70.433334 147.9474 70.94896Q147.58803 71.464584 146.83803 71.745834Q147.7599 72.04271 148.24428 72.714584Q148.72865 73.38646 148.72865 74.32396Q148.72865 75.60521 147.8224 76.48021Q146.91615 77.35521 145.43178 77.35521Q143.9474 77.35521 143.02553 76.48021Q142.11928 75.589584 142.11928 74.277084Q142.11928 73.308334 142.61928 72.652084Q143.11928 71.98021 144.02553 71.745834ZM143.79115 69.66771Q143.79115 70.370834 144.24428 70.82396Q144.6974 71.277084 145.43178 71.277084Q146.15053 71.277084 146.60365 70.839584Q147.05678 70.38646 147.05678 69.73021Q147.05678 69.058334 146.58803 68.60521Q146.11928 68.13646 145.41615 68.13646Q144.71303 68.13646 144.24428 68.589584Q143.79115 69.027084 143.79115 69.66771ZM143.3849 74.29271Q143.3849 74.82396 143.6349 75.32396Q143.8849 75.808334 144.36928 76.07396Q144.86928 76.339584 145.4474 76.339584Q146.3224 76.339584 146.8849 75.777084Q147.46303 75.214584 147.46303 74.339584Q147.46303 73.44896 146.86928 72.870834Q146.29115 72.277084 145.40053 72.277084Q144.52553 72.277084 143.9474 72.85521Q143.3849 73.433334 143.3849 74.29271ZM149.99428 74.16771L149.99428 72.933334L153.77553 72.933334L153.77553 74.16771L149.99428 74.16771ZM155.1349 74.558334L156.43178 74.44896Q156.5724 75.38646 157.08803 75.870834Q157.61928 76.339584 158.35365 76.339584Q159.24428 76.339584 159.85365 75.66771Q160.47865 74.995834 160.47865 73.902084Q160.47865 72.839584 159.8849 72.23021Q159.29115 71.620834 158.33803 71.620834Q157.74428 71.620834 157.2599 71.902084Q156.79115 72.16771 156.5099 72.589584L155.35365 72.44896L156.3224 67.29271L161.30678 67.29271L161.30678 68.48021L157.30678 68.48021L156.77553 71.16771Q157.68178 70.54271 158.66615 70.54271Q159.97865 70.54271 160.86928 71.44896Q161.77553 72.35521 161.77553 73.79271Q161.77553 75.152084 160.99428 76.13646Q160.02553 77.35521 158.35365 77.35521Q156.99428 77.35521 156.11928 76.589584Q155.2599 75.82396 155.1349 74.558334ZM163.1349 74.558334L164.43178 74.44896Q164.5724 75.38646 165.08803 75.870834Q165.61928 76.339584 166.35365 76.339584Q167.24428 76.339584 167.85365 75.66771Q168.47865 74.995834 168.47865 73.902084Q168.47865 72.839584 167.8849 72.23021Q167.29115 71.620834 166.33803 71.620834Q165.74428 71.620834 165.2599 71.902084Q164.79115 72.16771 164.5099 72.589584L163.35365 72.44896L164.3224 67.29271L169.30678 67.29271L169.30678 68.48021L165.30678 68.48021L164.77553 71.16771Q165.68178 70.54271 166.66615 70.54271Q167.97865 70.54271 168.86928 71.44896Q169.77553 72.35521 169.77553 73.79271Q169.77553 75.152084 168.99428 76.13646Q168.02553 77.35521 166.35365 77.35521Q164.99428 77.35521 164.11928 76.589584Q163.2599 75.82396 163.1349 74.558334Z" fill-rule="nonzero"/><path fill="#1a1a1a" clip-path="url(#id_0)" d="M130.77553 77.183334L129.54115 77.183334L129.54115 69.339584Q129.10365 69.76146 128.36928 70.19896Q127.65053 70.620834 127.08803 70.82396L127.08803 69.63646Q128.11928 69.152084 128.8849 68.464584Q129.66615 67.777084 129.97865 67.120834L130.77553 67.120834L130.77553 77.183334ZM140.60365 75.995834L140.60365 77.183334L133.97865 77.183334Q133.96303 76.745834 134.11928 76.32396Q134.3849 75.652084 134.93178 74.995834Q135.49428 74.339584 136.54115 73.48021Q138.18178 72.13646 138.74428 71.35521Q139.3224 70.57396 139.3224 69.870834Q139.3224 69.13646 138.79115 68.63646Q138.27553 68.13646 137.4474 68.13646Q136.55678 68.13646 136.0099 68.66771Q135.47865 69.19896 135.47865 70.152084L134.21303 70.01146Q134.33803 68.60521 135.18178 67.870834Q136.04115 67.120834 137.46303 67.120834Q138.91615 67.120834 139.74428 67.91771Q140.58803 68.714584 140.58803 69.902084Q140.58803 70.51146 140.33803 71.089584Q140.10365 71.66771 139.52553 72.308334Q138.96303 72.94896 137.6349 74.07396Q136.52553 74.995834 136.21303 75.339584Q135.90053 75.66771 135.6974 75.995834L140.60365 75.995834ZM144.02553 71.745834Q143.2599 71.464584 142.8849 70.94896Q142.52553 70.433334 142.52553 69.69896Q142.52553 68.60521 143.30678 67.870834Q144.10365 67.120834 145.40053 67.120834Q146.71303 67.120834 147.5099 67.88646Q148.3224 68.652084 148.3224 69.745834Q148.3224 70.433334 147.9474 70.94896Q147.58803 71.464584 146.83803 71.745834Q147.7599 72.04271 148.24428 72.714584Q148.72865 73.38646 148.72865 74.32396Q148.72865 75.60521 147.8224 76.48021Q146.91615 77.35521 145.43178 77.35521Q143.9474 77.35521 143.02553 76.48021Q142.11928 75.589584 142.11928 74.277084Q142.11928 73.308334 142.61928 72.652084Q143.11928 71.98021 144.02553 71.745834ZM143.79115 69.66771Q143.79115 70.370834 144.24428 70.82396Q144.6974 71.277084 145.43178 71.277084Q146.15053 71.277084 146.60365 70.839584Q147.05678 70.38646 147.05678 69.73021Q147.05678 69.058334 146.58803 68.60521Q146.11928 68.13646 145.41615 68.13646Q144.71303 68.13646 144.24428 68.589584Q143.79115 69.027084 143.79115 69.66771ZM143.3849 74.29271Q143.3849 74.82396 143.6349 75.32396Q143.8849 75.808334 144.36928 76.07396Q144.86928 76.339584 145.4474 76.339584Q146.3224 76.339584 146.8849 75.777084Q147.46303 75.214584 147.46303 74.339584Q147.46303 73.44896 146.86928 72.870834Q146.29115 72.277084 145.40053 72.277084Q144.52553 72.277084 143.9474 72.85521Q143.3849 73.433334 143.3849 74.29271ZM149.99428 74.16771L149.99428 72.933334L153.77553 72.933334L153.77553 74.16771L149.99428 74.16771ZM155.1349 74.558334L156.43178 74.44896Q156.5724 75.38646 157.08803 75.870834Q157.61928 76.339584 158.35365 76.339584Q159.24428 76.339584 159.85365 75.66771Q160.47865 74.995834 160.47865 73.902084Q160.47865 72.839584 159.8849 72.23021Q159.29115 71.620834 158.33803 71.620834Q157.74428 71.620834 157.2599 71.902084Q156.79115 72.16771 156.5099 72.589584L155.35365 72.44896L156.3224 67.29271L161.30678 67.29271L161.30678 68.48021L157.30678 68.48021L156.77553 71.16771Q157.68178 70.54271 158.66615 70.54271Q159.97865 70.54271 160.86928 71.44896Q161.77553 72.35521 161.77553 73.79271Q161.77553 75.152084 160.99428 76.13646Q160.02553 77.35521 158.35365 77.35521Q156.99428 77.35521 156.11928 76.589584Q155.2599 75.82396 155.1349 74.558334ZM163.1349 74.558334L164.43178 74.44896Q164.5724 75.38646 165.08803 75.870834Q165.61928 76.339584 166.35365 76.339584Q167.24428 76.339584 167.85365 75.66771Q168.47865 74.995834 168.47865 73.902084Q168.47865 72.839584 167.8849 72.23021Q167.29115 71.620834 166.33803 71.620834Q165.74428 71.620834 165.2599 71.902084Q164.79115 72.16771 164.5099 72.589584L163.35365 72.44896L164.3224 67.29271L169.30678 67.29271L169.30678 68.48021L165.30678 68.48021L164.77553 71.16771Q165.68178 70.54271 166.66615 70.54271Q167.97865 70.54271 168.86928 71.44896Q169.77553 72.35521 169.77553 73.79271Q169.77553 75.152084 168.99428 76.13646Q168.02553 77.35521 166.35365 77.35521Q164.99428 77.35521 164.11928 76.589584Q163.2599 75.82396 163.1349 74.558334Z" fill-rule="nonzero"/><path stroke="#ffffff" stroke-width="3.0" stroke-linejoin="round" stroke-linecap="round" clip-path="url(#id_0)" d="M182.87599 97.92917L182.87599 99.11667L176.25099 99.11667Q176.23537 98.67917 176.39162 98.25729Q176.65724 97.58542 177.20412 96.92917Q177.76662 96.27292 178.81349 95.41354Q180.45412 94.06979 181.01662 93.28854Q181.59474 92.50729 181.59474 91.80417Q181.59474 91.06979 181.06349 90.56979Q180.54787 90.06979 179.71974 90.06979Q178.82912 90.06979 178.28224 90.60104Q177.75099 91.13229 177.75099 92.08542L176.48537 91.94479Q176.61037 90.53854 177.45412 89.80417Q178.31349 89.05417 179.73537 89.05417Q181.18849 89.05417 182.01662 89.85104Q182.86037 90.64792 182.86037 91.83542Q182.86037 92.44479 182.61037 93.02292Q182.37599 93.60104 181.79787 94.24167Q181.23537 94.88229 179.90724 96.00729Q178.79787 96.92917 178.48537 97.27292Q178.17287 97.60104 177.96974 97.92917L182.87599 97.92917ZM184.40724 96.49167L185.70412 96.38229Q185.84474 97.31979 186.36037 97.80417Q186.89162 98.27292 187.62599 98.27292Q188.51662 98.27292 189.12599 97.60104Q189.75099 96.92917 189.75099 95.83542Q189.75099 94.77292 189.15724 94.16354Q188.56349 93.55417 187.61037 93.55417Q187.01662 93.55417 186.53224 93.83542Q186.06349 94.10104 185.78224 94.52292L184.62599 94.38229L185.59474 89.22604L190.57912 89.22604L190.57912 90.41354L186.57912 90.41354L186.04787 93.10104Q186.95412 92.47604 187.93849 92.47604Q189.25099 92.47604 190.14162 93.38229Q191.04787 94.28854 191.04787 95.72604Q191.04787 97.08542 190.26662 98.06979Q189.29787 99.28854 187.62599 99.28854Q186.26662 99.28854 185.39162 98.52292Q184.53224 97.75729 184.40724 96.49167ZM198.79787 91.55417L197.57912 91.64792Q197.40724 90.91354 197.11037 90.58542Q196.61037 90.06979 195.87599 90.06979Q195.28224 90.06979 194.84474 90.39792Q194.26662 90.81979 193.92287 91.63229Q193.59474 92.44479 193.57912 93.94479Q194.01662 93.27292 194.65724 92.94479Q195.31349 92.61667 196.01662 92.61667Q197.25099 92.61667 198.11037 93.52292Q198.96974 94.42917 198.96974 95.86667Q198.96974 96.80417 198.56349 97.61667Q198.15724 98.42917 197.43849 98.86667Q196.73537 99.28854 195.82912 99.28854Q194.29787 99.28854 193.32912 98.16354Q192.36037 97.02292 192.36037 94.42917Q192.36037 91.52292 193.42287 90.19479Q194.36037 89.05417 195.95412 89.05417Q197.14162 89.05417 197.89162 89.72604Q198.64162 90.38229 198.79787 91.55417ZM193.76662 95.86667Q193.76662 96.50729 194.03224 97.08542Q194.31349 97.66354 194.79787 97.97604Q195.28224 98.27292 195.81349 98.27292Q196.59474 98.27292 197.15724 97.64792Q197.71974 97.02292 197.71974 95.94479Q197.71974 94.89792 197.15724 94.30417Q196.61037 93.69479 195.76662 93.69479Q194.93849 93.69479 194.34474 94.30417Q193.76662 94.89792 193.76662 95.86667ZM200.26662 96.10104L200.26662 94.86667L204.04787 94.86667L204.04787 96.10104L200.26662 96.10104ZM205.40724 96.49167L206.70412 96.38229Q206.84474 97.31979 207.36037 97.80417Q207.89162 98.27292 208.62599 98.27292Q209.51662 98.27292 210.12599 97.60104Q210.75099 96.92917 210.75099 95.83542Q210.75099 94.77292 210.15724 94.16354Q209.56349 93.55417 208.61037 93.55417Q208.01662 93.55417 207.53224 93.83542Q207.06349 94.10104 206.78224 94.52292L205.62599 94.38229L206.59474 89.22604L211.57912 89.22604L211.57912 90.41354L207.57912 90.41354L207.04787 93.10104Q207.95412 92.47604 208.93849 92.47604Q210.25099 92.47604 211.14162 93.38229Q212.04787 94.28854 212.04787 95.72604Q212.04787 97.08542 211.26662 98.06979Q210.29787 99.28854 208.62599 99.28854Q207.26662 99.28854 206.39162 98.52292Q205.53224 97.75729 205.40724 96.49167ZM213.40724 94.17917Q213.40724 92.39792 213.76662 91.31979Q214.14162 90.22604 214.86037 89.64792Q215.57912 89.05417 216.67287 89.05417Q217.48537 89.05417 218.09474 89.38229Q218.70412 89.71042 219.09474 90.31979Q219.50099 90.92917 219.71974 91.80417Q219.93849 92.67917 219.93849 94.17917Q219.93849 95.94479 219.57912 97.02292Q219.21974 98.10104 218.50099 98.69479Q217.78224 99.28854 216.67287 99.28854Q215.23537 99.28854 214.40724 98.24167Q213.40724 96.99167 213.40724 94.17917ZM214.67287 94.17917Q214.67287 96.64792 215.25099 97.46042Q215.82912 98.27292 216.67287 98.27292Q217.53224 98.27292 218.11037 97.46042Q218.68849 96.63229 218.68849 94.17917Q218.68849 91.69479 218.11037 90.88229Q217.53224 90.06979 216.65724 90.06979Q215.81349 90.06979 215.31349 90.78854Q214.67287 91.71042 214.67287 94.17917Z" fill-rule="nonzero"/><path fill="#1a1a1a" clip-path="url(#id_0)" d="M182.87599 97.92917L182.87599 99.11667L176.25099 99.11667Q176.23537 98.67917 176.39162 98.25729Q176.65724 97.58542 177.20412 96.92917Q177.76662 96.27292 178.81349 95.41354Q180.45412 94.06979 181.01662 93.28854Q181.59474 92.50729 181.59474 91.80417Q181.59474 91.06979 181.06349 90.56979Q180.54787 90.06979 179.71974 90.06979Q178.82912 90.06979 178.28224 90.60104Q177.75099 91.13229 177.75099 92.08542L176.48537 91.94479Q176.61037 90.53854 177.45412 89.80417Q178.31349 89.05417 179.73537 89.05417Q181.18849 89.05417 182.01662 89.85104Q182.86037 90.64792 182.86037 91.83542Q182.86037 92.44479 182.61037 93.02292Q182.37599 93.60104 181.79787 94.24167Q181.23537 94.88229 179.90724 96.00729Q178.79787 96.92917 178.48537 97.27292Q178.17287 97.60104 177.96974 97.92917L182.87599 97.92917ZM184.40724 96.49167L185.70412 96.38229Q185.84474 97.31979 186.36037 97.80417Q186.89162 98.27292 187.62599 98.27292Q188.51662 98.27292 189.12599 97.60104Q189.75099 96.92917 189.75099 95.83542Q189.75099 94.77292 189.15724 94.16354Q188.56349 93.55417 187.61037 93.55417Q187.01662 93.55417 186.53224 93.83542Q186.06349 94.10104 185.78224 94.52292L184.62599 94.38229L185.59474 89.22604L190.57912 89.22604L190.57912 90.41354L186.57912 90.41354L186.04787 93.10104Q186.95412 92.47604 187.93849 92.47604Q189.25099 92.47604 190.14162 93.38229Q191.04787 94.28854 191.04787 95.72604Q191.04787 97.08542 190.26662 98.06979Q189.29787 99.28854 187.62599 99.28854Q186.26662 99.28854 185.39162 98.52292Q184.53224 97.75729 184.40724 96.49167ZM198.79787 91.55417L197.57912 91.64792Q197.40724 90.91354 197.11037 90.58542Q196.61037 90.06979 195.87599 90.06979Q195.28224 90.06979 194.84474 90.39792Q194.26662 90.81979 193.92287 91.63229Q193.59474 92.44479 193.57912 93.94479Q194.01662 93.27292 194.65724 92.94479Q195.31349 92.61667 196.01662 92.61667Q197.25099 92.61667 198.11037 93.52292Q198.96974 94.42917 198.96974 95.86667Q198.96974 96.80417 198.56349 97.61667Q198.15724 98.42917 197.43849 98.86667Q196.73537 99.28854 195.82912 99.28854Q194.29787 99.28854 193.32912 98.16354Q192.36037 97.02292 192.36037 94.42917Q192.36037 91.52292 193.42287 90.19479Q194.36037 89.05417 195.95412 89.05417Q197.14162 89.05417 197.89162 89.72604Q198.64162 90.38229 198.79787 91.55417ZM193.76662 95.86667Q193.76662 96.50729 194.03224 97.08542Q194.31349 97.66354 194.79787 97.97604Q195.28224 98.27292 195.81349 98.27292Q196.59474 98.27292 197.15724 97.64792Q197.71974 97.02292 197.71974 95.94479Q197.71974 94.89792 197.15724 94.30417Q196.61037 93.69479 195.76662 93.69479Q194.93849 93.69479 194.34474 94.30417Q193.76662 94.89792 193.76662 95.86667ZM200.26662 96.10104L200.26662 94.86667L204.04787 94.86667L204.04787 96.10104L200.26662 96.10104ZM205.40724 96.49167L206.70412 96.38229Q206.84474 97.31979 207.36037 97.80417Q207.89162 98.27292 208.62599 98.27292Q209.51662 98.27292 210.12599 97.60104Q210.75099 96.92917 210.75099 95.83542Q210.75099 94.77292 210.15724 94.16354Q209.56349 93.55417 208.61037 93.55417Q208.01662 93.55417 207.53224 93.83542Q207.06349 94.10104 206.78224 94.52292L205.62599 94.38229L206.59474 89.22604L211.57912 89.22604L211.57912 90.41354L207.57912 90.41354L207.04787 93.10104Q207.95412 92.47604 208.93849 92.47604Q210.25099 92.47604 211.14162 93.38229Q212.04787 94.28854 212.04787 95.72604Q212.04787 97.08542 211.26662 98.06979Q210.29787 99.28854 208.62599 99.28854Q207.26662 99.28854 206.39162 98.52292Q205.53224 97.75729 205.40724 96.49167ZM213.40724 94.17917Q213.40724 92.39792 213.76662 91.31979Q214.14162 90.22604 214.86037 89.64792Q215.57912 89.05417 216.67287 89.05417Q217.48537 89.05417 218.09474 89.38229Q218.70412 89.71042 219.09474 90.31979Q219.50099 90.92917 219.71974 91.80417Q219.93849 92.67917 219.93849 94.17917Q219.93849 95.94479 219.57912 97.02292Q219.21974 98.10104 218.50099 98.69479Q217.78224 99.28854 216.67287 99.28854Q215.23537 99.28854 214.40724 98.24167Q213.40724 96.99167 213.40724 94.17917ZM214.67287 94.17917Q214.67287 96.64792 215.25099 97.46042Q215.82912 98.27292 216.67287 98.27292Q217.53224 98.27292 218.11037 97.46042Q218.68849 96.63229 218.68849 94.17917Q218.68849 91.69479 218.11037 90.88229Q217.53224 90.06979 216.65724 90.06979Q215.81349 90.06979 215.31349 90.78854Q214.67287 91.71042 214.67287 94.17917Z" fill-rule="nonzero"/><path stroke="#ffffff" stroke-width="3.0" stroke-linejoin="round" stroke-linecap="round" clip-path="url(#id_0)" d="M478.68192 186.85L477.44754 186.85L477.44754 179.00626Q477.01004 179.42813 476.27567 179.86563Q475.55692 180.2875 474.99442 180.49063L474.99442 179.30313Q476.02567 178.81876 476.7913 178.13126Q477.57254 177.44376 477.88504 176.7875L478.68192 176.7875L478.68192 186.85ZM482.0413 181.9125Q482.0413 180.13126 482.40067 179.05313Q482.77567 177.95938 483.49442 177.38126Q484.21317 176.7875 485.30692 176.7875Q486.11942 176.7875 486.7288 177.11563Q487.33817 177.44376 487.7288 178.05313Q488.13504 178.6625 488.3538 179.5375Q488.57254 180.4125 488.57254 181.9125Q488.57254 183.67813 488.21317 184.75626Q487.8538 185.83438 487.13504 186.42813Q486.4163 187.02188 485.30692 187.02188Q483.86942 187.02188 483.0413 185.975Q482.0413 184.725 482.0413 181.9125ZM483.30692 181.9125Q483.30692 184.38126 483.88504 185.19376Q484.46317 186.00626 485.30692 186.00626Q486.1663 186.00626 486.74442 185.19376Q487.32254 184.36563 487.32254 181.9125Q487.32254 179.42813 486.74442 178.61563Q486.1663 177.80313 485.2913 177.80313Q484.44754 177.80313 483.94754 178.52188Q483.30692 179.44376 483.30692 181.9125ZM496.51004 185.6625L496.51004 186.85L489.88504 186.85Q489.86942 186.4125 490.02567 185.99063Q490.2913 185.31876 490.83817 184.6625Q491.40067 184.00626 492.44754 183.14688Q494.08817 181.80313 494.65067 181.02188Q495.2288 180.24063 495.2288 179.5375Q495.2288 178.80313 494.69754 178.30313Q494.18192 177.80313 493.3538 177.80313Q492.46317 177.80313 491.9163 178.33438Q491.38504 178.86563 491.38504 179.81876L490.11942 179.67813Q490.24442 178.27188 491.08817 177.5375Q491.94754 176.7875 493.36942 176.7875Q494.82254 176.7875 495.65067 177.58438Q496.49442 178.38126 496.49442 179.56876Q496.49442 180.17813 496.24442 180.75626Q496.01004 181.33438 495.43192 181.975Q494.86942 182.61563 493.5413 183.74063Q492.43192 184.6625 492.11942 185.00626Q491.80692 185.33438 491.6038 185.6625L496.51004 185.6625ZM501.99442 186.85L501.99442 184.44376L497.63504 184.44376L497.63504 183.31876L502.21317 176.83438L503.21317 176.83438L503.21317 183.31876L504.57254 183.31876L504.57254 184.44376L503.21317 184.44376L503.21317 186.85L501.99442 186.85ZM501.99442 183.31876L501.99442 178.80313L498.8538 183.31876L501.99442 183.31876ZM505.90067 183.83438L505.90067 182.6L509.68192 182.6L509.68192 183.83438L505.90067 183.83438ZM511.05692 184.20938L512.27563 184.0375Q512.4944 185.08438 512.9944 185.55313Q513.51 186.00626 514.2444 186.00626Q515.1194 186.00626 515.71313 185.4125Q516.3069 184.80313 516.3069 183.9125Q516.3069 183.06876 515.7444 182.52188Q515.1975 181.975 514.35376 181.975Q513.9944 181.975 513.47876 182.1L513.6194 181.02188Q513.7444 181.0375 513.8069 181.0375Q514.60376 181.0375 515.22876 180.63126Q515.85376 180.225 515.85376 179.36563Q515.85376 178.69376 515.40063 178.25626Q514.9475 177.80313 514.21313 177.80313Q513.4944 177.80313 513.01 178.25626Q512.54126 178.69376 512.40063 179.6L511.18192 179.38126Q511.40067 178.14688 512.1975 177.475Q512.9944 176.7875 514.1819 176.7875Q515.01 176.7875 515.6975 177.14688Q516.385 177.49063 516.7444 178.1Q517.1194 178.70938 517.1194 179.39688Q517.1194 180.0375 516.77563 180.56876Q516.4319 181.1 515.7444 181.42813Q516.635 181.63126 517.1194 182.27188Q517.6194 182.9125 517.6194 183.89688Q517.6194 185.20938 516.65063 186.11563Q515.6975 187.02188 514.2444 187.02188Q512.91626 187.02188 512.04126 186.24063Q511.18192 185.45938 511.05692 184.20938ZM519.04126 181.9125Q519.04126 180.13126 519.40063 179.05313Q519.77563 177.95938 520.4944 177.38126Q521.21313 176.7875 522.3069 176.7875Q523.1194 176.7875 523.72876 177.11563Q524.33813 177.44376 524.72876 178.05313Q525.135 178.6625 525.35376 179.5375Q525.5725 180.4125 525.5725 181.9125Q525.5725 183.67813 525.21313 184.75626Q524.85376 185.83438 524.135 186.42813Q523.41626 187.02188 522.3069 187.02188Q520.8694 187.02188 520.04126 185.975Q519.04126 184.725 519.04126 181.9125ZM520.3069 181.9125Q520.3069 184.38126 520.885 185.19376Q521.46313 186.00626 522.3069 186.00626Q523.16626 186.00626 523.7444 185.19376Q524.3225 184.36563 524.3225 181.9125Q524.3225 179.42813 523.7444 178.61563Q523.16626 177.80313 522.29126 177.80313Q521.4475 177.80313 520.9475 178.52188Q520.3069 179.44376 520.3069 181.9125Z" fill-rule="nonzero"/><path fill="#1a1a1a" clip-path="url(#id_0)" d="M478.68192 186.85L477.44754 186.85L477.44754 179.00626Q477.01004 179.42813 476.27567 179.86563Q475.55692 180.2875 474.99442 180.49063L474.99442 179.30313Q476.02567 178.81876 476.7913 178.13126Q477.57254 177.44376 477.88504 176.7875L478.68192 176.7875L478.68192 186.85ZM482.0413 181.9125Q482.0413 180.13126 482.40067 179.05313Q482.77567 177.95938 483.49442 177.38126Q484.21317 176.7875 485.30692 176.7875Q486.11942 176.7875 486.7288 177.11563Q487.33817 177.44376 487.7288 178.05313Q488.13504 178.6625 488.3538 179.5375Q488.57254 180.4125 488.57254 181.9125Q488.57254 183.67813 488.21317 184.75626Q487.8538 185.83438 487.13504 186.42813Q486.4163 187.02188 485.30692 187.02188Q483.86942 187.02188 483.0413 185.975Q482.0413 184.725 482.0413 181.9125ZM483.30692 181.9125Q483.30692 184.38126 483.88504 185.19376Q484.46317 186.00626 485.30692 186.00626Q486.1663 186.00626 486.74442 185.19376Q487.32254 184.36563 487.32254 181.9125Q487.32254 179.42813 486.74442 178.61563Q486.1663 177.80313 485.2913 177.80313Q484.44754 177.80313 483.94754 178.52188Q483.30692 179.44376 483.30692 181.9125ZM496.51004 185.6625L496.51004 186.85L489.88504 186.85Q489.86942 186.4125 490.02567 185.99063Q490.2913 185.31876 490.83817 184.6625Q491.40067 184.00626 492.44754 183.14688Q494.08817 181.80313 494.65067 181.02188Q495.2288 180.24063 495.2288 179.5375Q495.2288 178.80313 494.69754 178.30313Q494.18192 177.80313 493.3538 177.80313Q492.46317 177.80313 491.9163 178.33438Q491.38504 178.86563 491.38504 179.81876L490.11942 179.67813Q490.24442 178.27188 491.08817 177.5375Q491.94754 176.7875 493.36942 176.7875Q494.82254 176.7875 495.65067 177.58438Q496.49442 178.38126 496.49442 179.56876Q496.49442 180.17813 496.24442 180.75626Q496.01004 181.33438 495.43192 181.975Q494.86942 182.61563 493.5413 183.74063Q492.43192 184.6625 492.11942 185.00626Q491.80692 185.33438 491.6038 185.6625L496.51004 185.6625ZM501.99442 186.85L501.99442 184.44376L497.63504 184.44376L497.63504 183.31876L502.21317 176.83438L503.21317 176.83438L503.21317 183.31876L504.57254 183.31876L504.57254 184.44376L503.21317 184.44376L503.21317 186.85L501.99442 186.85ZM501.99442 183.31876L501.99442 178.80313L498.8538 183.31876L501.99442 183.31876ZM505.90067 183.83438L505.90067 182.6L509.68192 182.6L509.68192 183.83438L505.90067 183.83438ZM511.05692 184.20938L512.27563 184.0375Q512.4944 185.08438 512.9944 185.55313Q513.51 186.00626 514.2444 186.00626Q515.1194 186.00626 515.71313 185.4125Q516.3069 184.80313 516.3069 183.9125Q516.3069 183.06876 515.7444 182.52188Q515.1975 181.975 514.35376 181.975Q513.9944 181.975 513.47876 182.1L513.6194 181.02188Q513.7444 181.0375 513.8069 181.0375Q514.60376 181.0375 515.22876 180.63126Q515.85376 180.225 515.85376 179.36563Q515.85376 178.69376 515.40063 178.25626Q514.9475 177.80313 514.21313 177.80313Q513.4944 177.80313 513.01 178.25626Q512.54126 178.69376 512.40063 179.6L511.18192 179.38126Q511.40067 178.14688 512.1975 177.475Q512.9944 176.7875 514.1819 176.7875Q515.01 176.7875 515.6975 177.14688Q516.385 177.49063 516.7444 178.1Q517.1194 178.70938 517.1194 179.39688Q517.1194 180.0375 516.77563 180.56876Q516.4319 181.1 515.7444 181.42813Q516.635 181.63126 517.1194 182.27188Q517.6194 182.9125 517.6194 183.89688Q517.6194 185.20938 516.65063 186.11563Q515.6975 187.02188 514.2444 187.02188Q512.91626 187.02188 512.04126 186.24063Q511.18192 185.45938 511.05692 184.20938ZM519.04126 181.9125Q519.04126 180.13126 519.40063 179.05313Q519.77563 177.95938 520.4944 177.38126Q521.21313 176.7875 522.3069 176.7875Q523.1194 176.7875 523.72876 177.11563Q524.33813 177.44376 524.72876 178.05313Q525.135 178.6625 525.35376 179.5375Q525.5725 180.4125 525.5725 181.9125Q525.5725 183.67813 525.21313 184.75626Q524.85376 185.83438 524.135 186.42813Q523.41626 187.02188 522.3069 187.02188Q520.8694 187.02188 520.04126 185.975Q519.04126 184.725 519.04126 181.9125ZM520.3069 181.9125Q520.3069 184.38126 520.885 185.19376Q521.46313 186.00626 522.3069 186.00626Q523.16626 186.00626 523.7444 185.19376Q524.3225 184.36563 524.3225 181.9125Q524.3225 179.42813 523.7444 178.61563Q523.16626 177.80313 522.29126 177.80313Q521.4475 177.80313 520.9475 178.52188Q520.3069 179.44376 520.3069 181.9125Z" fill-rule="nonzero"/><path fill="#000000" d="M32.05 313.21564Q32.05 311.6844 32.3625 310.7625Q32.675 309.825 33.284374 309.325Q33.909374 308.825 34.846874 308.825Q35.534374 308.825 36.05 309.10626Q36.58125 309.3875 36.925 309.91876Q37.26875 310.4344 37.45625 311.1844Q37.64375 311.9344 37.64375 313.21564Q37.64375 314.73126 37.33125 315.65314Q37.034374 316.575 36.409374 317.09064Q35.8 317.59064 34.846874 317.59064Q33.6125 317.59064 32.89375 316.7Q32.05 315.6375 32.05 313.21564ZM33.128124 313.21564Q33.128124 315.325 33.628124 316.02814Q34.128124 316.73126 34.846874 316.73126Q35.58125 316.73126 36.065624 316.02814Q36.565624 315.325 36.565624 313.21564Q36.565624 311.09064 36.065624 310.40314Q35.58125 309.7 34.83125 309.7Q34.1125 309.7 33.675 310.3094Q33.128124 311.09064 33.128124 313.21564Z" fill-rule="nonzero"/><path fill="#000000" d="M30.596874 228.70103L30.596874 229.71666L24.909374 229.71666Q24.909374 229.34166 25.034374 228.98228Q25.253124 228.40416 25.721874 227.84166Q26.20625 227.27916 27.1125 226.54478Q28.51875 225.38853 29.003124 224.71666Q29.503124 224.04478 29.503124 223.45103Q29.503124 222.82603 29.05 222.40416Q28.596874 221.96666 27.878124 221.96666Q27.1125 221.96666 26.659374 222.41978Q26.20625 222.87291 26.190624 223.68541L25.1125 223.57603Q25.221874 222.35728 25.940624 221.73228Q26.675 221.09166 27.909374 221.09166Q29.14375 221.09166 29.8625 221.77916Q30.58125 222.46666 30.58125 223.48228Q30.58125 223.99791 30.3625 224.49791Q30.159374 224.98228 29.659374 225.54478Q29.175 226.09166 28.05 227.04478Q27.096874 227.84166 26.815624 228.13853Q26.55 228.41978 26.378124 228.70103L30.596874 228.70103ZM32.05 225.48228Q32.05 223.95103 32.3625 223.02916Q32.675 222.09166 33.284374 221.59166Q33.909374 221.09166 34.846874 221.09166Q35.534374 221.09166 36.05 221.37291Q36.58125 221.65416 36.925 222.18541Q37.26875 222.70103 37.45625 223.45103Q37.64375 224.20103 37.64375 225.48228Q37.64375 226.99791 37.33125 227.91978Q37.034374 228.84166 36.409374 229.35728Q35.8 229.85728 34.846874 229.85728Q33.6125 229.85728 32.89375 228.96666Q32.05 227.90416 32.05 225.48228ZM33.128124 225.48228Q33.128124 227.59166 33.628124 228.29478Q34.128124 228.99791 34.846874 228.99791Q35.58125 228.99791 36.065624 228.29478Q36.565624 227.59166 36.565624 225.48228Q36.565624 223.35728 36.065624 222.66978Q35.58125 221.96666 34.83125 221.96666Q34.1125 221.96666 33.675 222.57603Q33.128124 223.35728 33.128124 225.48228Z" fill-rule="nonzero"/><path fill="#000000" d="M28.425 141.98334L28.425 139.92084L24.70625 139.92084L24.70625 138.95209L28.628124 133.38959L29.4875 133.38959L29.4875 138.95209L30.64375 138.95209L30.64375 139.92084L29.4875 139.92084L29.4875 141.98334L28.425 141.98334ZM28.425 138.95209L28.425 135.09271L25.7375 138.95209L28.425 138.95209ZM32.05 137.74896Q32.05 136.21771 32.3625 135.29584Q32.675 134.35834 33.284374 133.85834Q33.909374 133.35834 34.846874 133.35834Q35.534374 133.35834 36.05 133.63959Q36.58125 133.92084 36.925 134.45209Q37.26875 134.96771 37.45625 135.71771Q37.64375 136.46771 37.64375 137.74896Q37.64375 139.26459 37.33125 140.18646Q37.034374 141.10834 36.409374 141.62396Q35.8 142.12396 34.846874 142.12396Q33.6125 142.12396 32.89375 141.23334Q32.05 140.17084 32.05 137.74896ZM33.128124 137.74896Q33.128124 139.85834 33.628124 140.56146Q34.128124 141.26459 34.846874 141.26459Q35.58125 141.26459 36.065624 140.56146Q36.565624 139.85834 36.565624 137.74896Q36.565624 135.62396 36.065624 134.93646Q35.58125 134.23334 34.83125 134.23334Q34.1125 134.23334 33.675 134.84271Q33.128124 135.62396 33.128124 137.74896Z" fill-rule="nonzero"/><path fill="#000000" d="M30.51875 47.765625L29.471874 47.84375Q29.33125 47.21875 29.08125 46.9375Q28.64375 46.484375 28.01875 46.484375Q27.51875 46.484375 27.128124 46.765625Q26.64375 47.140625 26.346874 47.84375Q26.065624 48.53125 26.05 49.8125Q26.425 49.234375 26.971874 48.953125Q27.534374 48.671875 28.14375 48.671875Q29.190624 48.671875 29.925 49.453125Q30.675 50.234375 30.675 51.453125Q30.675 52.265625 30.315624 52.96875Q29.971874 53.65625 29.3625 54.03125Q28.753124 54.390625 27.9875 54.390625Q26.659374 54.390625 25.83125 53.421875Q25.003124 52.453125 25.003124 50.234375Q25.003124 47.734375 25.925 46.609375Q26.721874 45.625 28.08125 45.625Q29.096874 45.625 29.7375 46.203125Q30.39375 46.765625 30.51875 47.765625ZM26.221874 51.46875Q26.221874 52.015625 26.440624 52.515625Q26.675 53.0 27.08125 53.265625Q27.503124 53.53125 27.971874 53.53125Q28.628124 53.53125 29.1125 53.0Q29.596874 52.453125 29.596874 51.53125Q29.596874 50.640625 29.1125 50.125Q28.64375 49.609375 27.925 49.609375Q27.20625 49.609375 26.70625 50.125Q26.221874 50.640625 26.221874 51.46875ZM32.05 50.015625Q32.05 48.484375 32.3625 47.5625Q32.675 46.625 33.284374 46.125Q33.909374 45.625 34.846874 45.625Q35.534374 45.625 36.05 45.90625Q36.58125 46.1875 36.925 46.71875Q37.26875 47.234375 37.45625 47.984375Q37.64375 48.734375 37.64375 50.015625Q37.64375 51.53125 37.33125 52.453125Q37.034374 53.375 36.409374 53.890625Q35.8 54.390625 34.846874 54.390625Q33.6125 54.390625 32.89375 53.5Q32.05 52.4375 32.05 50.015625ZM33.128124 50.015625Q33.128124 52.125 33.628124 52.828125Q34.128124 53.53125 34.846874 53.53125Q35.58125 53.53125 36.065624 52.828125Q36.565624 52.125 36.565624 50.015625Q36.565624 47.890625 36.065624 47.203125Q35.58125 46.5 34.83125 46.5Q34.1125 46.5 33.675 47.109375Q33.128124 47.890625 33.128124 50.015625Z" fill-rule="nonzero"/><path fill="#000000" d="M94.78444 326.21564Q94.78444 324.6844 95.09694 323.7625Q95.40944 322.825 96.018814 322.325Q96.643814 321.825 97.581314 321.825Q98.268814 321.825 98.78444 322.10626Q99.31569 322.3875 99.65944 322.91876Q100.00319 323.4344 100.19069 324.1844Q100.37819 324.9344 100.37819 326.21564Q100.37819 327.73126 100.06569 328.65314Q99.768814 329.575 99.143814 330.09064Q98.53444 330.59064 97.581314 330.59064Q96.34694 330.59064 95.62819 329.7Q94.78444 328.6375 94.78444 326.21564ZM95.862564 326.21564Q95.862564 328.325 96.362564 329.02814Q96.862564 329.73126 97.581314 329.73126Q98.31569 329.73126 98.800064 329.02814Q99.300064 328.325 99.300064 326.21564Q99.300064 324.09064 98.800064 323.40314Q98.31569 322.7 97.56569 322.7Q96.84694 322.7 96.40944 323.3094Q95.862564 324.09064 95.862564 326.21564Z" fill-rule="nonzero"/><path fill="#000000" d="M191.51949 329.4344L191.51949 330.45L185.83199 330.45Q185.83199 330.075 185.95699 329.71564Q186.17574 329.1375 186.64449 328.575Q187.12886 328.0125 188.03511 327.27814Q189.44136 326.1219 189.92574 325.45Q190.42574 324.77814 190.42574 324.1844Q190.42574 323.5594 189.97261 323.1375Q189.51949 322.7 188.80074 322.7Q188.03511 322.7 187.58199 323.15314Q187.12886 323.60626 187.11324 324.41876L186.03511 324.3094Q186.14449 323.09064 186.86324 322.46564Q187.59761 321.825 188.83199 321.825Q190.06636 321.825 190.78511 322.5125Q191.50386 323.2 191.50386 324.21564Q191.50386 324.73126 191.28511 325.23126Q191.08199 325.71564 190.58199 326.27814Q190.09761 326.825 188.97261 327.77814Q188.01949 328.575 187.73824 328.8719Q187.47261 329.15314 187.30074 329.4344L191.51949 329.4344ZM192.97261 328.2L194.08199 328.10626Q194.20699 328.91876 194.64449 329.325Q195.09761 329.73126 195.73824 329.73126Q196.48824 329.73126 197.01949 329.15314Q197.55074 328.575 197.55074 327.6375Q197.55074 326.73126 197.03511 326.21564Q196.53511 325.6844 195.70699 325.6844Q195.20699 325.6844 194.78511 325.91876Q194.37886 326.15314 194.14449 326.5125L193.16011 326.3875L193.98824 321.98126L198.26949 321.98126L198.26949 322.98126L194.83199 322.98126L194.37886 325.29376Q195.14449 324.7469 195.98824 324.7469Q197.11324 324.7469 197.87886 325.52814Q198.66011 326.3094 198.66011 327.54376Q198.66011 328.7 197.98824 329.5594Q197.16011 330.59064 195.73824 330.59064Q194.56636 330.59064 193.81636 329.9344Q193.08199 329.27814 192.97261 328.2ZM199.97261 326.21564Q199.97261 324.6844 200.28511 323.7625Q200.59761 322.825 201.20699 322.325Q201.83199 321.825 202.76949 321.825Q203.45699 321.825 203.97261 322.10626Q204.50386 322.3875 204.84761 322.91876Q205.19136 323.4344 205.37886 324.1844Q205.56636 324.9344 205.56636 326.21564Q205.56636 327.73126 205.25386 328.65314Q204.95699 329.575 204.33199 330.09064Q203.72261 330.59064 202.76949 330.59064Q201.53511 330.59064 200.81636 329.7Q199.97261 328.6375 199.97261 326.21564ZM201.05074 326.21564Q201.05074 328.325 201.55074 329.02814Q202.05074 329.73126 202.76949 329.73126Q203.50386 329.73126 203.98824 329.02814Q204.48824 328.325 204.48824 326.21564Q204.48824 324.09064 203.98824 323.40314Q203.50386 322.7 202.75386 322.7Q202.03511 322.7 201.59761 323.3094Q201.05074 324.09064 201.05074 326.21564Z" fill-rule="nonzero"/><path fill="#000000" d="M284.16077 328.2L285.27014 328.10626Q285.39514 328.91876 285.83264 329.325Q286.28577 329.73126 286.9264 329.73126Q287.6764 329.73126 288.20764 329.15314Q288.7389 328.575 288.7389 327.6375Q288.7389 326.73126 288.22327 326.21564Q287.72327 325.6844 286.89514 325.6844Q286.39514 325.6844 285.97327 325.91876Q285.56702 326.15314 285.33264 326.5125L284.34827 326.3875L285.1764 321.98126L289.45764 321.98126L289.45764 322.98126L286.02014 322.98126L285.56702 325.29376Q286.33264 324.7469 287.1764 324.7469Q288.3014 324.7469 289.06702 325.52814Q289.84827 326.3094 289.84827 327.54376Q289.84827 328.7 289.1764 329.5594Q288.34827 330.59064 286.9264 330.59064Q285.75452 330.59064 285.00452 329.9344Q284.27014 329.27814 284.16077 328.2ZM291.16077 326.21564Q291.16077 324.6844 291.47327 323.7625Q291.78577 322.825 292.39514 322.325Q293.02014 321.825 293.95764 321.825Q294.64514 321.825 295.16077 322.10626Q295.69202 322.3875 296.03577 322.91876Q296.37952 323.4344 296.56702 324.1844Q296.75452 324.9344 296.75452 326.21564Q296.75452 327.73126 296.44202 328.65314Q296.14514 329.575 295.52014 330.09064Q294.91077 330.59064 293.95764 330.59064Q292.72327 330.59064 292.00452 329.7Q291.16077 328.6375 291.16077 326.21564ZM292.2389 326.21564Q292.2389 328.325 292.7389 329.02814Q293.2389 329.73126 293.95764 329.73126Q294.69202 329.73126 295.1764 329.02814Q295.6764 328.325 295.6764 326.21564Q295.6764 324.09064 295.1764 323.40314Q294.69202 322.7 293.94202 322.7Q293.22327 322.7 292.78577 323.3094Q292.2389 324.09064 292.2389 326.21564ZM298.16077 326.21564Q298.16077 324.6844 298.47327 323.7625Q298.78577 322.825 299.39514 322.325Q300.02014 321.825 300.95764 321.825Q301.64514 321.825 302.16077 322.10626Q302.69202 322.3875 303.03577 322.91876Q303.37952 323.4344 303.56702 324.1844Q303.75452 324.9344 303.75452 326.21564Q303.75452 327.73126 303.44202 328.65314Q303.14514 329.575 302.52014 330.09064Q301.91077 330.59064 300.95764 330.59064Q299.72327 330.59064 299.00452 329.7Q298.16077 328.6375 298.16077 326.21564ZM299.2389 326.21564Q299.2389 328.325 299.7389 329.02814Q300.2389 329.73126 300.95764 329.73126Q301.69202 329.73126 302.1764 329.02814Q302.6764 328.325 302.6764 326.21564Q302.6764 324.09064 302.1764 323.40314Q301.69202 322.7 300.94202 322.7Q300.22327 322.7 299.78577 323.3094Q299.2389 324.09064 299.2389 326.21564Z" fill-rule="nonzero"/><path fill="#000000" d="M382.41144 322.98126L382.41144 321.96564L387.97394 321.96564L387.97394 322.79376Q387.16144 323.66876 386.34894 325.1219Q385.55206 326.5594 385.11456 328.09064Q384.78644 329.16876 384.7083 330.45L383.61456 330.45Q383.6302 329.4344 384.0052 327.9969Q384.3958 326.5594 385.09894 325.23126Q385.8177 323.90314 386.6302 322.98126L382.41144 322.98126ZM389.34894 328.2L390.4583 328.10626Q390.5833 328.91876 391.0208 329.325Q391.47394 329.73126 392.11456 329.73126Q392.86456 329.73126 393.3958 329.15314Q393.92706 328.575 393.92706 327.6375Q393.92706 326.73126 393.41144 326.21564Q392.91144 325.6844 392.0833 325.6844Q391.5833 325.6844 391.16144 325.91876Q390.7552 326.15314 390.5208 326.5125L389.53644 326.3875L390.36456 321.98126L394.6458 321.98126L394.6458 322.98126L391.2083 322.98126L390.7552 325.29376Q391.5208 324.7469 392.36456 324.7469Q393.48956 324.7469 394.2552 325.52814Q395.03644 326.3094 395.03644 327.54376Q395.03644 328.7 394.36456 329.5594Q393.53644 330.59064 392.11456 330.59064Q390.9427 330.59064 390.1927 329.9344Q389.4583 329.27814 389.34894 328.2ZM396.34894 326.21564Q396.34894 324.6844 396.66144 323.7625Q396.97394 322.825 397.5833 322.325Q398.2083 321.825 399.1458 321.825Q399.8333 321.825 400.34894 322.10626Q400.8802 322.3875 401.22394 322.91876Q401.5677 323.4344 401.7552 324.1844Q401.9427 324.9344 401.9427 326.21564Q401.9427 327.73126 401.6302 328.65314Q401.3333 329.575 400.7083 330.09064Q400.09894 330.59064 399.1458 330.59064Q397.91144 330.59064 397.1927 329.7Q396.34894 328.6375 396.34894 326.21564ZM397.42706 326.21564Q397.42706 328.325 397.92706 329.02814Q398.42706 329.73126 399.1458 329.73126Q399.8802 329.73126 400.36456 329.02814Q400.86456 328.325 400.86456 326.21564Q400.86456 324.09064 400.36456 323.40314Q399.8802 322.7 399.1302 322.7Q398.41144 322.7 397.97394 323.3094Q397.42706 324.09064 397.42706 326.21564Z" fill-rule="nonzero"/><path fill="#000000" d="M481.00586 330.45L479.95898 330.45L479.95898 323.73126Q479.56836 324.09064 478.94336 324.46564Q478.33398 324.825 477.8496 324.9969L477.8496 323.98126Q478.7246 323.5594 479.38086 322.98126Q480.05273 322.3875 480.33398 321.825L481.00586 321.825L481.00586 330.45ZM484.0371 326.21564Q484.0371 324.6844 484.3496 323.7625Q484.6621 322.825 485.27148 322.325Q485.89648 321.825 486.83398 321.825Q487.52148 321.825 488.0371 322.10626Q488.56836 322.3875 488.9121 322.91876Q489.25586 323.4344 489.44336 324.1844Q489.63086 324.9344 489.63086 326.21564Q489.63086 327.73126 489.31836 328.65314Q489.02148 329.575 488.39648 330.09064Q487.7871 330.59064 486.83398 330.59064Q485.5996 330.59064 484.88086 329.7Q484.0371 328.6375 484.0371 326.21564ZM485.11523 326.21564Q485.11523 328.325 485.61523 329.02814Q486.11523 329.73126 486.83398 329.73126Q487.56836 329.73126 488.05273 329.02814Q488.55273 328.325 488.55273 326.21564Q488.55273 324.09064 488.05273 323.40314Q487.56836 322.7 486.81836 322.7Q486.0996 322.7 485.6621 323.3094Q485.11523 324.09064 485.11523 326.21564ZM491.0371 326.21564Q491.0371 324.6844 491.3496 323.7625Q491.6621 322.825 492.27148 322.325Q492.89648 321.825 493.83398 321.825Q494.52148 321.825 495.0371 322.10626Q495.56836 322.3875 495.9121 322.91876Q496.25586 323.4344 496.44336 324.1844Q496.63086 324.9344 496.63086 326.21564Q496.63086 327.73126 496.31836 328.65314Q496.02148 329.575 495.39648 330.09064Q494.7871 330.59064 493.83398 330.59064Q492.5996 330.59064 491.88086 329.7Q491.0371 328.6375 491.0371 326.21564ZM492.11523 326.21564Q492.11523 328.325 492.61523 329.02814Q493.11523 329.73126 493.83398 329.73126Q494.56836 329.73126 495.05273 329.02814Q495.55273 328.325 495.55273 326.21564Q495.55273 324.09064 495.05273 323.40314Q494.56836 322.7 493.81836 322.7Q493.0996 322.7 492.6621 323.3094Q492.11523 324.09064 492.11523 326.21564ZM498.0371 326.21564Q498.0371 324.6844 498.3496 323.7625Q498.6621 322.825 499.27148 322.325Q499.89648 321.825 500.83398 321.825Q501.52148 321.825 502.0371 322.10626Q502.56836 322.3875 502.9121 322.91876Q503.25586 323.4344 503.44336 324.1844Q503.63086 324.9344 503.63086 326.21564Q503.63086 327.73126 503.31836 328.65314Q503.02148 329.575 502.39648 330.09064Q501.7871 330.59064 500.83398 330.59064Q499.5996 330.59064 498.88086 329.7Q498.0371 328.6375 498.0371 326.21564ZM499.11523 326.21564Q499.11523 328.325 499.61523 329.02814Q500.11523 329.73126 500.83398 329.73126Q501.56836 329.73126 502.05273 329.02814Q502.55273 328.325 502.55273 326.21564Q502.55273 324.09064 502.05273 323.40314Q501.56836 322.7 500.81836 322.7Q500.0996 322.7 499.6621 323.3094Q499.11523 324.09064 499.11523 326.21564Z" fill-rule="nonzero"/><path fill="#4285f4" d="M66.0 24.55C66.0 27.863708 63.31371 30.55 60.0 30.55C56.68629 30.55 54.0 27.863708 54.0 24.55C54.0 21.236292 56.68629 18.55 60.0 18.55C63.31371 18.55 66.0 21.236292 66.0 24.55Z" fill-rule="nonzero"/><path fill="#1a1a1a" d="M74.5 24.315624Q74.5 22.784374 74.8125 21.8625Q75.125 20.925 75.734375 20.425Q76.359375 19.925 77.296875 19.925Q77.984375 19.925 78.5 20.20625Q79.03125 20.4875 79.375 21.01875Q79.71875 21.534374 79.90625 22.284374Q80.09375 23.034374 80.09375 24.315624Q80.09375 25.83125 79.78125 26.753124Q79.484375 27.675 78.859375 28.190624Q78.25 28.690624 77.296875 28.690624Q76.0625 28.690624 75.34375 27.8Q74.5 26.7375 74.5 24.315624ZM75.578125 24.315624Q75.578125 26.425 76.078125 27.128124Q76.578125 27.83125 77.296875 27.83125Q78.03125 27.83125 78.515625 27.128124Q79.015625 26.425 79.015625 24.315624Q79.015625 22.190624 78.515625 21.503124Q78.03125 20.8 77.28125 20.8Q76.5625 20.8 76.125 21.409374Q75.578125 22.190624 75.578125 24.315624ZM82.0625 28.55L82.0625 27.346874L83.265625 27.346874L83.265625 28.55Q83.265625 29.20625 83.03125 29.6125Q82.796875 30.034374 82.296875 30.253124L82.0 29.8Q82.328125 29.659374 82.484375 29.3625Q82.640625 29.08125 82.671875 28.55L82.0625 28.55ZM84.5 24.315624Q84.5 22.784374 84.8125 21.8625Q85.125 20.925 85.734375 20.425Q86.359375 19.925 87.296875 19.925Q87.984375 19.925 88.5 20.20625Q89.03125 20.4875 89.375 21.01875Q89.71875 21.534374 89.90625 22.284374Q90.09375 23.034374 90.09375 24.315624Q90.09375 25.83125 89.78125 26.753124Q89.484375 27.675 88.859375 28.190624Q88.25 28.690624 87.296875 28.690624Q86.0625 28.690624 85.34375 27.8Q84.5 26.7375 84.5 24.315624ZM85.578125 24.315624Q85.578125 26.425 86.078125 27.128124Q86.578125 27.83125 87.296875 27.83125Q88.03125 27.83125 88.515625 27.128124Q89.015625 26.425 89.015625 24.315624Q89.015625 22.190624 88.515625 21.503124Q88.03125 20.8 87.28125 20.8Q86.5625 20.8 86.125 21.409374Q85.578125 22.190624 85.578125 24.315624ZM91.5 24.315624Q91.5 22.784374 91.8125 21.8625Q92.125 20.925 92.734375 20.425Q93.359375 19.925 94.296875 19.925Q94.984375 19.925 95.5 20.20625Q96.03125 20.4875 96.375 21.01875Q96.71875 21.534374 96.90625 22.284374Q97.09375 23.034374 97.09375 24.315624Q97.09375 25.83125 96.78125 26.753124Q96.484375 27.675 95.859375 28.190624Q95.25 28.690624 94.296875 28.690624Q93.0625 28.690624 92.34375 27.8Q91.5 26.7375 91.5 24.315624ZM92.578125 24.315624Q92.578125 26.425 93.078125 27.128124Q93.578125 27.83125 94.296875 27.83125Q95.03125 27.83125 95.515625 27.128124Q96.015625 26.425 96.015625 24.315624Q96.015625 22.190624 95.515625 21.503124Q95.03125 20.8 94.28125 20.8Q93.5625 20.8 93.125 21.409374Q92.578125 22.190624 92.578125 24.315624ZM98.5 24.315624Q98.5 22.784374 98.8125 21.8625Q99.125 20.925 99.734375 20.425Q100.359375 19.925 101.296875 19.925Q101.984375 19.925 102.5 20.20625Q103.03125 20.4875 103.375 21.01875Q103.71875 21.534374 103.90625 22.284374Q104.09375 23.034374 104.09375 24.315624Q104.09375 25.83125 103.78125 26.753124Q103.484375 27.675 102.859375 28.190624Q102.25 28.690624 101.296875 28.690624Q100.0625 28.690624 99.34375 27.8Q98.5 26.7375 98.5 24.315624ZM99.578125 24.315624Q99.578125 26.425 100.078125 27.128124Q100.578125 27.83125 101.296875 27.83125Q102.03125 27.83125 102.515625 27.128124Q103.015625 26.425 103.015625 24.315624Q103.015625 22.190624 102.515625 21.503124Q102.03125 20.8 101.28125 20.8Q100.5625 20.8 100.125 21.409374Q99.578125 22.190624 99.578125 24.315624ZM105.5 26.3L106.609375 26.20625Q106.734375 27.01875 107.171875 27.425Q107.625 27.83125 108.265625 27.83125Q109.015625 27.83125 109.546875 27.253124Q110.078125 26.675 110.078125 25.7375Q110.078125 24.83125 109.5625 24.315624Q109.0625 23.784374 108.234375 23.784374Q107.734375 23.784374 107.3125 24.01875Q106.90625 24.253124 106.671875 24.6125L105.6875 24.4875L106.515625 20.08125L110.796875 20.08125L110.796875 21.08125L107.359375 21.08125L106.90625 23.39375Q107.671875 22.846874 108.515625 22.846874Q109.640625 22.846874 110.40625 23.628124Q111.1875 24.409374 111.1875 25.64375Q111.1875 26.8 110.515625 27.659374Q109.6875 28.690624 108.265625 28.690624Q107.09375 28.690624 106.34375 28.034374Q105.609375 27.378124 105.5 26.3ZM116.46875 28.55L115.421875 28.55L115.421875 21.83125Q115.03125 22.190624 114.40625 22.565624Q113.796875 22.925 113.3125 23.096874L113.3125 22.08125Q114.1875 21.659374 114.84375 21.08125Q115.515625 20.4875 115.796875 19.925L116.46875 19.925L116.46875 28.55ZM121.125 23.89375Q120.46875 23.64375 120.140625 23.20625Q119.828125 22.753124 119.828125 22.14375Q119.828125 21.20625 120.5 20.565624Q121.1875 19.925 122.296875 19.925Q123.421875 19.925 124.109375 20.58125Q124.796875 21.2375 124.796875 22.175Q124.796875 22.76875 124.484375 23.20625Q124.171875 23.64375 123.53125 23.89375Q124.328125 24.14375 124.734375 24.721874Q125.140625 25.3 125.140625 26.096874Q125.140625 27.190624 124.359375 27.940624Q123.59375 28.690624 122.3125 28.690624Q121.046875 28.690624 120.265625 27.940624Q119.484375 27.190624 119.484375 26.065624Q119.484375 25.221874 119.90625 24.659374Q120.34375 24.096874 121.125 23.89375ZM120.90625 22.096874Q120.90625 22.70625 121.296875 23.096874Q121.703125 23.4875 122.328125 23.4875Q122.9375 23.4875 123.328125 23.1125Q123.71875 22.721874 123.71875 22.159374Q123.71875 21.58125 123.3125 21.190624Q122.90625 20.784374 122.3125 20.784374Q121.703125 20.784374 121.296875 21.175Q120.90625 21.565624 120.90625 22.096874ZM120.578125 26.065624Q120.578125 26.51875 120.78125 26.940624Q121.0 27.3625 121.421875 27.596874Q121.84375 27.83125 122.328125 27.83125Q123.078125 27.83125 123.5625 27.346874Q124.0625 26.8625 124.0625 26.1125Q124.0625 25.346874 123.5625 24.846874Q123.0625 24.346874 122.296875 24.346874Q121.546875 24.346874 121.0625 24.846874Q120.578125 25.33125 120.578125 26.065624ZM126.5 24.315624Q126.5 22.784374 126.8125 21.8625Q127.125 20.925 127.734375 20.425Q128.35938 19.925 129.29688 19.925Q129.98438 19.925 130.5 20.20625Q131.03125 20.4875 131.375 21.01875Q131.71875 21.534374 131.90625 22.284374Q132.09375 23.034374 132.09375 24.315624Q132.09375 25.83125 131.78125 26.753124Q131.48438 27.675 130.85938 28.190624Q130.25 28.690624 129.29688 28.690624Q128.0625 28.690624 127.34375 27.8Q126.5 26.7375 126.5 24.315624ZM127.578125 24.315624Q127.578125 26.425 128.07812 27.128124Q128.57812 27.83125 129.29688 27.83125Q130.03125 27.83125 130.51562 27.128124Q131.01562 26.425 131.01562 24.315624Q131.01562 22.190624 130.51562 21.503124Q130.03125 20.8 129.28125 20.8Q128.5625 20.8 128.125 21.409374Q127.578125 22.190624 127.578125 24.315624Z" fill-rule="nonzero"/><path fill="#ea4335" d="M161.0 24.55C161.0 27.863708 158.3137 30.55 155.0 30.55C151.6863 30.55 149.0 27.863708 149.0 24.55C149.0 21.236292 151.6863 18.55 155.0 18.55C158.3137 18.55 161.0 21.236292 161.0 24.55Z" fill-rule="nonzero"/><path fill="#1a1a1a" d="M169.5 24.315624Q169.5 22.784374 169.8125 21.8625Q170.125 20.925 170.73438 20.425Q171.35938 19.925 172.29688 19.925Q172.98438 19.925 173.5 20.20625Q174.03125 20.4875 174.375 21.01875Q174.71875 21.534374 174.90625 22.284374Q175.09375 23.034374 175.09375 24.315624Q175.09375 25.83125 174.78125 26.753124Q174.48438 27.675 173.85938 28.190624Q173.25 28.690624 172.29688 28.690624Q171.0625 28.690624 170.34375 27.8Q169.5 26.7375 169.5 24.315624ZM170.57812 24.315624Q170.57812 26.425 171.07812 27.128124Q171.57812 27.83125 172.29688 27.83125Q173.03125 27.83125 173.51562 27.128124Q174.01562 26.425 174.01562 24.315624Q174.01562 22.190624 173.51562 21.503124Q173.03125 20.8 172.28125 20.8Q171.5625 20.8 171.125 21.409374Q170.57812 22.190624 170.57812 24.315624ZM177.0625 28.55L177.0625 27.346874L178.26562 27.346874L178.26562 28.55Q178.26562 29.20625 178.03125 29.6125Q177.79688 30.034374 177.29688 30.253124L177.0 29.8Q177.32812 29.659374 177.48438 29.3625Q177.64062 29.08125 177.67188 28.55L177.0625 28.55ZM179.5 24.315624Q179.5 22.784374 179.8125 21.8625Q180.125 20.925 180.73438 20.425Q181.35938 19.925 182.29688 19.925Q182.98438 19.925 183.5 20.20625Q184.03125 20.4875 184.375 21.01875Q184.71875 21.534374 184.90625 22.284374Q185.09375 23.034374 185.09375 24.315624Q185.09375 25.83125 184.78125 26.753124Q184.48438 27.675 183.85938 28.190624Q183.25 28.690624 182.29688 28.690624Q181.0625 28.690624 180.34375 27.8Q179.5 26.7375 179.5 24.315624ZM180.57812 24.315624Q180.57812 26.425 181.07812 27.128124Q181.57812 27.83125 182.29688 27.83125Q183.03125 27.83125 183.51562 27.128124Q184.01562 26.425 184.01562 24.315624Q184.01562 22.190624 183.51562 21.503124Q183.03125 20.8 182.28125 20.8Q181.5625 20.8 181.125 21.409374Q180.57812 22.190624 180.57812 24.315624ZM186.5 24.315624Q186.5 22.784374 186.8125 21.8625Q187.125 20.925 187.73438 20.425Q188.35938 19.925 189.29688 19.925Q189.98438 19.925 190.5 20.20625Q191.03125 20.4875 191.375 21.01875Q191.71875 21.534374 191.90625 22.284374Q192.09375 23.034374 192.09375 24.315624Q192.09375 25.83125 191.78125 26.753124Q191.48438 27.675 190.85938 28.190624Q190.25 28.690624 189.29688 28.690624Q188.0625 28.690624 187.34375 27.8Q186.5 26.7375 186.5 24.315624ZM187.57812 24.315624Q187.57812 26.425 188.07812 27.128124Q188.57812 27.83125 189.29688 27.83125Q190.03125 27.83125 190.51562 27.128124Q191.01562 26.425 191.01562 24.315624Q191.01562 22.190624 190.51562 21.503124Q190.03125 20.8 189.28125 20.8Q188.5625 20.8 188.125 21.409374Q187.57812 22.190624 187.57812 24.315624ZM193.5 24.315624Q193.5 22.784374 193.8125 21.8625Q194.125 20.925 194.73438 20.425Q195.35938 19.925 196.29688 19.925Q196.98438 19.925 197.5 20.20625Q198.03125 20.4875 198.375 21.01875Q198.71875 21.534374 198.90625 22.284374Q199.09375 23.034374 199.09375 24.315624Q199.09375 25.83125 198.78125 26.753124Q198.48438 27.675 197.85938 28.190624Q197.25 28.690624 196.29688 28.690624Q195.0625 28.690624 194.34375 27.8Q193.5 26.7375 193.5 24.315624ZM194.57812 24.315624Q194.57812 26.425 195.07812 27.128124Q195.57812 27.83125 196.29688 27.83125Q197.03125 27.83125 197.51562 27.128124Q198.01562 26.425 198.01562 24.315624Q198.01562 22.190624 197.51562 21.503124Q197.03125 20.8 196.28125 20.8Q195.5625 20.8 195.125 21.409374Q194.57812 22.190624 194.57812 24.315624ZM200.5 26.284374L201.5625 26.14375Q201.73438 27.034374 202.17188 27.440624Q202.60938 27.83125 203.23438 27.83125Q203.98438 27.83125 204.5 27.315624Q205.01562 26.8 205.01562 26.034374Q205.01562 25.315624 204.53125 24.846874Q204.0625 24.3625 203.32812 24.3625Q203.03125 24.3625 202.57812 24.4875L202.70312 23.55Q202.8125 23.565624 202.875 23.565624Q203.54688 23.565624 204.07812 23.221874Q204.625 22.8625 204.625 22.128124Q204.625 21.55 204.23438 21.175Q203.84375 20.784374 203.21875 20.784374Q202.60938 20.784374 202.1875 21.175Q201.78125 21.565624 201.67188 22.33125L200.60938 22.14375Q200.79688 21.096874 201.48438 20.51875Q202.17188 19.925 203.1875 19.925Q203.89062 19.925 204.48438 20.2375Q205.07812 20.534374 205.39062 21.05Q205.70312 21.565624 205.70312 22.159374Q205.70312 22.70625 205.40625 23.175Q205.10938 23.628124 204.53125 23.89375Q205.28125 24.065624 205.70312 24.628124Q206.125 25.175 206.125 26.01875Q206.125 27.14375 205.29688 27.925Q204.48438 28.70625 203.23438 28.70625Q202.10938 28.70625 201.35938 28.034374Q200.60938 27.346874 200.5 26.284374ZM207.5 26.284374L208.5625 26.14375Q208.73438 27.034374 209.17188 27.440624Q209.60938 27.83125 210.23438 27.83125Q210.98438 27.83125 211.5 27.315624Q212.01562 26.8 212.01562 26.034374Q212.01562 25.315624 211.53125 24.846874Q211.0625 24.3625 210.32812 24.3625Q210.03125 24.3625 209.57812 24.4875L209.70312 23.55Q209.8125 23.565624 209.875 23.565624Q210.54688 23.565624 211.07812 23.221874Q211.625 22.8625 211.625 22.128124Q211.625 21.55 211.23438 21.175Q210.84375 20.784374 210.21875 20.784374Q209.60938 20.784374 209.1875 21.175Q208.78125 21.565624 208.67188 22.33125L207.60938 22.14375Q207.79688 21.096874 208.48438 20.51875Q209.17188 19.925 210.1875 19.925Q210.89062 19.925 211.48438 20.2375Q212.07812 20.534374 212.39062 21.05Q212.70312 21.565624 212.70312 22.159374Q212.70312 22.70625 212.40625 23.175Q212.10938 23.628124 211.53125 23.89375Q212.28125 24.065624 212.70312 24.628124Q213.125 25.175 213.125 26.01875Q213.125 27.14375 212.29688 27.925Q211.48438 28.70625 210.23438 28.70625Q209.10938 28.70625 208.35938 28.034374Q207.60938 27.346874 207.5 26.284374ZM214.65625 26.565624L215.67188 26.471874Q215.79688 27.190624 216.15625 27.51875Q216.53125 27.83125 217.09375 27.83125Q217.57812 27.83125 217.9375 27.6125Q218.3125 27.378124 218.54688 27.01875Q218.78125 26.64375 218.9375 26.01875Q219.09375 25.378124 219.09375 24.721874Q219.09375 24.64375 219.09375 24.503124Q218.78125 25.003124 218.23438 25.33125Q217.6875 25.64375 217.04688 25.64375Q215.96875 25.64375 215.23438 24.878124Q214.5 24.096874 214.5 22.83125Q214.5 21.51875 215.26562 20.721874Q216.04688 19.925 217.20312 19.925Q218.03125 19.925 218.71875 20.378124Q219.42188 20.83125 219.78125 21.675Q220.14062 22.503124 220.14062 24.08125Q220.14062 25.721874 219.78125 26.70625Q219.4375 27.675 218.71875 28.190624Q218.01562 28.690624 217.07812 28.690624Q216.0625 28.690624 215.42188 28.14375Q214.78125 27.58125 214.65625 26.565624ZM218.96875 22.76875Q218.96875 21.8625 218.48438 21.33125Q218.01562 20.8 217.32812 20.8Q216.625 20.8 216.09375 21.378124Q215.57812 21.940624 215.57812 22.8625Q215.57812 23.675 216.07812 24.190624Q216.57812 24.70625 217.29688 24.70625Q218.03125 24.70625 218.5 24.190624Q218.96875 23.675 218.96875 22.76875ZM223.125 23.89375Q222.46875 23.64375 222.14062 23.20625Q221.82812 22.753124 221.82812 22.14375Q221.82812 21.20625 222.5 20.565624Q223.1875 19.925 224.29688 19.925Q225.42188 19.925 226.10938 20.58125Q226.79688 21.2375 226.79688 22.175Q226.79688 22.76875 226.48438 23.20625Q226.17188 23.64375 225.53125 23.89375Q226.32812 24.14375 226.73438 24.721874Q227.14062 25.3 227.14062 26.096874Q227.14062 27.190624 226.35938 27.940624Q225.59375 28.690624 224.3125 28.690624Q223.04688 28.690624 222.26562 27.940624Q221.48438 27.190624 221.48438 26.065624Q221.48438 25.221874 221.90625 24.659374Q222.34375 24.096874 223.125 23.89375ZM222.90625 22.096874Q222.90625 22.70625 223.29688 23.096874Q223.70312 23.4875 224.32812 23.4875Q224.9375 23.4875 225.32812 23.1125Q225.71875 22.721874 225.71875 22.159374Q225.71875 21.58125 225.3125 21.190624Q224.90625 20.784374 224.3125 20.784374Q223.70312 20.784374 223.29688 21.175Q222.90625 21.565624 222.90625 22.096874ZM222.57812 26.065624Q222.57812 26.51875 222.78125 26.940624Q223.0 27.3625 223.42188 27.596874Q223.84375 27.83125 224.32812 27.83125Q225.07812 27.83125 225.5625 27.346874Q226.0625 26.8625 226.0625 26.1125Q226.0625 25.346874 225.5625 24.846874Q225.0625 24.346874 224.29688 24.346874Q223.54688 24.346874 223.0625 24.846874Q222.57812 25.33125 222.57812 26.065624Z" fill-rule="nonzero"/><path fill="#fbbc04" d="M256.0 24.55C256.0 27.863708 253.3137 30.55 250.0 30.55C246.6863 30.55 244.0 27.863708 244.0 24.55C244.0 21.236292 246.6863 18.55 250.0 18.55C253.3137 18.55 256.0 21.236292 256.0 24.55Z" fill-rule="nonzero"/><path fill="#1a1a1a" d="M264.5 24.315624Q264.5 22.784374 264.8125 21.8625Q265.125 20.925 265.73438 20.425Q266.35938 19.925 267.29688 19.925Q267.98438 19.925 268.5 20.20625Q269.03125 20.4875 269.375 21.01875Q269.71875 21.534374 269.90625 22.284374Q270.09375 23.034374 270.09375 24.315624Q270.09375 25.83125 269.78125 26.753124Q269.48438 27.675 268.85938 28.190624Q268.25 28.690624 267.29688 28.690624Q266.0625 28.690624 265.34375 27.8Q264.5 26.7375 264.5 24.315624ZM265.57812 24.315624Q265.57812 26.425 266.07812 27.128124Q266.57812 27.83125 267.29688 27.83125Q268.03125 27.83125 268.51562 27.128124Q269.01562 26.425 269.01562 24.315624Q269.01562 22.190624 268.51562 21.503124Q268.03125 20.8 267.28125 20.8Q266.5625 20.8 266.125 21.409374Q265.57812 22.190624 265.57812 24.315624ZM272.0625 28.55L272.0625 27.346874L273.26562 27.346874L273.26562 28.55Q273.26562 29.20625 273.03125 29.6125Q272.79688 30.034374 272.29688 30.253124L272.0 29.8Q272.32812 29.659374 272.48438 29.3625Q272.64062 29.08125 272.67188 28.55L272.0625 28.55ZM274.5 24.315624Q274.5 22.784374 274.8125 21.8625Q275.125 20.925 275.73438 20.425Q276.35938 19.925 277.29688 19.925Q277.98438 19.925 278.5 20.20625Q279.03125 20.4875 279.375 21.01875Q279.71875 21.534374 279.90625 22.284374Q280.09375 23.034374 280.09375 24.315624Q280.09375 25.83125 279.78125 26.753124Q279.48438 27.675 278.85938 28.190624Q278.25 28.690624 277.29688 28.690624Q276.0625 28.690624 275.34375 27.8Q274.5 26.7375 274.5 24.315624ZM275.57812 24.315624Q275.57812 26.425 276.07812 27.128124Q276.57812 27.83125 277.29688 27.83125Q278.03125 27.83125 278.51562 27.128124Q279.01562 26.425 279.01562 24.315624Q279.01562 22.190624 278.51562 21.503124Q278.03125 20.8 277.28125 20.8Q276.5625 20.8 276.125 21.409374Q275.57812 22.190624 275.57812 24.315624ZM281.5 24.315624Q281.5 22.784374 281.8125 21.8625Q282.125 20.925 282.73438 20.425Q283.35938 19.925 284.29688 19.925Q284.98438 19.925 285.5 20.20625Q286.03125 20.4875 286.375 21.01875Q286.71875 21.534374 286.90625 22.284374Q287.09375 23.034374 287.09375 24.315624Q287.09375 25.83125 286.78125 26.753124Q286.48438 27.675 285.85938 28.190624Q285.25 28.690624 284.29688 28.690624Q283.0625 28.690624 282.34375 27.8Q281.5 26.7375 281.5 24.315624ZM282.57812 24.315624Q282.57812 26.425 283.07812 27.128124Q283.57812 27.83125 284.29688 27.83125Q285.03125 27.83125 285.51562 27.128124Q286.01562 26.425 286.01562 24.315624Q286.01562 22.190624 285.51562 21.503124Q285.03125 20.8 284.28125 20.8Q283.5625 20.8 283.125 21.409374Q282.57812 22.190624 282.57812 24.315624ZM288.5 24.315624Q288.5 22.784374 288.8125 21.8625Q289.125 20.925 289.73438 20.425Q290.35938 19.925 291.29688 19.925Q291.98438 19.925 292.5 20.20625Q293.03125 20.4875 293.375 21.01875Q293.71875 21.534374 293.90625 22.284374Q294.09375 23.034374 294.09375 24.315624Q294.09375 25.83125 293.78125 26.753124Q293.48438 27.675 292.85938 28.190624Q292.25 28.690624 291.29688 28.690624Q290.0625 28.690624 289.34375 27.8Q288.5 26.7375 288.5 24.315624ZM289.57812 24.315624Q289.57812 26.425 290.07812 27.128124Q290.57812 27.83125 291.29688 27.83125Q292.03125 27.83125 292.51562 27.128124Q293.01562 26.425 293.01562 24.315624Q293.01562 22.190624 292.51562 21.503124Q292.03125 20.8 291.28125 20.8Q290.5625 20.8 290.125 21.409374Q289.57812 22.190624 289.57812 24.315624ZM295.5 26.284374L296.5625 26.14375Q296.73438 27.034374 297.17188 27.440624Q297.60938 27.83125 298.23438 27.83125Q298.98438 27.83125 299.5 27.315624Q300.01562 26.8 300.01562 26.034374Q300.01562 25.315624 299.53125 24.846874Q299.0625 24.3625 298.32812 24.3625Q298.03125 24.3625 297.57812 24.4875L297.70312 23.55Q297.8125 23.565624 297.875 23.565624Q298.54688 23.565624 299.07812 23.221874Q299.625 22.8625 299.625 22.128124Q299.625 21.55 299.23438 21.175Q298.84375 20.784374 298.21875 20.784374Q297.60938 20.784374 297.1875 21.175Q296.78125 21.565624 296.67188 22.33125L295.60938 22.14375Q295.79688 21.096874 296.48438 20.51875Q297.17188 19.925 298.1875 19.925Q298.89062 19.925 299.48438 20.2375Q300.07812 20.534374 300.39062 21.05Q300.70312 21.565624 300.70312 22.159374Q300.70312 22.70625 300.40625 23.175Q300.10938 23.628124 299.53125 23.89375Q300.28125 24.065624 300.70312 24.628124Q301.125 25.175 301.125 26.01875Q301.125 27.14375 300.29688 27.925Q299.48438 28.70625 298.23438 28.70625Q297.10938 28.70625 296.35938 28.034374Q295.60938 27.346874 295.5 26.284374ZM306.46875 28.55L305.42188 28.55L305.42188 21.83125Q305.03125 22.190624 304.40625 22.565624Q303.79688 22.925 303.3125 23.096874L303.3125 22.08125Q304.1875 21.659374 304.84375 21.08125Q305.51562 20.4875 305.79688 19.925L306.46875 19.925L306.46875 28.55ZM309.65625 26.565624L310.67188 26.471874Q310.79688 27.190624 311.15625 27.51875Q311.53125 27.83125 312.09375 27.83125Q312.57812 27.83125 312.9375 27.6125Q313.3125 27.378124 313.54688 27.01875Q313.78125 26.64375 313.9375 26.01875Q314.09375 25.378124 314.09375 24.721874Q314.09375 24.64375 314.09375 24.503124Q313.78125 25.003124 313.23438 25.33125Q312.6875 25.64375 312.04688 25.64375Q310.96875 25.64375 310.23438 24.878124Q309.5 24.096874 309.5 22.83125Q309.5 21.51875 310.26562 20.721874Q311.04688 19.925 312.20312 19.925Q313.03125 19.925 313.71875 20.378124Q314.42188 20.83125 314.78125 21.675Q315.14062 22.503124 315.14062 24.08125Q315.14062 25.721874 314.78125 26.70625Q314.4375 27.675 313.71875 28.190624Q313.01562 28.690624 312.07812 28.690624Q311.0625 28.690624 310.42188 28.14375Q309.78125 27.58125 309.65625 26.565624ZM313.96875 22.76875Q313.96875 21.8625 313.48438 21.33125Q313.01562 20.8 312.32812 20.8Q311.625 20.8 311.09375 21.378124Q310.57812 21.940624 310.57812 22.8625Q310.57812 23.675 311.07812 24.190624Q311.57812 24.70625 312.29688 24.70625Q313.03125 24.70625 313.5 24.190624Q313.96875 23.675 313.96875 22.76875ZM320.46875 28.55L319.42188 28.55L319.42188 21.83125Q319.03125 22.190624 318.40625 22.565624Q317.79688 22.925 317.3125 23.096874L317.3125 22.08125Q318.1875 21.659374 318.84375 21.08125Q319.51562 20.4875 319.79688 19.925L320.46875 19.925L320.46875 28.55Z" fill-rule="nonzero"/><path fill="#34a853" d="M351.0 24.55C351.0 27.863708 348.31372 30.55 345.0 30.55C341.68628 30.55 339.0 27.863708 339.0 24.55C339.0 21.236292 341.68628 18.55 345.0 18.55C348.31372 18.55 351.0 21.236292 351.0 24.55Z" fill-rule="nonzero"/><path fill="#1a1a1a" d="M359.5 24.315624Q359.5 22.784374 359.8125 21.8625Q360.125 20.925 360.73438 20.425Q361.35938 19.925 362.29688 19.925Q362.98438 19.925 363.5 20.20625Q364.03125 20.4875 364.375 21.01875Q364.71875 21.534374 364.90625 22.284374Q365.09375 23.034374 365.09375 24.315624Q365.09375 25.83125 364.78125 26.753124Q364.48438 27.675 363.85938 28.190624Q363.25 28.690624 362.29688 28.690624Q361.0625 28.690624 360.34375 27.8Q359.5 26.7375 359.5 24.315624ZM360.57812 24.315624Q360.57812 26.425 361.07812 27.128124Q361.57812 27.83125 362.29688 27.83125Q363.03125 27.83125 363.51562 27.128124Q364.01562 26.425 364.01562 24.315624Q364.01562 22.190624 363.51562 21.503124Q363.03125 20.8 362.28125 20.8Q361.5625 20.8 361.125 21.409374Q360.57812 22.190624 360.57812 24.315624ZM367.0625 28.55L367.0625 27.346874L368.26562 27.346874L368.26562 28.55Q368.26562 29.20625 368.03125 29.6125Q367.79688 30.034374 367.29688 30.253124L367.0 29.8Q367.32812 29.659374 367.48438 29.3625Q367.64062 29.08125 367.67188 28.55L367.0625 28.55ZM369.5 24.315624Q369.5 22.784374 369.8125 21.8625Q370.125 20.925 370.73438 20.425Q371.35938 19.925 372.29688 19.925Q372.98438 19.925 373.5 20.20625Q374.03125 20.4875 374.375 21.01875Q374.71875 21.534374 374.90625 22.284374Q375.09375 23.034374 375.09375 24.315624Q375.09375 25.83125 374.78125 26.753124Q374.48438 27.675 373.85938 28.190624Q373.25 28.690624 372.29688 28.690624Q371.0625 28.690624 370.34375 27.8Q369.5 26.7375 369.5 24.315624ZM370.57812 24.315624Q370.57812 26.425 371.07812 27.128124Q371.57812 27.83125 372.29688 27.83125Q373.03125 27.83125 373.51562 27.128124Q374.01562 26.425 374.01562 24.315624Q374.01562 22.190624 373.51562 21.503124Q373.03125 20.8 372.28125 20.8Q371.5625 20.8 371.125 21.409374Q370.57812 22.190624 370.57812 24.315624ZM376.5 24.315624Q376.5 22.784374 376.8125 21.8625Q377.125 20.925 377.73438 20.425Q378.35938 19.925 379.29688 19.925Q379.98438 19.925 380.5 20.20625Q381.03125 20.4875 381.375 21.01875Q381.71875 21.534374 381.90625 22.284374Q382.09375 23.034374 382.09375 24.315624Q382.09375 25.83125 381.78125 26.753124Q381.48438 27.675 380.85938 28.190624Q380.25 28.690624 379.29688 28.690624Q378.0625 28.690624 377.34375 27.8Q376.5 26.7375 376.5 24.315624ZM377.57812 24.315624Q377.57812 26.425 378.07812 27.128124Q378.57812 27.83125 379.29688 27.83125Q380.03125 27.83125 380.51562 27.128124Q381.01562 26.425 381.01562 24.315624Q381.01562 22.190624 380.51562 21.503124Q380.03125 20.8 379.28125 20.8Q378.5625 20.8 378.125 21.409374Q377.57812 22.190624 377.57812 24.315624ZM383.5 24.315624Q383.5 22.784374 383.8125 21.8625Q384.125 20.925 384.73438 20.425Q385.35938 19.925 386.29688 19.925Q386.98438 19.925 387.5 20.20625Q388.03125 20.4875 388.375 21.01875Q388.71875 21.534374 388.90625 22.284374Q389.09375 23.034374 389.09375 24.315624Q389.09375 25.83125 388.78125 26.753124Q388.48438 27.675 387.85938 28.190624Q387.25 28.690624 386.29688 28.690624Q385.0625 28.690624 384.34375 27.8Q383.5 26.7375 383.5 24.315624ZM384.57812 24.315624Q384.57812 26.425 385.07812 27.128124Q385.57812 27.83125 386.29688 27.83125Q387.03125 27.83125 387.51562 27.128124Q388.01562 26.425 388.01562 24.315624Q388.01562 22.190624 387.51562 21.503124Q387.03125 20.8 386.28125 20.8Q385.5625 20.8 385.125 21.409374Q384.57812 22.190624 384.57812 24.315624ZM390.5 26.284374L391.5625 26.14375Q391.73438 27.034374 392.17188 27.440624Q392.60938 27.83125 393.23438 27.83125Q393.98438 27.83125 394.5 27.315624Q395.01562 26.8 395.01562 26.034374Q395.01562 25.315624 394.53125 24.846874Q394.0625 24.3625 393.32812 24.3625Q393.03125 24.3625 392.57812 24.4875L392.70312 23.55Q392.8125 23.565624 392.875 23.565624Q393.54688 23.565624 394.07812 23.221874Q394.625 22.8625 394.625 22.128124Q394.625 21.55 394.23438 21.175Q393.84375 20.784374 393.21875 20.784374Q392.60938 20.784374 392.1875 21.175Q391.78125 21.565624 391.67188 22.33125L390.60938 22.14375Q390.79688 21.096874 391.48438 20.51875Q392.17188 19.925 393.1875 19.925Q393.89062 19.925 394.48438 20.2375Q395.07812 20.534374 395.39062 21.05Q395.70312 21.565624 395.70312 22.159374Q395.70312 22.70625 395.40625 23.175Q395.10938 23.628124 394.53125 23.89375Q395.28125 24.065624 395.70312 24.628124Q396.125 25.175 396.125 26.01875Q396.125 27.14375 395.29688 27.925Q394.48438 28.70625 393.23438 28.70625Q392.10938 28.70625 391.35938 28.034374Q390.60938 27.346874 390.5 26.284374ZM403.04688 27.534374L403.04688 28.55L397.35938 28.55Q397.35938 28.175 397.48438 27.815624Q397.70312 27.2375 398.17188 26.675Q398.65625 26.1125 399.5625 25.378124Q400.96875 24.221874 401.45312 23.55Q401.95312 22.878124 401.95312 22.284374Q401.95312 21.659374 401.5 21.2375Q401.04688 20.8 400.32812 20.8Q399.5625 20.8 399.10938 21.253124Q398.65625 21.70625 398.64062 22.51875L397.5625 22.409374Q397.67188 21.190624 398.39062 20.565624Q399.125 19.925 400.35938 19.925Q401.59375 19.925 402.3125 20.6125Q403.03125 21.3 403.03125 22.315624Q403.03125 22.83125 402.8125 23.33125Q402.60938 23.815624 402.10938 24.378124Q401.625 24.925 400.5 25.878124Q399.54688 26.675 399.26562 26.971874Q399.0 27.253124 398.82812 27.534374L403.04688 27.534374ZM408.46875 28.55L407.42188 28.55L407.42188 21.83125Q407.03125 22.190624 406.40625 22.565624Q405.79688 22.925 405.3125 23.096874L405.3125 22.08125Q406.1875 21.659374 406.84375 21.08125Q407.51562 20.4875 407.79688 19.925L408.46875 19.925L408.46875 28.55ZM416.96875 22.065624L415.92188 22.14375Q415.78125 21.51875 415.53125 21.2375Q415.09375 20.784374 414.46875 20.784374Q413.96875 20.784374 413.57812 21.065624Q413.09375 21.440624 412.79688 22.14375Q412.51562 22.83125 412.5 24.1125Q412.875 23.534374 413.42188 23.253124Q413.98438 22.971874 414.59375 22.971874Q415.64062 22.971874 416.375 23.753124Q417.125 24.534374 417.125 25.753124Q417.125 26.565624 416.76562 27.26875Q416.42188 27.95625 415.8125 28.33125Q415.20312 28.690624 414.4375 28.690624Q413.10938 28.690624 412.28125 27.721874Q411.45312 26.753124 411.45312 24.534374Q411.45312 22.034374 412.375 20.909374Q413.17188 19.925 414.53125 19.925Q415.54688 19.925 416.1875 20.503124Q416.84375 21.065624 416.96875 22.065624ZM412.67188 25.76875Q412.67188 26.315624 412.89062 26.815624Q413.125 27.3 413.53125 27.565624Q413.95312 27.83125 414.42188 27.83125Q415.07812 27.83125 415.5625 27.3Q416.04688 26.753124 416.04688 25.83125Q416.04688 24.940624 415.5625 24.425Q415.09375 23.909374 414.375 23.909374Q413.65625 23.909374 413.15625 24.425Q412.67188 24.940624 412.67188 25.76875Z" fill-rule="nonzero"/><path fill="#ff6d01" d="M446.0 24.55C446.0 27.863708 443.31372 30.55 440.0 30.55C436.68628 30.55 434.0 27.863708 434.0 24.55C434.0 21.236292 436.68628 18.55 440.0 18.55C443.31372 18.55 446.0 21.236292 446.0 24.55Z" fill-rule="nonzero"/><path fill="#1a1a1a" d="M454.5 24.315624Q454.5 22.784374 454.8125 21.8625Q455.125 20.925 455.73438 20.425Q456.35938 19.925 457.29688 19.925Q457.98438 19.925 458.5 20.20625Q459.03125 20.4875 459.375 21.01875Q459.71875 21.534374 459.90625 22.284374Q460.09375 23.034374 460.09375 24.315624Q460.09375 25.83125 459.78125 26.753124Q459.48438 27.675 458.85938 28.190624Q458.25 28.690624 457.29688 28.690624Q456.0625 28.690624 455.34375 27.8Q454.5 26.7375 454.5 24.315624ZM455.57812 24.315624Q455.57812 26.425 456.07812 27.128124Q456.57812 27.83125 457.29688 27.83125Q458.03125 27.83125 458.51562 27.128124Q459.01562 26.425 459.01562 24.315624Q459.01562 22.190624 458.51562 21.503124Q458.03125 20.8 457.28125 20.8Q456.5625 20.8 456.125 21.409374Q455.57812 22.190624 455.57812 24.315624ZM462.0625 28.55L462.0625 27.346874L463.26562 27.346874L463.26562 28.55Q463.26562 29.20625 463.03125 29.6125Q462.79688 30.034374 462.29688 30.253124L462.0 29.8Q462.32812 29.659374 462.48438 29.3625Q462.64062 29.08125 462.67188 28.55L462.0625 28.55ZM464.5 24.315624Q464.5 22.784374 464.8125 21.8625Q465.125 20.925 465.73438 20.425Q466.35938 19.925 467.29688 19.925Q467.98438 19.925 468.5 20.20625Q469.03125 20.4875 469.375 21.01875Q469.71875 21.534374 469.90625 22.284374Q470.09375 23.034374 470.09375 24.315624Q470.09375 25.83125 469.78125 26.753124Q469.48438 27.675 468.85938 28.190624Q468.25 28.690624 467.29688 28.690624Q466.0625 28.690624 465.34375 27.8Q464.5 26.7375 464.5 24.315624ZM465.57812 24.315624Q465.57812 26.425 466.07812 27.128124Q466.57812 27.83125 467.29688 27.83125Q468.03125 27.83125 468.51562 27.128124Q469.01562 26.425 469.01562 24.315624Q469.01562 22.190624 468.51562 21.503124Q468.03125 20.8 467.28125 20.8Q466.5625 20.8 466.125 21.409374Q465.57812 22.190624 465.57812 24.315624ZM471.5 24.315624Q471.5 22.784374 471.8125 21.8625Q472.125 20.925 472.73438 20.425Q473.35938 19.925 474.29688 19.925Q474.98438 19.925 475.5 20.20625Q476.03125 20.4875 476.375 21.01875Q476.71875 21.534374 476.90625 22.284374Q477.09375 23.034374 477.09375 24.315624Q477.09375 25.83125 476.78125 26.753124Q476.48438 27.675 475.85938 28.190624Q475.25 28.690624 474.29688 28.690624Q473.0625 28.690624 472.34375 27.8Q471.5 26.7375 471.5 24.315624ZM472.57812 24.315624Q472.57812 26.425 473.07812 27.128124Q473.57812 27.83125 474.29688 27.83125Q475.03125 27.83125 475.51562 27.128124Q476.01562 26.425 476.01562 24.315624Q476.01562 22.190624 475.51562 21.503124Q475.03125 20.8 474.28125 20.8Q473.5625 20.8 473.125 21.409374Q472.57812 22.190624 472.57812 24.315624ZM478.5 24.315624Q478.5 22.784374 478.8125 21.8625Q479.125 20.925 479.73438 20.425Q480.35938 19.925 481.29688 19.925Q481.98438 19.925 482.5 20.20625Q483.03125 20.4875 483.375 21.01875Q483.71875 21.534374 483.90625 22.284374Q484.09375 23.034374 484.09375 24.315624Q484.09375 25.83125 483.78125 26.753124Q483.48438 27.675 482.85938 28.190624Q482.25 28.690624 481.29688 28.690624Q480.0625 28.690624 479.34375 27.8Q478.5 26.7375 478.5 24.315624ZM479.57812 24.315624Q479.57812 26.425 480.07812 27.128124Q480.57812 27.83125 481.29688 27.83125Q482.03125 27.83125 482.51562 27.128124Q483.01562 26.425 483.01562 24.315624Q483.01562 22.190624 482.51562 21.503124Q482.03125 20.8 481.28125 20.8Q480.5625 20.8 480.125 21.409374Q479.57812 22.190624 479.57812 24.315624ZM485.5 26.284374L486.5625 26.14375Q486.73438 27.034374 487.17188 27.440624Q487.60938 27.83125 488.23438 27.83125Q488.98438 27.83125 489.5 27.315624Q490.01562 26.8 490.01562 26.034374Q490.01562 25.315624 489.53125 24.846874Q489.0625 24.3625 488.32812 24.3625Q488.03125 24.3625 487.57812 24.4875L487.70312 23.55Q487.8125 23.565624 487.875 23.565624Q488.54688 23.565624 489.07812 23.221874Q489.625 22.8625 489.625 22.128124Q489.625 21.55 489.23438 21.175Q488.84375 20.784374 488.21875 20.784374Q487.60938 20.784374 487.1875 21.175Q486.78125 21.565624 486.67188 22.33125L485.60938 22.14375Q485.79688 21.096874 486.48438 20.51875Q487.17188 19.925 488.1875 19.925Q488.89062 19.925 489.48438 20.2375Q490.07812 20.534374 490.39062 21.05Q490.70312 21.565624 490.70312 22.159374Q490.70312 22.70625 490.40625 23.175Q490.10938 23.628124 489.53125 23.89375Q490.28125 24.065624 490.70312 24.628124Q491.125 25.175 491.125 26.01875Q491.125 27.14375 490.29688 27.925Q489.48438 28.70625 488.23438 28.70625Q487.10938 28.70625 486.35938 28.034374Q485.60938 27.346874 485.5 26.284374ZM492.5 26.284374L493.5625 26.14375Q493.73438 27.034374 494.17188 27.440624Q494.60938 27.83125 495.23438 27.83125Q495.98438 27.83125 496.5 27.315624Q497.01562 26.8 497.01562 26.034374Q497.01562 25.315624 496.53125 24.846874Q496.0625 24.3625 495.32812 24.3625Q495.03125 24.3625 494.57812 24.4875L494.70312 23.55Q494.8125 23.565624 494.875 23.565624Q495.54688 23.565624 496.07812 23.221874Q496.625 22.8625 496.625 22.128124Q496.625 21.55 496.23438 21.175Q495.84375 20.784374 495.21875 20.784374Q494.60938 20.784374 494.1875 21.175Q493.78125 21.565624 493.67188 22.33125L492.60938 22.14375Q492.79688 21.096874 493.48438 20.51875Q494.17188 19.925 495.1875 19.925Q495.89062 19.925 496.48438 20.2375Q497.07812 20.534374 497.39062 21.05Q497.70312 21.565624 497.70312 22.159374Q497.70312 22.70625 497.40625 23.175Q497.10938 23.628124 496.53125 23.89375Q497.28125 24.065624 497.70312 24.628124Q498.125 25.175 498.125 26.01875Q498.125 27.14375 497.29688 27.925Q496.48438 28.70625 495.23438 28.70625Q494.10938 28.70625 493.35938 28.034374Q492.60938 27.346874 492.5 26.284374ZM499.65625 26.565624L500.67188 26.471874Q500.79688 27.190624 501.15625 27.51875Q501.53125 27.83125 502.09375 27.83125Q502.57812 27.83125 502.9375 27.6125Q503.3125 27.378124 503.54688 27.01875Q503.78125 26.64375 503.9375 26.01875Q504.09375 25.378124 504.09375 24.721874Q504.09375 24.64375 504.09375 24.503124Q503.78125 25.003124 503.23438 25.33125Q502.6875 25.64375 502.04688 25.64375Q500.96875 25.64375 500.23438 24.878124Q499.5 24.096874 499.5 22.83125Q499.5 21.51875 500.26562 20.721874Q501.04688 19.925 502.20312 19.925Q503.03125 19.925 503.71875 20.378124Q504.42188 20.83125 504.78125 21.675Q505.14062 22.503124 505.14062 24.08125Q505.14062 25.721874 504.78125 26.70625Q504.4375 27.675 503.71875 28.190624Q503.01562 28.690624 502.07812 28.690624Q501.0625 28.690624 500.42188 28.14375Q499.78125 27.58125 499.65625 26.565624ZM503.96875 22.76875Q503.96875 21.8625 503.48438 21.33125Q503.01562 20.8 502.32812 20.8Q501.625 20.8 501.09375 21.378124Q500.57812 21.940624 500.57812 22.8625Q500.57812 23.675 501.07812 24.190624Q501.57812 24.70625 502.29688 24.70625Q503.03125 24.70625 503.5 24.190624Q503.96875 23.675 503.96875 22.76875ZM506.65625 26.565624L507.67188 26.471874Q507.79688 27.190624 508.15625 27.51875Q508.53125 27.83125 509.09375 27.83125Q509.57812 27.83125 509.9375 27.6125Q510.3125 27.378124 510.54688 27.01875Q510.78125 26.64375 510.9375 26.01875Q511.09375 25.378124 511.09375 24.721874Q511.09375 24.64375 511.09375 24.503124Q510.78125 25.003124 510.23438 25.33125Q509.6875 25.64375 509.04688 25.64375Q507.96875 25.64375 507.23438 24.878124Q506.5 24.096874 506.5 22.83125Q506.5 21.51875 507.26562 20.721874Q508.04688 19.925 509.20312 19.925Q510.03125 19.925 510.71875 20.378124Q511.42188 20.83125 511.78125 21.675Q512.1406 22.503124 512.1406 24.08125Q512.1406 25.721874 511.78125 26.70625Q511.4375 27.675 510.71875 28.190624Q510.01562 28.690624 509.07812 28.690624Q508.0625 28.690624 507.42188 28.14375Q506.78125 27.58125 506.65625 26.565624ZM510.96875 22.76875Q510.96875 21.8625 510.48438 21.33125Q510.01562 20.8 509.32812 20.8Q508.625 20.8 508.09375 21.378124Q507.57812 21.940624 507.57812 22.8625Q507.57812 23.675 508.07812 24.190624Q508.57812 24.70625 509.29688 24.70625Q510.03125 24.70625 510.5 24.190624Q510.96875 23.675 510.96875 22.76875Z" fill-rule="nonzero"/></svg>